<?xml version="1.0" encoding="utf-8" standalone="no"?>
<!DOCTYPE svg PUBLIC "-//W3C//DTD SVG 1.1//EN"
  "http://www.w3.org/Graphics/SVG/1.1/DTD/svg11.dtd">
<svg xmlns:xlink="http://www.w3.org/1999/xlink" width="424.8pt" height="352.8pt" viewBox="0 0 424.8 352.8" xmlns="http://www.w3.org/2000/svg" version="1.1">
 <metadata>
  <rdf:RDF xmlns:dc="http://purl.org/dc/elements/1.1/" xmlns:cc="http://creativecommons.org/ns#" xmlns:rdf="http://www.w3.org/1999/02/22-rdf-syntax-ns#">
   <cc:Work>
    <dc:type rdf:resource="http://purl.org/dc/dcmitype/StillImage"/>
    <dc:date>2025-02-11T18:54:54.761498</dc:date>
    <dc:format>image/svg+xml</dc:format>
    <dc:creator>
     <cc:Agent>
      <dc:title>Matplotlib v3.8.0, https://matplotlib.org/</dc:title>
     </cc:Agent>
    </dc:creator>
   </cc:Work>
  </rdf:RDF>
 </metadata>
 <defs>
  <style type="text/css">*{stroke-linejoin: round; stroke-linecap: butt}</style>
 </defs>
 <g id="figure_1">
  <g id="patch_1">
   <path d="M 0 352.8 
L 424.8 352.8 
L 424.8 0 
L 0 0 
z
" style="fill: #ffffff"/>
  </g>
  <g id="axes_1">
   <g id="patch_2">
    <path d="M 62.66 297.88 
L 409.350557 297.88 
L 409.350557 10.8 
L 62.66 10.8 
z
" style="fill: #ffffff"/>
   </g>
   <g id="matplotlib.axis_1">
    <g id="xtick_1">
     <g id="line2d_1">
      <defs>
       <path id="m9f501aa914" d="M 0 0 
L 0 3.5 
" style="stroke: #000000; stroke-width: 0.8"/>
      </defs>
      <g>
       <use xlink:href="#m9f501aa914" x="75.202608" y="297.88" style="stroke: #000000; stroke-width: 0.8"/>
      </g>
     </g>
     <g id="text_1">
      <!-- 0 -->
      <g transform="translate(71.066983 314.757969) scale(0.13 -0.13)">
       <defs>
        <path id="DejaVuSans-30" d="M 2034 4250 
Q 1547 4250 1301 3770 
Q 1056 3291 1056 2328 
Q 1056 1369 1301 889 
Q 1547 409 2034 409 
Q 2525 409 2770 889 
Q 3016 1369 3016 2328 
Q 3016 3291 2770 3770 
Q 2525 4250 2034 4250 
z
M 2034 4750 
Q 2819 4750 3233 4129 
Q 3647 3509 3647 2328 
Q 3647 1150 3233 529 
Q 2819 -91 2034 -91 
Q 1250 -91 836 529 
Q 422 1150 422 2328 
Q 422 3509 836 4129 
Q 1250 4750 2034 4750 
z
" transform="scale(0.015625)"/>
       </defs>
       <use xlink:href="#DejaVuSans-30"/>
      </g>
     </g>
    </g>
    <g id="xtick_2">
     <g id="line2d_2">
      <g>
       <use xlink:href="#m9f501aa914" x="139.523676" y="297.88" style="stroke: #000000; stroke-width: 0.8"/>
      </g>
     </g>
     <g id="text_2">
      <!-- 200 -->
      <g transform="translate(127.116801 314.757969) scale(0.13 -0.13)">
       <defs>
        <path id="DejaVuSans-32" d="M 1228 531 
L 3431 531 
L 3431 0 
L 469 0 
L 469 531 
Q 828 903 1448 1529 
Q 2069 2156 2228 2338 
Q 2531 2678 2651 2914 
Q 2772 3150 2772 3378 
Q 2772 3750 2511 3984 
Q 2250 4219 1831 4219 
Q 1534 4219 1204 4116 
Q 875 4013 500 3803 
L 500 4441 
Q 881 4594 1212 4672 
Q 1544 4750 1819 4750 
Q 2544 4750 2975 4387 
Q 3406 4025 3406 3419 
Q 3406 3131 3298 2873 
Q 3191 2616 2906 2266 
Q 2828 2175 2409 1742 
Q 1991 1309 1228 531 
z
" transform="scale(0.015625)"/>
       </defs>
       <use xlink:href="#DejaVuSans-32"/>
       <use xlink:href="#DejaVuSans-30" x="63.623047"/>
       <use xlink:href="#DejaVuSans-30" x="127.246094"/>
      </g>
     </g>
    </g>
    <g id="xtick_3">
     <g id="line2d_3">
      <g>
       <use xlink:href="#m9f501aa914" x="203.844744" y="297.88" style="stroke: #000000; stroke-width: 0.8"/>
      </g>
     </g>
     <g id="text_3">
      <!-- 400 -->
      <g transform="translate(191.437869 314.757969) scale(0.13 -0.13)">
       <defs>
        <path id="DejaVuSans-34" d="M 2419 4116 
L 825 1625 
L 2419 1625 
L 2419 4116 
z
M 2253 4666 
L 3047 4666 
L 3047 1625 
L 3713 1625 
L 3713 1100 
L 3047 1100 
L 3047 0 
L 2419 0 
L 2419 1100 
L 313 1100 
L 313 1709 
L 2253 4666 
z
" transform="scale(0.015625)"/>
       </defs>
       <use xlink:href="#DejaVuSans-34"/>
       <use xlink:href="#DejaVuSans-30" x="63.623047"/>
       <use xlink:href="#DejaVuSans-30" x="127.246094"/>
      </g>
     </g>
    </g>
    <g id="xtick_4">
     <g id="line2d_4">
      <g>
       <use xlink:href="#m9f501aa914" x="268.165812" y="297.88" style="stroke: #000000; stroke-width: 0.8"/>
      </g>
     </g>
     <g id="text_4">
      <!-- 600 -->
      <g transform="translate(255.758937 314.757969) scale(0.13 -0.13)">
       <defs>
        <path id="DejaVuSans-36" d="M 2113 2584 
Q 1688 2584 1439 2293 
Q 1191 2003 1191 1497 
Q 1191 994 1439 701 
Q 1688 409 2113 409 
Q 2538 409 2786 701 
Q 3034 994 3034 1497 
Q 3034 2003 2786 2293 
Q 2538 2584 2113 2584 
z
M 3366 4563 
L 3366 3988 
Q 3128 4100 2886 4159 
Q 2644 4219 2406 4219 
Q 1781 4219 1451 3797 
Q 1122 3375 1075 2522 
Q 1259 2794 1537 2939 
Q 1816 3084 2150 3084 
Q 2853 3084 3261 2657 
Q 3669 2231 3669 1497 
Q 3669 778 3244 343 
Q 2819 -91 2113 -91 
Q 1303 -91 875 529 
Q 447 1150 447 2328 
Q 447 3434 972 4092 
Q 1497 4750 2381 4750 
Q 2619 4750 2861 4703 
Q 3103 4656 3366 4563 
z
" transform="scale(0.015625)"/>
       </defs>
       <use xlink:href="#DejaVuSans-36"/>
       <use xlink:href="#DejaVuSans-30" x="63.623047"/>
       <use xlink:href="#DejaVuSans-30" x="127.246094"/>
      </g>
     </g>
    </g>
    <g id="xtick_5">
     <g id="line2d_5">
      <g>
       <use xlink:href="#m9f501aa914" x="332.48688" y="297.88" style="stroke: #000000; stroke-width: 0.8"/>
      </g>
     </g>
     <g id="text_5">
      <!-- 800 -->
      <g transform="translate(320.080005 314.757969) scale(0.13 -0.13)">
       <defs>
        <path id="DejaVuSans-38" d="M 2034 2216 
Q 1584 2216 1326 1975 
Q 1069 1734 1069 1313 
Q 1069 891 1326 650 
Q 1584 409 2034 409 
Q 2484 409 2743 651 
Q 3003 894 3003 1313 
Q 3003 1734 2745 1975 
Q 2488 2216 2034 2216 
z
M 1403 2484 
Q 997 2584 770 2862 
Q 544 3141 544 3541 
Q 544 4100 942 4425 
Q 1341 4750 2034 4750 
Q 2731 4750 3128 4425 
Q 3525 4100 3525 3541 
Q 3525 3141 3298 2862 
Q 3072 2584 2669 2484 
Q 3125 2378 3379 2068 
Q 3634 1759 3634 1313 
Q 3634 634 3220 271 
Q 2806 -91 2034 -91 
Q 1263 -91 848 271 
Q 434 634 434 1313 
Q 434 1759 690 2068 
Q 947 2378 1403 2484 
z
M 1172 3481 
Q 1172 3119 1398 2916 
Q 1625 2713 2034 2713 
Q 2441 2713 2670 2916 
Q 2900 3119 2900 3481 
Q 2900 3844 2670 4047 
Q 2441 4250 2034 4250 
Q 1625 4250 1398 4047 
Q 1172 3844 1172 3481 
z
" transform="scale(0.015625)"/>
       </defs>
       <use xlink:href="#DejaVuSans-38"/>
       <use xlink:href="#DejaVuSans-30" x="63.623047"/>
       <use xlink:href="#DejaVuSans-30" x="127.246094"/>
      </g>
     </g>
    </g>
    <g id="xtick_6">
     <g id="line2d_6">
      <g>
       <use xlink:href="#m9f501aa914" x="396.807948" y="297.88" style="stroke: #000000; stroke-width: 0.8"/>
      </g>
     </g>
     <g id="text_6">
      <!-- 1000 -->
      <g transform="translate(380.265448 314.757969) scale(0.13 -0.13)">
       <defs>
        <path id="DejaVuSans-31" d="M 794 531 
L 1825 531 
L 1825 4091 
L 703 3866 
L 703 4441 
L 1819 4666 
L 2450 4666 
L 2450 531 
L 3481 531 
L 3481 0 
L 794 0 
L 794 531 
z
" transform="scale(0.015625)"/>
       </defs>
       <use xlink:href="#DejaVuSans-31"/>
       <use xlink:href="#DejaVuSans-30" x="63.623047"/>
       <use xlink:href="#DejaVuSans-30" x="127.246094"/>
       <use xlink:href="#DejaVuSans-30" x="190.869141"/>
      </g>
     </g>
    </g>
    <g id="text_7">
     <!-- Number of Trees -->
     <g transform="translate(153.803716 336.658438) scale(0.2 -0.2)">
      <defs>
       <path id="DejaVuSans-4e" d="M 628 4666 
L 1478 4666 
L 3547 763 
L 3547 4666 
L 4159 4666 
L 4159 0 
L 3309 0 
L 1241 3903 
L 1241 0 
L 628 0 
L 628 4666 
z
" transform="scale(0.015625)"/>
       <path id="DejaVuSans-75" d="M 544 1381 
L 544 3500 
L 1119 3500 
L 1119 1403 
Q 1119 906 1312 657 
Q 1506 409 1894 409 
Q 2359 409 2629 706 
Q 2900 1003 2900 1516 
L 2900 3500 
L 3475 3500 
L 3475 0 
L 2900 0 
L 2900 538 
Q 2691 219 2414 64 
Q 2138 -91 1772 -91 
Q 1169 -91 856 284 
Q 544 659 544 1381 
z
M 1991 3584 
L 1991 3584 
z
" transform="scale(0.015625)"/>
       <path id="DejaVuSans-6d" d="M 3328 2828 
Q 3544 3216 3844 3400 
Q 4144 3584 4550 3584 
Q 5097 3584 5394 3201 
Q 5691 2819 5691 2113 
L 5691 0 
L 5113 0 
L 5113 2094 
Q 5113 2597 4934 2840 
Q 4756 3084 4391 3084 
Q 3944 3084 3684 2787 
Q 3425 2491 3425 1978 
L 3425 0 
L 2847 0 
L 2847 2094 
Q 2847 2600 2669 2842 
Q 2491 3084 2119 3084 
Q 1678 3084 1418 2786 
Q 1159 2488 1159 1978 
L 1159 0 
L 581 0 
L 581 3500 
L 1159 3500 
L 1159 2956 
Q 1356 3278 1631 3431 
Q 1906 3584 2284 3584 
Q 2666 3584 2933 3390 
Q 3200 3197 3328 2828 
z
" transform="scale(0.015625)"/>
       <path id="DejaVuSans-62" d="M 3116 1747 
Q 3116 2381 2855 2742 
Q 2594 3103 2138 3103 
Q 1681 3103 1420 2742 
Q 1159 2381 1159 1747 
Q 1159 1113 1420 752 
Q 1681 391 2138 391 
Q 2594 391 2855 752 
Q 3116 1113 3116 1747 
z
M 1159 2969 
Q 1341 3281 1617 3432 
Q 1894 3584 2278 3584 
Q 2916 3584 3314 3078 
Q 3713 2572 3713 1747 
Q 3713 922 3314 415 
Q 2916 -91 2278 -91 
Q 1894 -91 1617 61 
Q 1341 213 1159 525 
L 1159 0 
L 581 0 
L 581 4863 
L 1159 4863 
L 1159 2969 
z
" transform="scale(0.015625)"/>
       <path id="DejaVuSans-65" d="M 3597 1894 
L 3597 1613 
L 953 1613 
Q 991 1019 1311 708 
Q 1631 397 2203 397 
Q 2534 397 2845 478 
Q 3156 559 3463 722 
L 3463 178 
Q 3153 47 2828 -22 
Q 2503 -91 2169 -91 
Q 1331 -91 842 396 
Q 353 884 353 1716 
Q 353 2575 817 3079 
Q 1281 3584 2069 3584 
Q 2775 3584 3186 3129 
Q 3597 2675 3597 1894 
z
M 3022 2063 
Q 3016 2534 2758 2815 
Q 2500 3097 2075 3097 
Q 1594 3097 1305 2825 
Q 1016 2553 972 2059 
L 3022 2063 
z
" transform="scale(0.015625)"/>
       <path id="DejaVuSans-72" d="M 2631 2963 
Q 2534 3019 2420 3045 
Q 2306 3072 2169 3072 
Q 1681 3072 1420 2755 
Q 1159 2438 1159 1844 
L 1159 0 
L 581 0 
L 581 3500 
L 1159 3500 
L 1159 2956 
Q 1341 3275 1631 3429 
Q 1922 3584 2338 3584 
Q 2397 3584 2469 3576 
Q 2541 3569 2628 3553 
L 2631 2963 
z
" transform="scale(0.015625)"/>
       <path id="DejaVuSans-20" transform="scale(0.015625)"/>
       <path id="DejaVuSans-6f" d="M 1959 3097 
Q 1497 3097 1228 2736 
Q 959 2375 959 1747 
Q 959 1119 1226 758 
Q 1494 397 1959 397 
Q 2419 397 2687 759 
Q 2956 1122 2956 1747 
Q 2956 2369 2687 2733 
Q 2419 3097 1959 3097 
z
M 1959 3584 
Q 2709 3584 3137 3096 
Q 3566 2609 3566 1747 
Q 3566 888 3137 398 
Q 2709 -91 1959 -91 
Q 1206 -91 779 398 
Q 353 888 353 1747 
Q 353 2609 779 3096 
Q 1206 3584 1959 3584 
z
" transform="scale(0.015625)"/>
       <path id="DejaVuSans-66" d="M 2375 4863 
L 2375 4384 
L 1825 4384 
Q 1516 4384 1395 4259 
Q 1275 4134 1275 3809 
L 1275 3500 
L 2222 3500 
L 2222 3053 
L 1275 3053 
L 1275 0 
L 697 0 
L 697 3053 
L 147 3053 
L 147 3500 
L 697 3500 
L 697 3744 
Q 697 4328 969 4595 
Q 1241 4863 1831 4863 
L 2375 4863 
z
" transform="scale(0.015625)"/>
       <path id="DejaVuSans-54" d="M -19 4666 
L 3928 4666 
L 3928 4134 
L 2272 4134 
L 2272 0 
L 1638 0 
L 1638 4134 
L -19 4134 
L -19 4666 
z
" transform="scale(0.015625)"/>
       <path id="DejaVuSans-73" d="M 2834 3397 
L 2834 2853 
Q 2591 2978 2328 3040 
Q 2066 3103 1784 3103 
Q 1356 3103 1142 2972 
Q 928 2841 928 2578 
Q 928 2378 1081 2264 
Q 1234 2150 1697 2047 
L 1894 2003 
Q 2506 1872 2764 1633 
Q 3022 1394 3022 966 
Q 3022 478 2636 193 
Q 2250 -91 1575 -91 
Q 1294 -91 989 -36 
Q 684 19 347 128 
L 347 722 
Q 666 556 975 473 
Q 1284 391 1588 391 
Q 1994 391 2212 530 
Q 2431 669 2431 922 
Q 2431 1156 2273 1281 
Q 2116 1406 1581 1522 
L 1381 1569 
Q 847 1681 609 1914 
Q 372 2147 372 2553 
Q 372 3047 722 3315 
Q 1072 3584 1716 3584 
Q 2034 3584 2315 3537 
Q 2597 3491 2834 3397 
z
" transform="scale(0.015625)"/>
      </defs>
      <use xlink:href="#DejaVuSans-4e"/>
      <use xlink:href="#DejaVuSans-75" x="74.804688"/>
      <use xlink:href="#DejaVuSans-6d" x="138.183594"/>
      <use xlink:href="#DejaVuSans-62" x="235.595703"/>
      <use xlink:href="#DejaVuSans-65" x="299.072266"/>
      <use xlink:href="#DejaVuSans-72" x="360.595703"/>
      <use xlink:href="#DejaVuSans-20" x="401.708984"/>
      <use xlink:href="#DejaVuSans-6f" x="433.496094"/>
      <use xlink:href="#DejaVuSans-66" x="494.677734"/>
      <use xlink:href="#DejaVuSans-20" x="529.882812"/>
      <use xlink:href="#DejaVuSans-54" x="561.669922"/>
      <use xlink:href="#DejaVuSans-72" x="608.003906"/>
      <use xlink:href="#DejaVuSans-65" x="646.867188"/>
      <use xlink:href="#DejaVuSans-65" x="708.390625"/>
      <use xlink:href="#DejaVuSans-73" x="769.914062"/>
     </g>
    </g>
   </g>
   <g id="matplotlib.axis_2">
    <g id="ytick_1">
     <g id="line2d_7">
      <defs>
       <path id="me561bf386f" d="M 0 0 
L -3.5 0 
" style="stroke: #000000; stroke-width: 0.8"/>
      </defs>
      <g>
       <use xlink:href="#me561bf386f" x="62.66" y="295.68855" style="stroke: #000000; stroke-width: 0.8"/>
      </g>
     </g>
     <g id="text_8">
      <!-- 0.0 -->
      <g transform="translate(34.985938 300.627534) scale(0.13 -0.13)">
       <defs>
        <path id="DejaVuSans-2e" d="M 684 794 
L 1344 794 
L 1344 0 
L 684 0 
L 684 794 
z
" transform="scale(0.015625)"/>
       </defs>
       <use xlink:href="#DejaVuSans-30"/>
       <use xlink:href="#DejaVuSans-2e" x="63.623047"/>
       <use xlink:href="#DejaVuSans-30" x="95.410156"/>
      </g>
     </g>
    </g>
    <g id="ytick_2">
     <g id="line2d_8">
      <g>
       <use xlink:href="#me561bf386f" x="62.66" y="251.859542" style="stroke: #000000; stroke-width: 0.8"/>
      </g>
     </g>
     <g id="text_9">
      <!-- 0.2 -->
      <g transform="translate(34.985938 256.798526) scale(0.13 -0.13)">
       <use xlink:href="#DejaVuSans-30"/>
       <use xlink:href="#DejaVuSans-2e" x="63.623047"/>
       <use xlink:href="#DejaVuSans-32" x="95.410156"/>
      </g>
     </g>
    </g>
    <g id="ytick_3">
     <g id="line2d_9">
      <g>
       <use xlink:href="#me561bf386f" x="62.66" y="208.030534" style="stroke: #000000; stroke-width: 0.8"/>
      </g>
     </g>
     <g id="text_10">
      <!-- 0.4 -->
      <g transform="translate(34.985938 212.969519) scale(0.13 -0.13)">
       <use xlink:href="#DejaVuSans-30"/>
       <use xlink:href="#DejaVuSans-2e" x="63.623047"/>
       <use xlink:href="#DejaVuSans-34" x="95.410156"/>
      </g>
     </g>
    </g>
    <g id="ytick_4">
     <g id="line2d_10">
      <g>
       <use xlink:href="#me561bf386f" x="62.66" y="164.201527" style="stroke: #000000; stroke-width: 0.8"/>
      </g>
     </g>
     <g id="text_11">
      <!-- 0.6 -->
      <g transform="translate(34.985938 169.140511) scale(0.13 -0.13)">
       <use xlink:href="#DejaVuSans-30"/>
       <use xlink:href="#DejaVuSans-2e" x="63.623047"/>
       <use xlink:href="#DejaVuSans-36" x="95.410156"/>
      </g>
     </g>
    </g>
    <g id="ytick_5">
     <g id="line2d_11">
      <g>
       <use xlink:href="#me561bf386f" x="62.66" y="120.372519" style="stroke: #000000; stroke-width: 0.8"/>
      </g>
     </g>
     <g id="text_12">
      <!-- 0.8 -->
      <g transform="translate(34.985938 125.311503) scale(0.13 -0.13)">
       <use xlink:href="#DejaVuSans-30"/>
       <use xlink:href="#DejaVuSans-2e" x="63.623047"/>
       <use xlink:href="#DejaVuSans-38" x="95.410156"/>
      </g>
     </g>
    </g>
    <g id="ytick_6">
     <g id="line2d_12">
      <g>
       <use xlink:href="#me561bf386f" x="62.66" y="76.543511" style="stroke: #000000; stroke-width: 0.8"/>
      </g>
     </g>
     <g id="text_13">
      <!-- 1.0 -->
      <g transform="translate(34.985938 81.482496) scale(0.13 -0.13)">
       <use xlink:href="#DejaVuSans-31"/>
       <use xlink:href="#DejaVuSans-2e" x="63.623047"/>
       <use xlink:href="#DejaVuSans-30" x="95.410156"/>
      </g>
     </g>
    </g>
    <g id="ytick_7">
     <g id="line2d_13">
      <g>
       <use xlink:href="#me561bf386f" x="62.66" y="32.714504" style="stroke: #000000; stroke-width: 0.8"/>
      </g>
     </g>
     <g id="text_14">
      <!-- 1.2 -->
      <g transform="translate(34.985938 37.653488) scale(0.13 -0.13)">
       <use xlink:href="#DejaVuSans-31"/>
       <use xlink:href="#DejaVuSans-2e" x="63.623047"/>
       <use xlink:href="#DejaVuSans-32" x="95.410156"/>
      </g>
     </g>
    </g>
    <g id="text_15">
     <!-- Dispersal Estimate -->
     <g transform="translate(26.826563 248.1025) rotate(-90) scale(0.2 -0.2)">
      <defs>
       <path id="DejaVuSans-44" d="M 1259 4147 
L 1259 519 
L 2022 519 
Q 2988 519 3436 956 
Q 3884 1394 3884 2338 
Q 3884 3275 3436 3711 
Q 2988 4147 2022 4147 
L 1259 4147 
z
M 628 4666 
L 1925 4666 
Q 3281 4666 3915 4102 
Q 4550 3538 4550 2338 
Q 4550 1131 3912 565 
Q 3275 0 1925 0 
L 628 0 
L 628 4666 
z
" transform="scale(0.015625)"/>
       <path id="DejaVuSans-69" d="M 603 3500 
L 1178 3500 
L 1178 0 
L 603 0 
L 603 3500 
z
M 603 4863 
L 1178 4863 
L 1178 4134 
L 603 4134 
L 603 4863 
z
" transform="scale(0.015625)"/>
       <path id="DejaVuSans-70" d="M 1159 525 
L 1159 -1331 
L 581 -1331 
L 581 3500 
L 1159 3500 
L 1159 2969 
Q 1341 3281 1617 3432 
Q 1894 3584 2278 3584 
Q 2916 3584 3314 3078 
Q 3713 2572 3713 1747 
Q 3713 922 3314 415 
Q 2916 -91 2278 -91 
Q 1894 -91 1617 61 
Q 1341 213 1159 525 
z
M 3116 1747 
Q 3116 2381 2855 2742 
Q 2594 3103 2138 3103 
Q 1681 3103 1420 2742 
Q 1159 2381 1159 1747 
Q 1159 1113 1420 752 
Q 1681 391 2138 391 
Q 2594 391 2855 752 
Q 3116 1113 3116 1747 
z
" transform="scale(0.015625)"/>
       <path id="DejaVuSans-61" d="M 2194 1759 
Q 1497 1759 1228 1600 
Q 959 1441 959 1056 
Q 959 750 1161 570 
Q 1363 391 1709 391 
Q 2188 391 2477 730 
Q 2766 1069 2766 1631 
L 2766 1759 
L 2194 1759 
z
M 3341 1997 
L 3341 0 
L 2766 0 
L 2766 531 
Q 2569 213 2275 61 
Q 1981 -91 1556 -91 
Q 1019 -91 701 211 
Q 384 513 384 1019 
Q 384 1609 779 1909 
Q 1175 2209 1959 2209 
L 2766 2209 
L 2766 2266 
Q 2766 2663 2505 2880 
Q 2244 3097 1772 3097 
Q 1472 3097 1187 3025 
Q 903 2953 641 2809 
L 641 3341 
Q 956 3463 1253 3523 
Q 1550 3584 1831 3584 
Q 2591 3584 2966 3190 
Q 3341 2797 3341 1997 
z
" transform="scale(0.015625)"/>
       <path id="DejaVuSans-6c" d="M 603 4863 
L 1178 4863 
L 1178 0 
L 603 0 
L 603 4863 
z
" transform="scale(0.015625)"/>
       <path id="DejaVuSans-45" d="M 628 4666 
L 3578 4666 
L 3578 4134 
L 1259 4134 
L 1259 2753 
L 3481 2753 
L 3481 2222 
L 1259 2222 
L 1259 531 
L 3634 531 
L 3634 0 
L 628 0 
L 628 4666 
z
" transform="scale(0.015625)"/>
       <path id="DejaVuSans-74" d="M 1172 4494 
L 1172 3500 
L 2356 3500 
L 2356 3053 
L 1172 3053 
L 1172 1153 
Q 1172 725 1289 603 
Q 1406 481 1766 481 
L 2356 481 
L 2356 0 
L 1766 0 
Q 1100 0 847 248 
Q 594 497 594 1153 
L 594 3053 
L 172 3053 
L 172 3500 
L 594 3500 
L 594 4494 
L 1172 4494 
z
" transform="scale(0.015625)"/>
      </defs>
      <use xlink:href="#DejaVuSans-44"/>
      <use xlink:href="#DejaVuSans-69" x="77.001953"/>
      <use xlink:href="#DejaVuSans-73" x="104.785156"/>
      <use xlink:href="#DejaVuSans-70" x="156.884766"/>
      <use xlink:href="#DejaVuSans-65" x="220.361328"/>
      <use xlink:href="#DejaVuSans-72" x="281.884766"/>
      <use xlink:href="#DejaVuSans-73" x="322.998047"/>
      <use xlink:href="#DejaVuSans-61" x="375.097656"/>
      <use xlink:href="#DejaVuSans-6c" x="436.376953"/>
      <use xlink:href="#DejaVuSans-20" x="464.160156"/>
      <use xlink:href="#DejaVuSans-45" x="495.947266"/>
      <use xlink:href="#DejaVuSans-73" x="559.130859"/>
      <use xlink:href="#DejaVuSans-74" x="611.230469"/>
      <use xlink:href="#DejaVuSans-69" x="650.439453"/>
      <use xlink:href="#DejaVuSans-6d" x="678.222656"/>
      <use xlink:href="#DejaVuSans-61" x="775.634766"/>
      <use xlink:href="#DejaVuSans-74" x="836.914062"/>
      <use xlink:href="#DejaVuSans-65" x="876.123047"/>
     </g>
    </g>
   </g>
   <g id="line2d_14">
    <path d="M 78.418662 234.288041 
L 81.634715 233.997585 
L 84.850768 232.888174 
L 88.066822 232.886022 
L 91.282875 230.892709 
L 94.498929 230.355234 
L 97.714982 230.224304 
L 100.931035 227.70613 
L 104.147089 227.657156 
L 107.363142 226.883428 
L 110.579196 223.791076 
L 113.795249 221.571592 
L 117.011302 220.990299 
L 120.227356 220.748127 
L 123.443409 218.800727 
L 126.659463 217.479668 
L 129.875516 217.467077 
L 133.091569 213.165827 
L 136.307623 211.850444 
L 139.523676 211.310654 
L 142.73973 209.481722 
L 145.955783 209.409497 
L 149.171836 208.634824 
L 152.38789 206.913461 
L 155.603943 206.35996 
L 158.819997 204.115458 
L 162.03605 202.655731 
L 165.252103 199.749205 
L 168.468157 189.339943 
L 171.68421 188.410548 
L 174.900264 186.166759 
L 178.116317 185.029006 
L 181.33237 183.812214 
L 184.548424 182.922986 
L 187.764477 181.972542 
L 190.980531 181.299871 
L 194.196584 178.542708 
L 197.412637 177.676928 
L 200.628691 175.350709 
L 203.844744 174.675803 
L 207.060798 169.336929 
L 210.276851 168.35207 
L 213.492904 164.580097 
L 216.708958 163.895422 
L 219.925011 161.973507 
L 223.141065 160.078777 
L 226.357118 152.878675 
L 229.573171 145.479276 
L 232.789225 142.249987 
L 236.005278 139.920643 
L 239.221332 136.781641 
L 242.437385 134.130574 
L 245.653438 132.757677 
L 248.869492 131.815624 
L 252.085545 131.398584 
L 255.301599 129.677136 
L 258.517652 129.366906 
L 261.733705 127.239791 
L 264.949759 125.83001 
L 268.165812 123.469278 
L 271.381866 122.520152 
L 274.597919 122.13899 
L 277.813973 120.389528 
L 281.030026 119.276891 
L 284.246079 115.942183 
L 287.462133 115.283821 
L 290.678186 114.372972 
L 293.89424 108.749962 
L 297.110293 107.444092 
L 300.326346 103.352362 
L 303.5424 102.518928 
L 306.758453 98.700918 
L 309.974507 94.144407 
L 313.19056 90.101533 
L 316.406613 89.516012 
L 319.622667 81.185321 
L 322.83872 80.14668 
L 326.054774 76.818885 
L 329.270827 74.701299 
L 332.48688 73.664908 
L 335.702934 69.519681 
L 338.918987 65.705226 
L 342.135041 65.645585 
L 345.351094 63.835594 
L 348.567147 62.414132 
L 351.783201 61.088064 
L 354.999254 59.3172 
L 358.215308 50.937096 
L 361.431361 48.68971 
L 364.647414 46.485326 
L 367.863468 43.493082 
L 371.079521 41.157849 
L 374.295575 38.810888 
L 377.511628 32.301687 
L 380.727681 31.947782 
L 383.943735 30.55629 
L 387.159788 30.452021 
L 390.375842 29.749806 
L 393.591895 27.782848 
" clip-path="url(#p2da77aa96e)" style="fill: none; stroke: #ff0000; stroke-width: 1.5; stroke-linecap: square"/>
   </g>
   <g id="line2d_15">
    <path d="M 78.418662 246.185642 
L 81.634715 245.317081 
L 84.850768 245.116543 
L 88.066822 243.990708 
L 91.282875 243.205351 
L 94.498929 241.61629 
L 97.714982 238.682838 
L 100.931035 236.799653 
L 104.147089 236.198751 
L 107.363142 231.239442 
L 110.579196 230.941343 
L 113.795249 228.387346 
L 117.011302 227.937423 
L 120.227356 225.094055 
L 123.443409 222.649195 
L 126.659463 218.35049 
L 129.875516 216.244361 
L 133.091569 213.671732 
L 136.307623 210.311773 
L 139.523676 210.300724 
L 142.73973 209.763947 
L 145.955783 208.919683 
L 149.171836 206.103567 
L 152.38789 204.459304 
L 155.603943 200.466156 
L 158.819997 200.042784 
L 162.03605 199.825782 
L 165.252103 199.124077 
L 168.468157 197.181663 
L 171.68421 193.001349 
L 174.900264 192.638754 
L 178.116317 190.108529 
L 181.33237 188.725896 
L 184.548424 186.778745 
L 187.764477 182.417872 
L 190.980531 180.249957 
L 194.196584 178.386916 
L 197.412637 177.90724 
L 200.628691 176.701176 
L 203.844744 175.686806 
L 207.060798 173.392536 
L 210.276851 170.40984 
L 213.492904 167.247362 
L 216.708958 161.749945 
L 219.925011 157.600153 
L 223.141065 155.915222 
L 226.357118 153.637552 
L 229.573171 152.563479 
L 232.789225 151.603865 
L 236.005278 147.175749 
L 239.221332 141.949769 
L 242.437385 135.883345 
L 245.653438 132.493724 
L 248.869492 132.025841 
L 252.085545 129.653697 
L 255.301599 129.23642 
L 258.517652 126.64584 
L 261.733705 125.562073 
L 264.949759 125.453127 
L 268.165812 123.808732 
L 271.381866 122.684748 
L 274.597919 122.090487 
L 277.813973 117.25826 
L 281.030026 115.254093 
L 284.246079 112.014728 
L 287.462133 111.434654 
L 290.678186 110.000405 
L 293.89424 109.029809 
L 297.110293 105.354081 
L 300.326346 104.468309 
L 303.5424 102.949112 
L 306.758453 101.605337 
L 309.974507 99.930704 
L 313.19056 95.448448 
L 316.406613 93.410385 
L 319.622667 92.712791 
L 322.83872 87.364404 
L 326.054774 86.165429 
L 329.270827 84.376901 
L 332.48688 84.306994 
L 335.702934 81.121192 
L 338.918987 78.677248 
L 342.135041 76.971609 
L 345.351094 75.374191 
L 348.567147 74.19325 
L 351.783201 70.916519 
L 354.999254 70.848531 
L 358.215308 69.039507 
L 361.431361 68.223969 
L 364.647414 65.813639 
L 367.863468 65.228325 
L 371.079521 64.610186 
L 374.295575 61.561306 
L 377.511628 59.494084 
L 380.727681 58.131737 
L 383.943735 57.003203 
L 387.159788 44.540737 
L 390.375842 42.916324 
L 393.591895 41.681198 
" clip-path="url(#p2da77aa96e)" style="fill: none; stroke: #ff0000; stroke-width: 1.5; stroke-linecap: square"/>
   </g>
   <g id="line2d_16">
    <path d="M 78.418662 238.492084 
L 81.634715 233.040014 
L 84.850768 232.248809 
L 88.066822 230.698328 
L 91.282875 230.179248 
L 94.498929 228.872005 
L 97.714982 228.755451 
L 100.931035 227.35412 
L 104.147089 220.639431 
L 107.363142 219.150011 
L 110.579196 217.528348 
L 113.795249 214.268486 
L 117.011302 209.932 
L 120.227356 209.100893 
L 123.443409 205.723321 
L 126.659463 203.652884 
L 129.875516 200.63673 
L 133.091569 199.872645 
L 136.307623 198.632961 
L 139.523676 197.637753 
L 142.73973 197.296474 
L 145.955783 196.177854 
L 149.171836 196.145582 
L 152.38789 196.008928 
L 155.603943 192.134653 
L 158.819997 189.467475 
L 162.03605 189.210715 
L 165.252103 188.136299 
L 168.468157 187.617426 
L 171.68421 186.580811 
L 174.900264 184.257159 
L 178.116317 183.834687 
L 181.33237 182.160612 
L 184.548424 181.623195 
L 187.764477 180.351431 
L 190.980531 177.735307 
L 194.196584 176.378157 
L 197.412637 176.077159 
L 200.628691 175.552708 
L 203.844744 175.280699 
L 207.060798 175.205524 
L 210.276851 172.139616 
L 213.492904 170.230027 
L 216.708958 162.928073 
L 219.925011 161.940346 
L 223.141065 159.160751 
L 226.357118 158.163803 
L 229.573171 154.753018 
L 232.789225 154.377662 
L 236.005278 153.172333 
L 239.221332 147.086751 
L 242.437385 145.775475 
L 245.653438 145.418482 
L 248.869492 144.044923 
L 252.085545 137.285203 
L 255.301599 135.725987 
L 258.517652 132.645323 
L 261.733705 125.701945 
L 264.949759 124.415722 
L 268.165812 122.769206 
L 271.381866 116.192112 
L 274.597919 112.989193 
L 277.813973 112.809436 
L 281.030026 111.85501 
L 284.246079 107.330918 
L 287.462133 105.355243 
L 290.678186 103.009481 
L 293.89424 94.511387 
L 297.110293 92.848491 
L 300.326346 92.556799 
L 303.5424 91.735099 
L 306.758453 89.237447 
L 309.974507 88.172649 
L 313.19056 85.463896 
L 316.406613 83.17721 
L 319.622667 77.831203 
L 322.83872 77.11047 
L 326.054774 76.231059 
L 329.270827 76.111704 
L 332.48688 70.781102 
L 335.702934 65.73277 
L 338.918987 61.497427 
L 342.135041 57.210069 
L 345.351094 53.711792 
L 348.567147 49.371169 
L 351.783201 48.452687 
L 354.999254 43.77692 
L 358.215308 41.19318 
L 361.431361 35.11975 
L 364.647414 34.949472 
L 367.863468 33.789608 
L 371.079521 31.498453 
L 374.295575 29.83932 
L 377.511628 28.617957 
L 380.727681 25.723095 
L 383.943735 24.343594 
L 387.159788 21.854859 
L 390.375842 20.160799 
L 393.591895 19.716646 
" clip-path="url(#p2da77aa96e)" style="fill: none; stroke: #ff0000; stroke-width: 1.5; stroke-linecap: square"/>
   </g>
   <g id="line2d_17">
    <path d="M 78.418662 246.208757 
L 81.634715 242.191126 
L 84.850768 239.324455 
L 88.066822 239.216408 
L 91.282875 238.830155 
L 94.498929 237.402201 
L 97.714982 236.254795 
L 100.931035 235.211795 
L 104.147089 233.012493 
L 107.363142 232.192821 
L 110.579196 228.500012 
L 113.795249 226.129374 
L 117.011302 224.634041 
L 120.227356 222.754685 
L 123.443409 221.304148 
L 126.659463 220.11577 
L 129.875516 211.402128 
L 133.091569 209.356242 
L 136.307623 207.982948 
L 139.523676 204.779467 
L 142.73973 203.529932 
L 145.955783 202.825993 
L 149.171836 202.48767 
L 152.38789 201.547645 
L 155.603943 199.499355 
L 158.819997 198.277987 
L 162.03605 196.563931 
L 165.252103 195.245559 
L 168.468157 194.65555 
L 171.68421 192.769376 
L 174.900264 192.042882 
L 178.116317 189.102739 
L 181.33237 188.646679 
L 184.548424 187.959713 
L 187.764477 185.445206 
L 190.980531 183.02546 
L 194.196584 181.355576 
L 197.412637 179.018186 
L 200.628691 177.175762 
L 203.844744 176.825335 
L 207.060798 166.388358 
L 210.276851 163.955461 
L 213.492904 163.570654 
L 216.708958 162.692302 
L 219.925011 162.379948 
L 223.141065 161.310307 
L 226.357118 159.227841 
L 229.573171 156.560686 
L 232.789225 155.143079 
L 236.005278 154.081157 
L 239.221332 153.06415 
L 242.437385 150.587636 
L 245.653438 148.832603 
L 248.869492 148.620387 
L 252.085545 148.055906 
L 255.301599 146.624231 
L 258.517652 143.764027 
L 261.733705 143.117555 
L 264.949759 142.889435 
L 268.165812 140.091802 
L 271.381866 138.970544 
L 274.597919 137.035998 
L 277.813973 136.062201 
L 281.030026 130.538474 
L 284.246079 130.023643 
L 287.462133 128.110624 
L 290.678186 127.248507 
L 293.89424 125.736621 
L 297.110293 122.687733 
L 300.326346 122.41827 
L 303.5424 120.165938 
L 306.758453 119.711139 
L 309.974507 119.227053 
L 313.19056 118.87134 
L 316.406613 114.364698 
L 319.622667 112.54747 
L 322.83872 108.911439 
L 326.054774 107.78563 
L 329.270827 107.352423 
L 332.48688 104.211557 
L 335.702934 103.00985 
L 338.918987 101.905096 
L 342.135041 101.63086 
L 345.351094 101.344888 
L 348.567147 99.411779 
L 351.783201 98.504081 
L 354.999254 92.390085 
L 358.215308 92.26932 
L 361.431361 91.511164 
L 364.647414 89.674733 
L 367.863468 86.642303 
L 371.079521 86.020514 
L 374.295575 82.251934 
L 377.511628 80.161178 
L 380.727681 74.562951 
L 383.943735 71.475759 
L 387.159788 68.727935 
L 390.375842 68.477301 
L 393.591895 66.997098 
" clip-path="url(#p2da77aa96e)" style="fill: none; stroke: #ff0000; stroke-width: 1.5; stroke-linecap: square"/>
   </g>
   <g id="line2d_18">
    <path d="M 78.418662 253.133619 
L 81.634715 252.046994 
L 84.850768 245.51203 
L 88.066822 245.21131 
L 91.282875 243.333102 
L 94.498929 240.241356 
L 97.714982 239.177359 
L 100.931035 231.452042 
L 104.147089 228.76814 
L 107.363142 228.726814 
L 110.579196 224.169907 
L 113.795249 223.68466 
L 117.011302 223.417438 
L 120.227356 221.706826 
L 123.443409 220.429188 
L 126.659463 218.796795 
L 129.875516 215.466497 
L 133.091569 212.669793 
L 136.307623 211.803249 
L 139.523676 211.783031 
L 142.73973 209.991943 
L 145.955783 209.840995 
L 149.171836 205.991633 
L 152.38789 205.129373 
L 155.603943 200.529242 
L 158.819997 199.486128 
L 162.03605 195.834394 
L 165.252103 193.997972 
L 168.468157 193.605405 
L 171.68421 192.617112 
L 174.900264 191.147326 
L 178.116317 189.944169 
L 181.33237 187.340455 
L 184.548424 183.514234 
L 187.764477 182.385326 
L 190.980531 175.581718 
L 194.196584 174.857649 
L 197.412637 166.836681 
L 200.628691 161.956347 
L 203.844744 161.031103 
L 207.060798 160.761248 
L 210.276851 154.107011 
L 213.492904 153.817837 
L 216.708958 152.412592 
L 219.925011 150.771867 
L 223.141065 149.64221 
L 226.357118 147.689749 
L 229.573171 139.027797 
L 232.789225 138.6903 
L 236.005278 132.564817 
L 239.221332 132.103871 
L 242.437385 127.235329 
L 245.653438 125.777184 
L 248.869492 125.479829 
L 252.085545 121.319007 
L 255.301599 119.137571 
L 258.517652 118.537225 
L 261.733705 117.917997 
L 264.949759 115.679433 
L 268.165812 115.221838 
L 271.381866 114.926263 
L 274.597919 114.416897 
L 277.813973 113.75997 
L 281.030026 109.788075 
L 284.246079 107.045568 
L 287.462133 101.772708 
L 290.678186 99.866363 
L 293.89424 98.216555 
L 297.110293 97.18445 
L 300.326346 95.507625 
L 303.5424 92.628048 
L 306.758453 91.149669 
L 309.974507 89.360602 
L 313.19056 89.139467 
L 316.406613 86.672065 
L 319.622667 84.25896 
L 322.83872 82.474218 
L 326.054774 76.924431 
L 329.270827 74.686467 
L 332.48688 71.357258 
L 335.702934 71.168489 
L 338.918987 69.916358 
L 342.135041 69.859565 
L 345.351094 65.36222 
L 348.567147 64.879249 
L 351.783201 64.360952 
L 354.999254 61.208043 
L 358.215308 56.748582 
L 361.431361 54.125074 
L 364.647414 53.128709 
L 367.863468 51.768507 
L 371.079521 47.013186 
L 374.295575 45.190388 
L 377.511628 43.626966 
L 380.727681 40.494461 
L 383.943735 38.811425 
L 387.159788 36.929121 
L 390.375842 36.265377 
L 393.591895 32.479156 
" clip-path="url(#p2da77aa96e)" style="fill: none; stroke: #ff0000; stroke-width: 1.5; stroke-linecap: square"/>
   </g>
   <g id="line2d_19">
    <path d="M 78.418662 251.225572 
L 81.634715 251.059187 
L 84.850768 250.85875 
L 88.066822 247.061931 
L 91.282875 246.674258 
L 94.498929 246.313445 
L 97.714982 244.867775 
L 100.931035 244.796546 
L 104.147089 244.170994 
L 107.363142 243.228757 
L 110.579196 241.363917 
L 113.795249 239.614529 
L 117.011302 229.277087 
L 120.227356 226.994181 
L 123.443409 224.911896 
L 126.659463 222.953241 
L 129.875516 220.586786 
L 133.091569 217.726351 
L 136.307623 217.086233 
L 139.523676 216.264597 
L 142.73973 214.814212 
L 145.955783 214.723143 
L 149.171836 214.715746 
L 152.38789 213.931118 
L 155.603943 213.525508 
L 158.819997 212.874948 
L 162.03605 211.171742 
L 165.252103 208.028705 
L 168.468157 206.177983 
L 171.68421 206.067587 
L 174.900264 205.79706 
L 178.116317 205.548579 
L 181.33237 204.998219 
L 184.548424 204.738858 
L 187.764477 203.938975 
L 190.980531 203.775283 
L 194.196584 200.807683 
L 197.412637 199.678164 
L 200.628691 198.94918 
L 203.844744 193.908484 
L 207.060798 192.203908 
L 210.276851 191.906779 
L 213.492904 191.698158 
L 216.708958 189.185859 
L 219.925011 189.172052 
L 223.141065 188.374058 
L 226.357118 185.554593 
L 229.573171 182.191015 
L 232.789225 181.977926 
L 236.005278 179.80217 
L 239.221332 178.46102 
L 242.437385 177.099938 
L 245.653438 176.325121 
L 248.869492 174.365916 
L 252.085545 174.118923 
L 255.301599 171.93768 
L 258.517652 168.291123 
L 261.733705 168.210424 
L 264.949759 168.040197 
L 268.165812 166.97985 
L 271.381866 166.11534 
L 274.597919 165.452393 
L 277.813973 164.883362 
L 281.030026 161.603333 
L 284.246079 160.656228 
L 287.462133 159.877728 
L 290.678186 158.612829 
L 293.89424 158.410831 
L 297.110293 158.232226 
L 300.326346 157.058979 
L 303.5424 151.641987 
L 306.758453 150.081014 
L 309.974507 149.456702 
L 313.19056 148.942804 
L 316.406613 147.249436 
L 319.622667 146.480746 
L 322.83872 146.019347 
L 326.054774 145.790023 
L 329.270827 139.96204 
L 332.48688 138.790137 
L 335.702934 135.517172 
L 338.918987 135.078641 
L 342.135041 132.666917 
L 345.351094 128.369925 
L 348.567147 127.955441 
L 351.783201 120.745946 
L 354.999254 120.684058 
L 358.215308 117.1897 
L 361.431361 115.957305 
L 364.647414 115.757803 
L 367.863468 113.614721 
L 371.079521 111.5181 
L 374.295575 110.262854 
L 377.511628 109.045331 
L 380.727681 106.846612 
L 383.943735 98.497189 
L 387.159788 97.014736 
L 390.375842 95.612414 
L 393.591895 94.701746 
" clip-path="url(#p2da77aa96e)" style="fill: none; stroke: #0000ff; stroke-width: 1.5; stroke-linecap: square"/>
   </g>
   <g id="line2d_20">
    <path d="M 78.418662 253.012377 
L 81.634715 252.003866 
L 84.850768 251.843393 
L 88.066822 249.377334 
L 91.282875 249.000303 
L 94.498929 248.252304 
L 97.714982 245.967505 
L 100.931035 245.958805 
L 104.147089 243.90169 
L 107.363142 243.542749 
L 110.579196 243.077871 
L 113.795249 242.415908 
L 117.011302 242.104661 
L 120.227356 241.123896 
L 123.443409 236.062122 
L 126.659463 235.626199 
L 129.875516 234.968307 
L 133.091569 234.764091 
L 136.307623 234.16307 
L 139.523676 230.034713 
L 142.73973 229.555647 
L 145.955783 224.729155 
L 149.171836 223.60478 
L 152.38789 223.092205 
L 155.603943 223.043853 
L 158.819997 222.820609 
L 162.03605 216.026619 
L 165.252103 214.725425 
L 168.468157 213.199656 
L 171.68421 211.856055 
L 174.900264 211.634591 
L 178.116317 211.123367 
L 181.33237 208.988711 
L 184.548424 206.361321 
L 187.764477 205.39372 
L 190.980531 204.597309 
L 194.196584 203.515515 
L 197.412637 203.425213 
L 200.628691 200.90214 
L 203.844744 200.620275 
L 207.060798 200.143524 
L 210.276851 199.602318 
L 213.492904 198.507541 
L 216.708958 198.33912 
L 219.925011 196.244326 
L 223.141065 196.226482 
L 226.357118 195.576097 
L 229.573171 194.782228 
L 232.789225 194.675276 
L 236.005278 194.60246 
L 239.221332 193.50642 
L 242.437385 192.522188 
L 245.653438 190.838287 
L 248.869492 190.735723 
L 252.085545 189.748074 
L 255.301599 189.134735 
L 258.517652 183.503627 
L 261.733705 182.671891 
L 264.949759 178.080569 
L 268.165812 176.868535 
L 271.381866 174.838354 
L 274.597919 174.027931 
L 277.813973 172.164327 
L 281.030026 169.389244 
L 284.246079 169.355946 
L 287.462133 165.571015 
L 290.678186 165.030507 
L 293.89424 164.982689 
L 297.110293 160.575294 
L 300.326346 160.328453 
L 303.5424 159.779267 
L 306.758453 159.537689 
L 309.974507 159.082855 
L 313.19056 157.673824 
L 316.406613 154.782048 
L 319.622667 151.602185 
L 322.83872 149.415254 
L 326.054774 145.4728 
L 329.270827 141.961096 
L 332.48688 141.719482 
L 335.702934 140.507412 
L 338.918987 135.757616 
L 342.135041 134.31844 
L 345.351094 132.931302 
L 348.567147 127.470722 
L 351.783201 127.155581 
L 354.999254 126.30763 
L 358.215308 124.363713 
L 361.431361 123.353697 
L 364.647414 115.342092 
L 367.863468 111.418309 
L 371.079521 110.986085 
L 374.295575 110.907421 
L 377.511628 110.1296 
L 380.727681 108.626692 
L 383.943735 103.562251 
L 387.159788 101.661153 
L 390.375842 101.464626 
L 393.591895 99.448767 
" clip-path="url(#p2da77aa96e)" style="fill: none; stroke: #0000ff; stroke-width: 1.5; stroke-linecap: square"/>
   </g>
   <g id="line2d_21">
    <path d="M 78.418662 250.90106 
L 81.634715 250.667864 
L 84.850768 246.460933 
L 88.066822 243.533024 
L 91.282875 242.335344 
L 94.498929 242.053906 
L 97.714982 241.63194 
L 100.931035 238.271044 
L 104.147089 237.957492 
L 107.363142 237.673461 
L 110.579196 236.796951 
L 113.795249 235.727652 
L 117.011302 233.451233 
L 120.227356 230.902185 
L 123.443409 230.761586 
L 126.659463 230.055024 
L 129.875516 227.722331 
L 133.091569 227.650651 
L 136.307623 227.48141 
L 139.523676 224.951017 
L 142.73973 224.826932 
L 145.955783 222.575518 
L 149.171836 218.242088 
L 152.38789 217.881981 
L 155.603943 213.926106 
L 158.819997 213.451447 
L 162.03605 212.321472 
L 165.252103 211.666641 
L 168.468157 208.202681 
L 171.68421 205.883572 
L 174.900264 205.025788 
L 178.116317 198.399501 
L 181.33237 197.275751 
L 184.548424 197.231395 
L 187.764477 195.964555 
L 190.980531 195.195266 
L 194.196584 194.813029 
L 197.412637 194.703698 
L 200.628691 191.534155 
L 203.844744 190.644238 
L 207.060798 190.379089 
L 210.276851 187.39688 
L 213.492904 183.434331 
L 216.708958 183.030901 
L 219.925011 182.536236 
L 223.141065 180.375756 
L 226.357118 180.155676 
L 229.573171 177.672844 
L 232.789225 176.417993 
L 236.005278 174.551352 
L 239.221332 174.258624 
L 242.437385 173.671317 
L 245.653438 173.272052 
L 248.869492 173.172262 
L 252.085545 169.008692 
L 255.301599 167.947407 
L 258.517652 167.05936 
L 261.733705 162.464439 
L 264.949759 161.946196 
L 268.165812 161.626315 
L 271.381866 161.05469 
L 274.597919 160.291217 
L 277.813973 160.188489 
L 281.030026 159.763206 
L 284.246079 159.522246 
L 287.462133 158.350089 
L 290.678186 157.606498 
L 293.89424 154.137199 
L 297.110293 153.592917 
L 300.326346 151.862955 
L 303.5424 150.46555 
L 306.758453 148.612238 
L 309.974507 147.314106 
L 313.19056 145.181652 
L 316.406613 144.306703 
L 319.622667 140.577772 
L 322.83872 139.057791 
L 326.054774 137.058376 
L 329.270827 134.677606 
L 332.48688 133.430918 
L 335.702934 131.898497 
L 338.918987 129.495923 
L 342.135041 128.052487 
L 345.351094 127.961963 
L 348.567147 126.368321 
L 351.783201 120.944004 
L 354.999254 119.126061 
L 358.215308 118.67259 
L 361.431361 117.145559 
L 364.647414 115.322716 
L 367.863468 114.508748 
L 371.079521 113.561903 
L 374.295575 113.332939 
L 377.511628 110.912235 
L 380.727681 107.561326 
L 383.943735 105.0291 
L 387.159788 103.087862 
L 390.375842 100.945895 
L 393.591895 98.126187 
" clip-path="url(#p2da77aa96e)" style="fill: none; stroke: #0000ff; stroke-width: 1.5; stroke-linecap: square"/>
   </g>
   <g id="line2d_22">
    <path d="M 78.418662 244.173746 
L 81.634715 242.88112 
L 84.850768 242.448923 
L 88.066822 241.371301 
L 91.282875 241.31032 
L 94.498929 237.906271 
L 97.714982 236.696685 
L 100.931035 236.349781 
L 104.147089 231.945543 
L 107.363142 229.629201 
L 110.579196 228.949367 
L 113.795249 225.088181 
L 117.011302 225.071442 
L 120.227356 224.885304 
L 123.443409 224.838725 
L 126.659463 222.374458 
L 129.875516 220.970766 
L 133.091569 220.730446 
L 136.307623 220.540348 
L 139.523676 220.203894 
L 142.73973 219.388493 
L 145.955783 215.46796 
L 149.171836 214.899319 
L 152.38789 213.330722 
L 155.603943 209.804229 
L 158.819997 209.059662 
L 162.03605 208.357551 
L 165.252103 198.915099 
L 168.468157 195.023135 
L 171.68421 194.92555 
L 174.900264 193.244331 
L 178.116317 187.207221 
L 181.33237 186.63569 
L 184.548424 186.599331 
L 187.764477 184.588043 
L 190.980531 183.801538 
L 194.196584 182.618424 
L 197.412637 182.520594 
L 200.628691 181.960701 
L 203.844744 181.647363 
L 207.060798 179.55837 
L 210.276851 179.245765 
L 213.492904 178.156102 
L 216.708958 177.99475 
L 219.925011 177.830517 
L 223.141065 177.822219 
L 226.357118 175.078978 
L 229.573171 174.817162 
L 232.789225 172.395031 
L 236.005278 172.254491 
L 239.221332 172.130476 
L 242.437385 171.269893 
L 245.653438 170.79543 
L 248.869492 169.175927 
L 252.085545 164.536 
L 255.301599 164.21307 
L 258.517652 162.886474 
L 261.733705 162.761783 
L 264.949759 161.057502 
L 268.165812 156.356953 
L 271.381866 152.330314 
L 274.597919 150.316769 
L 277.813973 150.1258 
L 281.030026 146.961027 
L 284.246079 146.249861 
L 287.462133 145.113743 
L 290.678186 141.253001 
L 293.89424 140.661693 
L 297.110293 140.099348 
L 300.326346 139.938122 
L 303.5424 138.937844 
L 306.758453 138.171348 
L 309.974507 138.053106 
L 313.19056 135.884116 
L 316.406613 134.721138 
L 319.622667 134.289521 
L 322.83872 132.290268 
L 326.054774 130.706196 
L 329.270827 130.212905 
L 332.48688 129.097833 
L 335.702934 126.847238 
L 338.918987 124.795706 
L 342.135041 123.055691 
L 345.351094 122.085222 
L 348.567147 120.925312 
L 351.783201 120.46789 
L 354.999254 118.678885 
L 358.215308 116.63369 
L 361.431361 115.168193 
L 364.647414 114.599763 
L 367.863468 113.993324 
L 371.079521 111.781801 
L 374.295575 111.387839 
L 377.511628 109.245725 
L 380.727681 108.892883 
L 383.943735 107.30951 
L 387.159788 107.160494 
L 390.375842 106.640451 
L 393.591895 103.107932 
" clip-path="url(#p2da77aa96e)" style="fill: none; stroke: #0000ff; stroke-width: 1.5; stroke-linecap: square"/>
   </g>
   <g id="line2d_23">
    <path d="M 78.418662 249.616986 
L 81.634715 249.412095 
L 84.850768 249.408839 
L 88.066822 248.77308 
L 91.282875 244.264987 
L 94.498929 241.160284 
L 97.714982 240.250155 
L 100.931035 235.676977 
L 104.147089 235.010068 
L 107.363142 233.506292 
L 110.579196 233.462872 
L 113.795249 232.518636 
L 117.011302 232.29169 
L 120.227356 231.518893 
L 123.443409 231.379199 
L 126.659463 230.756051 
L 129.875516 230.735757 
L 133.091569 229.561237 
L 136.307623 228.65953 
L 139.523676 226.21764 
L 142.73973 222.287233 
L 145.955783 220.001905 
L 149.171836 219.066912 
L 152.38789 217.559549 
L 155.603943 215.138555 
L 158.819997 211.848653 
L 162.03605 210.239579 
L 165.252103 210.123442 
L 168.468157 209.024536 
L 171.68421 208.897883 
L 174.900264 208.685319 
L 178.116317 206.476025 
L 181.33237 204.904972 
L 184.548424 204.743196 
L 187.764477 204.251821 
L 190.980531 202.872318 
L 194.196584 202.619083 
L 197.412637 201.068487 
L 200.628691 200.105694 
L 203.844744 199.93126 
L 207.060798 199.776976 
L 210.276851 199.214572 
L 213.492904 199.008001 
L 216.708958 198.441371 
L 219.925011 198.335464 
L 223.141065 192.953113 
L 226.357118 191.604815 
L 229.573171 190.998722 
L 232.789225 189.814402 
L 236.005278 187.846602 
L 239.221332 186.444343 
L 242.437385 186.352463 
L 245.653438 184.634324 
L 248.869492 182.115586 
L 252.085545 179.379661 
L 255.301599 178.342051 
L 258.517652 178.075617 
L 261.733705 172.688232 
L 264.949759 172.406555 
L 268.165812 170.937431 
L 271.381866 170.413953 
L 274.597919 168.470378 
L 277.813973 167.089775 
L 281.030026 165.814515 
L 284.246079 163.116401 
L 287.462133 161.299769 
L 290.678186 159.232806 
L 293.89424 159.207785 
L 297.110293 158.267823 
L 300.326346 154.773279 
L 303.5424 154.572923 
L 306.758453 148.964994 
L 309.974507 146.716122 
L 313.19056 145.531112 
L 316.406613 144.59043 
L 319.622667 144.184236 
L 322.83872 143.786385 
L 326.054774 143.44775 
L 329.270827 143.396503 
L 332.48688 141.366155 
L 335.702934 140.279295 
L 338.918987 139.984803 
L 342.135041 139.082482 
L 345.351094 138.414683 
L 348.567147 137.819987 
L 351.783201 136.89327 
L 354.999254 136.683802 
L 358.215308 134.263041 
L 361.431361 131.284372 
L 364.647414 130.728629 
L 367.863468 129.901763 
L 371.079521 128.051634 
L 374.295575 125.909825 
L 377.511628 125.602035 
L 380.727681 124.719075 
L 383.943735 123.371569 
L 387.159788 122.369838 
L 390.375842 120.800496 
L 393.591895 117.957087 
" clip-path="url(#p2da77aa96e)" style="fill: none; stroke: #0000ff; stroke-width: 1.5; stroke-linecap: square"/>
   </g>
   <g id="line2d_24">
    <path d="M 78.418662 267.798286 
L 81.634715 267.754765 
L 84.850768 267.511389 
L 88.066822 267.348474 
L 91.282875 267.16875 
L 94.498929 267.123575 
L 97.714982 267.102844 
L 100.931035 264.700221 
L 104.147089 264.607896 
L 107.363142 264.604267 
L 110.579196 263.851904 
L 113.795249 263.648967 
L 117.011302 263.519577 
L 120.227356 262.22858 
L 123.443409 261.56013 
L 126.659463 258.274184 
L 129.875516 258.250732 
L 133.091569 250.353412 
L 136.307623 249.660353 
L 139.523676 249.505804 
L 142.73973 249.108903 
L 145.955783 246.757283 
L 149.171836 246.654855 
L 152.38789 246.460923 
L 155.603943 246.435742 
L 158.819997 245.051199 
L 162.03605 244.458935 
L 165.252103 243.673064 
L 168.468157 243.65372 
L 171.68421 243.329719 
L 174.900264 243.27492 
L 178.116317 239.57244 
L 181.33237 239.389184 
L 184.548424 239.376035 
L 187.764477 237.837961 
L 190.980531 236.744275 
L 194.196584 236.25141 
L 197.412637 236.200448 
L 200.628691 234.770258 
L 203.844744 234.759617 
L 207.060798 234.539621 
L 210.276851 234.064669 
L 213.492904 233.986111 
L 216.708958 229.653779 
L 219.925011 229.604742 
L 223.141065 229.430637 
L 226.357118 229.349432 
L 229.573171 228.215578 
L 232.789225 226.982211 
L 236.005278 225.278336 
L 239.221332 224.665803 
L 242.437385 224.505462 
L 245.653438 224.299951 
L 248.869492 224.142263 
L 252.085545 223.132758 
L 255.301599 218.597026 
L 258.517652 218.304394 
L 261.733705 218.120696 
L 264.949759 217.504492 
L 268.165812 217.420981 
L 271.381866 216.883817 
L 274.597919 216.099118 
L 277.813973 214.648197 
L 281.030026 214.553811 
L 284.246079 214.52995 
L 287.462133 213.995063 
L 290.678186 213.900935 
L 293.89424 213.602288 
L 297.110293 213.442896 
L 300.326346 212.852509 
L 303.5424 212.168875 
L 306.758453 209.976374 
L 309.974507 209.2962 
L 313.19056 208.12303 
L 316.406613 207.937611 
L 319.622667 206.933357 
L 322.83872 201.209945 
L 326.054774 196.017266 
L 329.270827 195.930421 
L 332.48688 195.419286 
L 335.702934 195.054388 
L 338.918987 193.613945 
L 342.135041 193.187446 
L 345.351094 192.911454 
L 348.567147 192.621154 
L 351.783201 192.080609 
L 354.999254 189.047278 
L 358.215308 188.847984 
L 361.431361 186.413666 
L 364.647414 184.356765 
L 367.863468 183.319432 
L 371.079521 183.132034 
L 374.295575 182.074524 
L 377.511628 181.950661 
L 380.727681 179.943726 
L 383.943735 178.977629 
L 387.159788 178.050632 
L 390.375842 177.217162 
L 393.591895 177.127031 
" clip-path="url(#p2da77aa96e)" style="fill: none; stroke: #008000; stroke-width: 1.5; stroke-linecap: square"/>
   </g>
   <g id="line2d_25">
    <path d="M 78.418662 264.511139 
L 81.634715 264.445463 
L 84.850768 262.655795 
L 88.066822 262.652981 
L 91.282875 262.573902 
L 94.498929 262.559156 
L 97.714982 257.996548 
L 100.931035 257.151272 
L 104.147089 255.129569 
L 107.363142 255.034574 
L 110.579196 255.027622 
L 113.795249 254.861581 
L 117.011302 254.786319 
L 120.227356 253.678623 
L 123.443409 253.59517 
L 126.659463 253.585796 
L 129.875516 253.015959 
L 133.091569 250.916616 
L 136.307623 249.468826 
L 139.523676 249.192105 
L 142.73973 249.171665 
L 145.955783 247.463535 
L 149.171836 246.993155 
L 152.38789 246.062522 
L 155.603943 245.822645 
L 158.819997 245.323881 
L 162.03605 244.204073 
L 165.252103 243.76885 
L 168.468157 243.223862 
L 171.68421 242.758423 
L 174.900264 242.70718 
L 178.116317 242.116336 
L 181.33237 242.062307 
L 184.548424 241.797248 
L 187.764477 241.70255 
L 190.980531 240.986895 
L 194.196584 239.916122 
L 197.412637 239.523727 
L 200.628691 238.155351 
L 203.844744 237.578504 
L 207.060798 236.536651 
L 210.276851 236.344449 
L 213.492904 234.847447 
L 216.708958 234.253268 
L 219.925011 233.872134 
L 223.141065 233.515382 
L 226.357118 230.377396 
L 229.573171 230.011802 
L 232.789225 229.28413 
L 236.005278 229.2822 
L 239.221332 228.869517 
L 242.437385 226.771113 
L 245.653438 225.906667 
L 248.869492 225.808031 
L 252.085545 225.781647 
L 255.301599 223.993646 
L 258.517652 222.464632 
L 261.733705 220.634332 
L 264.949759 220.482272 
L 268.165812 219.377088 
L 271.381866 219.241682 
L 274.597919 217.791267 
L 277.813973 216.460735 
L 281.030026 216.389708 
L 284.246079 215.90155 
L 287.462133 209.866138 
L 290.678186 209.244794 
L 293.89424 209.127358 
L 297.110293 209.095181 
L 300.326346 208.994312 
L 303.5424 208.797732 
L 306.758453 208.272802 
L 309.974507 206.43695 
L 313.19056 204.847443 
L 316.406613 203.155589 
L 319.622667 202.472226 
L 322.83872 201.823622 
L 326.054774 199.707825 
L 329.270827 198.574975 
L 332.48688 197.882658 
L 335.702934 196.349804 
L 338.918987 196.075319 
L 342.135041 196.041993 
L 345.351094 195.849035 
L 348.567147 195.463845 
L 351.783201 194.147084 
L 354.999254 193.824798 
L 358.215308 193.389684 
L 361.431361 192.908469 
L 364.647414 192.273326 
L 367.863468 190.648027 
L 371.079521 190.191989 
L 374.295575 183.157826 
L 377.511628 182.840262 
L 380.727681 182.295085 
L 383.943735 181.397039 
L 387.159788 178.241283 
L 390.375842 177.770622 
L 393.591895 175.632076 
" clip-path="url(#p2da77aa96e)" style="fill: none; stroke: #008000; stroke-width: 1.5; stroke-linecap: square"/>
   </g>
   <g id="line2d_26">
    <path d="M 78.418662 268.25846 
L 81.634715 266.749463 
L 84.850768 265.47324 
L 88.066822 260.465002 
L 91.282875 260.417421 
L 94.498929 257.888268 
L 97.714982 256.921312 
L 100.931035 256.851286 
L 104.147089 256.527312 
L 107.363142 253.791505 
L 110.579196 253.567226 
L 113.795249 252.27587 
L 117.011302 252.225204 
L 120.227356 251.175082 
L 123.443409 249.968982 
L 126.659463 249.900974 
L 129.875516 249.642954 
L 133.091569 248.68789 
L 136.307623 246.024891 
L 139.523676 246.007373 
L 142.73973 243.335542 
L 145.955783 240.533453 
L 149.171836 240.381585 
L 152.38789 239.62395 
L 155.603943 237.534179 
L 158.819997 237.507005 
L 162.03605 236.757634 
L 165.252103 235.983207 
L 168.468157 235.475241 
L 171.68421 235.375133 
L 174.900264 233.488707 
L 178.116317 232.713403 
L 181.33237 231.640331 
L 184.548424 231.476831 
L 187.764477 228.951974 
L 190.980531 227.057015 
L 194.196584 222.785704 
L 197.412637 219.080079 
L 200.628691 218.081379 
L 203.844744 217.551469 
L 207.060798 217.336928 
L 210.276851 216.861949 
L 213.492904 216.8292 
L 216.708958 216.006452 
L 219.925011 215.445019 
L 223.141065 214.977886 
L 226.357118 214.790876 
L 229.573171 214.737061 
L 232.789225 214.593127 
L 236.005278 214.076739 
L 239.221332 213.910807 
L 242.437385 213.542404 
L 245.653438 213.523524 
L 248.869492 213.379707 
L 252.085545 206.614175 
L 255.301599 204.358417 
L 258.517652 203.742851 
L 261.733705 202.411824 
L 264.949759 201.436373 
L 268.165812 197.863925 
L 271.381866 197.131009 
L 274.597919 193.911522 
L 277.813973 193.53381 
L 281.030026 193.251683 
L 284.246079 192.722249 
L 287.462133 191.966874 
L 290.678186 191.802847 
L 293.89424 190.992122 
L 297.110293 189.361066 
L 300.326346 188.623317 
L 303.5424 188.411414 
L 306.758453 186.81255 
L 309.974507 186.754935 
L 313.19056 186.631964 
L 316.406613 185.319403 
L 319.622667 181.520005 
L 322.83872 180.030098 
L 326.054774 178.884758 
L 329.270827 177.506894 
L 332.48688 175.53604 
L 335.702934 175.340912 
L 338.918987 174.197844 
L 342.135041 173.437715 
L 345.351094 172.289861 
L 348.567147 170.436984 
L 351.783201 167.532066 
L 354.999254 165.521852 
L 358.215308 165.452195 
L 361.431361 164.964368 
L 364.647414 164.636432 
L 367.863468 163.990428 
L 371.079521 163.776478 
L 374.295575 163.753922 
L 377.511628 163.198236 
L 380.727681 162.824054 
L 383.943735 162.386774 
L 387.159788 162.32858 
L 390.375842 161.443664 
L 393.591895 156.619088 
" clip-path="url(#p2da77aa96e)" style="fill: none; stroke: #008000; stroke-width: 1.5; stroke-linecap: square"/>
   </g>
   <g id="line2d_27">
    <path d="M 78.418662 269.092117 
L 81.634715 269.071597 
L 84.850768 269.066111 
L 88.066822 269.046429 
L 91.282875 266.720466 
L 94.498929 263.406364 
L 97.714982 263.370483 
L 100.931035 261.316785 
L 104.147089 255.294409 
L 107.363142 255.285478 
L 110.579196 254.893863 
L 113.795249 253.091147 
L 117.011302 252.83084 
L 120.227356 252.107845 
L 123.443409 252.102171 
L 126.659463 250.120231 
L 129.875516 248.603826 
L 133.091569 244.610882 
L 136.307623 244.149745 
L 139.523676 241.323998 
L 142.73973 240.451371 
L 145.955783 239.806727 
L 149.171836 239.784055 
L 152.38789 236.648009 
L 155.603943 236.435257 
L 158.819997 235.30095 
L 162.03605 233.097974 
L 165.252103 232.233985 
L 168.468157 231.05294 
L 171.68421 231.031375 
L 174.900264 231.009475 
L 178.116317 230.80495 
L 181.33237 230.409181 
L 184.548424 229.958153 
L 187.764477 229.505155 
L 190.980531 229.503925 
L 194.196584 227.1041 
L 197.412637 226.462414 
L 200.628691 225.263869 
L 203.844744 221.785246 
L 207.060798 221.321389 
L 210.276851 221.265693 
L 213.492904 221.237313 
L 216.708958 219.988109 
L 219.925011 219.809352 
L 223.141065 218.379382 
L 226.357118 218.029805 
L 229.573171 217.903718 
L 232.789225 217.508955 
L 236.005278 215.41976 
L 239.221332 212.851203 
L 242.437385 211.521453 
L 245.653438 211.268539 
L 248.869492 210.711273 
L 252.085545 209.918837 
L 255.301599 209.081216 
L 258.517652 207.103844 
L 261.733705 205.720043 
L 264.949759 205.604694 
L 268.165812 205.53502 
L 271.381866 203.755185 
L 274.597919 203.561446 
L 277.813973 202.498387 
L 281.030026 202.21549 
L 284.246079 201.248145 
L 287.462133 197.568998 
L 290.678186 196.260719 
L 293.89424 192.489414 
L 297.110293 191.289811 
L 300.326346 190.134502 
L 303.5424 190.121628 
L 306.758453 185.849102 
L 309.974507 185.715234 
L 313.19056 182.680389 
L 316.406613 181.847692 
L 319.622667 181.231503 
L 322.83872 181.161019 
L 326.054774 180.48842 
L 329.270827 180.336015 
L 332.48688 180.140373 
L 335.702934 178.929996 
L 338.918987 178.554775 
L 342.135041 178.143208 
L 345.351094 178.119306 
L 348.567147 176.288899 
L 351.783201 176.08495 
L 354.999254 175.471663 
L 358.215308 175.071516 
L 361.431361 174.874781 
L 364.647414 174.098511 
L 367.863468 174.065138 
L 371.079521 174.046144 
L 374.295575 173.457191 
L 377.511628 173.442216 
L 380.727681 173.437313 
L 383.943735 173.213511 
L 387.159788 172.302892 
L 390.375842 169.409893 
L 393.591895 169.055486 
" clip-path="url(#p2da77aa96e)" style="fill: none; stroke: #008000; stroke-width: 1.5; stroke-linecap: square"/>
   </g>
   <g id="line2d_28">
    <path d="M 78.418662 259.936654 
L 81.634715 259.239702 
L 84.850768 256.863657 
L 88.066822 256.467647 
L 91.282875 255.194715 
L 94.498929 255.179393 
L 97.714982 253.816179 
L 100.931035 252.138813 
L 104.147089 250.574049 
L 107.363142 248.813369 
L 110.579196 248.788458 
L 113.795249 246.453498 
L 117.011302 246.03117 
L 120.227356 245.838879 
L 123.443409 245.173644 
L 126.659463 244.39792 
L 129.875516 244.062763 
L 133.091569 239.493825 
L 136.307623 239.437842 
L 139.523676 236.411918 
L 142.73973 235.083869 
L 145.955783 233.946095 
L 149.171836 233.893303 
L 152.38789 233.598167 
L 155.603943 232.726648 
L 158.819997 232.232377 
L 162.03605 231.801318 
L 165.252103 230.907295 
L 168.468157 229.838637 
L 171.68421 226.998105 
L 174.900264 225.657231 
L 178.116317 222.783952 
L 181.33237 219.086527 
L 184.548424 218.653048 
L 187.764477 218.453399 
L 190.980531 216.050859 
L 194.196584 215.032677 
L 197.412637 214.982135 
L 200.628691 213.508432 
L 203.844744 212.342093 
L 207.060798 210.386205 
L 210.276851 210.197626 
L 213.492904 210.125993 
L 216.708958 209.242707 
L 219.925011 208.958675 
L 223.141065 208.653298 
L 226.357118 208.596589 
L 229.573171 207.984092 
L 232.789225 206.366744 
L 236.005278 206.247949 
L 239.221332 203.611308 
L 242.437385 200.582842 
L 245.653438 200.550439 
L 248.869492 198.904227 
L 252.085545 198.713415 
L 255.301599 196.154796 
L 258.517652 193.215989 
L 261.733705 193.009881 
L 264.949759 192.838962 
L 268.165812 192.429528 
L 271.381866 191.942656 
L 274.597919 191.668882 
L 277.813973 189.306 
L 281.030026 188.303203 
L 284.246079 187.731372 
L 287.462133 187.528292 
L 290.678186 187.464478 
L 293.89424 185.658076 
L 297.110293 184.916834 
L 300.326346 184.571005 
L 303.5424 182.559411 
L 306.758453 180.38513 
L 309.974507 179.877577 
L 313.19056 177.238394 
L 316.406613 173.649004 
L 319.622667 167.682748 
L 322.83872 166.996748 
L 326.054774 166.044926 
L 329.270827 165.869247 
L 332.48688 162.95156 
L 335.702934 162.519936 
L 338.918987 161.108109 
L 342.135041 158.4939 
L 345.351094 158.047562 
L 348.567147 157.345682 
L 351.783201 157.160359 
L 354.999254 157.02306 
L 358.215308 154.932094 
L 361.431361 150.99499 
L 364.647414 149.889784 
L 367.863468 149.714679 
L 371.079521 149.347152 
L 374.295575 148.199231 
L 377.511628 147.62374 
L 380.727681 146.048431 
L 383.943735 145.161559 
L 387.159788 144.592682 
L 390.375842 143.475263 
L 393.591895 142.964254 
" clip-path="url(#p2da77aa96e)" style="fill: none; stroke: #008000; stroke-width: 1.5; stroke-linecap: square"/>
   </g>
   <g id="line2d_29">
    <path d="M 78.418662 269.005546 
L 81.634715 268.996097 
L 84.850768 268.396001 
L 88.066822 268.258961 
L 91.282875 267.91913 
L 94.498929 267.863589 
L 97.714982 267.863585 
L 100.931035 267.298894 
L 104.147089 266.756986 
L 107.363142 266.186501 
L 110.579196 266.105678 
L 113.795249 266.006772 
L 117.011302 265.967408 
L 120.227356 265.959788 
L 123.443409 265.362827 
L 126.659463 265.349447 
L 129.875516 264.705129 
L 133.091569 264.119464 
L 136.307623 264.117938 
L 139.523676 263.110964 
L 142.73973 263.098574 
L 145.955783 261.783364 
L 149.171836 260.936955 
L 152.38789 260.851111 
L 155.603943 260.758854 
L 158.819997 260.68867 
L 162.03605 260.589073 
L 165.252103 260.217148 
L 168.468157 258.748917 
L 171.68421 258.738297 
L 174.900264 258.730532 
L 178.116317 258.568172 
L 181.33237 258.1649 
L 184.548424 258.07065 
L 187.764477 258.026546 
L 190.980531 256.992976 
L 194.196584 256.985327 
L 197.412637 256.908211 
L 200.628691 256.623249 
L 203.844744 256.507645 
L 207.060798 256.3102 
L 210.276851 255.851641 
L 213.492904 255.834785 
L 216.708958 255.795063 
L 219.925011 254.913731 
L 223.141065 254.503652 
L 226.357118 253.739091 
L 229.573171 253.564697 
L 232.789225 253.417231 
L 236.005278 251.918304 
L 239.221332 251.693684 
L 242.437385 251.418477 
L 245.653438 251.236874 
L 248.869492 250.622959 
L 252.085545 250.181713 
L 255.301599 250.14747 
L 258.517652 248.599799 
L 261.733705 247.231235 
L 264.949759 246.61186 
L 268.165812 246.487732 
L 271.381866 246.255576 
L 274.597919 245.204024 
L 277.813973 244.651765 
L 281.030026 244.428275 
L 284.246079 243.628537 
L 287.462133 242.857458 
L 290.678186 240.129091 
L 293.89424 238.690892 
L 297.110293 238.675599 
L 300.326346 238.075147 
L 303.5424 237.978996 
L 306.758453 237.92383 
L 309.974507 237.829534 
L 313.19056 237.817828 
L 316.406613 237.684866 
L 319.622667 237.614773 
L 322.83872 237.418433 
L 326.054774 237.309741 
L 329.270827 237.280836 
L 332.48688 237.264086 
L 335.702934 237.199425 
L 338.918987 234.834728 
L 342.135041 234.403456 
L 345.351094 231.865446 
L 348.567147 230.781283 
L 351.783201 230.730879 
L 354.999254 230.721746 
L 358.215308 230.714848 
L 361.431361 229.075167 
L 364.647414 228.889133 
L 367.863468 225.53103 
L 371.079521 224.067129 
L 374.295575 223.705506 
L 377.511628 221.2511 
L 380.727681 219.992896 
L 383.943735 219.9564 
L 387.159788 219.455897 
L 390.375842 219.411617 
L 393.591895 219.402227 
" clip-path="url(#p2da77aa96e)" style="fill: none; stroke: #ffa500; stroke-width: 1.5; stroke-linecap: square"/>
   </g>
   <g id="line2d_30">
    <path d="M 78.418662 273.82264 
L 81.634715 273.790274 
L 84.850768 272.603141 
L 88.066822 272.224501 
L 91.282875 272.157822 
L 94.498929 272.156292 
L 97.714982 272.107999 
L 100.931035 271.293772 
L 104.147089 271.215542 
L 107.363142 271.042914 
L 110.579196 270.909989 
L 113.795249 270.64044 
L 117.011302 269.962832 
L 120.227356 269.947093 
L 123.443409 268.29234 
L 126.659463 268.281151 
L 129.875516 265.516701 
L 133.091569 265.507837 
L 136.307623 265.193029 
L 139.523676 265.19246 
L 142.73973 264.143445 
L 145.955783 263.933565 
L 149.171836 263.931941 
L 152.38789 263.771915 
L 155.603943 263.736374 
L 158.819997 261.298462 
L 162.03605 261.273012 
L 165.252103 260.824238 
L 168.468157 260.372997 
L 171.68421 260.316517 
L 174.900264 259.827223 
L 178.116317 258.931423 
L 181.33237 256.341437 
L 184.548424 256.338379 
L 187.764477 256.321297 
L 190.980531 256.01863 
L 194.196584 251.559842 
L 197.412637 250.764814 
L 200.628691 250.741455 
L 203.844744 250.402533 
L 207.060798 250.392296 
L 210.276851 248.660265 
L 213.492904 246.961853 
L 216.708958 246.954658 
L 219.925011 245.654361 
L 223.141065 244.932657 
L 226.357118 244.24143 
L 229.573171 244.108103 
L 232.789225 243.633448 
L 236.005278 243.350198 
L 239.221332 240.229454 
L 242.437385 240.123007 
L 245.653438 240.050131 
L 248.869492 239.618574 
L 252.085545 239.550962 
L 255.301599 239.238349 
L 258.517652 239.191147 
L 261.733705 236.860581 
L 264.949759 236.570082 
L 268.165812 236.489571 
L 271.381866 236.405158 
L 274.597919 236.364557 
L 277.813973 234.646263 
L 281.030026 234.294244 
L 284.246079 233.510827 
L 287.462133 232.806367 
L 290.678186 232.408593 
L 293.89424 232.260988 
L 297.110293 231.754047 
L 300.326346 231.585268 
L 303.5424 230.978699 
L 306.758453 230.788113 
L 309.974507 229.705481 
L 313.19056 229.688442 
L 316.406613 229.425791 
L 319.622667 229.183325 
L 322.83872 224.804996 
L 326.054774 224.695126 
L 329.270827 224.684537 
L 332.48688 224.307688 
L 335.702934 224.218179 
L 338.918987 223.529592 
L 342.135041 223.124128 
L 345.351094 223.060951 
L 348.567147 220.715147 
L 351.783201 219.529572 
L 354.999254 218.959636 
L 358.215308 218.093889 
L 361.431361 217.273238 
L 364.647414 217.216198 
L 367.863468 217.074464 
L 371.079521 217.025352 
L 374.295575 216.864041 
L 377.511628 216.83246 
L 380.727681 216.759489 
L 383.943735 216.611307 
L 387.159788 216.474199 
L 390.375842 216.096777 
L 393.591895 214.399882 
" clip-path="url(#p2da77aa96e)" style="fill: none; stroke: #ffa500; stroke-width: 1.5; stroke-linecap: square"/>
   </g>
   <g id="line2d_31">
    <path d="M 78.418662 273.026765 
L 81.634715 271.582837 
L 84.850768 271.557197 
L 88.066822 269.872099 
L 91.282875 269.748826 
L 94.498929 269.70156 
L 97.714982 269.660374 
L 100.931035 268.181123 
L 104.147089 266.932401 
L 107.363142 265.603164 
L 110.579196 262.585185 
L 113.795249 262.489812 
L 117.011302 261.666634 
L 120.227356 260.782323 
L 123.443409 260.413352 
L 126.659463 260.392131 
L 129.875516 259.011915 
L 133.091569 259.005156 
L 136.307623 258.809884 
L 139.523676 258.275174 
L 142.73973 258.211935 
L 145.955783 257.69918 
L 149.171836 257.640574 
L 152.38789 256.596008 
L 155.603943 256.553513 
L 158.819997 256.480394 
L 162.03605 255.716692 
L 165.252103 255.696233 
L 168.468157 255.666422 
L 171.68421 255.655286 
L 174.900264 255.049532 
L 178.116317 254.385554 
L 181.33237 253.669185 
L 184.548424 253.53055 
L 187.764477 253.374029 
L 190.980531 252.571216 
L 194.196584 251.393404 
L 197.412637 250.140121 
L 200.628691 250.058101 
L 203.844744 249.614299 
L 207.060798 249.336459 
L 210.276851 249.301482 
L 213.492904 248.637248 
L 216.708958 248.108414 
L 219.925011 247.998113 
L 223.141065 245.655814 
L 226.357118 245.333731 
L 229.573171 244.035119 
L 232.789225 242.81787 
L 236.005278 242.578248 
L 239.221332 241.787489 
L 242.437385 240.940738 
L 245.653438 240.916518 
L 248.869492 240.450518 
L 252.085545 239.343228 
L 255.301599 236.731007 
L 258.517652 236.69256 
L 261.733705 235.175898 
L 264.949759 234.764621 
L 268.165812 233.942933 
L 271.381866 233.27819 
L 274.597919 232.156575 
L 277.813973 232.132218 
L 281.030026 228.789285 
L 284.246079 228.718061 
L 287.462133 228.641085 
L 290.678186 227.720501 
L 293.89424 227.654596 
L 297.110293 227.639932 
L 300.326346 224.76171 
L 303.5424 224.530481 
L 306.758453 224.321678 
L 309.974507 224.275962 
L 313.19056 224.22139 
L 316.406613 224.206466 
L 319.622667 224.099283 
L 322.83872 223.737921 
L 326.054774 223.589656 
L 329.270827 222.736542 
L 332.48688 222.687667 
L 335.702934 222.589296 
L 338.918987 221.905181 
L 342.135041 221.779451 
L 345.351094 221.686897 
L 348.567147 220.997249 
L 351.783201 220.568653 
L 354.999254 220.451683 
L 358.215308 219.479514 
L 361.431361 219.204261 
L 364.647414 218.052193 
L 367.863468 217.484625 
L 371.079521 216.668188 
L 374.295575 216.660035 
L 377.511628 216.274168 
L 380.727681 215.956622 
L 383.943735 215.947582 
L 387.159788 215.775046 
L 390.375842 215.761801 
L 393.591895 215.680116 
" clip-path="url(#p2da77aa96e)" style="fill: none; stroke: #ffa500; stroke-width: 1.5; stroke-linecap: square"/>
   </g>
   <g id="line2d_32">
    <path d="M 78.418662 278.897081 
L 81.634715 277.582847 
L 84.850768 275.657416 
L 88.066822 275.650108 
L 91.282875 275.618337 
L 94.498929 275.276906 
L 97.714982 275.088609 
L 100.931035 275.083285 
L 104.147089 275.067874 
L 107.363142 274.962314 
L 110.579196 273.867163 
L 113.795249 273.805587 
L 117.011302 273.759591 
L 120.227356 273.639151 
L 123.443409 273.567494 
L 126.659463 272.046591 
L 129.875516 269.567107 
L 133.091569 269.222448 
L 136.307623 267.91211 
L 139.523676 265.98342 
L 142.73973 265.211878 
L 145.955783 265.20085 
L 149.171836 265.174133 
L 152.38789 264.890635 
L 155.603943 264.309763 
L 158.819997 264.288012 
L 162.03605 264.234562 
L 165.252103 264.114676 
L 168.468157 264.077321 
L 171.68421 263.100821 
L 174.900264 258.434146 
L 178.116317 256.854949 
L 181.33237 256.637386 
L 184.548424 256.382684 
L 187.764477 254.39734 
L 190.980531 254.365728 
L 194.196584 254.358333 
L 197.412637 253.3178 
L 200.628691 253.264277 
L 203.844744 252.836002 
L 207.060798 251.731909 
L 210.276851 251.429543 
L 213.492904 251.319032 
L 216.708958 251.203954 
L 219.925011 251.063368 
L 223.141065 250.031752 
L 226.357118 249.931466 
L 229.573171 247.159672 
L 232.789225 246.189083 
L 236.005278 245.909408 
L 239.221332 245.404628 
L 242.437385 245.260789 
L 245.653438 245.234209 
L 248.869492 242.371525 
L 252.085545 241.857187 
L 255.301599 241.566035 
L 258.517652 237.846197 
L 261.733705 237.228436 
L 264.949759 236.362867 
L 268.165812 235.665997 
L 271.381866 235.035369 
L 274.597919 235.016722 
L 277.813973 234.942804 
L 281.030026 233.777315 
L 284.246079 230.960965 
L 287.462133 230.776091 
L 290.678186 230.75656 
L 293.89424 230.591424 
L 297.110293 230.537558 
L 300.326346 230.019039 
L 303.5424 227.121755 
L 306.758453 227.097456 
L 309.974507 226.377536 
L 313.19056 226.090654 
L 316.406613 224.532851 
L 319.622667 224.325698 
L 322.83872 223.460928 
L 326.054774 218.735376 
L 329.270827 218.714875 
L 332.48688 216.415265 
L 335.702934 215.2474 
L 338.918987 214.942714 
L 342.135041 214.871491 
L 345.351094 213.89812 
L 348.567147 213.824584 
L 351.783201 212.416602 
L 354.999254 211.973632 
L 358.215308 211.597409 
L 361.431361 211.560333 
L 364.647414 208.051947 
L 367.863468 207.094816 
L 371.079521 206.905161 
L 374.295575 204.307303 
L 377.511628 203.14473 
L 380.727681 202.850666 
L 383.943735 201.293558 
L 387.159788 200.519545 
L 390.375842 200.378215 
L 393.591895 199.77439 
" clip-path="url(#p2da77aa96e)" style="fill: none; stroke: #ffa500; stroke-width: 1.5; stroke-linecap: square"/>
   </g>
   <g id="line2d_33">
    <path d="M 78.418662 272.634854 
L 81.634715 272.626184 
L 84.850768 272.61317 
L 88.066822 272.405076 
L 91.282875 272.214595 
L 94.498929 272.078146 
L 97.714982 271.974276 
L 100.931035 271.871713 
L 104.147089 271.84683 
L 107.363142 271.812477 
L 110.579196 271.313844 
L 113.795249 270.771007 
L 117.011302 270.739288 
L 120.227356 270.384826 
L 123.443409 270.128035 
L 126.659463 270.05745 
L 129.875516 268.496185 
L 133.091569 268.492677 
L 136.307623 268.491907 
L 139.523676 268.469675 
L 142.73973 268.435066 
L 145.955783 268.417618 
L 149.171836 268.045975 
L 152.38789 267.88519 
L 155.603943 267.703424 
L 158.819997 267.050816 
L 162.03605 266.93796 
L 165.252103 266.770966 
L 168.468157 266.715266 
L 171.68421 266.671291 
L 174.900264 266.314224 
L 178.116317 266.041412 
L 181.33237 265.505365 
L 184.548424 265.478009 
L 187.764477 265.432116 
L 190.980531 264.2507 
L 194.196584 263.720694 
L 197.412637 261.768667 
L 200.628691 261.143331 
L 203.844744 260.573148 
L 207.060798 260.448083 
L 210.276851 259.421564 
L 213.492904 259.364983 
L 216.708958 258.82756 
L 219.925011 258.589965 
L 223.141065 258.501551 
L 226.357118 258.393058 
L 229.573171 257.921863 
L 232.789225 257.306674 
L 236.005278 256.272335 
L 239.221332 256.179915 
L 242.437385 256.034954 
L 245.653438 254.403525 
L 248.869492 254.181326 
L 252.085545 254.166991 
L 255.301599 253.934718 
L 258.517652 252.729881 
L 261.733705 252.409939 
L 264.949759 252.132627 
L 268.165812 251.949097 
L 271.381866 251.90553 
L 274.597919 251.735659 
L 277.813973 251.709489 
L 281.030026 251.504759 
L 284.246079 250.224103 
L 287.462133 249.646182 
L 290.678186 248.664747 
L 293.89424 248.648493 
L 297.110293 248.608618 
L 300.326346 248.325698 
L 303.5424 248.28211 
L 306.758453 248.264163 
L 309.974507 247.961194 
L 313.19056 246.648431 
L 316.406613 246.089554 
L 319.622667 245.699127 
L 322.83872 245.200514 
L 326.054774 244.476229 
L 329.270827 244.469806 
L 332.48688 244.25793 
L 335.702934 244.10889 
L 338.918987 243.72336 
L 342.135041 243.642091 
L 345.351094 243.3096 
L 348.567147 243.255293 
L 351.783201 242.364312 
L 354.999254 238.9864 
L 358.215308 238.944567 
L 361.431361 238.856461 
L 364.647414 238.517531 
L 367.863468 238.180904 
L 371.079521 238.169964 
L 374.295575 235.121779 
L 377.511628 233.710383 
L 380.727681 232.517699 
L 383.943735 231.846562 
L 387.159788 230.943247 
L 390.375842 230.450702 
L 393.591895 229.973583 
" clip-path="url(#p2da77aa96e)" style="fill: none; stroke: #ffa500; stroke-width: 1.5; stroke-linecap: square"/>
   </g>
   <g id="line2d_34">
    <path d="M 78.418662 279.842882 
L 81.634715 278.837027 
L 84.850768 278.433514 
L 88.066822 277.840415 
L 91.282875 277.830983 
L 94.498929 277.827381 
L 97.714982 277.672784 
L 100.931035 277.253049 
L 104.147089 276.116618 
L 107.363142 276.09955 
L 110.579196 276.099236 
L 113.795249 276.050167 
L 117.011302 275.651178 
L 120.227356 275.155599 
L 123.443409 274.735831 
L 126.659463 274.20835 
L 129.875516 274.197791 
L 133.091569 274.187941 
L 136.307623 272.339904 
L 139.523676 272.321812 
L 142.73973 272.176039 
L 145.955783 272.167063 
L 149.171836 271.329828 
L 152.38789 270.601799 
L 155.603943 270.470541 
L 158.819997 270.385706 
L 162.03605 269.906735 
L 165.252103 268.533687 
L 168.468157 268.525375 
L 171.68421 268.520324 
L 174.900264 267.44298 
L 178.116317 267.220929 
L 181.33237 267.198395 
L 184.548424 266.011624 
L 187.764477 265.998841 
L 190.980531 265.979731 
L 194.196584 265.803154 
L 197.412637 264.976601 
L 200.628691 264.962232 
L 203.844744 264.539966 
L 207.060798 264.466182 
L 210.276851 264.048515 
L 213.492904 264.020191 
L 216.708958 263.97823 
L 219.925011 263.481799 
L 223.141065 263.474757 
L 226.357118 263.035397 
L 229.573171 263.029168 
L 232.789225 261.86528 
L 236.005278 261.852642 
L 239.221332 260.368441 
L 242.437385 260.093768 
L 245.653438 260.068673 
L 248.869492 259.825933 
L 252.085545 259.142394 
L 255.301599 259.096074 
L 258.517652 259.092173 
L 261.733705 259.076652 
L 264.949759 258.931532 
L 268.165812 258.814893 
L 271.381866 258.7845 
L 274.597919 257.145623 
L 277.813973 256.172521 
L 281.030026 255.608153 
L 284.246079 255.44449 
L 287.462133 254.703112 
L 290.678186 254.621258 
L 293.89424 253.920686 
L 297.110293 253.717255 
L 300.326346 253.655167 
L 303.5424 252.230692 
L 306.758453 249.66791 
L 309.974507 248.994102 
L 313.19056 248.545512 
L 316.406613 248.294247 
L 319.622667 248.242622 
L 322.83872 248.078179 
L 326.054774 248.067627 
L 329.270827 246.761638 
L 332.48688 246.69656 
L 335.702934 246.61484 
L 338.918987 246.570194 
L 342.135041 245.958084 
L 345.351094 245.874285 
L 348.567147 245.004096 
L 351.783201 244.990487 
L 354.999254 244.616152 
L 358.215308 244.246754 
L 361.431361 244.189241 
L 364.647414 244.156643 
L 367.863468 244.053206 
L 371.079521 244.048165 
L 374.295575 244.031689 
L 377.511628 243.49568 
L 380.727681 242.532527 
L 383.943735 242.453961 
L 387.159788 242.436726 
L 390.375842 242.272968 
L 393.591895 240.955971 
" clip-path="url(#p2da77aa96e)" style="fill: none; stroke: #000000; stroke-width: 1.5; stroke-linecap: square"/>
   </g>
   <g id="line2d_35">
    <path d="M 78.418662 277.024311 
L 81.634715 277.012011 
L 84.850768 276.868441 
L 88.066822 276.648598 
L 91.282875 276.640379 
L 94.498929 275.685329 
L 97.714982 274.707781 
L 100.931035 274.603788 
L 104.147089 274.061558 
L 107.363142 273.997833 
L 110.579196 273.987661 
L 113.795249 273.165856 
L 117.011302 273.089274 
L 120.227356 273.017778 
L 123.443409 272.944753 
L 126.659463 272.819474 
L 129.875516 271.586076 
L 133.091569 271.571263 
L 136.307623 271.12527 
L 139.523676 271.113305 
L 142.73973 271.103443 
L 145.955783 270.482027 
L 149.171836 270.466673 
L 152.38789 269.682173 
L 155.603943 269.67613 
L 158.819997 269.608919 
L 162.03605 269.57907 
L 165.252103 268.909002 
L 168.468157 268.443545 
L 171.68421 268.382442 
L 174.900264 268.350512 
L 178.116317 268.343896 
L 181.33237 267.745525 
L 184.548424 267.696911 
L 187.764477 267.636579 
L 190.980531 267.38474 
L 194.196584 267.315313 
L 197.412637 267.209715 
L 200.628691 267.207493 
L 203.844744 266.562399 
L 207.060798 266.514076 
L 210.276851 266.258104 
L 213.492904 266.226009 
L 216.708958 265.645028 
L 219.925011 265.635556 
L 223.141065 265.356489 
L 226.357118 264.653096 
L 229.573171 264.598303 
L 232.789225 264.578503 
L 236.005278 264.545494 
L 239.221332 264.535034 
L 242.437385 264.453028 
L 245.653438 263.932424 
L 248.869492 263.819711 
L 252.085545 263.655288 
L 255.301599 263.608289 
L 258.517652 263.179605 
L 261.733705 263.013976 
L 264.949759 262.852948 
L 268.165812 262.825244 
L 271.381866 262.172689 
L 274.597919 262.009806 
L 277.813973 261.971329 
L 281.030026 261.037483 
L 284.246079 261.014722 
L 287.462133 260.952721 
L 290.678186 260.859207 
L 293.89424 260.804739 
L 297.110293 260.785023 
L 300.326346 260.781888 
L 303.5424 260.756243 
L 306.758453 260.722219 
L 309.974507 260.651669 
L 313.19056 260.645663 
L 316.406613 260.632996 
L 319.622667 260.409905 
L 322.83872 260.406012 
L 326.054774 260.336197 
L 329.270827 260.277388 
L 332.48688 259.942142 
L 335.702934 259.90908 
L 338.918987 259.170258 
L 342.135041 259.144068 
L 345.351094 259.126528 
L 348.567147 258.098157 
L 351.783201 258.084023 
L 354.999254 258.060584 
L 358.215308 258.024371 
L 361.431361 257.98436 
L 364.647414 257.866525 
L 367.863468 257.837073 
L 371.079521 257.403023 
L 374.295575 257.337436 
L 377.511628 256.564242 
L 380.727681 256.552863 
L 383.943735 256.533095 
L 387.159788 256.506654 
L 390.375842 256.502757 
L 393.591895 256.474251 
" clip-path="url(#p2da77aa96e)" style="fill: none; stroke: #000000; stroke-width: 1.5; stroke-linecap: square"/>
   </g>
   <g id="line2d_36">
    <path d="M 78.418662 279.959724 
L 81.634715 279.957525 
L 84.850768 277.988555 
L 88.066822 277.972084 
L 91.282875 277.970426 
L 94.498929 277.969642 
L 97.714982 276.98009 
L 100.931035 276.944638 
L 104.147089 276.807062 
L 107.363142 276.797381 
L 110.579196 276.788888 
L 113.795249 276.392843 
L 117.011302 276.372849 
L 120.227356 276.288642 
L 123.443409 275.880524 
L 126.659463 275.788225 
L 129.875516 275.658576 
L 133.091569 275.546207 
L 136.307623 275.532007 
L 139.523676 275.113594 
L 142.73973 275.09303 
L 145.955783 275.088647 
L 149.171836 273.775343 
L 152.38789 273.77012 
L 155.603943 273.763573 
L 158.819997 273.314938 
L 162.03605 273.293266 
L 165.252103 273.280483 
L 168.468157 271.17252 
L 171.68421 270.957404 
L 174.900264 270.955287 
L 178.116317 270.051478 
L 181.33237 270.029291 
L 184.548424 268.9342 
L 187.764477 268.911484 
L 190.980531 268.496045 
L 194.196584 268.49368 
L 197.412637 268.463186 
L 200.628691 268.454599 
L 203.844744 268.386272 
L 207.060798 265.824988 
L 210.276851 265.822552 
L 213.492904 265.813017 
L 216.708958 265.80179 
L 219.925011 265.755861 
L 223.141065 264.513142 
L 226.357118 264.501391 
L 229.573171 264.498729 
L 232.789225 264.483791 
L 236.005278 262.899846 
L 239.221332 262.882018 
L 242.437385 262.671562 
L 245.653438 262.661509 
L 248.869492 262.647065 
L 252.085545 262.541459 
L 255.301599 262.302933 
L 258.517652 262.072757 
L 261.733705 262.058687 
L 264.949759 262.046636 
L 268.165812 262.02394 
L 271.381866 260.890397 
L 274.597919 260.250026 
L 277.813973 260.207545 
L 281.030026 260.156434 
L 284.246079 259.878723 
L 287.462133 258.818384 
L 290.678186 258.749949 
L 293.89424 258.696101 
L 297.110293 258.137215 
L 300.326346 257.785513 
L 303.5424 253.811149 
L 306.758453 253.786805 
L 309.974507 252.663843 
L 313.19056 252.385314 
L 316.406613 251.938916 
L 319.622667 251.014853 
L 322.83872 250.959768 
L 326.054774 250.757828 
L 329.270827 250.704259 
L 332.48688 250.048872 
L 335.702934 250.048591 
L 338.918987 250.04743 
L 342.135041 250.039106 
L 345.351094 249.820241 
L 348.567147 249.737375 
L 351.783201 248.61801 
L 354.999254 248.108999 
L 358.215308 247.208674 
L 361.431361 246.815866 
L 364.647414 246.80945 
L 367.863468 246.655534 
L 371.079521 245.527458 
L 374.295575 245.147474 
L 377.511628 245.126035 
L 380.727681 245.064805 
L 383.943735 244.999013 
L 387.159788 244.989658 
L 390.375842 244.421041 
L 393.591895 243.19986 
" clip-path="url(#p2da77aa96e)" style="fill: none; stroke: #000000; stroke-width: 1.5; stroke-linecap: square"/>
   </g>
   <g id="line2d_37">
    <path d="M 78.418662 270.644936 
L 81.634715 269.045492 
L 84.850768 267.459751 
L 88.066822 266.422527 
L 91.282875 266.4159 
L 94.498929 266.391666 
L 97.714982 265.323893 
L 100.931035 265.058172 
L 104.147089 264.698198 
L 107.363142 264.683119 
L 110.579196 263.138515 
L 113.795249 263.009386 
L 117.011302 262.934028 
L 120.227356 262.680643 
L 123.443409 262.654755 
L 126.659463 262.131879 
L 129.875516 261.808179 
L 133.091569 261.761887 
L 136.307623 261.553346 
L 139.523676 261.510727 
L 142.73973 261.488676 
L 145.955783 261.352893 
L 149.171836 261.285337 
L 152.38789 261.281906 
L 155.603943 261.110553 
L 158.819997 261.087557 
L 162.03605 259.970253 
L 165.252103 259.602816 
L 168.468157 259.322045 
L 171.68421 259.205159 
L 174.900264 259.186225 
L 178.116317 258.640666 
L 181.33237 258.617385 
L 184.548424 258.600246 
L 187.764477 258.181773 
L 190.980531 257.897581 
L 194.196584 257.85192 
L 197.412637 257.276871 
L 200.628691 257.242163 
L 203.844744 256.766991 
L 207.060798 256.764261 
L 210.276851 256.762393 
L 213.492904 256.481471 
L 216.708958 256.322831 
L 219.925011 256.314668 
L 223.141065 256.179511 
L 226.357118 255.985057 
L 229.573171 255.773654 
L 232.789225 255.515259 
L 236.005278 254.445685 
L 239.221332 254.432955 
L 242.437385 254.389257 
L 245.653438 253.174162 
L 248.869492 252.698505 
L 252.085545 252.697205 
L 255.301599 252.693722 
L 258.517652 252.670208 
L 261.733705 252.48071 
L 264.949759 252.270474 
L 268.165812 252.242761 
L 271.381866 250.247497 
L 274.597919 249.365019 
L 277.813973 249.023646 
L 281.030026 248.62464 
L 284.246079 248.611291 
L 287.462133 248.55923 
L 290.678186 248.517528 
L 293.89424 248.460527 
L 297.110293 247.463027 
L 300.326346 247.223714 
L 303.5424 247.07541 
L 306.758453 247.031816 
L 309.974507 247.012423 
L 313.19056 246.921006 
L 316.406613 246.871183 
L 319.622667 246.792122 
L 322.83872 246.68786 
L 326.054774 246.565047 
L 329.270827 246.544346 
L 332.48688 246.044036 
L 335.702934 244.392823 
L 338.918987 244.153492 
L 342.135041 242.983808 
L 345.351094 242.817951 
L 348.567147 242.802057 
L 351.783201 242.720893 
L 354.999254 242.621718 
L 358.215308 242.564257 
L 361.431361 241.951003 
L 364.647414 241.937506 
L 367.863468 241.873316 
L 371.079521 241.440029 
L 374.295575 239.126538 
L 377.511628 238.769255 
L 380.727681 238.634039 
L 383.943735 238.560629 
L 387.159788 238.548485 
L 390.375842 238.185784 
L 393.591895 237.99377 
" clip-path="url(#p2da77aa96e)" style="fill: none; stroke: #000000; stroke-width: 1.5; stroke-linecap: square"/>
   </g>
   <g id="line2d_38">
    <path d="M 78.418662 274.791021 
L 81.634715 274.311998 
L 84.850768 274.311426 
L 88.066822 274.310173 
L 91.282875 274.278059 
L 94.498929 274.246604 
L 97.714982 274.242223 
L 100.931035 274.024914 
L 104.147089 273.988818 
L 107.363142 273.0833 
L 110.579196 272.17985 
L 113.795249 272.16828 
L 117.011302 272.137199 
L 120.227356 270.72498 
L 123.443409 270.351001 
L 126.659463 270.314533 
L 129.875516 270.208652 
L 133.091569 270.003522 
L 136.307623 270.002134 
L 139.523676 270.001853 
L 142.73973 267.728601 
L 145.955783 266.868065 
L 149.171836 266.57222 
L 152.38789 266.565007 
L 155.603943 266.095382 
L 158.819997 266.084512 
L 162.03605 266.07916 
L 165.252103 266.078596 
L 168.468157 266.072988 
L 171.68421 265.405093 
L 174.900264 264.843716 
L 178.116317 263.083747 
L 181.33237 262.384507 
L 184.548424 262.381056 
L 187.764477 262.380056 
L 190.980531 261.675383 
L 194.196584 261.674758 
L 197.412637 261.590224 
L 200.628691 260.201794 
L 203.844744 259.616305 
L 207.060798 259.612974 
L 210.276851 259.60719 
L 213.492904 259.603568 
L 216.708958 259.594883 
L 219.925011 259.085439 
L 223.141065 258.549676 
L 226.357118 258.481748 
L 229.573171 258.409312 
L 232.789225 258.359639 
L 236.005278 257.687404 
L 239.221332 257.654008 
L 242.437385 257.607667 
L 245.653438 257.575068 
L 248.869492 257.433707 
L 252.085545 257.389453 
L 255.301599 257.329954 
L 258.517652 257.253888 
L 261.733705 254.536099 
L 264.949759 252.794691 
L 268.165812 252.592744 
L 271.381866 252.506265 
L 274.597919 251.563273 
L 277.813973 251.539673 
L 281.030026 251.529639 
L 284.246079 251.253086 
L 287.462133 251.023395 
L 290.678186 250.997389 
L 293.89424 250.987446 
L 297.110293 250.939125 
L 300.326346 250.917838 
L 303.5424 250.86216 
L 306.758453 250.85503 
L 309.974507 250.305597 
L 313.19056 248.645547 
L 316.406613 248.568183 
L 319.622667 248.555938 
L 322.83872 248.5471 
L 326.054774 248.54186 
L 329.270827 247.100841 
L 332.48688 246.491402 
L 335.702934 246.114073 
L 338.918987 245.741797 
L 342.135041 244.728051 
L 345.351094 244.364571 
L 348.567147 243.98649 
L 351.783201 243.944994 
L 354.999254 242.543864 
L 358.215308 241.854229 
L 361.431361 241.209433 
L 364.647414 241.136363 
L 367.863468 241.118607 
L 371.079521 241.093368 
L 374.295575 241.059554 
L 377.511628 241.014182 
L 380.727681 240.812781 
L 383.943735 240.219116 
L 387.159788 240.171807 
L 390.375842 240.137257 
L 393.591895 240.060732 
" clip-path="url(#p2da77aa96e)" style="fill: none; stroke: #000000; stroke-width: 1.5; stroke-linecap: square"/>
   </g>
   <g id="patch_3">
    <path d="M 62.66 297.88 
L 62.66 10.8 
" style="fill: none; stroke: #000000; stroke-width: 0.8; stroke-linejoin: miter; stroke-linecap: square"/>
   </g>
   <g id="patch_4">
    <path d="M 409.350557 297.88 
L 409.350557 10.8 
" style="fill: none; stroke: #000000; stroke-width: 0.8; stroke-linejoin: miter; stroke-linecap: square"/>
   </g>
   <g id="patch_5">
    <path d="M 62.66 297.88 
L 409.350557 297.88 
" style="fill: none; stroke: #000000; stroke-width: 0.8; stroke-linejoin: miter; stroke-linecap: square"/>
   </g>
   <g id="patch_6">
    <path d="M 62.66 10.8 
L 409.350557 10.8 
" style="fill: none; stroke: #000000; stroke-width: 0.8; stroke-linejoin: miter; stroke-linecap: square"/>
   </g>
   <g id="legend_1">
    <g id="patch_7">
     <path d="M 71.76 135.007812 
L 174.96 135.007812 
Q 177.56 135.007812 177.56 132.407813 
L 177.56 19.9 
Q 177.56 17.3 174.96 17.3 
L 71.76 17.3 
Q 69.16 17.3 69.16 19.9 
L 69.16 132.407813 
Q 69.16 135.007812 71.76 135.007812 
z
" style="fill: #ffffff; opacity: 0.8; stroke: #cccccc; stroke-linejoin: miter"/>
    </g>
    <g id="text_16">
     <!-- Mating Variance $\sigma^2_m$ -->
     <g transform="translate(74.36 31.6) scale(0.1 -0.1)">
      <defs>
       <path id="DejaVuSans-4d" d="M 628 4666 
L 1569 4666 
L 2759 1491 
L 3956 4666 
L 4897 4666 
L 4897 0 
L 4281 0 
L 4281 4097 
L 3078 897 
L 2444 897 
L 1241 4097 
L 1241 0 
L 628 0 
L 628 4666 
z
" transform="scale(0.015625)"/>
       <path id="DejaVuSans-6e" d="M 3513 2113 
L 3513 0 
L 2938 0 
L 2938 2094 
Q 2938 2591 2744 2837 
Q 2550 3084 2163 3084 
Q 1697 3084 1428 2787 
Q 1159 2491 1159 1978 
L 1159 0 
L 581 0 
L 581 3500 
L 1159 3500 
L 1159 2956 
Q 1366 3272 1645 3428 
Q 1925 3584 2291 3584 
Q 2894 3584 3203 3211 
Q 3513 2838 3513 2113 
z
" transform="scale(0.015625)"/>
       <path id="DejaVuSans-67" d="M 2906 1791 
Q 2906 2416 2648 2759 
Q 2391 3103 1925 3103 
Q 1463 3103 1205 2759 
Q 947 2416 947 1791 
Q 947 1169 1205 825 
Q 1463 481 1925 481 
Q 2391 481 2648 825 
Q 2906 1169 2906 1791 
z
M 3481 434 
Q 3481 -459 3084 -895 
Q 2688 -1331 1869 -1331 
Q 1566 -1331 1297 -1286 
Q 1028 -1241 775 -1147 
L 775 -588 
Q 1028 -725 1275 -790 
Q 1522 -856 1778 -856 
Q 2344 -856 2625 -561 
Q 2906 -266 2906 331 
L 2906 616 
Q 2728 306 2450 153 
Q 2172 0 1784 0 
Q 1141 0 747 490 
Q 353 981 353 1791 
Q 353 2603 747 3093 
Q 1141 3584 1784 3584 
Q 2172 3584 2450 3431 
Q 2728 3278 2906 2969 
L 2906 3500 
L 3481 3500 
L 3481 434 
z
" transform="scale(0.015625)"/>
       <path id="DejaVuSans-56" d="M 1831 0 
L 50 4666 
L 709 4666 
L 2188 738 
L 3669 4666 
L 4325 4666 
L 2547 0 
L 1831 0 
z
" transform="scale(0.015625)"/>
       <path id="DejaVuSans-63" d="M 3122 3366 
L 3122 2828 
Q 2878 2963 2633 3030 
Q 2388 3097 2138 3097 
Q 1578 3097 1268 2742 
Q 959 2388 959 1747 
Q 959 1106 1268 751 
Q 1578 397 2138 397 
Q 2388 397 2633 464 
Q 2878 531 3122 666 
L 3122 134 
Q 2881 22 2623 -34 
Q 2366 -91 2075 -91 
Q 1284 -91 818 406 
Q 353 903 353 1747 
Q 353 2603 823 3093 
Q 1294 3584 2113 3584 
Q 2378 3584 2631 3529 
Q 2884 3475 3122 3366 
z
" transform="scale(0.015625)"/>
       <path id="DejaVuSans-Oblique-3c3" d="M 2219 3044 
Q 1744 3044 1422 2700 
Q 1081 2341 969 1747 
Q 844 1119 1044 756 
Q 1241 397 1706 397 
Q 2166 397 2503 759 
Q 2844 1122 2966 1747 
Q 3075 2319 2881 2700 
Q 2700 3044 2219 3044 
z
M 2309 3503 
L 4219 3500 
L 4106 2925 
L 3463 2925 
Q 3706 2438 3575 1747 
Q 3406 888 2884 400 
Q 2359 -91 1609 -91 
Q 856 -91 525 400 
Q 194 888 363 1747 
Q 528 2609 1050 3097 
Q 1484 3503 2309 3503 
z
" transform="scale(0.015625)"/>
       <path id="DejaVuSans-Oblique-6d" d="M 5747 2113 
L 5338 0 
L 4763 0 
L 5166 2094 
Q 5191 2228 5203 2325 
Q 5216 2422 5216 2491 
Q 5216 2772 5059 2928 
Q 4903 3084 4622 3084 
Q 4203 3084 3875 2770 
Q 3547 2456 3450 1953 
L 3066 0 
L 2491 0 
L 2900 2094 
Q 2925 2209 2937 2307 
Q 2950 2406 2950 2484 
Q 2950 2769 2794 2926 
Q 2638 3084 2363 3084 
Q 1938 3084 1609 2770 
Q 1281 2456 1184 1953 
L 800 0 
L 225 0 
L 909 3500 
L 1484 3500 
L 1375 2956 
Q 1609 3263 1923 3423 
Q 2238 3584 2597 3584 
Q 2978 3584 3223 3384 
Q 3469 3184 3519 2828 
Q 3781 3197 4126 3390 
Q 4472 3584 4856 3584 
Q 5306 3584 5551 3325 
Q 5797 3066 5797 2591 
Q 5797 2488 5784 2364 
Q 5772 2241 5747 2113 
z
" transform="scale(0.015625)"/>
      </defs>
      <use xlink:href="#DejaVuSans-4d" transform="translate(0 0.765625)"/>
      <use xlink:href="#DejaVuSans-61" transform="translate(86.279297 0.765625)"/>
      <use xlink:href="#DejaVuSans-74" transform="translate(147.558594 0.765625)"/>
      <use xlink:href="#DejaVuSans-69" transform="translate(186.767578 0.765625)"/>
      <use xlink:href="#DejaVuSans-6e" transform="translate(214.550781 0.765625)"/>
      <use xlink:href="#DejaVuSans-67" transform="translate(277.929688 0.765625)"/>
      <use xlink:href="#DejaVuSans-20" transform="translate(341.40625 0.765625)"/>
      <use xlink:href="#DejaVuSans-56" transform="translate(373.193359 0.765625)"/>
      <use xlink:href="#DejaVuSans-61" transform="translate(441.601562 0.765625)"/>
      <use xlink:href="#DejaVuSans-72" transform="translate(502.880859 0.765625)"/>
      <use xlink:href="#DejaVuSans-69" transform="translate(543.994141 0.765625)"/>
      <use xlink:href="#DejaVuSans-61" transform="translate(571.777344 0.765625)"/>
      <use xlink:href="#DejaVuSans-6e" transform="translate(633.056641 0.765625)"/>
      <use xlink:href="#DejaVuSans-63" transform="translate(696.435547 0.765625)"/>
      <use xlink:href="#DejaVuSans-65" transform="translate(751.416016 0.765625)"/>
      <use xlink:href="#DejaVuSans-20" transform="translate(812.939453 0.765625)"/>
      <use xlink:href="#DejaVuSans-Oblique-3c3" transform="translate(844.726562 0.765625)"/>
      <use xlink:href="#DejaVuSans-32" transform="translate(912.578177 39.046875) scale(0.7)"/>
      <use xlink:href="#DejaVuSans-Oblique-6d" transform="translate(908.105469 -26.578125) scale(0.7)"/>
     </g>
    </g>
    <g id="line2d_39">
     <path d="M 94.822969 46.227969 
L 107.822969 46.227969 
L 120.822969 46.227969 
" style="fill: none; stroke: #ff0000; stroke-width: 1.5; stroke-linecap: square"/>
    </g>
    <g id="text_17">
     <!-- 1.0 -->
     <g transform="translate(131.222969 50.777969) scale(0.13 -0.13)">
      <use xlink:href="#DejaVuSans-31"/>
      <use xlink:href="#DejaVuSans-2e" x="63.623047"/>
      <use xlink:href="#DejaVuSans-30" x="95.410156"/>
     </g>
    </g>
    <g id="line2d_40">
     <path d="M 94.822969 65.309531 
L 107.822969 65.309531 
L 120.822969 65.309531 
" style="fill: none; stroke: #0000ff; stroke-width: 1.5; stroke-linecap: square"/>
    </g>
    <g id="text_18">
     <!-- 0.9 -->
     <g transform="translate(131.222969 69.859531) scale(0.13 -0.13)">
      <defs>
       <path id="DejaVuSans-39" d="M 703 97 
L 703 672 
Q 941 559 1184 500 
Q 1428 441 1663 441 
Q 2288 441 2617 861 
Q 2947 1281 2994 2138 
Q 2813 1869 2534 1725 
Q 2256 1581 1919 1581 
Q 1219 1581 811 2004 
Q 403 2428 403 3163 
Q 403 3881 828 4315 
Q 1253 4750 1959 4750 
Q 2769 4750 3195 4129 
Q 3622 3509 3622 2328 
Q 3622 1225 3098 567 
Q 2575 -91 1691 -91 
Q 1453 -91 1209 -44 
Q 966 3 703 97 
z
M 1959 2075 
Q 2384 2075 2632 2365 
Q 2881 2656 2881 3163 
Q 2881 3666 2632 3958 
Q 2384 4250 1959 4250 
Q 1534 4250 1286 3958 
Q 1038 3666 1038 3163 
Q 1038 2656 1286 2365 
Q 1534 2075 1959 2075 
z
" transform="scale(0.015625)"/>
      </defs>
      <use xlink:href="#DejaVuSans-30"/>
      <use xlink:href="#DejaVuSans-2e" x="63.623047"/>
      <use xlink:href="#DejaVuSans-39" x="95.410156"/>
     </g>
    </g>
    <g id="line2d_41">
     <path d="M 94.822969 84.391094 
L 107.822969 84.391094 
L 120.822969 84.391094 
" style="fill: none; stroke: #008000; stroke-width: 1.5; stroke-linecap: square"/>
    </g>
    <g id="text_19">
     <!-- 0.8 -->
     <g transform="translate(131.222969 88.941094) scale(0.13 -0.13)">
      <use xlink:href="#DejaVuSans-30"/>
      <use xlink:href="#DejaVuSans-2e" x="63.623047"/>
      <use xlink:href="#DejaVuSans-38" x="95.410156"/>
     </g>
    </g>
    <g id="line2d_42">
     <path d="M 94.822969 103.472656 
L 107.822969 103.472656 
L 120.822969 103.472656 
" style="fill: none; stroke: #ffa500; stroke-width: 1.5; stroke-linecap: square"/>
    </g>
    <g id="text_20">
     <!-- 0.7 -->
     <g transform="translate(131.222969 108.022656) scale(0.13 -0.13)">
      <defs>
       <path id="DejaVuSans-37" d="M 525 4666 
L 3525 4666 
L 3525 4397 
L 1831 0 
L 1172 0 
L 2766 4134 
L 525 4134 
L 525 4666 
z
" transform="scale(0.015625)"/>
      </defs>
      <use xlink:href="#DejaVuSans-30"/>
      <use xlink:href="#DejaVuSans-2e" x="63.623047"/>
      <use xlink:href="#DejaVuSans-37" x="95.410156"/>
     </g>
    </g>
    <g id="line2d_43">
     <path d="M 94.822969 122.554219 
L 107.822969 122.554219 
L 120.822969 122.554219 
" style="fill: none; stroke: #000000; stroke-width: 1.5; stroke-linecap: square"/>
    </g>
    <g id="text_21">
     <!-- 0.6 -->
     <g transform="translate(131.222969 127.104219) scale(0.13 -0.13)">
      <use xlink:href="#DejaVuSans-30"/>
      <use xlink:href="#DejaVuSans-2e" x="63.623047"/>
      <use xlink:href="#DejaVuSans-36" x="95.410156"/>
     </g>
    </g>
   </g>
  </g>
 </g>
 <defs>
  <clipPath id="p2da77aa96e">
   <rect x="62.66" y="10.8" width="346.690557" height="287.08"/>
  </clipPath>
 </defs>
</svg>
