<?xml version="1.0" encoding="utf-8" standalone="no"?>
<!DOCTYPE svg PUBLIC "-//W3C//DTD SVG 1.1//EN"
  "http://www.w3.org/Graphics/SVG/1.1/DTD/svg11.dtd">
<svg xmlns:xlink="http://www.w3.org/1999/xlink" width="424.8pt" height="352.8pt" viewBox="0 0 424.8 352.8" xmlns="http://www.w3.org/2000/svg" version="1.1">
 <metadata>
  <rdf:RDF xmlns:dc="http://purl.org/dc/elements/1.1/" xmlns:cc="http://creativecommons.org/ns#" xmlns:rdf="http://www.w3.org/1999/02/22-rdf-syntax-ns#">
   <cc:Work>
    <dc:type rdf:resource="http://purl.org/dc/dcmitype/StillImage"/>
    <dc:date>2025-02-02T21:35:00.220037</dc:date>
    <dc:format>image/svg+xml</dc:format>
    <dc:creator>
     <cc:Agent>
      <dc:title>Matplotlib v3.10.0, https://matplotlib.org/</dc:title>
     </cc:Agent>
    </dc:creator>
   </cc:Work>
  </rdf:RDF>
 </metadata>
 <defs>
  <style type="text/css">*{stroke-linejoin: round; stroke-linecap: butt}</style>
 </defs>
 <g id="figure_1">
  <g id="patch_1">
   <path d="M 0 352.8 
L 424.8 352.8 
L 424.8 0 
L 0 0 
z
" style="fill: #ffffff"/>
  </g>
  <g id="axes_1">
   <g id="patch_2">
    <path d="M 62.48 297.88 
L 407.745818 297.88 
L 407.745818 13.176706 
L 62.48 13.176706 
z
" style="fill: #ffffff"/>
   </g>
   <g id="matplotlib.axis_1">
    <g id="xtick_1">
     <g id="line2d_1">
      <defs>
       <path id="m24359a1c39" d="M 0 0 
L 0 3.5 
" style="stroke: #000000; stroke-width: 0.8"/>
      </defs>
      <g>
       <use xlink:href="#m24359a1c39" x="87.590241" y="297.88" style="stroke: #000000; stroke-width: 0.8"/>
      </g>
     </g>
     <g id="text_1">
      <!-- 0 -->
      <g transform="translate(83.454616 314.757969) scale(0.13 -0.13)">
       <defs>
        <path id="DejaVuSans-30" d="M 2034 4250 
Q 1547 4250 1301 3770 
Q 1056 3291 1056 2328 
Q 1056 1369 1301 889 
Q 1547 409 2034 409 
Q 2525 409 2770 889 
Q 3016 1369 3016 2328 
Q 3016 3291 2770 3770 
Q 2525 4250 2034 4250 
z
M 2034 4750 
Q 2819 4750 3233 4129 
Q 3647 3509 3647 2328 
Q 3647 1150 3233 529 
Q 2819 -91 2034 -91 
Q 1250 -91 836 529 
Q 422 1150 422 2328 
Q 422 3509 836 4129 
Q 1250 4750 2034 4750 
z
" transform="scale(0.015625)"/>
       </defs>
       <use xlink:href="#DejaVuSans-30"/>
      </g>
     </g>
    </g>
    <g id="xtick_2">
     <g id="line2d_2">
      <g>
       <use xlink:href="#m24359a1c39" x="150.365845" y="297.88" style="stroke: #000000; stroke-width: 0.8"/>
      </g>
     </g>
     <g id="text_2">
      <!-- 100 -->
      <g transform="translate(137.95897 314.757969) scale(0.13 -0.13)">
       <defs>
        <path id="DejaVuSans-31" d="M 794 531 
L 1825 531 
L 1825 4091 
L 703 3866 
L 703 4441 
L 1819 4666 
L 2450 4666 
L 2450 531 
L 3481 531 
L 3481 0 
L 794 0 
L 794 531 
z
" transform="scale(0.015625)"/>
       </defs>
       <use xlink:href="#DejaVuSans-31"/>
       <use xlink:href="#DejaVuSans-30" transform="translate(63.623047 0)"/>
       <use xlink:href="#DejaVuSans-30" transform="translate(127.246094 0)"/>
      </g>
     </g>
    </g>
    <g id="xtick_3">
     <g id="line2d_3">
      <g>
       <use xlink:href="#m24359a1c39" x="213.141448" y="297.88" style="stroke: #000000; stroke-width: 0.8"/>
      </g>
     </g>
     <g id="text_3">
      <!-- 200 -->
      <g transform="translate(200.734573 314.757969) scale(0.13 -0.13)">
       <defs>
        <path id="DejaVuSans-32" d="M 1228 531 
L 3431 531 
L 3431 0 
L 469 0 
L 469 531 
Q 828 903 1448 1529 
Q 2069 2156 2228 2338 
Q 2531 2678 2651 2914 
Q 2772 3150 2772 3378 
Q 2772 3750 2511 3984 
Q 2250 4219 1831 4219 
Q 1534 4219 1204 4116 
Q 875 4013 500 3803 
L 500 4441 
Q 881 4594 1212 4672 
Q 1544 4750 1819 4750 
Q 2544 4750 2975 4387 
Q 3406 4025 3406 3419 
Q 3406 3131 3298 2873 
Q 3191 2616 2906 2266 
Q 2828 2175 2409 1742 
Q 1991 1309 1228 531 
z
" transform="scale(0.015625)"/>
       </defs>
       <use xlink:href="#DejaVuSans-32"/>
       <use xlink:href="#DejaVuSans-30" transform="translate(63.623047 0)"/>
       <use xlink:href="#DejaVuSans-30" transform="translate(127.246094 0)"/>
      </g>
     </g>
    </g>
    <g id="xtick_4">
     <g id="line2d_4">
      <g>
       <use xlink:href="#m24359a1c39" x="275.917051" y="297.88" style="stroke: #000000; stroke-width: 0.8"/>
      </g>
     </g>
     <g id="text_4">
      <!-- 300 -->
      <g transform="translate(263.510176 314.757969) scale(0.13 -0.13)">
       <defs>
        <path id="DejaVuSans-33" d="M 2597 2516 
Q 3050 2419 3304 2112 
Q 3559 1806 3559 1356 
Q 3559 666 3084 287 
Q 2609 -91 1734 -91 
Q 1441 -91 1130 -33 
Q 819 25 488 141 
L 488 750 
Q 750 597 1062 519 
Q 1375 441 1716 441 
Q 2309 441 2620 675 
Q 2931 909 2931 1356 
Q 2931 1769 2642 2001 
Q 2353 2234 1838 2234 
L 1294 2234 
L 1294 2753 
L 1863 2753 
Q 2328 2753 2575 2939 
Q 2822 3125 2822 3475 
Q 2822 3834 2567 4026 
Q 2313 4219 1838 4219 
Q 1578 4219 1281 4162 
Q 984 4106 628 3988 
L 628 4550 
Q 988 4650 1302 4700 
Q 1616 4750 1894 4750 
Q 2613 4750 3031 4423 
Q 3450 4097 3450 3541 
Q 3450 3153 3228 2886 
Q 3006 2619 2597 2516 
z
" transform="scale(0.015625)"/>
       </defs>
       <use xlink:href="#DejaVuSans-33"/>
       <use xlink:href="#DejaVuSans-30" transform="translate(63.623047 0)"/>
       <use xlink:href="#DejaVuSans-30" transform="translate(127.246094 0)"/>
      </g>
     </g>
    </g>
    <g id="xtick_5">
     <g id="line2d_5">
      <g>
       <use xlink:href="#m24359a1c39" x="338.692655" y="297.88" style="stroke: #000000; stroke-width: 0.8"/>
      </g>
     </g>
     <g id="text_5">
      <!-- 400 -->
      <g transform="translate(326.28578 314.757969) scale(0.13 -0.13)">
       <defs>
        <path id="DejaVuSans-34" d="M 2419 4116 
L 825 1625 
L 2419 1625 
L 2419 4116 
z
M 2253 4666 
L 3047 4666 
L 3047 1625 
L 3713 1625 
L 3713 1100 
L 3047 1100 
L 3047 0 
L 2419 0 
L 2419 1100 
L 313 1100 
L 313 1709 
L 2253 4666 
z
" transform="scale(0.015625)"/>
       </defs>
       <use xlink:href="#DejaVuSans-34"/>
       <use xlink:href="#DejaVuSans-30" transform="translate(63.623047 0)"/>
       <use xlink:href="#DejaVuSans-30" transform="translate(127.246094 0)"/>
      </g>
     </g>
    </g>
    <g id="xtick_6">
     <g id="line2d_6">
      <g>
       <use xlink:href="#m24359a1c39" x="401.468258" y="297.88" style="stroke: #000000; stroke-width: 0.8"/>
      </g>
     </g>
     <g id="text_6">
      <!-- 500 -->
      <g transform="translate(389.061383 314.757969) scale(0.13 -0.13)">
       <defs>
        <path id="DejaVuSans-35" d="M 691 4666 
L 3169 4666 
L 3169 4134 
L 1269 4134 
L 1269 2991 
Q 1406 3038 1543 3061 
Q 1681 3084 1819 3084 
Q 2600 3084 3056 2656 
Q 3513 2228 3513 1497 
Q 3513 744 3044 326 
Q 2575 -91 1722 -91 
Q 1428 -91 1123 -41 
Q 819 9 494 109 
L 494 744 
Q 775 591 1075 516 
Q 1375 441 1709 441 
Q 2250 441 2565 725 
Q 2881 1009 2881 1497 
Q 2881 1984 2565 2268 
Q 2250 2553 1709 2553 
Q 1456 2553 1204 2497 
Q 953 2441 691 2322 
L 691 4666 
z
" transform="scale(0.015625)"/>
       </defs>
       <use xlink:href="#DejaVuSans-35"/>
       <use xlink:href="#DejaVuSans-30" transform="translate(63.623047 0)"/>
       <use xlink:href="#DejaVuSans-30" transform="translate(127.246094 0)"/>
      </g>
     </g>
    </g>
    <g id="text_7">
     <!-- Number of Trees -->
     <g transform="translate(152.911347 336.658438) scale(0.2 -0.2)">
      <defs>
       <path id="DejaVuSans-4e" d="M 628 4666 
L 1478 4666 
L 3547 763 
L 3547 4666 
L 4159 4666 
L 4159 0 
L 3309 0 
L 1241 3903 
L 1241 0 
L 628 0 
L 628 4666 
z
" transform="scale(0.015625)"/>
       <path id="DejaVuSans-75" d="M 544 1381 
L 544 3500 
L 1119 3500 
L 1119 1403 
Q 1119 906 1312 657 
Q 1506 409 1894 409 
Q 2359 409 2629 706 
Q 2900 1003 2900 1516 
L 2900 3500 
L 3475 3500 
L 3475 0 
L 2900 0 
L 2900 538 
Q 2691 219 2414 64 
Q 2138 -91 1772 -91 
Q 1169 -91 856 284 
Q 544 659 544 1381 
z
M 1991 3584 
L 1991 3584 
z
" transform="scale(0.015625)"/>
       <path id="DejaVuSans-6d" d="M 3328 2828 
Q 3544 3216 3844 3400 
Q 4144 3584 4550 3584 
Q 5097 3584 5394 3201 
Q 5691 2819 5691 2113 
L 5691 0 
L 5113 0 
L 5113 2094 
Q 5113 2597 4934 2840 
Q 4756 3084 4391 3084 
Q 3944 3084 3684 2787 
Q 3425 2491 3425 1978 
L 3425 0 
L 2847 0 
L 2847 2094 
Q 2847 2600 2669 2842 
Q 2491 3084 2119 3084 
Q 1678 3084 1418 2786 
Q 1159 2488 1159 1978 
L 1159 0 
L 581 0 
L 581 3500 
L 1159 3500 
L 1159 2956 
Q 1356 3278 1631 3431 
Q 1906 3584 2284 3584 
Q 2666 3584 2933 3390 
Q 3200 3197 3328 2828 
z
" transform="scale(0.015625)"/>
       <path id="DejaVuSans-62" d="M 3116 1747 
Q 3116 2381 2855 2742 
Q 2594 3103 2138 3103 
Q 1681 3103 1420 2742 
Q 1159 2381 1159 1747 
Q 1159 1113 1420 752 
Q 1681 391 2138 391 
Q 2594 391 2855 752 
Q 3116 1113 3116 1747 
z
M 1159 2969 
Q 1341 3281 1617 3432 
Q 1894 3584 2278 3584 
Q 2916 3584 3314 3078 
Q 3713 2572 3713 1747 
Q 3713 922 3314 415 
Q 2916 -91 2278 -91 
Q 1894 -91 1617 61 
Q 1341 213 1159 525 
L 1159 0 
L 581 0 
L 581 4863 
L 1159 4863 
L 1159 2969 
z
" transform="scale(0.015625)"/>
       <path id="DejaVuSans-65" d="M 3597 1894 
L 3597 1613 
L 953 1613 
Q 991 1019 1311 708 
Q 1631 397 2203 397 
Q 2534 397 2845 478 
Q 3156 559 3463 722 
L 3463 178 
Q 3153 47 2828 -22 
Q 2503 -91 2169 -91 
Q 1331 -91 842 396 
Q 353 884 353 1716 
Q 353 2575 817 3079 
Q 1281 3584 2069 3584 
Q 2775 3584 3186 3129 
Q 3597 2675 3597 1894 
z
M 3022 2063 
Q 3016 2534 2758 2815 
Q 2500 3097 2075 3097 
Q 1594 3097 1305 2825 
Q 1016 2553 972 2059 
L 3022 2063 
z
" transform="scale(0.015625)"/>
       <path id="DejaVuSans-72" d="M 2631 2963 
Q 2534 3019 2420 3045 
Q 2306 3072 2169 3072 
Q 1681 3072 1420 2755 
Q 1159 2438 1159 1844 
L 1159 0 
L 581 0 
L 581 3500 
L 1159 3500 
L 1159 2956 
Q 1341 3275 1631 3429 
Q 1922 3584 2338 3584 
Q 2397 3584 2469 3576 
Q 2541 3569 2628 3553 
L 2631 2963 
z
" transform="scale(0.015625)"/>
       <path id="DejaVuSans-20" transform="scale(0.015625)"/>
       <path id="DejaVuSans-6f" d="M 1959 3097 
Q 1497 3097 1228 2736 
Q 959 2375 959 1747 
Q 959 1119 1226 758 
Q 1494 397 1959 397 
Q 2419 397 2687 759 
Q 2956 1122 2956 1747 
Q 2956 2369 2687 2733 
Q 2419 3097 1959 3097 
z
M 1959 3584 
Q 2709 3584 3137 3096 
Q 3566 2609 3566 1747 
Q 3566 888 3137 398 
Q 2709 -91 1959 -91 
Q 1206 -91 779 398 
Q 353 888 353 1747 
Q 353 2609 779 3096 
Q 1206 3584 1959 3584 
z
" transform="scale(0.015625)"/>
       <path id="DejaVuSans-66" d="M 2375 4863 
L 2375 4384 
L 1825 4384 
Q 1516 4384 1395 4259 
Q 1275 4134 1275 3809 
L 1275 3500 
L 2222 3500 
L 2222 3053 
L 1275 3053 
L 1275 0 
L 697 0 
L 697 3053 
L 147 3053 
L 147 3500 
L 697 3500 
L 697 3744 
Q 697 4328 969 4595 
Q 1241 4863 1831 4863 
L 2375 4863 
z
" transform="scale(0.015625)"/>
       <path id="DejaVuSans-54" d="M -19 4666 
L 3928 4666 
L 3928 4134 
L 2272 4134 
L 2272 0 
L 1638 0 
L 1638 4134 
L -19 4134 
L -19 4666 
z
" transform="scale(0.015625)"/>
       <path id="DejaVuSans-73" d="M 2834 3397 
L 2834 2853 
Q 2591 2978 2328 3040 
Q 2066 3103 1784 3103 
Q 1356 3103 1142 2972 
Q 928 2841 928 2578 
Q 928 2378 1081 2264 
Q 1234 2150 1697 2047 
L 1894 2003 
Q 2506 1872 2764 1633 
Q 3022 1394 3022 966 
Q 3022 478 2636 193 
Q 2250 -91 1575 -91 
Q 1294 -91 989 -36 
Q 684 19 347 128 
L 347 722 
Q 666 556 975 473 
Q 1284 391 1588 391 
Q 1994 391 2212 530 
Q 2431 669 2431 922 
Q 2431 1156 2273 1281 
Q 2116 1406 1581 1522 
L 1381 1569 
Q 847 1681 609 1914 
Q 372 2147 372 2553 
Q 372 3047 722 3315 
Q 1072 3584 1716 3584 
Q 2034 3584 2315 3537 
Q 2597 3491 2834 3397 
z
" transform="scale(0.015625)"/>
      </defs>
      <use xlink:href="#DejaVuSans-4e"/>
      <use xlink:href="#DejaVuSans-75" transform="translate(74.804688 0)"/>
      <use xlink:href="#DejaVuSans-6d" transform="translate(138.183594 0)"/>
      <use xlink:href="#DejaVuSans-62" transform="translate(235.595703 0)"/>
      <use xlink:href="#DejaVuSans-65" transform="translate(299.072266 0)"/>
      <use xlink:href="#DejaVuSans-72" transform="translate(360.595703 0)"/>
      <use xlink:href="#DejaVuSans-20" transform="translate(401.708984 0)"/>
      <use xlink:href="#DejaVuSans-6f" transform="translate(433.496094 0)"/>
      <use xlink:href="#DejaVuSans-66" transform="translate(494.677734 0)"/>
      <use xlink:href="#DejaVuSans-20" transform="translate(529.882812 0)"/>
      <use xlink:href="#DejaVuSans-54" transform="translate(561.669922 0)"/>
      <use xlink:href="#DejaVuSans-72" transform="translate(608.003906 0)"/>
      <use xlink:href="#DejaVuSans-65" transform="translate(646.867188 0)"/>
      <use xlink:href="#DejaVuSans-65" transform="translate(708.390625 0)"/>
      <use xlink:href="#DejaVuSans-73" transform="translate(769.914062 0)"/>
     </g>
    </g>
   </g>
   <g id="matplotlib.axis_2">
    <g id="ytick_1">
     <g id="line2d_7">
      <defs>
       <path id="m2b1f73b6d6" d="M 0 0 
L -3.5 0 
" style="stroke: #000000; stroke-width: 0.8"/>
      </defs>
      <g>
       <use xlink:href="#m2b1f73b6d6" x="62.48" y="295.088791" style="stroke: #000000; stroke-width: 0.8"/>
      </g>
     </g>
     <g id="text_8">
      <!-- 0.0 -->
      <g transform="translate(34.805938 300.027776) scale(0.13 -0.13)">
       <defs>
        <path id="DejaVuSans-2e" d="M 684 794 
L 1344 794 
L 1344 0 
L 684 0 
L 684 794 
z
" transform="scale(0.015625)"/>
       </defs>
       <use xlink:href="#DejaVuSans-30"/>
       <use xlink:href="#DejaVuSans-2e" transform="translate(63.623047 0)"/>
       <use xlink:href="#DejaVuSans-30" transform="translate(95.410156 0)"/>
      </g>
     </g>
    </g>
    <g id="ytick_2">
     <g id="line2d_8">
      <g>
       <use xlink:href="#m2b1f73b6d6" x="62.48" y="239.264616" style="stroke: #000000; stroke-width: 0.8"/>
      </g>
     </g>
     <g id="text_9">
      <!-- 0.2 -->
      <g transform="translate(34.805938 244.2036) scale(0.13 -0.13)">
       <use xlink:href="#DejaVuSans-30"/>
       <use xlink:href="#DejaVuSans-2e" transform="translate(63.623047 0)"/>
       <use xlink:href="#DejaVuSans-32" transform="translate(95.410156 0)"/>
      </g>
     </g>
    </g>
    <g id="ytick_3">
     <g id="line2d_9">
      <g>
       <use xlink:href="#m2b1f73b6d6" x="62.48" y="183.440441" style="stroke: #000000; stroke-width: 0.8"/>
      </g>
     </g>
     <g id="text_10">
      <!-- 0.4 -->
      <g transform="translate(34.805938 188.379425) scale(0.13 -0.13)">
       <use xlink:href="#DejaVuSans-30"/>
       <use xlink:href="#DejaVuSans-2e" transform="translate(63.623047 0)"/>
       <use xlink:href="#DejaVuSans-34" transform="translate(95.410156 0)"/>
      </g>
     </g>
    </g>
    <g id="ytick_4">
     <g id="line2d_10">
      <g>
       <use xlink:href="#m2b1f73b6d6" x="62.48" y="127.616265" style="stroke: #000000; stroke-width: 0.8"/>
      </g>
     </g>
     <g id="text_11">
      <!-- 0.6 -->
      <g transform="translate(34.805938 132.55525) scale(0.13 -0.13)">
       <defs>
        <path id="DejaVuSans-36" d="M 2113 2584 
Q 1688 2584 1439 2293 
Q 1191 2003 1191 1497 
Q 1191 994 1439 701 
Q 1688 409 2113 409 
Q 2538 409 2786 701 
Q 3034 994 3034 1497 
Q 3034 2003 2786 2293 
Q 2538 2584 2113 2584 
z
M 3366 4563 
L 3366 3988 
Q 3128 4100 2886 4159 
Q 2644 4219 2406 4219 
Q 1781 4219 1451 3797 
Q 1122 3375 1075 2522 
Q 1259 2794 1537 2939 
Q 1816 3084 2150 3084 
Q 2853 3084 3261 2657 
Q 3669 2231 3669 1497 
Q 3669 778 3244 343 
Q 2819 -91 2113 -91 
Q 1303 -91 875 529 
Q 447 1150 447 2328 
Q 447 3434 972 4092 
Q 1497 4750 2381 4750 
Q 2619 4750 2861 4703 
Q 3103 4656 3366 4563 
z
" transform="scale(0.015625)"/>
       </defs>
       <use xlink:href="#DejaVuSans-30"/>
       <use xlink:href="#DejaVuSans-2e" transform="translate(63.623047 0)"/>
       <use xlink:href="#DejaVuSans-36" transform="translate(95.410156 0)"/>
      </g>
     </g>
    </g>
    <g id="ytick_5">
     <g id="line2d_11">
      <g>
       <use xlink:href="#m2b1f73b6d6" x="62.48" y="71.79209" style="stroke: #000000; stroke-width: 0.8"/>
      </g>
     </g>
     <g id="text_12">
      <!-- 0.8 -->
      <g transform="translate(34.805938 76.731074) scale(0.13 -0.13)">
       <defs>
        <path id="DejaVuSans-38" d="M 2034 2216 
Q 1584 2216 1326 1975 
Q 1069 1734 1069 1313 
Q 1069 891 1326 650 
Q 1584 409 2034 409 
Q 2484 409 2743 651 
Q 3003 894 3003 1313 
Q 3003 1734 2745 1975 
Q 2488 2216 2034 2216 
z
M 1403 2484 
Q 997 2584 770 2862 
Q 544 3141 544 3541 
Q 544 4100 942 4425 
Q 1341 4750 2034 4750 
Q 2731 4750 3128 4425 
Q 3525 4100 3525 3541 
Q 3525 3141 3298 2862 
Q 3072 2584 2669 2484 
Q 3125 2378 3379 2068 
Q 3634 1759 3634 1313 
Q 3634 634 3220 271 
Q 2806 -91 2034 -91 
Q 1263 -91 848 271 
Q 434 634 434 1313 
Q 434 1759 690 2068 
Q 947 2378 1403 2484 
z
M 1172 3481 
Q 1172 3119 1398 2916 
Q 1625 2713 2034 2713 
Q 2441 2713 2670 2916 
Q 2900 3119 2900 3481 
Q 2900 3844 2670 4047 
Q 2441 4250 2034 4250 
Q 1625 4250 1398 4047 
Q 1172 3844 1172 3481 
z
" transform="scale(0.015625)"/>
       </defs>
       <use xlink:href="#DejaVuSans-30"/>
       <use xlink:href="#DejaVuSans-2e" transform="translate(63.623047 0)"/>
       <use xlink:href="#DejaVuSans-38" transform="translate(95.410156 0)"/>
      </g>
     </g>
    </g>
    <g id="ytick_6">
     <g id="line2d_12">
      <g>
       <use xlink:href="#m2b1f73b6d6" x="62.48" y="15.967915" style="stroke: #000000; stroke-width: 0.8"/>
      </g>
     </g>
     <g id="text_13">
      <!-- 1.0 -->
      <g transform="translate(34.805938 20.906899) scale(0.13 -0.13)">
       <use xlink:href="#DejaVuSans-31"/>
       <use xlink:href="#DejaVuSans-2e" transform="translate(63.623047 0)"/>
       <use xlink:href="#DejaVuSans-30" transform="translate(95.410156 0)"/>
      </g>
     </g>
    </g>
    <g id="text_14">
     <!-- Dispersal Estimate -->
     <g transform="translate(26.646563 249.290853) rotate(-90) scale(0.2 -0.2)">
      <defs>
       <path id="DejaVuSans-44" d="M 1259 4147 
L 1259 519 
L 2022 519 
Q 2988 519 3436 956 
Q 3884 1394 3884 2338 
Q 3884 3275 3436 3711 
Q 2988 4147 2022 4147 
L 1259 4147 
z
M 628 4666 
L 1925 4666 
Q 3281 4666 3915 4102 
Q 4550 3538 4550 2338 
Q 4550 1131 3912 565 
Q 3275 0 1925 0 
L 628 0 
L 628 4666 
z
" transform="scale(0.015625)"/>
       <path id="DejaVuSans-69" d="M 603 3500 
L 1178 3500 
L 1178 0 
L 603 0 
L 603 3500 
z
M 603 4863 
L 1178 4863 
L 1178 4134 
L 603 4134 
L 603 4863 
z
" transform="scale(0.015625)"/>
       <path id="DejaVuSans-70" d="M 1159 525 
L 1159 -1331 
L 581 -1331 
L 581 3500 
L 1159 3500 
L 1159 2969 
Q 1341 3281 1617 3432 
Q 1894 3584 2278 3584 
Q 2916 3584 3314 3078 
Q 3713 2572 3713 1747 
Q 3713 922 3314 415 
Q 2916 -91 2278 -91 
Q 1894 -91 1617 61 
Q 1341 213 1159 525 
z
M 3116 1747 
Q 3116 2381 2855 2742 
Q 2594 3103 2138 3103 
Q 1681 3103 1420 2742 
Q 1159 2381 1159 1747 
Q 1159 1113 1420 752 
Q 1681 391 2138 391 
Q 2594 391 2855 752 
Q 3116 1113 3116 1747 
z
" transform="scale(0.015625)"/>
       <path id="DejaVuSans-61" d="M 2194 1759 
Q 1497 1759 1228 1600 
Q 959 1441 959 1056 
Q 959 750 1161 570 
Q 1363 391 1709 391 
Q 2188 391 2477 730 
Q 2766 1069 2766 1631 
L 2766 1759 
L 2194 1759 
z
M 3341 1997 
L 3341 0 
L 2766 0 
L 2766 531 
Q 2569 213 2275 61 
Q 1981 -91 1556 -91 
Q 1019 -91 701 211 
Q 384 513 384 1019 
Q 384 1609 779 1909 
Q 1175 2209 1959 2209 
L 2766 2209 
L 2766 2266 
Q 2766 2663 2505 2880 
Q 2244 3097 1772 3097 
Q 1472 3097 1187 3025 
Q 903 2953 641 2809 
L 641 3341 
Q 956 3463 1253 3523 
Q 1550 3584 1831 3584 
Q 2591 3584 2966 3190 
Q 3341 2797 3341 1997 
z
" transform="scale(0.015625)"/>
       <path id="DejaVuSans-6c" d="M 603 4863 
L 1178 4863 
L 1178 0 
L 603 0 
L 603 4863 
z
" transform="scale(0.015625)"/>
       <path id="DejaVuSans-45" d="M 628 4666 
L 3578 4666 
L 3578 4134 
L 1259 4134 
L 1259 2753 
L 3481 2753 
L 3481 2222 
L 1259 2222 
L 1259 531 
L 3634 531 
L 3634 0 
L 628 0 
L 628 4666 
z
" transform="scale(0.015625)"/>
       <path id="DejaVuSans-74" d="M 1172 4494 
L 1172 3500 
L 2356 3500 
L 2356 3053 
L 1172 3053 
L 1172 1153 
Q 1172 725 1289 603 
Q 1406 481 1766 481 
L 2356 481 
L 2356 0 
L 1766 0 
Q 1100 0 847 248 
Q 594 497 594 1153 
L 594 3053 
L 172 3053 
L 172 3500 
L 594 3500 
L 594 4494 
L 1172 4494 
z
" transform="scale(0.015625)"/>
      </defs>
      <use xlink:href="#DejaVuSans-44"/>
      <use xlink:href="#DejaVuSans-69" transform="translate(77.001953 0)"/>
      <use xlink:href="#DejaVuSans-73" transform="translate(104.785156 0)"/>
      <use xlink:href="#DejaVuSans-70" transform="translate(156.884766 0)"/>
      <use xlink:href="#DejaVuSans-65" transform="translate(220.361328 0)"/>
      <use xlink:href="#DejaVuSans-72" transform="translate(281.884766 0)"/>
      <use xlink:href="#DejaVuSans-73" transform="translate(322.998047 0)"/>
      <use xlink:href="#DejaVuSans-61" transform="translate(375.097656 0)"/>
      <use xlink:href="#DejaVuSans-6c" transform="translate(436.376953 0)"/>
      <use xlink:href="#DejaVuSans-20" transform="translate(464.160156 0)"/>
      <use xlink:href="#DejaVuSans-45" transform="translate(495.947266 0)"/>
      <use xlink:href="#DejaVuSans-73" transform="translate(559.130859 0)"/>
      <use xlink:href="#DejaVuSans-74" transform="translate(611.230469 0)"/>
      <use xlink:href="#DejaVuSans-69" transform="translate(650.439453 0)"/>
      <use xlink:href="#DejaVuSans-6d" transform="translate(678.222656 0)"/>
      <use xlink:href="#DejaVuSans-61" transform="translate(775.634766 0)"/>
      <use xlink:href="#DejaVuSans-74" transform="translate(836.914062 0)"/>
      <use xlink:href="#DejaVuSans-65" transform="translate(876.123047 0)"/>
     </g>
    </g>
   </g>
   <g id="line2d_13">
    <path d="M 88.217997 253.572838 
L 93.867802 248.461065 
L 100.145362 248.023574 
L 106.422922 246.824485 
L 112.700483 243.253495 
L 118.978043 243.164456 
L 125.255603 239.209627 
L 131.533164 236.898714 
L 137.810724 236.726319 
L 144.088284 233.694949 
L 150.365845 223.786508 
L 156.643405 223.486573 
L 162.920965 215.59367 
L 169.198526 214.026134 
L 175.476086 198.773846 
L 181.753646 188.194319 
L 188.031207 183.512936 
L 194.308767 182.908836 
L 200.586327 181.6659 
L 206.863888 179.501462 
L 213.141448 176.793608 
L 219.419008 173.156245 
L 225.696569 171.938191 
L 231.974129 165.566091 
L 238.251689 164.134993 
L 244.52925 163.491443 
L 250.80681 161.688212 
L 257.08437 156.784493 
L 263.361931 154.438561 
L 269.639491 147.764115 
L 275.917051 144.593735 
L 282.194612 139.719388 
L 288.472172 135.885044 
L 294.749732 134.836285 
L 301.027293 134.616397 
L 307.304853 133.576216 
L 313.582413 131.15445 
L 319.859974 130.841124 
L 326.137534 130.356898 
L 332.415094 124.851687 
L 338.692655 123.513119 
L 344.970215 120.666455 
L 351.247775 116.108921 
L 357.525336 110.614483 
L 363.802896 106.79021 
L 370.080456 105.292131 
L 376.358017 104.985858 
L 382.635577 103.089631 
L 388.913137 100.963455 
L 395.190698 100.790536 
" clip-path="url(#p835926833f)" style="fill: none; stroke: #ff0000; stroke-width: 1.5; stroke-linecap: square"/>
   </g>
   <g id="line2d_14">
    <path d="M 88.217997 239.085984 
L 93.867802 237.765328 
L 100.145362 236.617163 
L 106.422922 232.642362 
L 112.700483 231.669275 
L 118.978043 231.531562 
L 125.255603 227.497468 
L 131.533164 224.805778 
L 137.810724 222.199074 
L 144.088284 222.194023 
L 150.365845 216.529873 
L 156.643405 215.168376 
L 162.920965 214.432674 
L 169.198526 211.68912 
L 175.476086 211.335756 
L 181.753646 208.084805 
L 188.031207 207.721935 
L 194.308767 205.030441 
L 200.586327 200.6831 
L 206.863888 194.182993 
L 213.141448 193.080867 
L 219.419008 186.75314 
L 225.696569 185.766475 
L 231.974129 184.620037 
L 238.251689 183.45539 
L 244.52925 182.624613 
L 250.80681 181.854295 
L 257.08437 181.657517 
L 263.361931 178.790152 
L 269.639491 177.257636 
L 275.917051 176.004055 
L 282.194612 175.403241 
L 288.472172 175.197026 
L 294.749732 169.907835 
L 301.027293 169.334713 
L 307.304853 166.129641 
L 313.582413 164.024094 
L 319.859974 158.137469 
L 326.137534 156.327597 
L 332.415094 153.813725 
L 338.692655 153.468182 
L 344.970215 153.453199 
L 351.247775 153.012374 
L 357.525336 145.746633 
L 363.802896 145.561889 
L 370.080456 143.393626 
L 376.358017 143.232248 
L 382.635577 141.55011 
" clip-path="url(#p835926833f)" style="fill: none; stroke: #ff0000; stroke-width: 1.5; stroke-linecap: square"/>
   </g>
   <g id="line2d_15">
    <path d="M 88.217997 230.424521 
L 93.867802 229.095051 
L 100.145362 227.98059 
L 106.422922 227.114597 
L 112.700483 225.61951 
L 118.978043 225.231259 
L 125.255603 221.955455 
L 131.533164 217.626459 
L 137.810724 216.283098 
L 144.088284 215.929967 
L 150.365845 215.390852 
L 156.643405 215.343209 
L 162.920965 213.340255 
L 169.198526 212.143616 
L 175.476086 212.038272 
L 181.753646 210.253711 
L 188.031207 209.581041 
L 194.308767 207.975592 
L 200.586327 204.772675 
L 206.863888 200.291328 
L 213.141448 195.234161 
L 219.419008 193.322875 
L 225.696569 189.38356 
L 231.974129 179.432892 
L 238.251689 177.744497 
L 244.52925 172.81891 
L 250.80681 170.868527 
L 257.08437 170.758121 
L 263.361931 167.181534 
L 269.639491 167.040854 
L 275.917051 166.611644 
L 282.194612 163.717151 
L 288.472172 161.162304 
L 294.749732 160.083087 
L 301.027293 155.263935 
L 307.304853 152.922418 
L 313.582413 148.193653 
L 319.859974 146.108027 
L 326.137534 144.732602 
L 332.415094 141.880869 
L 338.692655 127.633792 
L 344.970215 125.100562 
L 351.247775 119.541163 
L 357.525336 119.033658 
L 363.802896 112.960872 
L 370.080456 111.860168 
L 376.358017 109.924229 
L 382.635577 109.595628 
L 388.913137 108.846297 
L 395.190698 107.819258 
" clip-path="url(#p835926833f)" style="fill: none; stroke: #ff0000; stroke-width: 1.5; stroke-linecap: square"/>
   </g>
   <g id="line2d_16">
    <path d="M 88.217997 236.096666 
L 93.867802 234.32219 
L 100.145362 226.142005 
L 106.422922 224.245208 
L 112.700483 223.393601 
L 118.978043 222.827249 
L 125.255603 218.923714 
L 131.533164 217.06706 
L 137.810724 213.379041 
L 144.088284 213.310795 
L 150.365845 213.052576 
L 156.643405 212.648535 
L 162.920965 212.606993 
L 169.198526 205.310887 
L 175.476086 202.335122 
L 181.753646 200.660894 
L 188.031207 200.199249 
L 194.308767 198.405126 
L 200.586327 194.913125 
L 206.863888 189.984242 
L 213.141448 189.10877 
L 219.419008 187.181658 
L 225.696569 185.265031 
L 231.974129 183.638161 
L 238.251689 182.413593 
L 244.52925 181.664206 
L 250.80681 179.121117 
L 257.08437 178.626808 
L 263.361931 175.05698 
L 269.639491 174.349661 
L 275.917051 170.613576 
L 282.194612 163.74075 
L 288.472172 163.420557 
L 294.749732 162.331253 
L 301.027293 161.755679 
L 307.304853 161.672812 
L 313.582413 159.158896 
L 319.859974 154.762966 
L 326.137534 154.20958 
L 332.415094 151.11303 
L 338.692655 150.423996 
L 344.970215 144.001122 
L 351.247775 143.279627 
L 357.525336 141.764489 
L 363.802896 140.178424 
L 370.080456 135.255108 
L 376.358017 134.302206 
L 382.635577 133.592631 
L 388.913137 130.22937 
L 395.190698 129.017923 
" clip-path="url(#p835926833f)" style="fill: none; stroke: #ff0000; stroke-width: 1.5; stroke-linecap: square"/>
   </g>
   <g id="line2d_17">
    <path d="M 88.217997 231.001232 
L 93.867802 228.585869 
L 100.145362 227.080277 
L 106.422922 227.029164 
L 112.700483 226.220894 
L 118.978043 223.258215 
L 125.255603 220.376721 
L 131.533164 219.648592 
L 137.810724 215.148143 
L 144.088284 213.080196 
L 150.365845 209.670022 
L 156.643405 208.230716 
L 162.920965 197.682444 
L 169.198526 193.072572 
L 175.476086 188.731316 
L 181.753646 185.609199 
L 188.031207 183.192566 
L 194.308767 182.261713 
L 200.586327 182.025061 
L 206.863888 178.070318 
L 213.141448 169.521646 
L 219.419008 168.430447 
L 225.696569 155.227561 
L 231.974129 152.535469 
L 238.251689 150.331342 
L 244.52925 149.730402 
L 250.80681 142.710195 
L 257.08437 128.696517 
L 263.361931 126.877074 
L 269.639491 125.252763 
L 275.917051 116.643466 
L 282.194612 113.04723 
L 288.472172 110.513923 
L 294.749732 101.021351 
L 301.027293 93.295052 
L 307.304853 87.41853 
L 313.582413 84.509172 
L 319.859974 81.805861 
L 326.137534 81.640753 
L 332.415094 80.09724 
L 338.692655 76.147819 
L 344.970215 75.888043 
L 351.247775 69.777769 
L 357.525336 67.032845 
L 363.802896 66.849986 
L 370.080456 65.593491 
L 376.358017 57.156133 
L 382.635577 56.250846 
L 388.913137 54.382528 
L 395.190698 53.574287 
" clip-path="url(#p835926833f)" style="fill: none; stroke: #ff0000; stroke-width: 1.5; stroke-linecap: square"/>
   </g>
   <g id="line2d_18">
    <path d="M 88.217997 252.171964 
L 93.867802 251.232954 
L 100.145362 249.031554 
L 106.422922 247.467205 
L 112.700483 246.822947 
L 118.978043 245.591501 
L 125.255603 245.029951 
L 131.533164 244.768318 
L 137.810724 242.967228 
L 144.088284 242.254434 
L 150.365845 242.159177 
L 156.643405 241.802882 
L 162.920965 241.739618 
L 169.198526 240.013678 
L 175.476086 239.064999 
L 181.753646 237.462961 
L 188.031207 236.752254 
L 194.308767 235.211034 
L 200.586327 234.331538 
L 206.863888 233.531076 
L 213.141448 232.29092 
L 219.419008 229.764557 
L 225.696569 226.819509 
L 231.974129 226.280558 
L 238.251689 226.262595 
L 244.52925 226.088756 
L 250.80681 226.004504 
L 257.08437 225.554941 
L 263.361931 225.418035 
L 269.639491 225.393735 
L 275.917051 224.485764 
L 282.194612 223.031717 
L 288.472172 222.242972 
L 294.749732 220.97533 
L 301.027293 220.694798 
L 307.304853 218.055839 
L 313.582413 216.415946 
L 319.859974 216.405888 
L 326.137534 215.010363 
L 332.415094 213.890293 
L 338.692655 211.698088 
L 344.970215 207.419382 
L 351.247775 204.986818 
L 357.525336 204.594901 
L 363.802896 204.099349 
L 370.080456 203.017612 
L 376.358017 201.486189 
L 382.635577 201.25766 
L 388.913137 199.091401 
L 395.190698 196.383978 
" clip-path="url(#p835926833f)" style="fill: none; stroke: #008000; stroke-width: 1.5; stroke-linecap: square"/>
   </g>
   <g id="line2d_19">
    <path d="M 88.217997 257.680045 
L 93.867802 257.430379 
L 100.145362 257.06386 
L 106.422922 256.688252 
L 112.700483 253.076685 
L 118.978043 252.524502 
L 125.255603 249.378533 
L 131.533164 249.288309 
L 137.810724 248.516625 
L 144.088284 248.343389 
L 150.365845 247.564743 
L 156.643405 247.467266 
L 162.920965 245.101306 
L 169.198526 241.21311 
L 175.476086 241.207697 
L 181.753646 239.809716 
L 188.031207 239.696752 
L 194.308767 238.834445 
L 200.586327 238.562144 
L 206.863888 238.547622 
L 213.141448 238.086276 
L 219.419008 237.99621 
L 225.696569 237.030088 
L 231.974129 236.986491 
L 238.251689 236.524047 
L 244.52925 233.962243 
L 250.80681 231.547146 
L 257.08437 231.314147 
L 263.361931 231.148426 
L 269.639491 230.229348 
L 275.917051 228.831228 
L 282.194612 228.800618 
L 288.472172 228.484529 
L 294.749732 226.889777 
L 301.027293 226.285638 
L 307.304853 223.841965 
L 313.582413 223.463369 
L 319.859974 223.11533 
L 326.137534 219.103169 
L 332.415094 218.005055 
L 338.692655 215.802142 
L 344.970215 214.180988 
L 351.247775 214.107295 
L 357.525336 212.338826 
L 363.802896 212.05046 
L 370.080456 207.529946 
L 376.358017 207.50745 
L 382.635577 206.442307 
L 388.913137 205.670157 
L 395.190698 205.150084 
" clip-path="url(#p835926833f)" style="fill: none; stroke: #008000; stroke-width: 1.5; stroke-linecap: square"/>
   </g>
   <g id="line2d_20">
    <path d="M 88.217997 250.307172 
L 93.867802 250.30622 
L 100.145362 250.146047 
L 106.422922 250.006418 
L 112.700483 249.21199 
L 118.978043 248.081938 
L 125.255603 246.305712 
L 131.533164 246.106464 
L 137.810724 245.821866 
L 144.088284 245.81894 
L 150.365845 244.861424 
L 156.643405 242.556523 
L 162.920965 241.448024 
L 169.198526 238.306243 
L 175.476086 238.186591 
L 181.753646 237.438805 
L 188.031207 236.986663 
L 194.308767 234.736658 
L 200.586327 234.410219 
L 206.863888 233.513117 
L 213.141448 228.009558 
L 219.419008 227.878066 
L 225.696569 222.555515 
L 231.974129 218.563831 
L 238.251689 215.290845 
L 244.52925 214.65808 
L 250.80681 210.9543 
L 257.08437 210.382411 
L 263.361931 210.268581 
L 269.639491 209.422123 
L 275.917051 209.349243 
L 282.194612 209.220432 
L 288.472172 208.656665 
L 294.749732 204.087658 
L 301.027293 201.859028 
L 307.304853 200.81043 
L 313.582413 200.444612 
L 319.859974 199.79051 
L 326.137534 195.863336 
L 332.415094 195.606969 
L 338.692655 195.363478 
L 344.970215 195.136148 
L 351.247775 195.073471 
L 357.525336 194.991156 
L 363.802896 192.512906 
L 370.080456 192.39914 
L 376.358017 189.777196 
L 382.635577 189.086581 
L 388.913137 188.545286 
L 395.190698 179.295481 
" clip-path="url(#p835926833f)" style="fill: none; stroke: #008000; stroke-width: 1.5; stroke-linecap: square"/>
   </g>
   <g id="line2d_21">
    <path d="M 88.217997 253.154741 
L 93.867802 253.090665 
L 100.145362 251.782388 
L 106.422922 251.773813 
L 112.700483 250.134215 
L 118.978043 250.008833 
L 125.255603 249.979834 
L 131.533164 246.141292 
L 137.810724 245.619633 
L 144.088284 244.615146 
L 150.365845 241.847338 
L 156.643405 241.419469 
L 162.920965 241.295604 
L 169.198526 240.913396 
L 175.476086 240.802594 
L 181.753646 235.688288 
L 188.031207 235.676917 
L 194.308767 233.400494 
L 200.586327 233.363813 
L 206.863888 232.84472 
L 213.141448 232.114016 
L 219.419008 229.089316 
L 225.696569 228.798504 
L 231.974129 226.165288 
L 238.251689 221.495685 
L 244.52925 221.34429 
L 250.80681 220.604234 
L 257.08437 217.336012 
L 263.361931 217.334189 
L 269.639491 216.677991 
L 275.917051 216.677402 
L 282.194612 214.050988 
L 288.472172 213.885416 
L 294.749732 212.664907 
L 301.027293 212.65189 
L 307.304853 212.42127 
L 313.582413 212.408789 
L 319.859974 211.759977 
L 326.137534 210.415662 
L 332.415094 210.409175 
L 338.692655 209.485641 
L 344.970215 207.700438 
L 351.247775 206.477722 
L 357.525336 205.00949 
L 363.802896 204.95496 
L 370.080456 202.72427 
L 376.358017 195.063582 
L 382.635577 193.775405 
L 388.913137 190.639397 
L 395.190698 190.475137 
" clip-path="url(#p835926833f)" style="fill: none; stroke: #008000; stroke-width: 1.5; stroke-linecap: square"/>
   </g>
   <g id="line2d_22">
    <path d="M 88.217997 242.367969 
L 93.867802 241.484615 
L 100.145362 241.372632 
L 106.422922 241.342755 
L 112.700483 239.451773 
L 118.978043 236.969101 
L 125.255603 236.445889 
L 131.533164 232.196687 
L 137.810724 231.421989 
L 144.088284 231.392343 
L 150.365845 231.232252 
L 156.643405 229.1728 
L 162.920965 225.046765 
L 169.198526 224.445708 
L 175.476086 224.269578 
L 181.753646 224.176751 
L 188.031207 223.555832 
L 194.308767 219.206782 
L 200.586327 217.579377 
L 206.863888 214.945333 
L 213.141448 210.74643 
L 219.419008 207.946753 
L 225.696569 207.275204 
L 231.974129 202.322511 
L 238.251689 202.182594 
L 244.52925 202.034072 
L 250.80681 198.271336 
L 257.08437 198.098047 
L 263.361931 194.3515 
L 269.639491 193.777882 
L 275.917051 191.564971 
L 282.194612 187.116683 
L 288.472172 186.503874 
L 294.749732 185.551638 
L 301.027293 184.247395 
L 307.304853 182.182401 
L 313.582413 179.162908 
L 319.859974 176.854795 
L 326.137534 175.818906 
L 332.415094 173.820992 
L 338.692655 173.406946 
L 344.970215 172.119208 
L 351.247775 172.024734 
L 357.525336 171.110506 
L 363.802896 169.874125 
L 370.080456 167.375001 
L 376.358017 167.134376 
L 382.635577 167.051343 
L 388.913137 157.961359 
L 395.190698 155.36821 
" clip-path="url(#p835926833f)" style="fill: none; stroke: #008000; stroke-width: 1.5; stroke-linecap: square"/>
   </g>
   <g id="line2d_23">
    <path d="M 88.217997 274.106408 
L 93.867802 274.105602 
L 100.145362 273.796452 
L 106.422922 272.855382 
L 112.700483 272.775301 
L 118.978043 268.886462 
L 125.255603 268.451995 
L 131.533164 268.449523 
L 137.810724 268.388526 
L 144.088284 268.380308 
L 150.365845 268.164429 
L 156.643405 268.152444 
L 162.920965 267.131137 
L 169.198526 267.101179 
L 175.476086 267.082599 
L 181.753646 267.050608 
L 188.031207 267.050468 
L 194.308767 266.987959 
L 200.586327 266.078623 
L 206.863888 263.321525 
L 213.141448 260.748781 
L 219.419008 260.048904 
L 225.696569 258.864367 
L 231.974129 258.389884 
L 238.251689 258.009941 
L 244.52925 257.853312 
L 250.80681 257.167406 
L 257.08437 256.915456 
L 263.361931 255.547553 
L 269.639491 254.478667 
L 275.917051 254.096585 
L 282.194612 250.786986 
L 288.472172 250.772161 
L 294.749732 250.705384 
L 301.027293 247.992809 
L 307.304853 247.992706 
L 313.582413 247.678512 
L 319.859974 247.251858 
L 326.137534 246.841648 
L 332.415094 245.66053 
L 338.692655 245.371441 
L 344.970215 244.734225 
L 351.247775 244.091279 
L 357.525336 241.722633 
L 363.802896 241.548224 
L 370.080456 240.814456 
L 376.358017 240.095208 
L 382.635577 238.141609 
L 388.913137 235.481655 
L 395.190698 232.44944 
" clip-path="url(#p835926833f)" style="fill: none; stroke: #ffa500; stroke-width: 1.5; stroke-linecap: square"/>
   </g>
   <g id="line2d_24">
    <path d="M 88.217997 264.546543 
L 93.867802 263.457587 
L 100.145362 263.251785 
L 106.422922 261.618932 
L 112.700483 261.57738 
L 118.978043 260.897109 
L 125.255603 260.591296 
L 131.533164 260.564089 
L 137.810724 260.528866 
L 144.088284 260.035136 
L 150.365845 259.971901 
L 156.643405 258.884853 
L 162.920965 258.628485 
L 169.198526 258.500448 
L 175.476086 258.334362 
L 181.753646 258.310569 
L 188.031207 258.237544 
L 194.308767 257.843803 
L 200.586327 257.497523 
L 206.863888 257.493595 
L 213.141448 256.763459 
L 219.419008 256.72652 
L 225.696569 253.785638 
L 231.974129 253.718167 
L 238.251689 253.325402 
L 244.52925 252.85761 
L 250.80681 252.688707 
L 257.08437 252.516499 
L 263.361931 251.754317 
L 269.639491 251.711748 
L 275.917051 251.441376 
L 282.194612 251.209528 
L 288.472172 250.478576 
L 294.749732 249.995502 
L 301.027293 249.598919 
L 307.304853 249.408609 
L 313.582413 249.365059 
L 319.859974 248.404354 
L 326.137534 245.197494 
L 332.415094 244.868415 
L 338.692655 242.770605 
L 344.970215 242.466668 
L 351.247775 242.293187 
L 357.525336 240.804287 
L 363.802896 239.61545 
L 370.080456 239.450945 
L 376.358017 239.236665 
L 382.635577 239.175313 
L 388.913137 237.904713 
L 395.190698 236.858869 
" clip-path="url(#p835926833f)" style="fill: none; stroke: #ffa500; stroke-width: 1.5; stroke-linecap: square"/>
   </g>
   <g id="line2d_25">
    <path d="M 88.217997 270.210916 
L 93.867802 269.579417 
L 100.145362 269.49332 
L 106.422922 269.491436 
L 112.700483 268.623763 
L 118.978043 268.613128 
L 125.255603 267.923941 
L 131.533164 266.324047 
L 137.810724 265.689672 
L 144.088284 265.672792 
L 150.365845 265.569486 
L 156.643405 264.804228 
L 162.920965 264.549941 
L 169.198526 264.517502 
L 175.476086 264.507274 
L 181.753646 264.49968 
L 188.031207 264.400145 
L 194.308767 263.228721 
L 200.586327 260.697722 
L 206.863888 257.267558 
L 213.141448 256.621302 
L 219.419008 255.925542 
L 225.696569 254.923409 
L 231.974129 254.619072 
L 238.251689 253.967112 
L 244.52925 253.649305 
L 250.80681 253.600163 
L 257.08437 253.355255 
L 263.361931 253.123649 
L 269.639491 251.9231 
L 275.917051 251.90659 
L 282.194612 251.563589 
L 288.472172 251.300662 
L 294.749732 250.805935 
L 301.027293 250.537966 
L 307.304853 250.351099 
L 313.582413 249.867742 
L 319.859974 249.063196 
L 326.137534 248.824458 
L 332.415094 248.689226 
L 338.692655 248.656628 
L 344.970215 248.396747 
L 351.247775 248.335555 
L 357.525336 248.190748 
L 363.802896 246.785803 
L 370.080456 246.771837 
L 376.358017 245.502494 
L 382.635577 245.269977 
L 388.913137 242.738569 
L 395.190698 242.346765 
" clip-path="url(#p835926833f)" style="fill: none; stroke: #ffa500; stroke-width: 1.5; stroke-linecap: square"/>
   </g>
   <g id="line2d_26">
    <path d="M 88.217997 266.221151 
L 93.867802 266.098971 
L 100.145362 266.014941 
L 106.422922 265.966561 
L 112.700483 265.809755 
L 118.978043 265.693007 
L 125.255603 265.212313 
L 131.533164 264.246074 
L 137.810724 264.155158 
L 144.088284 263.401871 
L 150.365845 261.297636 
L 156.643405 260.946148 
L 162.920965 260.8924 
L 169.198526 260.886395 
L 175.476086 260.28055 
L 181.753646 260.207381 
L 188.031207 259.460368 
L 194.308767 258.80707 
L 200.586327 258.714564 
L 206.863888 257.207743 
L 213.141448 256.692328 
L 219.419008 252.475648 
L 225.696569 252.4068 
L 231.974129 252.213695 
L 238.251689 251.866801 
L 244.52925 251.553553 
L 250.80681 251.469582 
L 257.08437 251.357447 
L 263.361931 251.074654 
L 269.639491 250.945455 
L 275.917051 250.939952 
L 282.194612 250.192416 
L 288.472172 249.928652 
L 294.749732 249.824363 
L 301.027293 249.478395 
L 307.304853 246.058508 
L 313.582413 243.199239 
L 319.859974 240.73018 
L 326.137534 240.568791 
L 332.415094 240.440142 
L 338.692655 238.668271 
L 344.970215 237.607978 
L 351.247775 237.376431 
L 357.525336 237.303965 
L 363.802896 237.263421 
L 370.080456 233.642609 
L 376.358017 233.479307 
L 382.635577 233.362077 
L 388.913137 231.347392 
L 395.190698 231.338262 
" clip-path="url(#p835926833f)" style="fill: none; stroke: #ffa500; stroke-width: 1.5; stroke-linecap: square"/>
   </g>
   <g id="line2d_27">
    <path d="M 88.217997 279.72669 
L 93.867802 277.68136 
L 100.145362 277.206527 
L 106.422922 277.203753 
L 112.700483 277.203547 
L 118.978043 277.132175 
L 125.255603 277.003997 
L 131.533164 276.994188 
L 137.810724 272.846144 
L 144.088284 272.56508 
L 150.365845 272.534636 
L 156.643405 269.323925 
L 162.920965 269.214302 
L 169.198526 267.904871 
L 175.476086 266.724389 
L 181.753646 266.625257 
L 188.031207 266.49562 
L 194.308767 266.219425 
L 200.586327 265.505154 
L 206.863888 265.124692 
L 213.141448 264.562292 
L 219.419008 264.462283 
L 225.696569 264.141356 
L 231.974129 264.140858 
L 238.251689 258.698259 
L 244.52925 258.505795 
L 250.80681 258.188441 
L 257.08437 258.14096 
L 263.361931 256.867246 
L 269.639491 255.910434 
L 275.917051 255.804579 
L 282.194612 254.400008 
L 288.472172 254.247856 
L 294.749732 252.634754 
L 301.027293 250.705705 
L 307.304853 248.779987 
L 313.582413 248.667077 
L 319.859974 248.460843 
L 326.137534 248.193925 
L 332.415094 246.675907 
L 338.692655 246.164751 
L 344.970215 246.000097 
L 351.247775 245.716594 
L 357.525336 238.604593 
L 363.802896 238.352881 
L 370.080456 237.243381 
L 376.358017 235.945265 
L 382.635577 235.835267 
L 388.913137 235.573436 
L 395.190698 234.930522 
" clip-path="url(#p835926833f)" style="fill: none; stroke: #ffa500; stroke-width: 1.5; stroke-linecap: square"/>
   </g>
   <g id="line2d_28">
    <path d="M 88.217997 282.634539 
L 93.867802 281.647614 
L 100.145362 281.632446 
L 106.422922 281.613473 
L 112.700483 281.576161 
L 118.978043 281.303531 
L 125.255603 280.577704 
L 131.533164 280.396635 
L 137.810724 278.828197 
L 144.088284 278.709342 
L 150.365845 277.483 
L 156.643405 277.352287 
L 162.920965 277.333976 
L 169.198526 275.858177 
L 175.476086 275.561862 
L 181.753646 275.438856 
L 188.031207 274.3644 
L 194.308767 273.700926 
L 200.586327 273.47672 
L 206.863888 273.445653 
L 213.141448 273.445455 
L 219.419008 273.411455 
L 225.696569 270.549082 
L 231.974129 270.537407 
L 238.251689 270.053117 
L 244.52925 269.790304 
L 250.80681 269.23853 
L 257.08437 268.854614 
L 263.361931 268.755899 
L 269.639491 268.570981 
L 275.917051 268.344199 
L 282.194612 268.335389 
L 288.472172 265.153259 
L 294.749732 265.114157 
L 301.027293 264.839502 
L 307.304853 264.803361 
L 313.582413 264.688208 
L 319.859974 264.606087 
L 326.137534 264.581453 
L 332.415094 264.308185 
L 338.692655 264.046859 
L 344.970215 263.797076 
L 351.247775 263.361871 
L 357.525336 263.090554 
L 363.802896 263.069634 
L 370.080456 262.720187 
L 376.358017 262.527433 
L 382.635577 262.086723 
L 388.913137 261.9426 
L 395.190698 261.464024 
" clip-path="url(#p835926833f)" style="fill: none; stroke: #000000; stroke-width: 1.5; stroke-linecap: square"/>
   </g>
   <g id="line2d_29">
    <path d="M 88.217997 281.9663 
L 93.867802 281.959963 
L 100.145362 281.950372 
L 106.422922 281.870964 
L 112.700483 281.846377 
L 118.978043 280.71649 
L 125.255603 280.660867 
L 131.533164 279.363779 
L 137.810724 279.206252 
L 144.088284 279.187382 
L 150.365845 278.596623 
L 156.643405 278.592216 
L 162.920965 278.581108 
L 169.198526 278.503255 
L 175.476086 278.486388 
L 181.753646 277.418066 
L 188.031207 277.296291 
L 194.308767 277.28822 
L 200.586327 277.077231 
L 206.863888 277.017205 
L 213.141448 276.721577 
L 219.419008 275.355767 
L 225.696569 274.857748 
L 231.974129 274.853732 
L 238.251689 274.11193 
L 244.52925 273.831207 
L 250.80681 273.777987 
L 257.08437 273.608763 
L 263.361931 273.576169 
L 269.639491 272.89941 
L 275.917051 272.889078 
L 282.194612 272.809996 
L 288.472172 272.730239 
L 294.749732 272.220876 
L 301.027293 272.070969 
L 307.304853 271.882549 
L 313.582413 271.814494 
L 319.859974 271.807698 
L 326.137534 271.805757 
L 332.415094 271.271067 
L 338.692655 271.085571 
L 344.970215 271.055462 
L 351.247775 271.04578 
L 357.525336 270.666263 
L 363.802896 270.347659 
L 370.080456 270.280933 
L 376.358017 269.671043 
L 382.635577 269.397403 
L 388.913137 269.395311 
L 395.190698 269.339001 
" clip-path="url(#p835926833f)" style="fill: none; stroke: #000000; stroke-width: 1.5; stroke-linecap: square"/>
   </g>
   <g id="line2d_30">
    <path d="M 88.217997 283.634122 
L 93.867802 282.742803 
L 100.145362 282.604237 
L 106.422922 282.14335 
L 112.700483 282.136218 
L 118.978043 282.129334 
L 125.255603 282.117005 
L 131.533164 282.018629 
L 137.810724 282.016957 
L 144.088284 281.860022 
L 150.365845 281.844567 
L 156.643405 280.176997 
L 162.920965 279.581779 
L 169.198526 279.111414 
L 175.476086 278.982161 
L 181.753646 278.729634 
L 188.031207 278.724771 
L 194.308767 278.690584 
L 200.586327 278.498697 
L 206.863888 278.484657 
L 213.141448 278.442611 
L 219.419008 278.441453 
L 225.696569 277.333327 
L 231.974129 277.163797 
L 238.251689 276.382114 
L 244.52925 276.000024 
L 250.80681 275.999455 
L 257.08437 274.77381 
L 263.361931 274.458383 
L 269.639491 274.430583 
L 275.917051 273.687309 
L 282.194612 273.619679 
L 288.472172 273.576406 
L 294.749732 273.539899 
L 301.027293 272.516279 
L 307.304853 272.38772 
L 313.582413 272.038934 
L 319.859974 271.670461 
L 326.137534 270.981893 
L 332.415094 270.980187 
L 338.692655 270.609224 
L 344.970215 270.308765 
L 351.247775 270.201592 
L 357.525336 269.592914 
L 363.802896 269.433922 
L 370.080456 269.378615 
L 376.358017 269.371431 
L 382.635577 267.942887 
L 388.913137 267.309956 
L 395.190698 262.945686 
" clip-path="url(#p835926833f)" style="fill: none; stroke: #000000; stroke-width: 1.5; stroke-linecap: square"/>
   </g>
   <g id="line2d_31">
    <path d="M 88.217997 281.051449 
L 93.867802 280.838334 
L 100.145362 280.803456 
L 106.422922 280.738269 
L 112.700483 280.639424 
L 118.978043 280.466616 
L 125.255603 278.960374 
L 131.533164 278.879321 
L 137.810724 278.541047 
L 144.088284 278.417705 
L 150.365845 278.391872 
L 156.643405 278.391326 
L 162.920965 278.349934 
L 169.198526 278.229782 
L 175.476086 277.204878 
L 181.753646 277.185195 
L 188.031207 277.163587 
L 194.308767 277.157622 
L 200.586327 276.987699 
L 206.863888 275.964555 
L 213.141448 275.886576 
L 219.419008 275.074745 
L 225.696569 275.028252 
L 231.974129 274.725508 
L 238.251689 274.60975 
L 244.52925 274.572303 
L 250.80681 273.577953 
L 257.08437 273.458467 
L 263.361931 273.141912 
L 269.639491 272.803236 
L 275.917051 272.025009 
L 282.194612 271.889305 
L 288.472172 271.657798 
L 294.749732 271.633816 
L 301.027293 271.628429 
L 307.304853 271.49978 
L 313.582413 271.315532 
L 319.859974 270.773524 
L 326.137534 270.693901 
L 332.415094 270.657394 
L 338.692655 270.63777 
L 344.970215 269.022403 
L 351.247775 268.973767 
L 357.525336 268.538622 
L 363.802896 268.485829 
L 370.080456 268.406883 
L 376.358017 267.687963 
L 382.635577 267.507182 
L 388.913137 265.555992 
L 395.190698 265.538521 
" clip-path="url(#p835926833f)" style="fill: none; stroke: #000000; stroke-width: 1.5; stroke-linecap: square"/>
   </g>
   <g id="line2d_32">
    <path d="M 88.217997 280.759101 
L 93.867802 280.390481 
L 100.145362 280.25855 
L 106.422922 279.2361 
L 112.700483 279.141718 
L 118.978043 278.871926 
L 125.255603 278.782772 
L 131.533164 278.085076 
L 137.810724 277.879395 
L 144.088284 277.059471 
L 150.365845 277.000428 
L 156.643405 276.986336 
L 162.920965 276.510622 
L 169.198526 274.595278 
L 175.476086 274.274385 
L 181.753646 274.094212 
L 188.031207 272.855643 
L 194.308767 272.824094 
L 200.586327 272.815286 
L 206.863888 272.603223 
L 213.141448 272.556852 
L 219.419008 272.490386 
L 225.696569 272.456302 
L 231.974129 271.705241 
L 238.251689 271.629196 
L 244.52925 271.534592 
L 250.80681 271.363214 
L 257.08437 271.327345 
L 263.361931 271.296617 
L 269.639491 271.241116 
L 275.917051 271.233979 
L 282.194612 270.99706 
L 288.472172 269.84249 
L 294.749732 269.538842 
L 301.027293 269.476854 
L 307.304853 269.327235 
L 313.582413 268.946592 
L 319.859974 267.390649 
L 326.137534 264.442342 
L 332.415094 264.416473 
L 338.692655 264.129181 
L 344.970215 263.820568 
L 351.247775 263.017401 
L 357.525336 262.55238 
L 363.802896 262.512877 
L 370.080456 262.467186 
L 376.358017 262.011957 
L 382.635577 261.998313 
L 388.913137 261.964311 
L 395.190698 261.82035 
" clip-path="url(#p835926833f)" style="fill: none; stroke: #000000; stroke-width: 1.5; stroke-linecap: square"/>
   </g>
   <g id="patch_3">
    <path d="M 62.48 297.88 
L 62.48 13.176706 
" style="fill: none; stroke: #000000; stroke-width: 0.8; stroke-linejoin: miter; stroke-linecap: square"/>
   </g>
   <g id="patch_4">
    <path d="M 407.745818 297.88 
L 407.745818 13.176706 
" style="fill: none; stroke: #000000; stroke-width: 0.8; stroke-linejoin: miter; stroke-linecap: square"/>
   </g>
   <g id="patch_5">
    <path d="M 62.48 297.88 
L 407.745818 297.88 
" style="fill: none; stroke: #000000; stroke-width: 0.8; stroke-linejoin: miter; stroke-linecap: square"/>
   </g>
   <g id="patch_6">
    <path d="M 62.48 13.176706 
L 407.745818 13.176706 
" style="fill: none; stroke: #000000; stroke-width: 0.8; stroke-linejoin: miter; stroke-linecap: square"/>
   </g>
   <g id="legend_1">
    <g id="patch_7">
     <path d="M 71.58 118.402956 
L 199.88 118.402956 
Q 202.48 118.402956 202.48 115.802956 
L 202.48 22.276706 
Q 202.48 19.676706 199.88 19.676706 
L 71.58 19.676706 
Q 68.98 19.676706 68.98 22.276706 
L 68.98 115.802956 
Q 68.98 118.402956 71.58 118.402956 
z
" style="fill: #ffffff; opacity: 0.8; stroke: #cccccc; stroke-linejoin: miter"/>
    </g>
    <g id="text_15">
     <!-- Competition Variance $\sigma^2_c$ -->
     <g transform="translate(74.18 33.976706) scale(0.1 -0.1)">
      <defs>
       <path id="DejaVuSans-43" d="M 4122 4306 
L 4122 3641 
Q 3803 3938 3442 4084 
Q 3081 4231 2675 4231 
Q 1875 4231 1450 3742 
Q 1025 3253 1025 2328 
Q 1025 1406 1450 917 
Q 1875 428 2675 428 
Q 3081 428 3442 575 
Q 3803 722 4122 1019 
L 4122 359 
Q 3791 134 3420 21 
Q 3050 -91 2638 -91 
Q 1578 -91 968 557 
Q 359 1206 359 2328 
Q 359 3453 968 4101 
Q 1578 4750 2638 4750 
Q 3056 4750 3426 4639 
Q 3797 4528 4122 4306 
z
" transform="scale(0.015625)"/>
       <path id="DejaVuSans-6e" d="M 3513 2113 
L 3513 0 
L 2938 0 
L 2938 2094 
Q 2938 2591 2744 2837 
Q 2550 3084 2163 3084 
Q 1697 3084 1428 2787 
Q 1159 2491 1159 1978 
L 1159 0 
L 581 0 
L 581 3500 
L 1159 3500 
L 1159 2956 
Q 1366 3272 1645 3428 
Q 1925 3584 2291 3584 
Q 2894 3584 3203 3211 
Q 3513 2838 3513 2113 
z
" transform="scale(0.015625)"/>
       <path id="DejaVuSans-56" d="M 1831 0 
L 50 4666 
L 709 4666 
L 2188 738 
L 3669 4666 
L 4325 4666 
L 2547 0 
L 1831 0 
z
" transform="scale(0.015625)"/>
       <path id="DejaVuSans-63" d="M 3122 3366 
L 3122 2828 
Q 2878 2963 2633 3030 
Q 2388 3097 2138 3097 
Q 1578 3097 1268 2742 
Q 959 2388 959 1747 
Q 959 1106 1268 751 
Q 1578 397 2138 397 
Q 2388 397 2633 464 
Q 2878 531 3122 666 
L 3122 134 
Q 2881 22 2623 -34 
Q 2366 -91 2075 -91 
Q 1284 -91 818 406 
Q 353 903 353 1747 
Q 353 2603 823 3093 
Q 1294 3584 2113 3584 
Q 2378 3584 2631 3529 
Q 2884 3475 3122 3366 
z
" transform="scale(0.015625)"/>
       <path id="DejaVuSans-Oblique-3c3" d="M 2219 3044 
Q 1744 3044 1422 2700 
Q 1081 2341 969 1747 
Q 844 1119 1044 756 
Q 1241 397 1706 397 
Q 2166 397 2503 759 
Q 2844 1122 2966 1747 
Q 3075 2319 2881 2700 
Q 2700 3044 2219 3044 
z
M 2309 3503 
L 4219 3500 
L 4106 2925 
L 3463 2925 
Q 3706 2438 3575 1747 
Q 3406 888 2884 400 
Q 2359 -91 1609 -91 
Q 856 -91 525 400 
Q 194 888 363 1747 
Q 528 2609 1050 3097 
Q 1484 3503 2309 3503 
z
" transform="scale(0.015625)"/>
       <path id="DejaVuSans-Oblique-63" d="M 3431 3366 
L 3316 2797 
Q 3109 2947 2876 3022 
Q 2644 3097 2394 3097 
Q 2119 3097 1870 3000 
Q 1622 2903 1453 2725 
Q 1184 2453 1037 2087 
Q 891 1722 891 1331 
Q 891 859 1127 628 
Q 1363 397 1844 397 
Q 2081 397 2348 469 
Q 2616 541 2906 684 
L 2797 116 
Q 2547 13 2283 -39 
Q 2019 -91 1741 -91 
Q 1044 -91 669 257 
Q 294 606 294 1253 
Q 294 1797 489 2255 
Q 684 2713 1069 3078 
Q 1331 3328 1684 3456 
Q 2038 3584 2456 3584 
Q 2700 3584 2940 3529 
Q 3181 3475 3431 3366 
z
" transform="scale(0.015625)"/>
      </defs>
      <use xlink:href="#DejaVuSans-43" transform="translate(0 0.765625)"/>
      <use xlink:href="#DejaVuSans-6f" transform="translate(69.824219 0.765625)"/>
      <use xlink:href="#DejaVuSans-6d" transform="translate(131.005859 0.765625)"/>
      <use xlink:href="#DejaVuSans-70" transform="translate(228.417969 0.765625)"/>
      <use xlink:href="#DejaVuSans-65" transform="translate(291.894531 0.765625)"/>
      <use xlink:href="#DejaVuSans-74" transform="translate(353.417969 0.765625)"/>
      <use xlink:href="#DejaVuSans-69" transform="translate(392.626953 0.765625)"/>
      <use xlink:href="#DejaVuSans-74" transform="translate(420.410156 0.765625)"/>
      <use xlink:href="#DejaVuSans-69" transform="translate(459.619141 0.765625)"/>
      <use xlink:href="#DejaVuSans-6f" transform="translate(487.402344 0.765625)"/>
      <use xlink:href="#DejaVuSans-6e" transform="translate(548.583984 0.765625)"/>
      <use xlink:href="#DejaVuSans-20" transform="translate(611.962891 0.765625)"/>
      <use xlink:href="#DejaVuSans-56" transform="translate(643.75 0.765625)"/>
      <use xlink:href="#DejaVuSans-61" transform="translate(712.158203 0.765625)"/>
      <use xlink:href="#DejaVuSans-72" transform="translate(773.4375 0.765625)"/>
      <use xlink:href="#DejaVuSans-69" transform="translate(814.550781 0.765625)"/>
      <use xlink:href="#DejaVuSans-61" transform="translate(842.333984 0.765625)"/>
      <use xlink:href="#DejaVuSans-6e" transform="translate(903.613281 0.765625)"/>
      <use xlink:href="#DejaVuSans-63" transform="translate(966.992188 0.765625)"/>
      <use xlink:href="#DejaVuSans-65" transform="translate(1021.972656 0.765625)"/>
      <use xlink:href="#DejaVuSans-20" transform="translate(1083.496094 0.765625)"/>
      <use xlink:href="#DejaVuSans-Oblique-3c3" transform="translate(1115.283203 0.765625)"/>
      <use xlink:href="#DejaVuSans-32" transform="translate(1183.134818 39.046875) scale(0.7)"/>
      <use xlink:href="#DejaVuSans-Oblique-63" transform="translate(1178.662109 -26.578125) scale(0.7)"/>
     </g>
    </g>
    <g id="line2d_33">
     <path d="M 103.057344 48.704675 
L 116.057344 48.704675 
L 129.057344 48.704675 
" style="fill: none; stroke: #ff0000; stroke-width: 1.5; stroke-linecap: square"/>
    </g>
    <g id="text_16">
     <!-- 1.0 -->
     <g transform="translate(139.457344 53.254675) scale(0.13 -0.13)">
      <use xlink:href="#DejaVuSans-31"/>
      <use xlink:href="#DejaVuSans-2e" transform="translate(63.623047 0)"/>
      <use xlink:href="#DejaVuSans-30" transform="translate(95.410156 0)"/>
     </g>
    </g>
    <g id="line2d_34">
     <path d="M 103.057344 67.786237 
L 116.057344 67.786237 
L 129.057344 67.786237 
" style="fill: none; stroke: #008000; stroke-width: 1.5; stroke-linecap: square"/>
    </g>
    <g id="text_17">
     <!-- 2.0 -->
     <g transform="translate(139.457344 72.336237) scale(0.13 -0.13)">
      <use xlink:href="#DejaVuSans-32"/>
      <use xlink:href="#DejaVuSans-2e" transform="translate(63.623047 0)"/>
      <use xlink:href="#DejaVuSans-30" transform="translate(95.410156 0)"/>
     </g>
    </g>
    <g id="line2d_35">
     <path d="M 103.057344 86.8678 
L 116.057344 86.8678 
L 129.057344 86.8678 
" style="fill: none; stroke: #ffa500; stroke-width: 1.5; stroke-linecap: square"/>
    </g>
    <g id="text_18">
     <!-- 4.0 -->
     <g transform="translate(139.457344 91.4178) scale(0.13 -0.13)">
      <use xlink:href="#DejaVuSans-34"/>
      <use xlink:href="#DejaVuSans-2e" transform="translate(63.623047 0)"/>
      <use xlink:href="#DejaVuSans-30" transform="translate(95.410156 0)"/>
     </g>
    </g>
    <g id="line2d_36">
     <path d="M 103.057344 105.949362 
L 116.057344 105.949362 
L 129.057344 105.949362 
" style="fill: none; stroke: #000000; stroke-width: 1.5; stroke-linecap: square"/>
    </g>
    <g id="text_19">
     <!-- 10.0 -->
     <g transform="translate(139.457344 110.499362) scale(0.13 -0.13)">
      <use xlink:href="#DejaVuSans-31"/>
      <use xlink:href="#DejaVuSans-30" transform="translate(63.623047 0)"/>
      <use xlink:href="#DejaVuSans-2e" transform="translate(127.246094 0)"/>
      <use xlink:href="#DejaVuSans-30" transform="translate(159.033203 0)"/>
     </g>
    </g>
   </g>
  </g>
 </g>
 <defs>
  <clipPath id="p835926833f">
   <rect x="62.48" y="13.176706" width="345.265818" height="284.703294"/>
  </clipPath>
 </defs>
</svg>
