<?xml version="1.0" encoding="utf-8" standalone="no"?>
<!DOCTYPE svg PUBLIC "-//W3C//DTD SVG 1.1//EN"
  "http://www.w3.org/Graphics/SVG/1.1/DTD/svg11.dtd">
<svg xmlns:xlink="http://www.w3.org/1999/xlink" width="424.8pt" height="352.8pt" viewBox="0 0 424.8 352.8" xmlns="http://www.w3.org/2000/svg" version="1.1">
 <metadata>
  <rdf:RDF xmlns:dc="http://purl.org/dc/elements/1.1/" xmlns:cc="http://creativecommons.org/ns#" xmlns:rdf="http://www.w3.org/1999/02/22-rdf-syntax-ns#">
   <cc:Work>
    <dc:type rdf:resource="http://purl.org/dc/dcmitype/StillImage"/>
    <dc:date>2025-02-05T09:59:51.895689</dc:date>
    <dc:format>image/svg+xml</dc:format>
    <dc:creator>
     <cc:Agent>
      <dc:title>Matplotlib v3.10.0, https://matplotlib.org/</dc:title>
     </cc:Agent>
    </dc:creator>
   </cc:Work>
  </rdf:RDF>
 </metadata>
 <defs>
  <style type="text/css">*{stroke-linejoin: round; stroke-linecap: butt}</style>
 </defs>
 <g id="figure_1">
  <g id="patch_1">
   <path d="M 0 352.8 
L 424.8 352.8 
L 424.8 0 
L 0 0 
z
" style="fill: #ffffff"/>
  </g>
  <g id="axes_1">
   <g id="patch_2">
    <path d="M 62.48 297.88 
L 407.745818 297.88 
L 407.745818 13.176706 
L 62.48 13.176706 
z
" style="fill: #ffffff"/>
   </g>
   <g id="matplotlib.axis_1">
    <g id="xtick_1">
     <g id="line2d_1">
      <defs>
       <path id="mfbcd418231" d="M 0 0 
L 0 3.5 
" style="stroke: #000000; stroke-width: 0.8"/>
      </defs>
      <g>
       <use xlink:href="#mfbcd418231" x="87.590241" y="297.88" style="stroke: #000000; stroke-width: 0.8"/>
      </g>
     </g>
     <g id="text_1">
      <!-- 0 -->
      <g transform="translate(83.454616 314.757969) scale(0.13 -0.13)">
       <defs>
        <path id="DejaVuSans-30" d="M 2034 4250 
Q 1547 4250 1301 3770 
Q 1056 3291 1056 2328 
Q 1056 1369 1301 889 
Q 1547 409 2034 409 
Q 2525 409 2770 889 
Q 3016 1369 3016 2328 
Q 3016 3291 2770 3770 
Q 2525 4250 2034 4250 
z
M 2034 4750 
Q 2819 4750 3233 4129 
Q 3647 3509 3647 2328 
Q 3647 1150 3233 529 
Q 2819 -91 2034 -91 
Q 1250 -91 836 529 
Q 422 1150 422 2328 
Q 422 3509 836 4129 
Q 1250 4750 2034 4750 
z
" transform="scale(0.015625)"/>
       </defs>
       <use xlink:href="#DejaVuSans-30"/>
      </g>
     </g>
    </g>
    <g id="xtick_2">
     <g id="line2d_2">
      <g>
       <use xlink:href="#mfbcd418231" x="150.365845" y="297.88" style="stroke: #000000; stroke-width: 0.8"/>
      </g>
     </g>
     <g id="text_2">
      <!-- 100 -->
      <g transform="translate(137.95897 314.757969) scale(0.13 -0.13)">
       <defs>
        <path id="DejaVuSans-31" d="M 794 531 
L 1825 531 
L 1825 4091 
L 703 3866 
L 703 4441 
L 1819 4666 
L 2450 4666 
L 2450 531 
L 3481 531 
L 3481 0 
L 794 0 
L 794 531 
z
" transform="scale(0.015625)"/>
       </defs>
       <use xlink:href="#DejaVuSans-31"/>
       <use xlink:href="#DejaVuSans-30" transform="translate(63.623047 0)"/>
       <use xlink:href="#DejaVuSans-30" transform="translate(127.246094 0)"/>
      </g>
     </g>
    </g>
    <g id="xtick_3">
     <g id="line2d_3">
      <g>
       <use xlink:href="#mfbcd418231" x="213.141448" y="297.88" style="stroke: #000000; stroke-width: 0.8"/>
      </g>
     </g>
     <g id="text_3">
      <!-- 200 -->
      <g transform="translate(200.734573 314.757969) scale(0.13 -0.13)">
       <defs>
        <path id="DejaVuSans-32" d="M 1228 531 
L 3431 531 
L 3431 0 
L 469 0 
L 469 531 
Q 828 903 1448 1529 
Q 2069 2156 2228 2338 
Q 2531 2678 2651 2914 
Q 2772 3150 2772 3378 
Q 2772 3750 2511 3984 
Q 2250 4219 1831 4219 
Q 1534 4219 1204 4116 
Q 875 4013 500 3803 
L 500 4441 
Q 881 4594 1212 4672 
Q 1544 4750 1819 4750 
Q 2544 4750 2975 4387 
Q 3406 4025 3406 3419 
Q 3406 3131 3298 2873 
Q 3191 2616 2906 2266 
Q 2828 2175 2409 1742 
Q 1991 1309 1228 531 
z
" transform="scale(0.015625)"/>
       </defs>
       <use xlink:href="#DejaVuSans-32"/>
       <use xlink:href="#DejaVuSans-30" transform="translate(63.623047 0)"/>
       <use xlink:href="#DejaVuSans-30" transform="translate(127.246094 0)"/>
      </g>
     </g>
    </g>
    <g id="xtick_4">
     <g id="line2d_4">
      <g>
       <use xlink:href="#mfbcd418231" x="275.917051" y="297.88" style="stroke: #000000; stroke-width: 0.8"/>
      </g>
     </g>
     <g id="text_4">
      <!-- 300 -->
      <g transform="translate(263.510176 314.757969) scale(0.13 -0.13)">
       <defs>
        <path id="DejaVuSans-33" d="M 2597 2516 
Q 3050 2419 3304 2112 
Q 3559 1806 3559 1356 
Q 3559 666 3084 287 
Q 2609 -91 1734 -91 
Q 1441 -91 1130 -33 
Q 819 25 488 141 
L 488 750 
Q 750 597 1062 519 
Q 1375 441 1716 441 
Q 2309 441 2620 675 
Q 2931 909 2931 1356 
Q 2931 1769 2642 2001 
Q 2353 2234 1838 2234 
L 1294 2234 
L 1294 2753 
L 1863 2753 
Q 2328 2753 2575 2939 
Q 2822 3125 2822 3475 
Q 2822 3834 2567 4026 
Q 2313 4219 1838 4219 
Q 1578 4219 1281 4162 
Q 984 4106 628 3988 
L 628 4550 
Q 988 4650 1302 4700 
Q 1616 4750 1894 4750 
Q 2613 4750 3031 4423 
Q 3450 4097 3450 3541 
Q 3450 3153 3228 2886 
Q 3006 2619 2597 2516 
z
" transform="scale(0.015625)"/>
       </defs>
       <use xlink:href="#DejaVuSans-33"/>
       <use xlink:href="#DejaVuSans-30" transform="translate(63.623047 0)"/>
       <use xlink:href="#DejaVuSans-30" transform="translate(127.246094 0)"/>
      </g>
     </g>
    </g>
    <g id="xtick_5">
     <g id="line2d_5">
      <g>
       <use xlink:href="#mfbcd418231" x="338.692655" y="297.88" style="stroke: #000000; stroke-width: 0.8"/>
      </g>
     </g>
     <g id="text_5">
      <!-- 400 -->
      <g transform="translate(326.28578 314.757969) scale(0.13 -0.13)">
       <defs>
        <path id="DejaVuSans-34" d="M 2419 4116 
L 825 1625 
L 2419 1625 
L 2419 4116 
z
M 2253 4666 
L 3047 4666 
L 3047 1625 
L 3713 1625 
L 3713 1100 
L 3047 1100 
L 3047 0 
L 2419 0 
L 2419 1100 
L 313 1100 
L 313 1709 
L 2253 4666 
z
" transform="scale(0.015625)"/>
       </defs>
       <use xlink:href="#DejaVuSans-34"/>
       <use xlink:href="#DejaVuSans-30" transform="translate(63.623047 0)"/>
       <use xlink:href="#DejaVuSans-30" transform="translate(127.246094 0)"/>
      </g>
     </g>
    </g>
    <g id="xtick_6">
     <g id="line2d_6">
      <g>
       <use xlink:href="#mfbcd418231" x="401.468258" y="297.88" style="stroke: #000000; stroke-width: 0.8"/>
      </g>
     </g>
     <g id="text_6">
      <!-- 500 -->
      <g transform="translate(389.061383 314.757969) scale(0.13 -0.13)">
       <defs>
        <path id="DejaVuSans-35" d="M 691 4666 
L 3169 4666 
L 3169 4134 
L 1269 4134 
L 1269 2991 
Q 1406 3038 1543 3061 
Q 1681 3084 1819 3084 
Q 2600 3084 3056 2656 
Q 3513 2228 3513 1497 
Q 3513 744 3044 326 
Q 2575 -91 1722 -91 
Q 1428 -91 1123 -41 
Q 819 9 494 109 
L 494 744 
Q 775 591 1075 516 
Q 1375 441 1709 441 
Q 2250 441 2565 725 
Q 2881 1009 2881 1497 
Q 2881 1984 2565 2268 
Q 2250 2553 1709 2553 
Q 1456 2553 1204 2497 
Q 953 2441 691 2322 
L 691 4666 
z
" transform="scale(0.015625)"/>
       </defs>
       <use xlink:href="#DejaVuSans-35"/>
       <use xlink:href="#DejaVuSans-30" transform="translate(63.623047 0)"/>
       <use xlink:href="#DejaVuSans-30" transform="translate(127.246094 0)"/>
      </g>
     </g>
    </g>
    <g id="text_7">
     <!-- Number of Trees -->
     <g transform="translate(152.911347 336.658438) scale(0.2 -0.2)">
      <defs>
       <path id="DejaVuSans-4e" d="M 628 4666 
L 1478 4666 
L 3547 763 
L 3547 4666 
L 4159 4666 
L 4159 0 
L 3309 0 
L 1241 3903 
L 1241 0 
L 628 0 
L 628 4666 
z
" transform="scale(0.015625)"/>
       <path id="DejaVuSans-75" d="M 544 1381 
L 544 3500 
L 1119 3500 
L 1119 1403 
Q 1119 906 1312 657 
Q 1506 409 1894 409 
Q 2359 409 2629 706 
Q 2900 1003 2900 1516 
L 2900 3500 
L 3475 3500 
L 3475 0 
L 2900 0 
L 2900 538 
Q 2691 219 2414 64 
Q 2138 -91 1772 -91 
Q 1169 -91 856 284 
Q 544 659 544 1381 
z
M 1991 3584 
L 1991 3584 
z
" transform="scale(0.015625)"/>
       <path id="DejaVuSans-6d" d="M 3328 2828 
Q 3544 3216 3844 3400 
Q 4144 3584 4550 3584 
Q 5097 3584 5394 3201 
Q 5691 2819 5691 2113 
L 5691 0 
L 5113 0 
L 5113 2094 
Q 5113 2597 4934 2840 
Q 4756 3084 4391 3084 
Q 3944 3084 3684 2787 
Q 3425 2491 3425 1978 
L 3425 0 
L 2847 0 
L 2847 2094 
Q 2847 2600 2669 2842 
Q 2491 3084 2119 3084 
Q 1678 3084 1418 2786 
Q 1159 2488 1159 1978 
L 1159 0 
L 581 0 
L 581 3500 
L 1159 3500 
L 1159 2956 
Q 1356 3278 1631 3431 
Q 1906 3584 2284 3584 
Q 2666 3584 2933 3390 
Q 3200 3197 3328 2828 
z
" transform="scale(0.015625)"/>
       <path id="DejaVuSans-62" d="M 3116 1747 
Q 3116 2381 2855 2742 
Q 2594 3103 2138 3103 
Q 1681 3103 1420 2742 
Q 1159 2381 1159 1747 
Q 1159 1113 1420 752 
Q 1681 391 2138 391 
Q 2594 391 2855 752 
Q 3116 1113 3116 1747 
z
M 1159 2969 
Q 1341 3281 1617 3432 
Q 1894 3584 2278 3584 
Q 2916 3584 3314 3078 
Q 3713 2572 3713 1747 
Q 3713 922 3314 415 
Q 2916 -91 2278 -91 
Q 1894 -91 1617 61 
Q 1341 213 1159 525 
L 1159 0 
L 581 0 
L 581 4863 
L 1159 4863 
L 1159 2969 
z
" transform="scale(0.015625)"/>
       <path id="DejaVuSans-65" d="M 3597 1894 
L 3597 1613 
L 953 1613 
Q 991 1019 1311 708 
Q 1631 397 2203 397 
Q 2534 397 2845 478 
Q 3156 559 3463 722 
L 3463 178 
Q 3153 47 2828 -22 
Q 2503 -91 2169 -91 
Q 1331 -91 842 396 
Q 353 884 353 1716 
Q 353 2575 817 3079 
Q 1281 3584 2069 3584 
Q 2775 3584 3186 3129 
Q 3597 2675 3597 1894 
z
M 3022 2063 
Q 3016 2534 2758 2815 
Q 2500 3097 2075 3097 
Q 1594 3097 1305 2825 
Q 1016 2553 972 2059 
L 3022 2063 
z
" transform="scale(0.015625)"/>
       <path id="DejaVuSans-72" d="M 2631 2963 
Q 2534 3019 2420 3045 
Q 2306 3072 2169 3072 
Q 1681 3072 1420 2755 
Q 1159 2438 1159 1844 
L 1159 0 
L 581 0 
L 581 3500 
L 1159 3500 
L 1159 2956 
Q 1341 3275 1631 3429 
Q 1922 3584 2338 3584 
Q 2397 3584 2469 3576 
Q 2541 3569 2628 3553 
L 2631 2963 
z
" transform="scale(0.015625)"/>
       <path id="DejaVuSans-20" transform="scale(0.015625)"/>
       <path id="DejaVuSans-6f" d="M 1959 3097 
Q 1497 3097 1228 2736 
Q 959 2375 959 1747 
Q 959 1119 1226 758 
Q 1494 397 1959 397 
Q 2419 397 2687 759 
Q 2956 1122 2956 1747 
Q 2956 2369 2687 2733 
Q 2419 3097 1959 3097 
z
M 1959 3584 
Q 2709 3584 3137 3096 
Q 3566 2609 3566 1747 
Q 3566 888 3137 398 
Q 2709 -91 1959 -91 
Q 1206 -91 779 398 
Q 353 888 353 1747 
Q 353 2609 779 3096 
Q 1206 3584 1959 3584 
z
" transform="scale(0.015625)"/>
       <path id="DejaVuSans-66" d="M 2375 4863 
L 2375 4384 
L 1825 4384 
Q 1516 4384 1395 4259 
Q 1275 4134 1275 3809 
L 1275 3500 
L 2222 3500 
L 2222 3053 
L 1275 3053 
L 1275 0 
L 697 0 
L 697 3053 
L 147 3053 
L 147 3500 
L 697 3500 
L 697 3744 
Q 697 4328 969 4595 
Q 1241 4863 1831 4863 
L 2375 4863 
z
" transform="scale(0.015625)"/>
       <path id="DejaVuSans-54" d="M -19 4666 
L 3928 4666 
L 3928 4134 
L 2272 4134 
L 2272 0 
L 1638 0 
L 1638 4134 
L -19 4134 
L -19 4666 
z
" transform="scale(0.015625)"/>
       <path id="DejaVuSans-73" d="M 2834 3397 
L 2834 2853 
Q 2591 2978 2328 3040 
Q 2066 3103 1784 3103 
Q 1356 3103 1142 2972 
Q 928 2841 928 2578 
Q 928 2378 1081 2264 
Q 1234 2150 1697 2047 
L 1894 2003 
Q 2506 1872 2764 1633 
Q 3022 1394 3022 966 
Q 3022 478 2636 193 
Q 2250 -91 1575 -91 
Q 1294 -91 989 -36 
Q 684 19 347 128 
L 347 722 
Q 666 556 975 473 
Q 1284 391 1588 391 
Q 1994 391 2212 530 
Q 2431 669 2431 922 
Q 2431 1156 2273 1281 
Q 2116 1406 1581 1522 
L 1381 1569 
Q 847 1681 609 1914 
Q 372 2147 372 2553 
Q 372 3047 722 3315 
Q 1072 3584 1716 3584 
Q 2034 3584 2315 3537 
Q 2597 3491 2834 3397 
z
" transform="scale(0.015625)"/>
      </defs>
      <use xlink:href="#DejaVuSans-4e"/>
      <use xlink:href="#DejaVuSans-75" transform="translate(74.804688 0)"/>
      <use xlink:href="#DejaVuSans-6d" transform="translate(138.183594 0)"/>
      <use xlink:href="#DejaVuSans-62" transform="translate(235.595703 0)"/>
      <use xlink:href="#DejaVuSans-65" transform="translate(299.072266 0)"/>
      <use xlink:href="#DejaVuSans-72" transform="translate(360.595703 0)"/>
      <use xlink:href="#DejaVuSans-20" transform="translate(401.708984 0)"/>
      <use xlink:href="#DejaVuSans-6f" transform="translate(433.496094 0)"/>
      <use xlink:href="#DejaVuSans-66" transform="translate(494.677734 0)"/>
      <use xlink:href="#DejaVuSans-20" transform="translate(529.882812 0)"/>
      <use xlink:href="#DejaVuSans-54" transform="translate(561.669922 0)"/>
      <use xlink:href="#DejaVuSans-72" transform="translate(608.003906 0)"/>
      <use xlink:href="#DejaVuSans-65" transform="translate(646.867188 0)"/>
      <use xlink:href="#DejaVuSans-65" transform="translate(708.390625 0)"/>
      <use xlink:href="#DejaVuSans-73" transform="translate(769.914062 0)"/>
     </g>
    </g>
   </g>
   <g id="matplotlib.axis_2">
    <g id="ytick_1">
     <g id="line2d_7">
      <defs>
       <path id="mcfd3110b80" d="M 0 0 
L -3.5 0 
" style="stroke: #000000; stroke-width: 0.8"/>
      </defs>
      <g>
       <use xlink:href="#mcfd3110b80" x="62.48" y="295.088791" style="stroke: #000000; stroke-width: 0.8"/>
      </g>
     </g>
     <g id="text_8">
      <!-- 0.0 -->
      <g transform="translate(34.805938 300.027776) scale(0.13 -0.13)">
       <defs>
        <path id="DejaVuSans-2e" d="M 684 794 
L 1344 794 
L 1344 0 
L 684 0 
L 684 794 
z
" transform="scale(0.015625)"/>
       </defs>
       <use xlink:href="#DejaVuSans-30"/>
       <use xlink:href="#DejaVuSans-2e" transform="translate(63.623047 0)"/>
       <use xlink:href="#DejaVuSans-30" transform="translate(95.410156 0)"/>
      </g>
     </g>
    </g>
    <g id="ytick_2">
     <g id="line2d_8">
      <g>
       <use xlink:href="#mcfd3110b80" x="62.48" y="239.264616" style="stroke: #000000; stroke-width: 0.8"/>
      </g>
     </g>
     <g id="text_9">
      <!-- 0.2 -->
      <g transform="translate(34.805938 244.2036) scale(0.13 -0.13)">
       <use xlink:href="#DejaVuSans-30"/>
       <use xlink:href="#DejaVuSans-2e" transform="translate(63.623047 0)"/>
       <use xlink:href="#DejaVuSans-32" transform="translate(95.410156 0)"/>
      </g>
     </g>
    </g>
    <g id="ytick_3">
     <g id="line2d_9">
      <g>
       <use xlink:href="#mcfd3110b80" x="62.48" y="183.440441" style="stroke: #000000; stroke-width: 0.8"/>
      </g>
     </g>
     <g id="text_10">
      <!-- 0.4 -->
      <g transform="translate(34.805938 188.379425) scale(0.13 -0.13)">
       <use xlink:href="#DejaVuSans-30"/>
       <use xlink:href="#DejaVuSans-2e" transform="translate(63.623047 0)"/>
       <use xlink:href="#DejaVuSans-34" transform="translate(95.410156 0)"/>
      </g>
     </g>
    </g>
    <g id="ytick_4">
     <g id="line2d_10">
      <g>
       <use xlink:href="#mcfd3110b80" x="62.48" y="127.616265" style="stroke: #000000; stroke-width: 0.8"/>
      </g>
     </g>
     <g id="text_11">
      <!-- 0.6 -->
      <g transform="translate(34.805938 132.55525) scale(0.13 -0.13)">
       <defs>
        <path id="DejaVuSans-36" d="M 2113 2584 
Q 1688 2584 1439 2293 
Q 1191 2003 1191 1497 
Q 1191 994 1439 701 
Q 1688 409 2113 409 
Q 2538 409 2786 701 
Q 3034 994 3034 1497 
Q 3034 2003 2786 2293 
Q 2538 2584 2113 2584 
z
M 3366 4563 
L 3366 3988 
Q 3128 4100 2886 4159 
Q 2644 4219 2406 4219 
Q 1781 4219 1451 3797 
Q 1122 3375 1075 2522 
Q 1259 2794 1537 2939 
Q 1816 3084 2150 3084 
Q 2853 3084 3261 2657 
Q 3669 2231 3669 1497 
Q 3669 778 3244 343 
Q 2819 -91 2113 -91 
Q 1303 -91 875 529 
Q 447 1150 447 2328 
Q 447 3434 972 4092 
Q 1497 4750 2381 4750 
Q 2619 4750 2861 4703 
Q 3103 4656 3366 4563 
z
" transform="scale(0.015625)"/>
       </defs>
       <use xlink:href="#DejaVuSans-30"/>
       <use xlink:href="#DejaVuSans-2e" transform="translate(63.623047 0)"/>
       <use xlink:href="#DejaVuSans-36" transform="translate(95.410156 0)"/>
      </g>
     </g>
    </g>
    <g id="ytick_5">
     <g id="line2d_11">
      <g>
       <use xlink:href="#mcfd3110b80" x="62.48" y="71.79209" style="stroke: #000000; stroke-width: 0.8"/>
      </g>
     </g>
     <g id="text_12">
      <!-- 0.8 -->
      <g transform="translate(34.805938 76.731074) scale(0.13 -0.13)">
       <defs>
        <path id="DejaVuSans-38" d="M 2034 2216 
Q 1584 2216 1326 1975 
Q 1069 1734 1069 1313 
Q 1069 891 1326 650 
Q 1584 409 2034 409 
Q 2484 409 2743 651 
Q 3003 894 3003 1313 
Q 3003 1734 2745 1975 
Q 2488 2216 2034 2216 
z
M 1403 2484 
Q 997 2584 770 2862 
Q 544 3141 544 3541 
Q 544 4100 942 4425 
Q 1341 4750 2034 4750 
Q 2731 4750 3128 4425 
Q 3525 4100 3525 3541 
Q 3525 3141 3298 2862 
Q 3072 2584 2669 2484 
Q 3125 2378 3379 2068 
Q 3634 1759 3634 1313 
Q 3634 634 3220 271 
Q 2806 -91 2034 -91 
Q 1263 -91 848 271 
Q 434 634 434 1313 
Q 434 1759 690 2068 
Q 947 2378 1403 2484 
z
M 1172 3481 
Q 1172 3119 1398 2916 
Q 1625 2713 2034 2713 
Q 2441 2713 2670 2916 
Q 2900 3119 2900 3481 
Q 2900 3844 2670 4047 
Q 2441 4250 2034 4250 
Q 1625 4250 1398 4047 
Q 1172 3844 1172 3481 
z
" transform="scale(0.015625)"/>
       </defs>
       <use xlink:href="#DejaVuSans-30"/>
       <use xlink:href="#DejaVuSans-2e" transform="translate(63.623047 0)"/>
       <use xlink:href="#DejaVuSans-38" transform="translate(95.410156 0)"/>
      </g>
     </g>
    </g>
    <g id="ytick_6">
     <g id="line2d_12">
      <g>
       <use xlink:href="#mcfd3110b80" x="62.48" y="15.967915" style="stroke: #000000; stroke-width: 0.8"/>
      </g>
     </g>
     <g id="text_13">
      <!-- 1.0 -->
      <g transform="translate(34.805938 20.906899) scale(0.13 -0.13)">
       <use xlink:href="#DejaVuSans-31"/>
       <use xlink:href="#DejaVuSans-2e" transform="translate(63.623047 0)"/>
       <use xlink:href="#DejaVuSans-30" transform="translate(95.410156 0)"/>
      </g>
     </g>
    </g>
    <g id="text_14">
     <!-- Dispersal Estimate -->
     <g transform="translate(26.646563 249.290853) rotate(-90) scale(0.2 -0.2)">
      <defs>
       <path id="DejaVuSans-44" d="M 1259 4147 
L 1259 519 
L 2022 519 
Q 2988 519 3436 956 
Q 3884 1394 3884 2338 
Q 3884 3275 3436 3711 
Q 2988 4147 2022 4147 
L 1259 4147 
z
M 628 4666 
L 1925 4666 
Q 3281 4666 3915 4102 
Q 4550 3538 4550 2338 
Q 4550 1131 3912 565 
Q 3275 0 1925 0 
L 628 0 
L 628 4666 
z
" transform="scale(0.015625)"/>
       <path id="DejaVuSans-69" d="M 603 3500 
L 1178 3500 
L 1178 0 
L 603 0 
L 603 3500 
z
M 603 4863 
L 1178 4863 
L 1178 4134 
L 603 4134 
L 603 4863 
z
" transform="scale(0.015625)"/>
       <path id="DejaVuSans-70" d="M 1159 525 
L 1159 -1331 
L 581 -1331 
L 581 3500 
L 1159 3500 
L 1159 2969 
Q 1341 3281 1617 3432 
Q 1894 3584 2278 3584 
Q 2916 3584 3314 3078 
Q 3713 2572 3713 1747 
Q 3713 922 3314 415 
Q 2916 -91 2278 -91 
Q 1894 -91 1617 61 
Q 1341 213 1159 525 
z
M 3116 1747 
Q 3116 2381 2855 2742 
Q 2594 3103 2138 3103 
Q 1681 3103 1420 2742 
Q 1159 2381 1159 1747 
Q 1159 1113 1420 752 
Q 1681 391 2138 391 
Q 2594 391 2855 752 
Q 3116 1113 3116 1747 
z
" transform="scale(0.015625)"/>
       <path id="DejaVuSans-61" d="M 2194 1759 
Q 1497 1759 1228 1600 
Q 959 1441 959 1056 
Q 959 750 1161 570 
Q 1363 391 1709 391 
Q 2188 391 2477 730 
Q 2766 1069 2766 1631 
L 2766 1759 
L 2194 1759 
z
M 3341 1997 
L 3341 0 
L 2766 0 
L 2766 531 
Q 2569 213 2275 61 
Q 1981 -91 1556 -91 
Q 1019 -91 701 211 
Q 384 513 384 1019 
Q 384 1609 779 1909 
Q 1175 2209 1959 2209 
L 2766 2209 
L 2766 2266 
Q 2766 2663 2505 2880 
Q 2244 3097 1772 3097 
Q 1472 3097 1187 3025 
Q 903 2953 641 2809 
L 641 3341 
Q 956 3463 1253 3523 
Q 1550 3584 1831 3584 
Q 2591 3584 2966 3190 
Q 3341 2797 3341 1997 
z
" transform="scale(0.015625)"/>
       <path id="DejaVuSans-6c" d="M 603 4863 
L 1178 4863 
L 1178 0 
L 603 0 
L 603 4863 
z
" transform="scale(0.015625)"/>
       <path id="DejaVuSans-45" d="M 628 4666 
L 3578 4666 
L 3578 4134 
L 1259 4134 
L 1259 2753 
L 3481 2753 
L 3481 2222 
L 1259 2222 
L 1259 531 
L 3634 531 
L 3634 0 
L 628 0 
L 628 4666 
z
" transform="scale(0.015625)"/>
       <path id="DejaVuSans-74" d="M 1172 4494 
L 1172 3500 
L 2356 3500 
L 2356 3053 
L 1172 3053 
L 1172 1153 
Q 1172 725 1289 603 
Q 1406 481 1766 481 
L 2356 481 
L 2356 0 
L 1766 0 
Q 1100 0 847 248 
Q 594 497 594 1153 
L 594 3053 
L 172 3053 
L 172 3500 
L 594 3500 
L 594 4494 
L 1172 4494 
z
" transform="scale(0.015625)"/>
      </defs>
      <use xlink:href="#DejaVuSans-44"/>
      <use xlink:href="#DejaVuSans-69" transform="translate(77.001953 0)"/>
      <use xlink:href="#DejaVuSans-73" transform="translate(104.785156 0)"/>
      <use xlink:href="#DejaVuSans-70" transform="translate(156.884766 0)"/>
      <use xlink:href="#DejaVuSans-65" transform="translate(220.361328 0)"/>
      <use xlink:href="#DejaVuSans-72" transform="translate(281.884766 0)"/>
      <use xlink:href="#DejaVuSans-73" transform="translate(322.998047 0)"/>
      <use xlink:href="#DejaVuSans-61" transform="translate(375.097656 0)"/>
      <use xlink:href="#DejaVuSans-6c" transform="translate(436.376953 0)"/>
      <use xlink:href="#DejaVuSans-20" transform="translate(464.160156 0)"/>
      <use xlink:href="#DejaVuSans-45" transform="translate(495.947266 0)"/>
      <use xlink:href="#DejaVuSans-73" transform="translate(559.130859 0)"/>
      <use xlink:href="#DejaVuSans-74" transform="translate(611.230469 0)"/>
      <use xlink:href="#DejaVuSans-69" transform="translate(650.439453 0)"/>
      <use xlink:href="#DejaVuSans-6d" transform="translate(678.222656 0)"/>
      <use xlink:href="#DejaVuSans-61" transform="translate(775.634766 0)"/>
      <use xlink:href="#DejaVuSans-74" transform="translate(836.914062 0)"/>
      <use xlink:href="#DejaVuSans-65" transform="translate(876.123047 0)"/>
     </g>
    </g>
   </g>
   <g id="line2d_13">
    <path d="M 88.217997 253.572838 
L 93.867802 248.461065 
L 100.145362 248.023574 
L 106.422922 246.824485 
L 112.700483 243.253495 
L 118.978043 243.164456 
L 125.255603 239.209627 
L 131.533164 236.898714 
L 137.810724 236.726319 
L 144.088284 233.694949 
L 150.365845 223.786508 
L 156.643405 223.486573 
L 162.920965 215.59367 
L 169.198526 214.026134 
L 175.476086 198.773846 
L 181.753646 188.194319 
L 188.031207 183.512936 
L 194.308767 182.908836 
L 200.586327 181.6659 
L 206.863888 179.501462 
L 213.141448 176.793608 
L 219.419008 173.156245 
L 225.696569 171.938191 
L 231.974129 165.566091 
L 238.251689 164.134993 
L 244.52925 163.491443 
L 250.80681 161.688212 
L 257.08437 156.784493 
L 263.361931 154.438561 
L 269.639491 147.764115 
L 275.917051 144.593735 
L 282.194612 139.719388 
L 288.472172 135.885044 
L 294.749732 134.836285 
L 301.027293 134.616397 
L 307.304853 133.576216 
L 313.582413 131.15445 
L 319.859974 130.841124 
L 326.137534 130.356898 
L 332.415094 124.851687 
L 338.692655 123.513119 
L 344.970215 120.666455 
L 351.247775 116.108921 
L 357.525336 110.614483 
L 363.802896 106.79021 
L 370.080456 105.292131 
L 376.358017 104.985858 
L 382.635577 103.089631 
L 388.913137 100.963455 
L 395.190698 100.790536 
" clip-path="url(#p4a062ddc90)" style="fill: none; stroke: #ff0000; stroke-width: 1.5; stroke-linecap: square"/>
   </g>
   <g id="line2d_14">
    <path d="M 88.217997 239.085984 
L 93.867802 237.765328 
L 100.145362 236.617163 
L 106.422922 232.642362 
L 112.700483 231.669275 
L 118.978043 231.531562 
L 125.255603 227.497468 
L 131.533164 224.805778 
L 137.810724 222.199074 
L 144.088284 222.194023 
L 150.365845 216.529873 
L 156.643405 215.168376 
L 162.920965 214.432674 
L 169.198526 211.68912 
L 175.476086 211.335756 
L 181.753646 208.084805 
L 188.031207 207.721935 
L 194.308767 205.030441 
L 200.586327 200.6831 
L 206.863888 194.182993 
L 213.141448 193.080867 
L 219.419008 186.75314 
L 225.696569 185.766475 
L 231.974129 184.620037 
L 238.251689 183.45539 
L 244.52925 182.624613 
L 250.80681 181.854295 
L 257.08437 181.657517 
L 263.361931 178.790152 
L 269.639491 177.257636 
L 275.917051 176.004055 
L 282.194612 175.403241 
L 288.472172 175.197026 
L 294.749732 169.907835 
L 301.027293 169.334713 
L 307.304853 166.129641 
L 313.582413 164.024094 
L 319.859974 158.137469 
L 326.137534 156.327597 
L 332.415094 153.813725 
L 338.692655 153.468182 
L 344.970215 153.453199 
L 351.247775 153.012374 
L 357.525336 145.746633 
L 363.802896 145.561889 
L 370.080456 143.393626 
L 376.358017 143.232248 
L 382.635577 141.55011 
" clip-path="url(#p4a062ddc90)" style="fill: none; stroke: #ff0000; stroke-width: 1.5; stroke-linecap: square"/>
   </g>
   <g id="line2d_15">
    <path d="M 88.217997 230.424521 
L 93.867802 229.095051 
L 100.145362 227.98059 
L 106.422922 227.114597 
L 112.700483 225.61951 
L 118.978043 225.231259 
L 125.255603 221.955455 
L 131.533164 217.626459 
L 137.810724 216.283098 
L 144.088284 215.929967 
L 150.365845 215.390852 
L 156.643405 215.343209 
L 162.920965 213.340255 
L 169.198526 212.143616 
L 175.476086 212.038272 
L 181.753646 210.253711 
L 188.031207 209.581041 
L 194.308767 207.975592 
L 200.586327 204.772675 
L 206.863888 200.291328 
L 213.141448 195.234161 
L 219.419008 193.322875 
L 225.696569 189.38356 
L 231.974129 179.432892 
L 238.251689 177.744497 
L 244.52925 172.81891 
L 250.80681 170.868527 
L 257.08437 170.758121 
L 263.361931 167.181534 
L 269.639491 167.040854 
L 275.917051 166.611644 
L 282.194612 163.717151 
L 288.472172 161.162304 
L 294.749732 160.083087 
L 301.027293 155.263935 
L 307.304853 152.922418 
L 313.582413 148.193653 
L 319.859974 146.108027 
L 326.137534 144.732602 
L 332.415094 141.880869 
L 338.692655 127.633792 
L 344.970215 125.100562 
L 351.247775 119.541163 
L 357.525336 119.033658 
L 363.802896 112.960872 
L 370.080456 111.860168 
L 376.358017 109.924229 
L 382.635577 109.595628 
L 388.913137 108.846297 
L 395.190698 107.819258 
" clip-path="url(#p4a062ddc90)" style="fill: none; stroke: #ff0000; stroke-width: 1.5; stroke-linecap: square"/>
   </g>
   <g id="line2d_16">
    <path d="M 88.217997 236.096666 
L 93.867802 234.32219 
L 100.145362 226.142005 
L 106.422922 224.245208 
L 112.700483 223.393601 
L 118.978043 222.827249 
L 125.255603 218.923714 
L 131.533164 217.06706 
L 137.810724 213.379041 
L 144.088284 213.310795 
L 150.365845 213.052576 
L 156.643405 212.648535 
L 162.920965 212.606993 
L 169.198526 205.310887 
L 175.476086 202.335122 
L 181.753646 200.660894 
L 188.031207 200.199249 
L 194.308767 198.405126 
L 200.586327 194.913125 
L 206.863888 189.984242 
L 213.141448 189.10877 
L 219.419008 187.181658 
L 225.696569 185.265031 
L 231.974129 183.638161 
L 238.251689 182.413593 
L 244.52925 181.664206 
L 250.80681 179.121117 
L 257.08437 178.626808 
L 263.361931 175.05698 
L 269.639491 174.349661 
L 275.917051 170.613576 
L 282.194612 163.74075 
L 288.472172 163.420557 
L 294.749732 162.331253 
L 301.027293 161.755679 
L 307.304853 161.672812 
L 313.582413 159.158896 
L 319.859974 154.762966 
L 326.137534 154.20958 
L 332.415094 151.11303 
L 338.692655 150.423996 
L 344.970215 144.001122 
L 351.247775 143.279627 
L 357.525336 141.764489 
L 363.802896 140.178424 
L 370.080456 135.255108 
L 376.358017 134.302206 
L 382.635577 133.592631 
L 388.913137 130.22937 
L 395.190698 129.017923 
" clip-path="url(#p4a062ddc90)" style="fill: none; stroke: #ff0000; stroke-width: 1.5; stroke-linecap: square"/>
   </g>
   <g id="line2d_17">
    <path d="M 88.217997 231.001232 
L 93.867802 228.585869 
L 100.145362 227.080277 
L 106.422922 227.029164 
L 112.700483 226.220894 
L 118.978043 223.258215 
L 125.255603 220.376721 
L 131.533164 219.648592 
L 137.810724 215.148143 
L 144.088284 213.080196 
L 150.365845 209.670022 
L 156.643405 208.230716 
L 162.920965 197.682444 
L 169.198526 193.072572 
L 175.476086 188.731316 
L 181.753646 185.609199 
L 188.031207 183.192566 
L 194.308767 182.261713 
L 200.586327 182.025061 
L 206.863888 178.070318 
L 213.141448 169.521646 
L 219.419008 168.430447 
L 225.696569 155.227561 
L 231.974129 152.535469 
L 238.251689 150.331342 
L 244.52925 149.730402 
L 250.80681 142.710195 
L 257.08437 128.696517 
L 263.361931 126.877074 
L 269.639491 125.252763 
L 275.917051 116.643466 
L 282.194612 113.04723 
L 288.472172 110.513923 
L 294.749732 101.021351 
L 301.027293 93.295052 
L 307.304853 87.41853 
L 313.582413 84.509172 
L 319.859974 81.805861 
L 326.137534 81.640753 
L 332.415094 80.09724 
L 338.692655 76.147819 
L 344.970215 75.888043 
L 351.247775 69.777769 
L 357.525336 67.032845 
L 363.802896 66.849986 
L 370.080456 65.593491 
L 376.358017 57.156133 
L 382.635577 56.250846 
L 388.913137 54.382528 
L 395.190698 53.574287 
" clip-path="url(#p4a062ddc90)" style="fill: none; stroke: #ff0000; stroke-width: 1.5; stroke-linecap: square"/>
   </g>
   <g id="line2d_18">
    <path d="M 88.217997 253.993682 
L 93.867802 252.831209 
L 100.145362 250.769438 
L 106.422922 245.823599 
L 112.700483 245.055785 
L 118.978043 243.291891 
L 125.255603 242.37791 
L 131.533164 240.719663 
L 137.810724 230.485348 
L 144.088284 227.976623 
L 150.365845 227.433453 
L 156.643405 227.187569 
L 162.920965 226.909621 
L 169.198526 226.72041 
L 175.476086 225.785336 
L 181.753646 222.970643 
L 188.031207 212.215854 
L 194.308767 211.610494 
L 200.586327 208.419905 
L 206.863888 208.14627 
L 213.141448 207.580307 
L 219.419008 207.050765 
L 225.696569 207.039319 
L 231.974129 207.028948 
L 238.251689 206.879212 
L 244.52925 206.712311 
L 250.80681 205.672942 
L 257.08437 204.403186 
L 263.361931 201.058728 
L 269.639491 199.703181 
L 275.917051 190.692812 
L 282.194612 187.431998 
L 288.472172 186.027902 
L 294.749732 185.955259 
L 301.027293 184.512149 
L 307.304853 184.209509 
L 313.582413 184.202404 
L 319.859974 182.957858 
L 326.137534 182.94677 
L 332.415094 182.530963 
L 338.692655 173.547863 
L 344.970215 172.764743 
L 351.247775 171.879625 
L 357.525336 170.615407 
L 363.802896 169.592105 
L 370.080456 161.436392 
L 376.358017 161.112094 
L 382.635577 159.132079 
L 388.913137 157.406685 
L 395.190698 155.112305 
" clip-path="url(#p4a062ddc90)" style="fill: none; stroke: #0000ff; stroke-width: 1.5; stroke-linecap: square"/>
   </g>
   <g id="line2d_19">
    <path d="M 88.217997 249.181151 
L 93.867802 249.168025 
L 100.145362 247.727178 
L 106.422922 247.460572 
L 112.700483 245.741933 
L 118.978043 244.476672 
L 125.255603 243.06097 
L 131.533164 243.060926 
L 137.810724 240.18749 
L 144.088284 240.032786 
L 150.365845 240.028074 
L 156.643405 234.486725 
L 162.920965 230.353354 
L 169.198526 229.533986 
L 175.476086 226.620387 
L 181.753646 223.763606 
L 188.031207 220.821504 
L 194.308767 214.73276 
L 200.586327 213.108284 
L 206.863888 208.51129 
L 213.141448 205.623993 
L 219.419008 197.763282 
L 225.696569 195.098085 
L 231.974129 194.579938 
L 238.251689 183.196229 
L 244.52925 182.435741 
L 250.80681 181.529476 
L 257.08437 180.008199 
L 263.361931 179.454424 
L 269.639491 179.350017 
L 275.917051 177.947282 
L 282.194612 175.387762 
L 288.472172 174.17199 
L 294.749732 174.119479 
L 301.027293 172.248526 
L 307.304853 169.892457 
L 313.582413 169.096993 
L 319.859974 165.829413 
L 326.137534 162.798402 
L 332.415094 162.76973 
L 338.692655 162.664722 
L 344.970215 161.286742 
L 351.247775 160.018507 
L 357.525336 159.342699 
L 363.802896 159.090549 
L 370.080456 157.241855 
L 376.358017 156.614141 
L 382.635577 151.560644 
L 388.913137 151.196493 
L 395.190698 146.909714 
" clip-path="url(#p4a062ddc90)" style="fill: none; stroke: #0000ff; stroke-width: 1.5; stroke-linecap: square"/>
   </g>
   <g id="line2d_20">
    <path d="M 88.217997 246.678711 
L 93.867802 242.770218 
L 100.145362 235.656012 
L 106.422922 233.476855 
L 112.700483 232.647376 
L 118.978043 228.999254 
L 125.255603 226.740089 
L 131.533164 225.453362 
L 137.810724 223.502937 
L 144.088284 222.677501 
L 150.365845 222.462939 
L 156.643405 222.283533 
L 162.920965 220.999143 
L 169.198526 217.663007 
L 175.476086 216.426516 
L 181.753646 215.193807 
L 188.031207 214.711795 
L 194.308767 212.984375 
L 200.586327 210.964523 
L 206.863888 206.279634 
L 213.141448 205.726955 
L 219.419008 200.932897 
L 225.696569 200.8036 
L 231.974129 199.851166 
L 238.251689 198.235712 
L 244.52925 196.324843 
L 250.80681 195.050257 
L 257.08437 192.579906 
L 263.361931 192.429818 
L 269.639491 189.130529 
L 275.917051 186.608287 
L 282.194612 186.583433 
L 288.472172 185.379331 
L 294.749732 183.702402 
L 301.027293 183.369407 
L 307.304853 182.838587 
L 313.582413 181.362242 
L 319.859974 178.950809 
L 326.137534 175.835675 
L 332.415094 172.50893 
L 338.692655 171.807785 
L 344.970215 167.184547 
L 351.247775 165.493549 
L 357.525336 160.23419 
L 363.802896 159.627068 
L 370.080456 158.406567 
L 376.358017 158.069449 
L 382.635577 157.820657 
L 388.913137 156.090335 
L 395.190698 155.024686 
" clip-path="url(#p4a062ddc90)" style="fill: none; stroke: #0000ff; stroke-width: 1.5; stroke-linecap: square"/>
   </g>
   <g id="line2d_21">
    <path d="M 88.217997 247.556639 
L 93.867802 246.935069 
L 100.145362 246.58225 
L 106.422922 244.807913 
L 112.700483 244.033259 
L 118.978043 241.377664 
L 125.255603 241.196608 
L 131.533164 240.48681 
L 137.810724 240.377921 
L 144.088284 238.937874 
L 150.365845 237.335175 
L 156.643405 236.323555 
L 162.920965 235.342036 
L 169.198526 235.326829 
L 175.476086 234.645622 
L 181.753646 231.698761 
L 188.031207 230.903181 
L 194.308767 230.215494 
L 200.586327 225.880189 
L 206.863888 225.723679 
L 213.141448 223.328596 
L 219.419008 221.888846 
L 225.696569 219.38294 
L 231.974129 218.181014 
L 238.251689 215.974671 
L 244.52925 214.150324 
L 250.80681 214.126216 
L 257.08437 213.032964 
L 263.361931 212.993197 
L 269.639491 209.538007 
L 275.917051 203.227982 
L 282.194612 201.114323 
L 288.472172 200.666511 
L 294.749732 198.791399 
L 301.027293 198.202733 
L 307.304853 197.089444 
L 313.582413 196.850908 
L 319.859974 195.280571 
L 326.137534 194.466918 
L 332.415094 192.851729 
L 338.692655 192.687383 
L 344.970215 189.310272 
L 351.247775 182.25097 
L 357.525336 180.310106 
L 363.802896 176.593467 
L 370.080456 173.343334 
L 376.358017 167.760221 
L 382.635577 166.186744 
L 388.913137 165.259838 
L 395.190698 163.176715 
" clip-path="url(#p4a062ddc90)" style="fill: none; stroke: #0000ff; stroke-width: 1.5; stroke-linecap: square"/>
   </g>
   <g id="line2d_22">
    <path d="M 88.217997 226.538271 
L 93.867802 225.133764 
L 100.145362 223.955785 
L 106.422922 223.908846 
L 112.700483 221.557625 
L 118.978043 215.712293 
L 125.255603 212.705405 
L 131.533164 210.352068 
L 137.810724 207.355512 
L 144.088284 206.839766 
L 150.365845 206.791888 
L 156.643405 206.547885 
L 162.920965 206.542901 
L 169.198526 203.671917 
L 175.476086 202.118219 
L 181.753646 198.668691 
L 188.031207 197.482162 
L 194.308767 195.97906 
L 200.586327 195.171325 
L 206.863888 195.014648 
L 213.141448 191.376482 
L 219.419008 189.758063 
L 225.696569 185.660191 
L 231.974129 182.930073 
L 238.251689 181.892389 
L 244.52925 180.98603 
L 250.80681 178.281545 
L 257.08437 177.650415 
L 263.361931 172.233007 
L 269.639491 170.33453 
L 275.917051 169.19239 
L 282.194612 168.974123 
L 288.472172 166.973801 
L 294.749732 166.587966 
L 301.027293 166.219228 
L 307.304853 165.99248 
L 313.582413 164.636109 
L 319.859974 164.410843 
L 326.137534 159.661576 
L 332.415094 157.734916 
L 338.692655 154.278962 
L 344.970215 154.230017 
L 351.247775 151.271586 
L 357.525336 148.364863 
L 363.802896 142.768194 
L 370.080456 142.487195 
L 376.358017 139.400274 
L 382.635577 138.38802 
L 388.913137 138.173107 
L 395.190698 135.055666 
" clip-path="url(#p4a062ddc90)" style="fill: none; stroke: #0000ff; stroke-width: 1.5; stroke-linecap: square"/>
   </g>
   <g id="line2d_23">
    <path d="M 88.217997 251.066555 
L 93.867802 249.617837 
L 100.145362 248.894511 
L 106.422922 248.813945 
L 112.700483 248.194986 
L 118.978043 245.198714 
L 125.255603 245.01128 
L 131.533164 242.448799 
L 137.810724 240.629769 
L 144.088284 240.610957 
L 150.365845 240.098205 
L 156.643405 237.792255 
L 162.920965 237.761809 
L 169.198526 236.273583 
L 175.476086 235.434969 
L 181.753646 233.048237 
L 188.031207 233.039931 
L 194.308767 231.816784 
L 200.586327 231.805737 
L 206.863888 231.629392 
L 213.141448 230.563419 
L 219.419008 229.734836 
L 225.696569 228.531581 
L 231.974129 227.543448 
L 238.251689 226.392256 
L 244.52925 225.98572 
L 250.80681 225.910924 
L 257.08437 225.87587 
L 263.361931 225.192772 
L 269.639491 224.967735 
L 275.917051 224.937985 
L 282.194612 224.83233 
L 288.472172 224.483348 
L 294.749732 224.284122 
L 301.027293 224.252199 
L 307.304853 222.326054 
L 313.582413 222.269543 
L 319.859974 221.368237 
L 326.137534 220.991991 
L 332.415094 219.833817 
L 338.692655 217.212716 
L 344.970215 216.790043 
L 351.247775 216.732097 
L 357.525336 215.092521 
L 363.802896 214.60491 
L 370.080456 214.342295 
L 376.358017 212.400722 
L 382.635577 211.28333 
L 388.913137 211.214607 
L 395.190698 210.90954 
" clip-path="url(#p4a062ddc90)" style="fill: none; stroke: #008000; stroke-width: 1.5; stroke-linecap: square"/>
   </g>
   <g id="line2d_24">
    <path d="M 88.217997 265.807816 
L 93.867802 264.153468 
L 100.145362 263.268098 
L 106.422922 262.207161 
L 112.700483 260.453604 
L 118.978043 254.386087 
L 125.255603 254.027224 
L 131.533164 253.681263 
L 137.810724 253.670571 
L 144.088284 252.343336 
L 150.365845 252.310302 
L 156.643405 251.44281 
L 162.920965 251.400148 
L 169.198526 251.310975 
L 175.476086 249.49255 
L 181.753646 249.043897 
L 188.031207 246.496793 
L 194.308767 242.760694 
L 200.586327 242.000247 
L 206.863888 241.575229 
L 213.141448 241.127839 
L 219.419008 238.763587 
L 225.696569 236.824537 
L 231.974129 234.490211 
L 238.251689 231.599469 
L 244.52925 230.554368 
L 250.80681 228.491049 
L 257.08437 228.316954 
L 263.361931 227.024824 
L 269.639491 225.304782 
L 275.917051 225.179185 
L 282.194612 225.11992 
L 288.472172 224.913955 
L 294.749732 224.321526 
L 301.027293 222.368369 
L 307.304853 221.731362 
L 313.582413 220.38868 
L 319.859974 220.340178 
L 326.137534 217.347728 
L 332.415094 215.152896 
L 338.692655 214.888018 
L 344.970215 210.596596 
L 351.247775 209.622698 
L 357.525336 208.764661 
L 363.802896 201.714413 
L 370.080456 199.064396 
L 376.358017 198.038627 
L 382.635577 197.938454 
L 388.913137 197.910835 
L 395.190698 192.182266 
" clip-path="url(#p4a062ddc90)" style="fill: none; stroke: #008000; stroke-width: 1.5; stroke-linecap: square"/>
   </g>
   <g id="line2d_25">
    <path d="M 88.217997 253.845604 
L 93.867802 253.841285 
L 100.145362 253.456716 
L 106.422922 251.725516 
L 112.700483 251.566669 
L 118.978043 251.499022 
L 125.255603 251.496847 
L 131.533164 250.791779 
L 137.810724 248.879242 
L 144.088284 248.58876 
L 150.365845 244.754571 
L 156.643405 244.057774 
L 162.920965 241.177798 
L 169.198526 239.462942 
L 175.476086 238.108848 
L 181.753646 232.386718 
L 188.031207 232.222821 
L 194.308767 232.219055 
L 200.586327 232.20952 
L 206.863888 232.022064 
L 213.141448 231.035311 
L 219.419008 229.285628 
L 225.696569 228.52422 
L 231.974129 228.416918 
L 238.251689 227.300877 
L 244.52925 227.003129 
L 250.80681 226.429056 
L 257.08437 226.427708 
L 263.361931 226.088369 
L 269.639491 225.801158 
L 275.917051 225.220496 
L 282.194612 224.415582 
L 288.472172 222.550052 
L 294.749732 221.365595 
L 301.027293 220.938384 
L 307.304853 216.629643 
L 313.582413 216.395668 
L 319.859974 215.580195 
L 326.137534 212.936814 
L 332.415094 212.366826 
L 338.692655 212.231065 
L 344.970215 212.079709 
L 351.247775 212.021612 
L 357.525336 211.501992 
L 363.802896 211.27314 
L 370.080456 210.801882 
L 376.358017 210.729045 
L 382.635577 204.213577 
L 388.913137 203.921687 
L 395.190698 202.451607 
" clip-path="url(#p4a062ddc90)" style="fill: none; stroke: #008000; stroke-width: 1.5; stroke-linecap: square"/>
   </g>
   <g id="line2d_26">
    <path d="M 88.217997 242.781162 
L 93.867802 242.602326 
L 100.145362 241.994722 
L 106.422922 238.7916 
L 112.700483 238.781379 
L 118.978043 238.764909 
L 125.255603 238.667209 
L 131.533164 238.656217 
L 137.810724 237.872196 
L 144.088284 237.837586 
L 150.365845 233.052569 
L 156.643405 232.897095 
L 162.920965 232.430164 
L 169.198526 232.339713 
L 175.476086 232.321432 
L 181.753646 232.165016 
L 188.031207 231.180108 
L 194.308767 227.024803 
L 200.586327 226.281203 
L 206.863888 223.596807 
L 213.141448 223.534618 
L 219.419008 222.310093 
L 225.696569 222.133187 
L 231.974129 222.034135 
L 238.251689 221.861874 
L 244.52925 221.549177 
L 250.80681 219.012031 
L 257.08437 218.954996 
L 263.361931 217.582127 
L 269.639491 216.933486 
L 275.917051 215.309567 
L 282.194612 211.987391 
L 288.472172 209.192969 
L 294.749732 208.858242 
L 301.027293 202.615047 
L 307.304853 201.406984 
L 313.582413 200.683001 
L 319.859974 200.052401 
L 326.137534 198.820094 
L 332.415094 196.737525 
L 338.692655 196.531256 
L 344.970215 196.421882 
L 351.247775 196.358208 
L 357.525336 191.982974 
L 363.802896 190.542631 
L 370.080456 188.095787 
L 376.358017 187.254474 
L 382.635577 187.028164 
L 388.913137 186.936062 
L 395.190698 186.71229 
" clip-path="url(#p4a062ddc90)" style="fill: none; stroke: #008000; stroke-width: 1.5; stroke-linecap: square"/>
   </g>
   <g id="line2d_27">
    <path d="M 88.217997 256.57092 
L 93.867802 253.080679 
L 100.145362 252.82323 
L 106.422922 252.757851 
L 112.700483 249.432773 
L 118.978043 246.838709 
L 125.255603 246.739035 
L 131.533164 246.236525 
L 137.810724 246.218617 
L 144.088284 246.181498 
L 150.365845 244.654251 
L 156.643405 244.628582 
L 162.920965 244.359732 
L 169.198526 244.352294 
L 175.476086 242.265288 
L 181.753646 242.240976 
L 188.031207 240.720513 
L 194.308767 240.154486 
L 200.586327 239.519212 
L 206.863888 239.330882 
L 213.141448 237.698019 
L 219.419008 231.596481 
L 225.696569 230.925932 
L 231.974129 229.86183 
L 238.251689 227.428358 
L 244.52925 225.052756 
L 250.80681 222.193823 
L 257.08437 222.110918 
L 263.361931 221.125517 
L 269.639491 217.717179 
L 275.917051 217.644537 
L 282.194612 217.336747 
L 288.472172 216.498968 
L 294.749732 216.424252 
L 301.027293 215.464599 
L 307.304853 213.850921 
L 313.582413 203.576574 
L 319.859974 202.351916 
L 326.137534 202.203744 
L 332.415094 202.050068 
L 338.692655 198.592778 
L 344.970215 195.472597 
L 351.247775 194.432323 
L 357.525336 192.784271 
L 363.802896 192.529017 
L 370.080456 192.112694 
L 376.358017 191.041388 
L 382.635577 189.863582 
L 388.913137 188.269089 
L 395.190698 188.238034 
" clip-path="url(#p4a062ddc90)" style="fill: none; stroke: #008000; stroke-width: 1.5; stroke-linecap: square"/>
   </g>
   <g id="line2d_28">
    <path d="M 88.217997 263.831254 
L 93.867802 263.533761 
L 100.145362 262.571767 
L 106.422922 262.36388 
L 112.700483 262.282402 
L 118.978043 262.266383 
L 125.255603 261.544033 
L 131.533164 261.471097 
L 137.810724 261.462595 
L 144.088284 261.440712 
L 150.365845 261.431356 
L 156.643405 261.093052 
L 162.920965 260.679167 
L 169.198526 259.306697 
L 175.476086 256.972378 
L 181.753646 256.706373 
L 188.031207 256.699857 
L 194.308767 256.669729 
L 200.586327 256.649894 
L 206.863888 254.582401 
L 213.141448 254.578718 
L 219.419008 254.533138 
L 225.696569 254.501812 
L 231.974129 254.395668 
L 238.251689 254.189172 
L 244.52925 254.176428 
L 250.80681 253.270837 
L 257.08437 253.225188 
L 263.361931 252.870397 
L 269.639491 251.47616 
L 275.917051 251.343002 
L 282.194612 246.276722 
L 288.472172 246.238335 
L 294.749732 244.199208 
L 301.027293 242.040254 
L 307.304853 242.028841 
L 313.582413 240.894017 
L 319.859974 238.80617 
L 326.137534 237.88807 
L 332.415094 236.191176 
L 338.692655 234.670468 
L 344.970215 234.557208 
L 351.247775 234.546481 
L 357.525336 231.394554 
L 363.802896 227.867098 
L 370.080456 227.442342 
L 376.358017 227.407249 
L 382.635577 227.334174 
L 388.913137 227.319619 
L 395.190698 227.225034 
" clip-path="url(#p4a062ddc90)" style="fill: none; stroke: #ffa500; stroke-width: 1.5; stroke-linecap: square"/>
   </g>
   <g id="line2d_29">
    <path d="M 88.217997 266.792807 
L 93.867802 266.697101 
L 100.145362 266.672019 
L 106.422922 266.295685 
L 112.700483 264.270955 
L 118.978043 263.050768 
L 125.255603 262.755777 
L 131.533164 262.739755 
L 137.810724 261.875671 
L 144.088284 261.135573 
L 150.365845 257.375066 
L 156.643405 257.222425 
L 162.920965 257.214331 
L 169.198526 256.318013 
L 175.476086 254.523723 
L 181.753646 253.600014 
L 188.031207 252.537164 
L 194.308767 252.112978 
L 200.586327 252.107747 
L 206.863888 252.054182 
L 213.141448 251.563944 
L 219.419008 249.640198 
L 225.696569 247.941285 
L 231.974129 246.437758 
L 238.251689 246.136769 
L 244.52925 246.109751 
L 250.80681 245.901692 
L 257.08437 245.840905 
L 263.361931 245.442309 
L 269.639491 243.836661 
L 275.917051 243.304665 
L 282.194612 243.294034 
L 288.472172 243.03403 
L 294.749732 240.881609 
L 301.027293 239.314114 
L 307.304853 239.139405 
L 313.582413 239.011624 
L 319.859974 238.984912 
L 326.137534 237.052145 
L 332.415094 236.180111 
L 338.692655 236.145961 
L 344.970215 235.714573 
L 351.247775 235.392935 
L 357.525336 234.405403 
L 363.802896 234.242363 
L 370.080456 232.672777 
L 376.358017 232.65563 
L 382.635577 231.111573 
L 388.913137 230.978831 
L 395.190698 229.768665 
" clip-path="url(#p4a062ddc90)" style="fill: none; stroke: #ffa500; stroke-width: 1.5; stroke-linecap: square"/>
   </g>
   <g id="line2d_30">
    <path d="M 88.217997 268.670063 
L 93.867802 264.176666 
L 100.145362 264.141513 
L 106.422922 264.127652 
L 112.700483 263.452132 
L 118.978043 262.716149 
L 125.255603 262.428908 
L 131.533164 262.377053 
L 137.810724 261.76754 
L 144.088284 261.491234 
L 150.365845 261.422909 
L 156.643405 261.045822 
L 162.920965 261.039729 
L 169.198526 260.400138 
L 175.476086 260.379877 
L 181.753646 259.830306 
L 188.031207 259.175948 
L 194.308767 258.790979 
L 200.586327 258.782104 
L 206.863888 258.731635 
L 213.141448 258.716216 
L 219.419008 258.686426 
L 225.696569 258.623265 
L 231.974129 257.491645 
L 238.251689 257.429346 
L 244.52925 257.335327 
L 250.80681 257.323653 
L 257.08437 256.870674 
L 263.361931 255.515176 
L 269.639491 255.472988 
L 275.917051 255.379707 
L 282.194612 255.083997 
L 288.472172 254.911504 
L 294.749732 254.042716 
L 301.027293 253.980697 
L 307.304853 253.136977 
L 313.582413 253.013499 
L 319.859974 252.888527 
L 326.137534 252.882898 
L 332.415094 252.683652 
L 338.692655 250.270649 
L 344.970215 249.718896 
L 351.247775 249.534465 
L 357.525336 248.529475 
L 363.802896 247.995536 
L 370.080456 247.136685 
L 376.358017 247.11971 
L 382.635577 246.80603 
L 388.913137 244.966529 
L 395.190698 244.761717 
" clip-path="url(#p4a062ddc90)" style="fill: none; stroke: #ffa500; stroke-width: 1.5; stroke-linecap: square"/>
   </g>
   <g id="line2d_31">
    <path d="M 88.217997 265.220023 
L 93.867802 264.865762 
L 100.145362 262.95789 
L 106.422922 261.004081 
L 112.700483 260.541201 
L 118.978043 260.539953 
L 125.255603 260.530169 
L 131.533164 256.485261 
L 137.810724 256.434825 
L 144.088284 256.407756 
L 150.365845 255.944227 
L 156.643405 255.88315 
L 162.920965 254.206311 
L 169.198526 254.088559 
L 175.476086 253.758803 
L 181.753646 252.131885 
L 188.031207 252.116372 
L 194.308767 251.814876 
L 200.586327 251.620485 
L 206.863888 251.61075 
L 213.141448 250.909372 
L 219.419008 250.801566 
L 225.696569 250.6085 
L 231.974129 249.496579 
L 238.251689 248.171327 
L 244.52925 247.785144 
L 250.80681 247.548745 
L 257.08437 246.472952 
L 263.361931 246.422765 
L 269.639491 246.169767 
L 275.917051 245.389062 
L 282.194612 245.037768 
L 288.472172 244.011858 
L 294.749732 243.999388 
L 301.027293 243.976439 
L 307.304853 243.960909 
L 313.582413 242.766996 
L 319.859974 242.765712 
L 326.137534 241.211114 
L 332.415094 240.181579 
L 338.692655 237.330193 
L 344.970215 235.96056 
L 351.247775 235.494218 
L 357.525336 235.345517 
L 363.802896 235.137939 
L 370.080456 234.673984 
L 376.358017 234.618716 
L 382.635577 234.614434 
L 388.913137 234.565539 
L 395.190698 234.165983 
" clip-path="url(#p4a062ddc90)" style="fill: none; stroke: #ffa500; stroke-width: 1.5; stroke-linecap: square"/>
   </g>
   <g id="line2d_32">
    <path d="M 88.217997 261.221621 
L 93.867802 260.032008 
L 100.145362 259.938405 
L 106.422922 259.928598 
L 112.700483 259.921947 
L 118.978043 259.915886 
L 125.255603 259.666368 
L 131.533164 259.657324 
L 137.810724 259.293994 
L 144.088284 258.459612 
L 150.365845 257.46857 
L 156.643405 257.173271 
L 162.920965 256.869735 
L 169.198526 255.609352 
L 175.476086 254.913521 
L 181.753646 254.824306 
L 188.031207 254.798898 
L 194.308767 254.782031 
L 200.586327 254.05646 
L 206.863888 254.049257 
L 213.141448 253.921091 
L 219.419008 250.995753 
L 225.696569 250.987805 
L 231.974129 247.595782 
L 238.251689 247.53533 
L 244.52925 247.338753 
L 250.80681 245.964593 
L 257.08437 244.401547 
L 263.361931 242.641066 
L 269.639491 242.29786 
L 275.917051 242.272617 
L 282.194612 241.14735 
L 288.472172 241.080559 
L 294.749732 240.962124 
L 301.027293 240.93512 
L 307.304853 239.287712 
L 313.582413 239.138248 
L 319.859974 238.287826 
L 326.137534 236.840174 
L 332.415094 236.487882 
L 338.692655 236.27229 
L 344.970215 235.918768 
L 351.247775 235.866576 
L 357.525336 235.264437 
L 363.802896 234.401391 
L 370.080456 233.785031 
L 376.358017 233.38716 
L 382.635577 233.363504 
L 388.913137 233.07991 
L 395.190698 231.749682 
" clip-path="url(#p4a062ddc90)" style="fill: none; stroke: #ffa500; stroke-width: 1.5; stroke-linecap: square"/>
   </g>
   <g id="line2d_33">
    <path d="M 88.217997 282.288529 
L 93.867802 282.284933 
L 100.145362 282.277692 
L 106.422922 282.276998 
L 112.700483 281.122022 
L 118.978043 279.606646 
L 125.255603 279.026787 
L 131.533164 278.823623 
L 137.810724 277.135316 
L 144.088284 277.131763 
L 150.365845 276.455869 
L 156.643405 276.439542 
L 162.920965 276.223577 
L 169.198526 275.949524 
L 175.476086 275.926554 
L 181.753646 275.922263 
L 188.031207 275.917743 
L 194.308767 275.594437 
L 200.586327 274.202518 
L 206.863888 273.904585 
L 213.141448 273.659974 
L 219.419008 273.457959 
L 225.696569 273.342843 
L 231.974129 272.89483 
L 238.251689 272.890596 
L 244.52925 272.41163 
L 250.80681 271.541335 
L 257.08437 271.491291 
L 263.361931 271.467268 
L 269.639491 270.831231 
L 275.917051 270.817081 
L 282.194612 270.795484 
L 288.472172 270.037419 
L 294.749732 270.026228 
L 301.027293 268.971631 
L 307.304853 267.859337 
L 313.582413 267.820086 
L 319.859974 267.776747 
L 326.137534 267.262138 
L 332.415094 267.200451 
L 338.692655 267.176535 
L 344.970215 267.155142 
L 351.247775 266.819066 
L 357.525336 266.792822 
L 363.802896 266.768277 
L 370.080456 266.681216 
L 376.358017 266.333564 
L 382.635577 266.277651 
L 388.913137 264.765755 
L 395.190698 263.96075 
" clip-path="url(#p4a062ddc90)" style="fill: none; stroke: #000000; stroke-width: 1.5; stroke-linecap: square"/>
   </g>
   <g id="line2d_34">
    <path d="M 88.217997 272.625918 
L 93.867802 272.621169 
L 100.145362 272.597428 
L 106.422922 272.452303 
L 112.700483 271.941772 
L 118.978043 271.881651 
L 125.255603 271.610771 
L 131.533164 270.226794 
L 137.810724 269.957713 
L 144.088284 269.501361 
L 150.365845 269.173819 
L 156.643405 266.032185 
L 162.920965 265.518409 
L 169.198526 264.698909 
L 175.476086 264.683773 
L 181.753646 263.939807 
L 188.031207 263.821879 
L 194.308767 259.899873 
L 200.586327 259.292479 
L 206.863888 259.148382 
L 213.141448 258.489253 
L 219.419008 258.477345 
L 225.696569 258.415228 
L 231.974129 258.027201 
L 238.251689 258.009903 
L 244.52925 257.980869 
L 250.80681 257.950377 
L 257.08437 257.724385 
L 263.361931 256.761796 
L 269.639491 256.719775 
L 275.917051 256.718315 
L 282.194612 256.701085 
L 288.472172 256.689342 
L 294.749732 256.675513 
L 301.027293 256.662085 
L 307.304853 256.300464 
L 313.582413 255.988656 
L 319.859974 255.987574 
L 326.137534 255.781695 
L 332.415094 255.775082 
L 338.692655 254.615469 
L 344.970215 254.613952 
L 351.247775 254.462526 
L 357.525336 254.418996 
L 363.802896 253.048188 
L 370.080456 253.018447 
L 376.358017 253.010978 
L 382.635577 251.830986 
L 388.913137 251.811026 
L 395.190698 251.466565 
" clip-path="url(#p4a062ddc90)" style="fill: none; stroke: #000000; stroke-width: 1.5; stroke-linecap: square"/>
   </g>
   <g id="line2d_35">
    <path d="M 88.217997 275.992061 
L 93.867802 275.989664 
L 100.145362 275.925148 
L 106.422922 275.921026 
L 112.700483 274.433794 
L 118.978043 274.400564 
L 125.255603 273.527436 
L 131.533164 273.392014 
L 137.810724 273.37832 
L 144.088284 272.502416 
L 150.365845 272.479909 
L 156.643405 272.417157 
L 162.920965 272.353609 
L 169.198526 272.336987 
L 175.476086 272.226198 
L 181.753646 271.940047 
L 188.031207 271.100371 
L 194.308767 271.081597 
L 200.586327 271.036316 
L 206.863888 269.884555 
L 213.141448 269.646864 
L 219.419008 269.597327 
L 225.696569 269.483556 
L 231.974129 268.604863 
L 238.251689 268.591212 
L 244.52925 268.564211 
L 250.80681 268.513304 
L 257.08437 268.450668 
L 263.361931 268.309356 
L 269.639491 268.258086 
L 275.917051 266.334528 
L 282.194612 266.308664 
L 288.472172 266.302879 
L 294.749732 266.292479 
L 301.027293 266.283283 
L 307.304853 266.18012 
L 313.582413 266.175451 
L 319.859974 266.127503 
L 326.137534 266.125606 
L 332.415094 266.095022 
L 338.692655 265.347263 
L 344.970215 265.312127 
L 351.247775 264.899007 
L 357.525336 264.884689 
L 363.802896 264.53473 
L 370.080456 264.522968 
L 376.358017 264.418042 
L 382.635577 264.274572 
L 388.913137 263.468663 
L 395.190698 263.30949 
" clip-path="url(#p4a062ddc90)" style="fill: none; stroke: #000000; stroke-width: 1.5; stroke-linecap: square"/>
   </g>
   <g id="line2d_36">
    <path d="M 88.217997 269.716986 
L 93.867802 269.337955 
L 100.145362 267.007121 
L 106.422922 267.003416 
L 112.700483 266.959421 
L 118.978043 266.950444 
L 125.255603 266.94475 
L 131.533164 266.934214 
L 137.810724 266.614388 
L 144.088284 266.374391 
L 150.365845 265.240112 
L 156.643405 265.221003 
L 162.920965 265.174877 
L 169.198526 265.168285 
L 175.476086 264.604496 
L 181.753646 264.595289 
L 188.031207 264.580774 
L 194.308767 264.396583 
L 200.586327 264.393792 
L 206.863888 264.323756 
L 213.141448 264.264097 
L 219.419008 264.257741 
L 225.696569 264.251516 
L 231.974129 264.181183 
L 238.251689 264.033158 
L 244.52925 263.930533 
L 250.80681 263.906975 
L 257.08437 263.46349 
L 263.361931 263.410965 
L 269.639491 263.382422 
L 275.917051 263.34277 
L 282.194612 263.339006 
L 288.472172 259.36057 
L 294.749732 259.225633 
L 301.027293 259.124123 
L 307.304853 257.468391 
L 313.582413 257.398444 
L 319.859974 257.39299 
L 326.137534 257.019519 
L 332.415094 256.450002 
L 338.692655 256.33593 
L 344.970215 256.214979 
L 351.247775 256.051278 
L 357.525336 256.046096 
L 363.802896 256.015616 
L 370.080456 255.935003 
L 376.358017 255.755426 
L 382.635577 255.666303 
L 388.913137 255.538979 
L 395.190698 255.471987 
" clip-path="url(#p4a062ddc90)" style="fill: none; stroke: #000000; stroke-width: 1.5; stroke-linecap: square"/>
   </g>
   <g id="line2d_37">
    <path d="M 88.217997 274.247059 
L 93.867802 273.942626 
L 100.145362 273.758667 
L 106.422922 273.647591 
L 112.700483 273.179751 
L 118.978043 273.171544 
L 125.255603 272.873929 
L 131.533164 272.872124 
L 137.810724 271.858855 
L 144.088284 271.540819 
L 150.365845 271.530157 
L 156.643405 271.521854 
L 162.920965 271.327654 
L 169.198526 271.284017 
L 175.476086 271.280675 
L 181.753646 271.277204 
L 188.031207 271.274509 
L 194.308767 270.626517 
L 200.586327 270.576714 
L 206.863888 270.566248 
L 213.141448 270.488791 
L 219.419008 270.474324 
L 225.696569 270.467389 
L 231.974129 270.044146 
L 238.251689 266.878453 
L 244.52925 266.875492 
L 250.80681 266.86018 
L 257.08437 266.854858 
L 263.361931 266.826699 
L 269.639491 266.812614 
L 275.917051 266.735781 
L 282.194612 266.632012 
L 288.472172 266.221359 
L 294.749732 266.214891 
L 301.027293 266.205105 
L 307.304853 265.772673 
L 313.582413 264.616245 
L 319.859974 264.606814 
L 326.137534 264.484178 
L 332.415094 264.471828 
L 338.692655 264.372057 
L 344.970215 264.297717 
L 351.247775 263.637417 
L 357.525336 263.635638 
L 363.802896 263.626739 
L 370.080456 263.575459 
L 376.358017 263.573621 
L 382.635577 263.571113 
L 388.913137 263.543169 
L 395.190698 263.485818 
" clip-path="url(#p4a062ddc90)" style="fill: none; stroke: #000000; stroke-width: 1.5; stroke-linecap: square"/>
   </g>
   <g id="patch_3">
    <path d="M 62.48 297.88 
L 62.48 13.176706 
" style="fill: none; stroke: #000000; stroke-width: 0.8; stroke-linejoin: miter; stroke-linecap: square"/>
   </g>
   <g id="patch_4">
    <path d="M 407.745818 297.88 
L 407.745818 13.176706 
" style="fill: none; stroke: #000000; stroke-width: 0.8; stroke-linejoin: miter; stroke-linecap: square"/>
   </g>
   <g id="patch_5">
    <path d="M 62.48 297.88 
L 407.745818 297.88 
" style="fill: none; stroke: #000000; stroke-width: 0.8; stroke-linejoin: miter; stroke-linecap: square"/>
   </g>
   <g id="patch_6">
    <path d="M 62.48 13.176706 
L 407.745818 13.176706 
" style="fill: none; stroke: #000000; stroke-width: 0.8; stroke-linejoin: miter; stroke-linecap: square"/>
   </g>
   <g id="legend_1">
    <g id="patch_7">
     <path d="M 71.58 137.384518 
L 174.78 137.384518 
Q 177.38 137.384518 177.38 134.784518 
L 177.38 22.276706 
Q 177.38 19.676706 174.78 19.676706 
L 71.58 19.676706 
Q 68.98 19.676706 68.98 22.276706 
L 68.98 134.784518 
Q 68.98 137.384518 71.58 137.384518 
z
" style="fill: #ffffff; opacity: 0.8; stroke: #cccccc; stroke-linejoin: miter"/>
    </g>
    <g id="text_15">
     <!-- Mating Variance $\sigma^2_m$ -->
     <g transform="translate(74.18 33.976706) scale(0.1 -0.1)">
      <defs>
       <path id="DejaVuSans-4d" d="M 628 4666 
L 1569 4666 
L 2759 1491 
L 3956 4666 
L 4897 4666 
L 4897 0 
L 4281 0 
L 4281 4097 
L 3078 897 
L 2444 897 
L 1241 4097 
L 1241 0 
L 628 0 
L 628 4666 
z
" transform="scale(0.015625)"/>
       <path id="DejaVuSans-6e" d="M 3513 2113 
L 3513 0 
L 2938 0 
L 2938 2094 
Q 2938 2591 2744 2837 
Q 2550 3084 2163 3084 
Q 1697 3084 1428 2787 
Q 1159 2491 1159 1978 
L 1159 0 
L 581 0 
L 581 3500 
L 1159 3500 
L 1159 2956 
Q 1366 3272 1645 3428 
Q 1925 3584 2291 3584 
Q 2894 3584 3203 3211 
Q 3513 2838 3513 2113 
z
" transform="scale(0.015625)"/>
       <path id="DejaVuSans-67" d="M 2906 1791 
Q 2906 2416 2648 2759 
Q 2391 3103 1925 3103 
Q 1463 3103 1205 2759 
Q 947 2416 947 1791 
Q 947 1169 1205 825 
Q 1463 481 1925 481 
Q 2391 481 2648 825 
Q 2906 1169 2906 1791 
z
M 3481 434 
Q 3481 -459 3084 -895 
Q 2688 -1331 1869 -1331 
Q 1566 -1331 1297 -1286 
Q 1028 -1241 775 -1147 
L 775 -588 
Q 1028 -725 1275 -790 
Q 1522 -856 1778 -856 
Q 2344 -856 2625 -561 
Q 2906 -266 2906 331 
L 2906 616 
Q 2728 306 2450 153 
Q 2172 0 1784 0 
Q 1141 0 747 490 
Q 353 981 353 1791 
Q 353 2603 747 3093 
Q 1141 3584 1784 3584 
Q 2172 3584 2450 3431 
Q 2728 3278 2906 2969 
L 2906 3500 
L 3481 3500 
L 3481 434 
z
" transform="scale(0.015625)"/>
       <path id="DejaVuSans-56" d="M 1831 0 
L 50 4666 
L 709 4666 
L 2188 738 
L 3669 4666 
L 4325 4666 
L 2547 0 
L 1831 0 
z
" transform="scale(0.015625)"/>
       <path id="DejaVuSans-63" d="M 3122 3366 
L 3122 2828 
Q 2878 2963 2633 3030 
Q 2388 3097 2138 3097 
Q 1578 3097 1268 2742 
Q 959 2388 959 1747 
Q 959 1106 1268 751 
Q 1578 397 2138 397 
Q 2388 397 2633 464 
Q 2878 531 3122 666 
L 3122 134 
Q 2881 22 2623 -34 
Q 2366 -91 2075 -91 
Q 1284 -91 818 406 
Q 353 903 353 1747 
Q 353 2603 823 3093 
Q 1294 3584 2113 3584 
Q 2378 3584 2631 3529 
Q 2884 3475 3122 3366 
z
" transform="scale(0.015625)"/>
       <path id="DejaVuSans-Oblique-3c3" d="M 2219 3044 
Q 1744 3044 1422 2700 
Q 1081 2341 969 1747 
Q 844 1119 1044 756 
Q 1241 397 1706 397 
Q 2166 397 2503 759 
Q 2844 1122 2966 1747 
Q 3075 2319 2881 2700 
Q 2700 3044 2219 3044 
z
M 2309 3503 
L 4219 3500 
L 4106 2925 
L 3463 2925 
Q 3706 2438 3575 1747 
Q 3406 888 2884 400 
Q 2359 -91 1609 -91 
Q 856 -91 525 400 
Q 194 888 363 1747 
Q 528 2609 1050 3097 
Q 1484 3503 2309 3503 
z
" transform="scale(0.015625)"/>
       <path id="DejaVuSans-Oblique-6d" d="M 5747 2113 
L 5338 0 
L 4763 0 
L 5166 2094 
Q 5191 2228 5203 2325 
Q 5216 2422 5216 2491 
Q 5216 2772 5059 2928 
Q 4903 3084 4622 3084 
Q 4203 3084 3875 2770 
Q 3547 2456 3450 1953 
L 3066 0 
L 2491 0 
L 2900 2094 
Q 2925 2209 2937 2307 
Q 2950 2406 2950 2484 
Q 2950 2769 2794 2926 
Q 2638 3084 2363 3084 
Q 1938 3084 1609 2770 
Q 1281 2456 1184 1953 
L 800 0 
L 225 0 
L 909 3500 
L 1484 3500 
L 1375 2956 
Q 1609 3263 1923 3423 
Q 2238 3584 2597 3584 
Q 2978 3584 3223 3384 
Q 3469 3184 3519 2828 
Q 3781 3197 4126 3390 
Q 4472 3584 4856 3584 
Q 5306 3584 5551 3325 
Q 5797 3066 5797 2591 
Q 5797 2488 5784 2364 
Q 5772 2241 5747 2113 
z
" transform="scale(0.015625)"/>
      </defs>
      <use xlink:href="#DejaVuSans-4d" transform="translate(0 0.765625)"/>
      <use xlink:href="#DejaVuSans-61" transform="translate(86.279297 0.765625)"/>
      <use xlink:href="#DejaVuSans-74" transform="translate(147.558594 0.765625)"/>
      <use xlink:href="#DejaVuSans-69" transform="translate(186.767578 0.765625)"/>
      <use xlink:href="#DejaVuSans-6e" transform="translate(214.550781 0.765625)"/>
      <use xlink:href="#DejaVuSans-67" transform="translate(277.929688 0.765625)"/>
      <use xlink:href="#DejaVuSans-20" transform="translate(341.40625 0.765625)"/>
      <use xlink:href="#DejaVuSans-56" transform="translate(373.193359 0.765625)"/>
      <use xlink:href="#DejaVuSans-61" transform="translate(441.601562 0.765625)"/>
      <use xlink:href="#DejaVuSans-72" transform="translate(502.880859 0.765625)"/>
      <use xlink:href="#DejaVuSans-69" transform="translate(543.994141 0.765625)"/>
      <use xlink:href="#DejaVuSans-61" transform="translate(571.777344 0.765625)"/>
      <use xlink:href="#DejaVuSans-6e" transform="translate(633.056641 0.765625)"/>
      <use xlink:href="#DejaVuSans-63" transform="translate(696.435547 0.765625)"/>
      <use xlink:href="#DejaVuSans-65" transform="translate(751.416016 0.765625)"/>
      <use xlink:href="#DejaVuSans-20" transform="translate(812.939453 0.765625)"/>
      <use xlink:href="#DejaVuSans-Oblique-3c3" transform="translate(844.726562 0.765625)"/>
      <use xlink:href="#DejaVuSans-32" transform="translate(912.578177 39.046875) scale(0.7)"/>
      <use xlink:href="#DejaVuSans-Oblique-6d" transform="translate(908.105469 -26.578125) scale(0.7)"/>
     </g>
    </g>
    <g id="line2d_38">
     <path d="M 94.642969 48.604675 
L 107.642969 48.604675 
L 120.642969 48.604675 
" style="fill: none; stroke: #ff0000; stroke-width: 1.5; stroke-linecap: square"/>
    </g>
    <g id="text_16">
     <!-- 1.0 -->
     <g transform="translate(131.042969 53.154675) scale(0.13 -0.13)">
      <use xlink:href="#DejaVuSans-31"/>
      <use xlink:href="#DejaVuSans-2e" transform="translate(63.623047 0)"/>
      <use xlink:href="#DejaVuSans-30" transform="translate(95.410156 0)"/>
     </g>
    </g>
    <g id="line2d_39">
     <path d="M 94.642969 67.686237 
L 107.642969 67.686237 
L 120.642969 67.686237 
" style="fill: none; stroke: #0000ff; stroke-width: 1.5; stroke-linecap: square"/>
    </g>
    <g id="text_17">
     <!-- 0.9 -->
     <g transform="translate(131.042969 72.236237) scale(0.13 -0.13)">
      <defs>
       <path id="DejaVuSans-39" d="M 703 97 
L 703 672 
Q 941 559 1184 500 
Q 1428 441 1663 441 
Q 2288 441 2617 861 
Q 2947 1281 2994 2138 
Q 2813 1869 2534 1725 
Q 2256 1581 1919 1581 
Q 1219 1581 811 2004 
Q 403 2428 403 3163 
Q 403 3881 828 4315 
Q 1253 4750 1959 4750 
Q 2769 4750 3195 4129 
Q 3622 3509 3622 2328 
Q 3622 1225 3098 567 
Q 2575 -91 1691 -91 
Q 1453 -91 1209 -44 
Q 966 3 703 97 
z
M 1959 2075 
Q 2384 2075 2632 2365 
Q 2881 2656 2881 3163 
Q 2881 3666 2632 3958 
Q 2384 4250 1959 4250 
Q 1534 4250 1286 3958 
Q 1038 3666 1038 3163 
Q 1038 2656 1286 2365 
Q 1534 2075 1959 2075 
z
" transform="scale(0.015625)"/>
      </defs>
      <use xlink:href="#DejaVuSans-30"/>
      <use xlink:href="#DejaVuSans-2e" transform="translate(63.623047 0)"/>
      <use xlink:href="#DejaVuSans-39" transform="translate(95.410156 0)"/>
     </g>
    </g>
    <g id="line2d_40">
     <path d="M 94.642969 86.7678 
L 107.642969 86.7678 
L 120.642969 86.7678 
" style="fill: none; stroke: #008000; stroke-width: 1.5; stroke-linecap: square"/>
    </g>
    <g id="text_18">
     <!-- 0.8 -->
     <g transform="translate(131.042969 91.3178) scale(0.13 -0.13)">
      <use xlink:href="#DejaVuSans-30"/>
      <use xlink:href="#DejaVuSans-2e" transform="translate(63.623047 0)"/>
      <use xlink:href="#DejaVuSans-38" transform="translate(95.410156 0)"/>
     </g>
    </g>
    <g id="line2d_41">
     <path d="M 94.642969 105.849362 
L 107.642969 105.849362 
L 120.642969 105.849362 
" style="fill: none; stroke: #ffa500; stroke-width: 1.5; stroke-linecap: square"/>
    </g>
    <g id="text_19">
     <!-- 0.7 -->
     <g transform="translate(131.042969 110.399362) scale(0.13 -0.13)">
      <defs>
       <path id="DejaVuSans-37" d="M 525 4666 
L 3525 4666 
L 3525 4397 
L 1831 0 
L 1172 0 
L 2766 4134 
L 525 4134 
L 525 4666 
z
" transform="scale(0.015625)"/>
      </defs>
      <use xlink:href="#DejaVuSans-30"/>
      <use xlink:href="#DejaVuSans-2e" transform="translate(63.623047 0)"/>
      <use xlink:href="#DejaVuSans-37" transform="translate(95.410156 0)"/>
     </g>
    </g>
    <g id="line2d_42">
     <path d="M 94.642969 124.930925 
L 107.642969 124.930925 
L 120.642969 124.930925 
" style="fill: none; stroke: #000000; stroke-width: 1.5; stroke-linecap: square"/>
    </g>
    <g id="text_20">
     <!-- 0.6 -->
     <g transform="translate(131.042969 129.480925) scale(0.13 -0.13)">
      <use xlink:href="#DejaVuSans-30"/>
      <use xlink:href="#DejaVuSans-2e" transform="translate(63.623047 0)"/>
      <use xlink:href="#DejaVuSans-36" transform="translate(95.410156 0)"/>
     </g>
    </g>
   </g>
  </g>
 </g>
 <defs>
  <clipPath id="p4a062ddc90">
   <rect x="62.48" y="13.176706" width="345.265818" height="284.703294"/>
  </clipPath>
 </defs>
</svg>
