<?xml version="1.0" encoding="utf-8"?>
<!-- Generator: Adobe Illustrator 25.2.1, SVG Export Plug-In . SVG Version: 6.00 Build 0)  -->
<svg version="1.1" id="Layer_1" xmlns="http://www.w3.org/2000/svg" xmlns:xlink="http://www.w3.org/1999/xlink" x="0px" y="0px"
	 viewBox="0 0 1521.5 387" style="enable-background:new 0 0 1521.5 387;" xml:space="preserve">
<style type="text/css">
	.st0{fill:none;}
	.st1{clip-path:url(#SVGID_2_);}
	.st2{fill:none;stroke:#EBEBEB;stroke-width:0.53;stroke-linejoin:round;stroke-miterlimit:10;}
	.st3{fill:none;stroke:#EBEBEB;stroke-width:1.07;stroke-linejoin:round;stroke-miterlimit:10;}
	
		.st4{fill:none;stroke:#1F77B4;stroke-width:0.71;stroke-linecap:round;stroke-linejoin:round;stroke-miterlimit:10;stroke-opacity:0.5;}
	.st5{fill:none;stroke:#1F77B4;stroke-width:2.13;stroke-linejoin:round;stroke-miterlimit:10;}
	
		.st6{fill:none;stroke:#F57E20;stroke-width:0.71;stroke-linecap:round;stroke-linejoin:round;stroke-miterlimit:10;stroke-opacity:0.5;}
	
		.st7{fill:none;stroke:#F57E20;stroke-width:0.71;stroke-linecap:round;stroke-linejoin:round;stroke-miterlimit:9.9985;stroke-opacity:0.5;}
	.st8{fill:none;stroke:#F57E20;stroke-width:2.13;stroke-linejoin:round;stroke-miterlimit:10;}
	.st9{fill:none;stroke:#231F20;stroke-miterlimit:10;stroke-opacity:0.3;}
	.st10{fill:none;stroke:#231F20;stroke-width:1;stroke-miterlimit:9.9985;stroke-opacity:0.3;}
	.st11{fill:none;stroke:#231F20;stroke-width:1;stroke-miterlimit:9.9999;stroke-opacity:0.3;}
	.st12{fill:none;stroke:#231F20;stroke-width:2.13;stroke-linejoin:round;stroke-miterlimit:10;}
	.st13{fill:#4D4D4D;}
	.st14{font-family:'ArialMT';}
	.st15{font-size:6.4579px;}
	.st16{font-size:18px;}
	.st17{fill:#1F77B4;}
	.st18{font-size:13px;}
	.st19{fill:#F57E20;}
	.st20{fill:#231F20;}
	.st21{font-family:'Arial-Black';}
	.st22{font-size:20px;}
	.st23{fill:none;stroke:#000000;stroke-width:3;stroke-miterlimit:10;}
	.st24{fill:#2278B5;}
	.st25{fill:#F57F20;}
	.st26{enable-background:new    ;}
	.st27{font-size:12px;}
	.st28{font-family:'Arial-BoldMT';}
	.st29{font-size:50px;}
	.st30{font-size:30px;}
</style>
<g>
	<rect x="1200.9" y="87.4" class="st0" width="264.2" height="264.2"/>
	<g>
		<g>
			<g>
				<g>
					<defs>
						<rect id="SVGID_1_" x="1234.3" y="91.4" width="226.8" height="236.9"/>
					</defs>
					<clipPath id="SVGID_2_">
						<use xlink:href="#SVGID_1_"  style="overflow:visible;"/>
					</clipPath>
					<g class="st1">
						<line class="st2" x1="1234.3" y1="290.6" x2="1461" y2="290.6"/>
						<line class="st2" x1="1234.3" y1="236.8" x2="1461" y2="236.8"/>
						<line class="st2" x1="1234.3" y1="182.9" x2="1461" y2="182.9"/>
						<line class="st2" x1="1234.3" y1="129.1" x2="1461" y2="129.1"/>
						<line class="st2" x1="1267.2" y1="328.3" x2="1267.2" y2="91.4"/>
						<line class="st2" x1="1320.9" y1="328.3" x2="1320.9" y2="91.4"/>
						<line class="st2" x1="1374.7" y1="328.3" x2="1374.7" y2="91.4"/>
						<line class="st2" x1="1428.4" y1="328.3" x2="1428.4" y2="91.4"/>
						<line class="st3" x1="1234.3" y1="317.5" x2="1461" y2="317.5"/>
						<line class="st3" x1="1234.3" y1="263.7" x2="1461" y2="263.7"/>
						<line class="st3" x1="1234.3" y1="209.9" x2="1461" y2="209.9"/>
						<line class="st3" x1="1234.3" y1="156" x2="1461" y2="156"/>
						<line class="st3" x1="1234.3" y1="102.1" x2="1461" y2="102.1"/>
						<line class="st3" x1="1240.3" y1="328.3" x2="1240.3" y2="91.4"/>
						<line class="st3" x1="1294" y1="328.3" x2="1294" y2="91.4"/>
						<line class="st3" x1="1347.8" y1="328.3" x2="1347.8" y2="91.4"/>
						<line class="st3" x1="1401.5" y1="328.3" x2="1401.5" y2="91.4"/>
						<line class="st3" x1="1455.2" y1="328.3" x2="1455.2" y2="91.4"/>
						<circle class="st4" cx="1245.2" cy="248.8" r="1.4"/>
						<circle class="st4" cx="1244.6" cy="285.2" r="1.5"/>
						<circle class="st4" cx="1245.2" cy="273.6" r="1.4"/>
						<circle class="st4" cx="1249.1" cy="131.6" r="1.4"/>
						<circle class="st4" cx="1248.7" cy="-19.7" r="1.4"/>
						<circle class="st4" cx="1247.8" cy="116.5" r="1.5"/>
						<circle class="st4" cx="1248" cy="58.8" r="1.4"/>
						<circle class="st4" cx="1250.2" cy="-279.5" r="1.5"/>
						<circle class="st4" cx="1244.6" cy="288.5" r="1.5"/>
						<circle class="st4" cx="1245.7" cy="256.9" r="1.4"/>
						<circle class="st4" cx="1248.9" cy="-25.7" r="1.4"/>
						<circle class="st4" cx="1261.6" cy="-3191.1" r="1.5"/>
						<circle class="st4" cx="1256.4" cy="-1179.7" r="1.4"/>
						<circle class="st4" cx="1252.3" cy="-319.7" r="1.5"/>
						<circle class="st4" cx="1249.3" cy="1.1" r="1.4"/>
						<circle class="st4" cx="1250.4" cy="8.4" r="1.4"/>
						<circle class="st4" cx="1249.1" cy="57.9" r="1.4"/>
						<circle class="st4" cx="1249.3" cy="71.6" r="1.4"/>
						<circle class="st4" cx="1259.7" cy="-2262.3" r="1.4"/>
						<circle class="st4" cx="1256.8" cy="-899.6" r="1.4"/>
						<circle class="st4" cx="1255.6" cy="-1885.3" r="1.4"/>
						<circle class="st4" cx="1262" cy="-3237.9" r="1.5"/>
						<circle class="st4" cx="1263.5" cy="-4067.6" r="1.5"/>
						<circle class="st4" cx="1251" cy="-94.7" r="1.4"/>
						<circle class="st4" cx="1269.5" cy="-9838.4" r="1.5"/>
						<circle class="st4" cx="1255.6" cy="-1489.2" r="1.4"/>
						<circle class="st4" cx="1261.8" cy="-6953.2" r="1.5"/>
						<circle class="st4" cx="1253.2" cy="-1658.3" r="1.4"/>
						<circle class="st4" cx="1258.8" cy="-2138.6" r="1.4"/>
						<circle class="st4" cx="1257.7" cy="-1757.4" r="1.4"/>
						<circle class="st4" cx="1254.7" cy="-974.4" r="1.4"/>
						<circle class="st4" cx="1256.8" cy="-2303.2" r="1.4"/>
						<circle class="st4" cx="1260.9" cy="-2610" r="1.4"/>
						<circle class="st4" cx="1258.4" cy="-2117.4" r="1.4"/>
						<circle class="st4" cx="1261.8" cy="-4827.8" r="1.5"/>
						<circle class="st4" cx="1260" cy="-6451.6" r="1.5"/>
						<circle class="st4" cx="1260.9" cy="-4726.4" r="1.5"/>
						<circle class="st4" cx="1257.7" cy="-1333.9" r="1.4"/>
						<circle class="st4" cx="1276" cy="-10246.3" r="1.5"/>
						<circle class="st4" cx="1263" cy="-4430.8" r="1.5"/>
						<circle class="st4" cx="1266.1" cy="-5459.2" r="1.5"/>
						<circle class="st4" cx="1265.2" cy="-4318" r="1.5"/>
						<circle class="st4" cx="1266.5" cy="-8157.9" r="1.5"/>
						<polyline class="st5" points="1244.6,299.5 1245,292.5 1245.4,281.4 1245.8,266.1 1246.2,246.7 1246.5,223.2 1247,195.6 
							1247.3,163.9 1247.8,128.1 1248.1,87.4 1248.6,41.8 1249,-7.3 1249.3,-59.8 1249.8,-119.6 1250.1,-186 1250.6,-258 
							1250.9,-334.1 1251.4,-413.3 1251.7,-494.5 1252.1,-576.4 1252.6,-657.1 1252.9,-732.5 1253.4,-804.7 1253.7,-876.3 
							1254.1,-950.3 1254.5,-1029.2 1254.9,-1116.2 1255.3,-1213.8 1255.7,-1324.9 1256.1,-1452.4 1256.5,-1599.3 1256.9,-1774.5 
							1257.3,-1972.5 1257.7,-2181.9 1258.1,-2392 1258.5,-2591.6 1258.9,-2770.8 1259.3,-2940.1 1259.7,-3107.5 1260.1,-3275.8 
							1260.5,-3447.7 1260.8,-3625.9 1261.3,-3813.2 1261.7,-4012.1 1262.1,-4223.3 1262.5,-4443 1262.8,-4667.6 1263.3,-4893.5 
							1263.6,-5116.8 1264.1,-5336.7 1264.4,-5553.2 1264.9,-5766.5 1265.2,-5976.8 1265.6,-6183.9 1266.1,-6388.1 1266.4,-6589.5 
							1266.9,-6788 1267.2,-6983.9 1267.6,-7177.3 1268,-7368 1268.4,-7556.5 1268.8,-7742.5 1269.2,-7926.3 1269.7,-8108 
							1270,-8287.5 1270.4,-8465.2 1270.8,-8640.9 1271.2,-8814.8 1271.6,-8987 1272,-9157.7 1272.4,-9326.7 1272.8,-9494.4 
							1273.2,-9660.6 1273.6,-9825.6 1274,-9989.4 1274.4,-10152.2 1274.8,-10313.9 						"/>
						<circle class="st6" cx="1245.2" cy="309" r="1.5"/>
						<circle class="st6" cx="1244.6" cy="311.1" r="1.5"/>
						<circle class="st6" cx="1245.2" cy="310.9" r="1.5"/>
						
							<ellipse transform="matrix(3.328265e-02 -0.9994 0.9994 3.328265e-02 897.9402 1547.8595)" class="st7" cx="1249.1" cy="309.8" rx="1.5" ry="1.4"/>
						
							<ellipse transform="matrix(3.328265e-02 -0.9994 0.9994 3.328265e-02 897.0472 1547.8434)" class="st7" cx="1248.6" cy="310.2" rx="1.5" ry="1.4"/>
						<circle class="st6" cx="1247.8" cy="308.8" r="1.5"/>
						
							<ellipse transform="matrix(3.328265e-02 -0.9994 0.9994 3.328265e-02 897.9611 1545.7931)" class="st7" cx="1248" cy="308.7" rx="1.5" ry="1.4"/>
						<circle class="st6" cx="1250.2" cy="307" r="1.5"/>
						<circle class="st6" cx="1244.6" cy="311.7" r="1.5"/>
						<circle class="st6" cx="1245.7" cy="310.5" r="1.5"/>
						
							<ellipse transform="matrix(3.328265e-02 -0.9994 0.9994 3.328265e-02 898.7967 1546.6285)" class="st7" cx="1248.9" cy="308.7" rx="1.5" ry="1.4"/>
						<circle class="st6" cx="1340.9" cy="283.5" r="1.5"/>
						<circle class="st6" cx="1261.6" cy="305.4" r="1.5"/>
						<circle class="st6" cx="1256.4" cy="307.4" r="1.5"/>
						<circle class="st6" cx="1333.8" cy="288.8" r="1.5"/>
						<circle class="st6" cx="1252.3" cy="304.2" r="1.5"/>
						<circle class="st6" cx="1249.3" cy="304.7" r="1.5"/>
						<circle class="st6" cx="1250.4" cy="304.3" r="1.5"/>
						
							<ellipse transform="matrix(3.328265e-02 -0.9994 0.9994 3.328265e-02 901.6856 1544.1302)" class="st7" cx="1249" cy="306" rx="1.5" ry="1.4"/>
						<circle class="st6" cx="1249.3" cy="303.6" r="1.5"/>
						<circle class="st6" cx="1259.7" cy="302.3" r="1.5"/>
						<circle class="st6" cx="1256.8" cy="299.7" r="1.5"/>
						<circle class="st6" cx="1255.6" cy="300.6" r="1.5"/>
						<circle class="st6" cx="1262" cy="302.8" r="1.5"/>
						<circle class="st6" cx="1263.5" cy="302" r="1.5"/>
						<circle class="st6" cx="1251" cy="297.9" r="1.5"/>
						<circle class="st6" cx="1271.3" cy="300.5" r="1.5"/>
						<circle class="st6" cx="1273.2" cy="298.7" r="1.5"/>
						<circle class="st6" cx="1269.5" cy="295.5" r="1.5"/>
						<circle class="st6" cx="1255.6" cy="302.6" r="1.5"/>
						<circle class="st6" cx="1261.8" cy="289.6" r="1.5"/>
						<circle class="st6" cx="1273" cy="294" r="1.5"/>
						<circle class="st6" cx="1253.2" cy="291.8" r="1.5"/>
						<circle class="st6" cx="1258.8" cy="266.2" r="1.4"/>
						<circle class="st6" cx="1257.7" cy="284.1" r="1.5"/>
						<circle class="st6" cx="1282.2" cy="292.9" r="1.5"/>
						<circle class="st6" cx="1293.4" cy="286.9" r="1.5"/>
						<circle class="st6" cx="1254.7" cy="295.2" r="1.5"/>
						<circle class="st6" cx="1312.1" cy="284.4" r="1.5"/>
						<circle class="st6" cx="1449.9" cy="170" r="1.5"/>
						<circle class="st6" cx="1287.3" cy="284.8" r="1.5"/>
						<circle class="st6" cx="1310.2" cy="289.4" r="1.5"/>
						<circle class="st6" cx="1332.5" cy="275.7" r="1.5"/>
						<circle class="st6" cx="1256.8" cy="296.5" r="1.5"/>
						<circle class="st6" cx="1269.7" cy="293.2" r="1.5"/>
						<circle class="st6" cx="1260.9" cy="285.8" r="1.5"/>
						<circle class="st6" cx="1258.4" cy="289.7" r="1.5"/>
						<circle class="st6" cx="1261.8" cy="287.4" r="1.5"/>
						<circle class="st6" cx="1278.5" cy="284.3" r="1.5"/>
						<circle class="st6" cx="1260" cy="289.6" r="1.5"/>
						<circle class="st6" cx="1260.9" cy="287.9" r="1.5"/>
						<circle class="st6" cx="1298.8" cy="277.8" r="1.5"/>
						<circle class="st6" cx="1450.8" cy="106" r="1.5"/>
						<circle class="st6" cx="1257.7" cy="291.8" r="1.5"/>
						<circle class="st6" cx="1276" cy="283.2" r="1.5"/>
						<circle class="st6" cx="1302.2" cy="271.5" r="1.4"/>
						<circle class="st6" cx="1279" cy="287.2" r="1.5"/>
						<circle class="st6" cx="1326.3" cy="268.7" r="1.4"/>
						<circle class="st6" cx="1423.5" cy="178.2" r="1.5"/>
						<circle class="st6" cx="1300.9" cy="283.3" r="1.5"/>
						<circle class="st6" cx="1311.8" cy="273" r="1.4"/>
						<circle class="st6" cx="1263" cy="284.1" r="1.5"/>
						<circle class="st6" cx="1266.1" cy="282.5" r="1.5"/>
						<circle class="st6" cx="1270.4" cy="282.8" r="1.5"/>
						<circle class="st6" cx="1365.9" cy="254.6" r="1.4"/>
						<circle class="st6" cx="1265.2" cy="283" r="1.5"/>
						<circle class="st6" cx="1296" cy="276.2" r="1.5"/>
						<circle class="st6" cx="1295.8" cy="272" r="1.4"/>
						<circle class="st6" cx="1332.5" cy="267.8" r="1.4"/>
						<circle class="st6" cx="1270.8" cy="281.7" r="1.5"/>
						<circle class="st6" cx="1276" cy="268.1" r="1.4"/>
						<circle class="st6" cx="1301.6" cy="272.6" r="1.4"/>
						<circle class="st6" cx="1418.3" cy="171" r="1.5"/>
						<circle class="st6" cx="1285.4" cy="272.9" r="1.4"/>
						<circle class="st6" cx="1264.8" cy="275" r="1.5"/>
						<circle class="st6" cx="1266.5" cy="276.4" r="1.5"/>
						<circle class="st6" cx="1290.1" cy="271.6" r="1.4"/>
						<circle class="st6" cx="1281.5" cy="266.2" r="1.4"/>
						<circle class="st6" cx="1271.9" cy="273.9" r="1.4"/>
						<circle class="st6" cx="1275.1" cy="269.5" r="1.4"/>
						<circle class="st6" cx="1283.5" cy="269" r="1.4"/>
						<circle class="st6" cx="1294.7" cy="270.2" r="1.4"/>
						<circle class="st6" cx="1397.6" cy="178.1" r="1.5"/>
						<circle class="st6" cx="1271.7" cy="267.9" r="1.4"/>
						<polyline class="st8" points="1244.6,312.7 1247.2,308.4 1249.8,304.5 1252.4,300.9 1255,297.6 1257.6,294.5 1260.3,291.8 
							1262.8,289.3 1265.5,287.2 1268.1,285.2 1270.7,283.8 1273.3,282.5 1275.9,281.3 1278.5,280.1 1281.1,279.2 1283.7,278.3 
							1286.3,277.7 1289,277.2 1291.6,276.8 1294.2,276.6 1296.8,276.4 1299.4,276.3 1302,276.3 1304.6,276.3 1307.2,276.3 
							1309.8,276.3 1312.4,276.3 1315.1,276.3 1317.6,276.2 1320.3,276.1 1322.9,275.9 1325.5,275.6 1328.1,275.1 1330.7,274.5 
							1333.3,273.8 1335.9,272.9 1338.6,271.9 1341.1,270.7 1343.8,269.3 1346.3,267.9 1349,266.3 1351.6,264.5 1354.2,262.6 
							1356.8,260.7 1359.4,258.5 1362,256.3 1364.6,254 1367.3,251.5 1369.8,248.9 1372.5,246.2 1375.1,243.4 1377.7,240.6 
							1380.3,237.5 1382.9,234.5 1385.5,231.2 1388.1,228 1390.7,224.6 1393.3,221.2 1395.9,217.7 1398.6,214.1 1401.2,210.4 
							1403.8,206.6 1406.4,202.8 1409,199 1411.6,195.1 1414.2,191.1 1416.8,187.1 1419.4,182.9 1422.1,178.8 1424.6,174.6 
							1427.3,170.3 1429.9,166.1 1432.5,161.7 1435.1,157.4 1437.7,153.1 1440.3,148.7 1442.9,144.3 1445.6,139.8 1448.1,135.3 
							1450.8,130.8 						"/>
						<circle class="st9" cx="1245.2" cy="307.6" r="1.5"/>
						<circle class="st9" cx="1244.6" cy="311.6" r="1.5"/>
						<circle class="st9" cx="1245.2" cy="309" r="1.5"/>
						
							<ellipse transform="matrix(3.328265e-02 -0.9994 0.9994 3.328265e-02 897.2101 1548.4841)" class="st10" cx="1249.1" cy="310.4" rx="1.5" ry="1.4"/>
						
							<ellipse transform="matrix(3.328265e-02 -0.9994 0.9994 3.328265e-02 897.4104 1547.5435)" class="st10" cx="1248.7" cy="309.9" rx="1.5" ry="1.4"/>
						<circle class="st9" cx="1247.8" cy="310.9" r="1.5"/>
						
							<ellipse transform="matrix(3.328265e-02 -0.9994 0.9994 3.328265e-02 898.179 1545.6124)" class="st10" cx="1248.1" cy="308.5" rx="1.5" ry="1.4"/>
						<circle class="st9" cx="1250.2" cy="308.3" r="1.5"/>
						<circle class="st9" cx="1244.6" cy="311.9" r="1.5"/>
						<circle class="st9" cx="1245.7" cy="310.3" r="1.5"/>
						
							<ellipse transform="matrix(3.328265e-02 -0.9994 0.9994 3.328265e-02 898.8766 1546.4182)" class="st10" cx="1248.8" cy="308.6" rx="1.5" ry="1.4"/>
						<circle class="st9" cx="1340.9" cy="303.1" r="1.5"/>
						<circle class="st9" cx="1261.6" cy="307.1" r="1.5"/>
						<circle class="st9" cx="1256.4" cy="306.7" r="1.5"/>
						<circle class="st9" cx="1333.8" cy="304" r="1.5"/>
						<circle class="st9" cx="1252.3" cy="302.9" r="1.5"/>
						<circle class="st9" cx="1249.3" cy="302.8" r="1.5"/>
						<circle class="st9" cx="1250.4" cy="304.5" r="1.5"/>
						
							<ellipse transform="matrix(3.328265e-02 -0.9994 0.9994 3.328265e-02 901.6844 1544.1875)" class="st10" cx="1249.1" cy="306" rx="1.5" ry="1.4"/>
						<circle class="st9" cx="1249.3" cy="303.1" r="1.5"/>
						<circle class="st9" cx="1259.7" cy="304" r="1.5"/>
						<circle class="st9" cx="1256.8" cy="300.9" r="1.5"/>
						<circle class="st9" cx="1255.6" cy="302.6" r="1.5"/>
						<circle class="st9" cx="1262" cy="299.6" r="1.5"/>
						<circle class="st9" cx="1263.5" cy="302.4" r="1.5"/>
						<circle class="st9" cx="1251" cy="302.8" r="1.5"/>
						<circle class="st9" cx="1271.3" cy="303.1" r="1.5"/>
						<circle class="st9" cx="1273.2" cy="301.4" r="1.5"/>
						<circle class="st9" cx="1269.5" cy="299.1" r="1.5"/>
						<circle class="st9" cx="1255.6" cy="302.8" r="1.5"/>
						<circle class="st9" cx="1261.8" cy="293.2" r="1.5"/>
						<circle class="st9" cx="1273" cy="298.5" r="1.5"/>
						<circle class="st9" cx="1253.2" cy="289.2" r="1.5"/>
						<circle class="st9" cx="1258.8" cy="291" r="1.5"/>
						<circle class="st9" cx="1257.7" cy="295.9" r="1.5"/>
						<circle class="st9" cx="1282.2" cy="294.1" r="1.5"/>
						<circle class="st9" cx="1293.4" cy="293.8" r="1.5"/>
						<circle class="st9" cx="1254.7" cy="296.4" r="1.5"/>
						<circle class="st9" cx="1312.1" cy="292.6" r="1.5"/>
						<circle class="st9" cx="1449.9" cy="289.7" r="1.5"/>
						<circle class="st9" cx="1287.3" cy="287.4" r="1.5"/>
						<circle class="st9" cx="1310.2" cy="295.3" r="1.5"/>
						<circle class="st9" cx="1332.5" cy="291.8" r="1.5"/>
						<circle class="st9" cx="1256.8" cy="298.4" r="1.5"/>
						<circle class="st9" cx="1269.7" cy="295.7" r="1.5"/>
						<circle class="st9" cx="1260.9" cy="290" r="1.5"/>
						<circle class="st9" cx="1258.4" cy="291.7" r="1.5"/>
						<circle class="st9" cx="1261.8" cy="292.2" r="1.5"/>
						<circle class="st9" cx="1278.5" cy="280.7" r="1.5"/>
						<circle class="st9" cx="1260" cy="290.7" r="1.5"/>
						<circle class="st9" cx="1260.9" cy="289.9" r="1.5"/>
						<circle class="st9" cx="1298.8" cy="286.2" r="1.5"/>
						<circle class="st9" cx="1450.8" cy="279.8" r="1.5"/>
						<circle class="st9" cx="1257.7" cy="286.9" r="1.5"/>
						<circle class="st9" cx="1276" cy="286.4" r="1.5"/>
						<circle class="st9" cx="1302.2" cy="282.2" r="1.5"/>
						<circle class="st9" cx="1279" cy="289.1" r="1.5"/>
						<circle class="st9" cx="1326.3" cy="282.6" r="1.5"/>
						<circle class="st9" cx="1423.5" cy="286.6" r="1.5"/>
						<circle class="st9" cx="1300.9" cy="289.9" r="1.5"/>
						<circle class="st9" cx="1311.8" cy="283.2" r="1.5"/>
						<circle class="st9" cx="1263" cy="286.4" r="1.5"/>
						<circle class="st9" cx="1266.1" cy="287.5" r="1.5"/>
						<circle class="st9" cx="1270.4" cy="286" r="1.5"/>
						<circle class="st9" cx="1365.9" cy="278" r="1.5"/>
						<circle class="st9" cx="1265.2" cy="285.1" r="1.5"/>
						<circle class="st9" cx="1296" cy="284.1" r="1.5"/>
						<circle class="st9" cx="1295.8" cy="284.5" r="1.5"/>
						<circle class="st9" cx="1332.5" cy="281" r="1.5"/>
						<circle class="st9" cx="1270.8" cy="284.8" r="1.5"/>
						<circle class="st9" cx="1276" cy="284.9" r="1.5"/>
						<circle class="st9" cx="1301.6" cy="275.7" r="1.5"/>
						<circle class="st9" cx="1418.3" cy="274.1" r="1.5"/>
						<circle class="st9" cx="1285.4" cy="278.1" r="1.5"/>
						<circle class="st9" cx="1264.8" cy="277.1" r="1.5"/>
						<circle class="st9" cx="1266.5" cy="278.6" r="1.5"/>
						<circle class="st9" cx="1290.1" cy="279.3" r="1.5"/>
						<circle class="st9" cx="1281.5" cy="279.8" r="1.5"/>
						<circle class="st9" cx="1271.9" cy="270.9" r="1.4"/>
						<ellipse class="st11" cx="1275.1" cy="275" rx="1.4" ry="1.4"/>
						<circle class="st9" cx="1283.5" cy="272.8" r="1.4"/>
						<circle class="st9" cx="1294.7" cy="275.1" r="1.4"/>
						<circle class="st9" cx="1397.6" cy="261.9" r="1.5"/>
						<circle class="st9" cx="1271.7" cy="273.6" r="1.4"/>
						<polyline class="st12" points="1244.6,311.9 1247.2,308.4 1249.8,305.1 1252.4,302 1255,299.3 1257.6,296.7 1260.3,294.4 
							1262.8,292.3 1265.5,290.5 1268.1,288.8 1270.7,287.4 1273.3,286.3 1275.9,285.2 1278.5,284.4 1281.1,283.8 1283.7,283.3 
							1286.3,283.1 1289,283 1291.6,283 1294.2,283.2 1296.8,283.3 1299.4,283.7 1302,284.1 1304.6,284.6 1307.2,285.1 
							1309.8,285.6 1312.4,286.2 1315.1,286.7 1317.6,287.2 1320.3,287.7 1322.9,288.1 1325.5,288.5 1328.1,288.7 1330.7,288.9 
							1333.3,289.1 1335.9,289.1 1338.6,289.2 1341.1,289.3 1343.8,289.3 1346.3,289.2 1349,289.1 1351.6,289.1 1354.2,288.9 
							1356.8,288.8 1359.4,288.6 1362,288.5 1364.6,288.3 1367.3,288 1369.8,287.7 1372.5,287.5 1375.1,287.2 1377.7,286.9 
							1380.3,286.6 1382.9,286.3 1385.5,286.1 1388.1,285.7 1390.7,285.4 1393.3,285.1 1395.9,284.7 1398.6,284.4 1401.2,284.1 
							1403.8,283.8 1406.4,283.6 1409,283.3 1411.6,283 1414.2,282.7 1416.8,282.5 1419.4,282.2 1422.1,282.1 1424.6,281.9 
							1427.3,281.7 1429.9,281.6 1432.5,281.5 1435.1,281.4 1437.7,281.4 1440.3,281.4 1442.9,281.4 1445.6,281.4 1448.1,281.5 
							1450.8,281.6 						"/>
					</g>
				</g>
			</g>
		</g>
	</g>
	<g>
		<g>
			<text transform="matrix(1 0 0 1 1214.5015 319.8451)" class="st13 st14 st15">0.000</text>
			<text transform="matrix(1 0 0 1 1214.5015 266.0092)" class="st13 st14 st15">0.025</text>
			<text transform="matrix(1 0 0 1 1214.5015 212.1733)" class="st13 st14 st15">0.050</text>
			<text transform="matrix(1 0 0 1 1214.5015 158.3373)" class="st13 st14 st15">0.075</text>
			<text transform="matrix(1 0 0 1 1214.5015 104.5014)" class="st13 st14 st15">0.100</text>
			<rect x="1238.5" y="331" class="st0" width="3.6" height="7.6"/>
			<text transform="matrix(1 0 0 1 1238.4956 336.5414)" class="st13 st14 st15">0</text>
			<rect x="1288.7" y="331" class="st0" width="10.8" height="7.6"/>
			<text transform="matrix(1 0 0 1 1288.6431 336.5414)" class="st13 st14 st15">250</text>
			<rect x="1342.4" y="331" class="st0" width="10.8" height="7.6"/>
			<text transform="matrix(1 0 0 1 1342.3911 336.5414)" class="st13 st14 st15">500</text>
			<rect x="1396.1" y="331" class="st0" width="10.8" height="7.6"/>
			<text transform="matrix(1 0 0 1 1396.1309 336.5414)" class="st13 st14 st15">750</text>
			<rect x="1448.1" y="331" class="st0" width="14.4" height="7.6"/>
			<text transform="matrix(1 0 0 1 1448.083 336.5414)" class="st13 st14 st15">1000</text>
			<text transform="matrix(1 0 0 1 1275.9147 362.2286)" class="st14 st16">Number of Paths </text>
			<rect x="1185" y="113.2" class="st0" width="26.9" height="193.3"/>
			<text transform="matrix(0 -1 1 0 1180.6255 328.3207)" class="st14 st16">Time To Compute Covariance </text>
			<text transform="matrix(0 -1 1 0 1199.3521 281.9841)" class="st14 st16">Matrix (seconds)</text>
		</g>
	</g>
	<text transform="matrix(1 0 0 1 1254.6362 115.4867)" class="st17 st14 st18">Naive</text>
	<text transform="matrix(1 0 0 1 1322.9692 221.3432)" class="st19 st14 st18">Bottom-up</text>
	<text transform="matrix(1 0 0 1 1361.374 304.7309)" class="st20 st14 st18">Minimal</text>
</g>
<g>
	<text transform="matrix(1 0 0 1 57.2245 113.4878)" class="st21 st22">Initialization:</text>
	<text transform="matrix(1 0 0 1 57.2245 141.0878)" class="st14 st16">Create an n x n</text>
	<text transform="matrix(1 0 0 1 57.2245 162.6877)" class="st14 st16">matrix of zeros</text>
	<path class="st23" d="M97.2,246H84.7v90h12.5"/>
	<path class="st23" d="M159.7,246h12.5v90h-12.5"/>
	<text transform="matrix(1 0 0 1 97.8542 271.3647)" class="st14 st22">0</text>
	<text transform="matrix(1 0 0 1 122.8543 271.3644)" class="st14 st22">0</text>
	<text transform="matrix(1 0 0 1 147.8542 271.3644)" class="st14 st22">0</text>
	<text transform="matrix(1 0 0 1 97.8546 296.3643)" class="st14 st22">0</text>
	<text transform="matrix(1 0 0 1 122.8546 296.3645)" class="st14 st22">0</text>
	<text transform="matrix(1 0 0 1 147.8546 296.3645)" class="st14 st22">0</text>
	<text transform="matrix(1 0 0 1 97.8544 321.3643)" class="st14 st22">0</text>
	<text transform="matrix(1 0 0 1 122.8545 321.3645)" class="st14 st22">0</text>
	<text transform="matrix(1 0 0 1 147.8543 321.3644)" class="st14 st22">0</text>
	<text transform="matrix(1 0 0 1 97.8542 231.3647)" class="st24 st14 st22">0</text>
	<text transform="matrix(1 0 0 1 122.8542 231.3644)" class="st25 st14 st22">1</text>
	<text transform="matrix(1 0 0 1 147.8541 231.3644)" class="st20 st14 st22">2</text>
	<text transform="matrix(1 0 0 1 223.6711 296.6787)" class="st14 st22">=&gt;</text>
	<text transform="matrix(1 0 0 1 830.324 296.6791)" class="st14 st22">=&gt; ... =&gt;</text>
	<text transform="matrix(1 0 0 1 285.2527 113.247)" class="st21 st22">Loop through each node in ARG:</text>
	<text transform="matrix(1 0 0 1 419.2523 141.3193)" class="st14 st16">Node 1:</text>
	<text transform="matrix(1 0 0 1 419.2523 156.9193)" class="st14 st18">Parent(s): 3</text>
	<text transform="matrix(1 0 0 1 419.2523 172.5193)" class="st14 st18">Time to Parent(s): 1</text>
	<text transform="matrix(1 0 0 1 914.02 141.3196)" class="st14 st16">Node 7:</text>
	<text transform="matrix(1 0 0 1 914.02 156.9195)" class="st14 st18">Parent(s): NA</text>
	<text transform="matrix(1 0 0 1 914.02 172.5195)" class="st14 st18">Time to Parent(s): NA</text>
	<g>
		<path class="st23" d="M928.9,230.9h-12.5v120h12.5"/>
		<path class="st23" d="M1016.4,230.9h12.5v120h-12.5"/>
		<text transform="matrix(1 0 0 1 929.5608 258.6971)" class="st14 st22">4</text>
		<text transform="matrix(1 0 0 1 954.5608 258.6969)" class="st14 st22">2</text>
		<text transform="matrix(1 0 0 1 979.5608 258.6969)" class="st14 st22">3</text>
		<text transform="matrix(1 0 0 1 1004.5612 258.6969)" class="st14 st22">0</text>
		<text transform="matrix(1 0 0 1 929.5612 283.6968)" class="st14 st22">2</text>
		<text transform="matrix(1 0 0 1 954.5612 283.697)" class="st14 st22">4</text>
		<text transform="matrix(1 0 0 1 979.5612 283.697)" class="st14 st22">1</text>
		<text transform="matrix(1 0 0 1 1004.5612 283.697)" class="st14 st22">1</text>
		<text transform="matrix(1 0 0 1 929.561 308.6967)" class="st14 st22">3</text>
		<text transform="matrix(1 0 0 1 954.561 308.697)" class="st14 st22">1</text>
		<text transform="matrix(1 0 0 1 979.5609 308.6969)" class="st14 st22">4</text>
		<text transform="matrix(1 0 0 1 1004.5609 308.697)" class="st14 st22">0</text>
		<text transform="matrix(1 0 0 1 929.5612 333.6971)" class="st14 st22">0</text>
		<text transform="matrix(1 0 0 1 954.5612 333.6971)" class="st14 st22">1</text>
		<text transform="matrix(1 0 0 1 979.5612 333.6968)" class="st14 st22">0</text>
		<text transform="matrix(1 0 0 1 1004.5612 333.6971)" class="st14 st22">4</text>
		<text transform="matrix(1 0 0 1 928.2278 218.6972)" class="st26"><tspan x="0" y="0" class="st24 st14 st22">0</tspan><tspan x="11.1" y="0" class="st24 st14 st27">l</tspan></text>
		<text transform="matrix(1 0 0 1 952.4788 218.6969)" class="st26"><tspan x="0" y="0" class="st24 st14 st22">0</tspan><tspan x="11.1" y="0" class="st24 st14 st27">r</tspan></text>
		<text transform="matrix(1 0 0 1 978.2278 218.6969)" class="st26"><tspan x="0" y="0" class="st25 st14 st22">1</tspan><tspan x="11.1" y="0" class="st25 st14 st27">l</tspan></text>
		<text transform="matrix(1 0 0 1 1004.5607 218.6969)" class="st20 st14 st22">2</text>
	</g>
	<path class="st23" d="M442.5,246H430v90h12.5"/>
	<path class="st23" d="M505,246h12.5v90H505"/>
	<text transform="matrix(1 0 0 1 443.1572 271.3647)" class="st14 st22">1</text>
	<text transform="matrix(1 0 0 1 468.1572 271.3644)" class="st14 st22">0</text>
	<text transform="matrix(1 0 0 1 493.1571 271.3644)" class="st14 st22">0</text>
	<text transform="matrix(1 0 0 1 443.1576 296.3643)" class="st14 st22">0</text>
	<text transform="matrix(1 0 0 1 468.1576 296.3645)" class="st28 st22">1</text>
	<text transform="matrix(1 0 0 1 493.1575 296.3645)" class="st14 st22">0</text>
	<text transform="matrix(1 0 0 1 443.1574 321.3643)" class="st14 st22">0</text>
	<text transform="matrix(1 0 0 1 468.1574 321.3645)" class="st14 st22">0</text>
	<text transform="matrix(1 0 0 1 493.1573 321.3644)" class="st14 st22">0</text>
	<text transform="matrix(1 0 0 1 443.1571 231.3647)" class="st24 st14 st22">0</text>
	<text transform="matrix(1 0 0 1 468.1571 231.3644)" class="st25 st14 st22">1</text>
	<text transform="matrix(1 0 0 1 493.1571 231.3644)" class="st20 st14 st22">2</text>
	<g>
		<text transform="matrix(1 0 0 1 285.2524 141.3191)" class="st14 st16">Node 0:</text>
		<text transform="matrix(1 0 0 1 285.2524 156.9191)" class="st14 st18">Parent(s): 3</text>
		<text transform="matrix(1 0 0 1 285.2524 172.519)" class="st14 st18">Time to Parent(s): 1</text>
		<path class="st23" d="M302.3,246h-12.5v90h12.5"/>
		<path class="st23" d="M364.8,246h12.5v90h-12.5"/>
		<text transform="matrix(1 0 0 1 302.9631 271.3647)" class="st28 st22">1</text>
		<text transform="matrix(1 0 0 1 327.9631 271.3644)" class="st14 st22">0</text>
		<text transform="matrix(1 0 0 1 352.9631 271.3644)" class="st14 st22">0</text>
		<text transform="matrix(1 0 0 1 302.9635 296.3643)" class="st14 st22">0</text>
		<text transform="matrix(1 0 0 1 327.9635 296.3645)" class="st14 st22">0</text>
		<text transform="matrix(1 0 0 1 352.9635 296.3645)" class="st14 st22">0</text>
		<text transform="matrix(1 0 0 1 302.9633 321.3643)" class="st14 st22">0</text>
		<text transform="matrix(1 0 0 1 327.9633 321.3645)" class="st14 st22">0</text>
		<text transform="matrix(1 0 0 1 352.9632 321.3644)" class="st14 st22">0</text>
		<text transform="matrix(1 0 0 1 302.963 231.3647)" class="st24 st14 st22">0</text>
		<text transform="matrix(1 0 0 1 327.9631 231.3644)" class="st25 st14 st22">1</text>
		<text transform="matrix(1 0 0 1 352.963 231.3644)" class="st20 st14 st22">2</text>
		<text transform="matrix(1 0 0 1 392.2765 296.6787)" class="st14 st22">=&gt;</text>
	</g>
	<text transform="matrix(1 0 0 1 558.2191 141.3193)" class="st14 st16">Node 2:</text>
	<text transform="matrix(1 0 0 1 558.2191 156.9193)" class="st14 st18">Parent(s): 6</text>
	<text transform="matrix(1 0 0 1 558.2191 172.5193)" class="st14 st18">Time to Parent(s): 3</text>
	<path class="st23" d="M581.4,246h-12.5v90h12.5"/>
	<path class="st23" d="M643.9,246h12.5v90h-12.5"/>
	<text transform="matrix(1 0 0 1 582.124 271.3647)" class="st14 st22">1</text>
	<text transform="matrix(1 0 0 1 607.124 271.3644)" class="st14 st22">0</text>
	<text transform="matrix(1 0 0 1 632.124 271.3644)" class="st14 st22">0</text>
	<text transform="matrix(1 0 0 1 582.1243 296.3643)" class="st14 st22">0</text>
	<text transform="matrix(1 0 0 1 607.1243 296.3645)" class="st14 st22">1</text>
	<text transform="matrix(1 0 0 1 632.1243 296.3645)" class="st14 st22">0</text>
	<text transform="matrix(1 0 0 1 582.1242 321.3643)" class="st14 st22">0</text>
	<text transform="matrix(1 0 0 1 607.1242 321.3645)" class="st14 st22">0</text>
	<text transform="matrix(1 0 0 1 632.1241 321.3644)" class="st28 st22">3</text>
	<text transform="matrix(1 0 0 1 582.1239 231.3647)" class="st24 st14 st22">0</text>
	<text transform="matrix(1 0 0 1 607.124 231.3644)" class="st25 st14 st22">1</text>
	<text transform="matrix(1 0 0 1 632.1239 231.3644)" class="st20 st14 st22">2</text>
	<text transform="matrix(1 0 0 1 531.2432 296.6787)" class="st14 st22">=&gt;</text>
	<text transform="matrix(1 0 0 1 698.9925 141.3193)" class="st14 st16">Node 3:</text>
	<text transform="matrix(1 0 0 1 698.9925 156.9193)" class="st14 st18">Parent(s): 4 and 5</text>
	<text transform="matrix(1 0 0 1 698.9925 172.5193)" class="st14 st18">Time to Parent(s): </text>
	<text transform="matrix(1 0 0 1 672.0167 296.6787)" class="st14 st22">=&gt;</text>
	<path class="st23" d="M716.7,230.9h-12.5v120h12.5"/>
	<path class="st23" d="M804.2,230.9h12.5v120h-12.5"/>
	<text transform="matrix(1 0 0 1 717.3935 258.6971)" class="st28 st22">2</text>
	<text transform="matrix(1 0 0 1 742.3935 258.6969)" class="st28 st22">2</text>
	<text transform="matrix(1 0 0 1 767.3935 258.6969)" class="st28 st22">1</text>
	<text transform="matrix(1 0 0 1 792.3939 258.6969)" class="st14 st22">0</text>
	<text transform="matrix(1 0 0 1 717.3939 283.6968)" class="st28 st22">2</text>
	<text transform="matrix(1 0 0 1 742.3939 283.697)" class="st28 st22">2</text>
	<text transform="matrix(1 0 0 1 767.3939 283.697)" class="st28 st22">1</text>
	<text transform="matrix(1 0 0 1 792.3939 283.697)" class="st14 st22">0</text>
	<text transform="matrix(1 0 0 1 717.3937 308.6967)" class="st28 st22">1</text>
	<text transform="matrix(1 0 0 1 742.3937 308.697)" class="st28 st22">1</text>
	<text transform="matrix(1 0 0 1 767.3936 308.6969)" class="st28 st22">2</text>
	<text transform="matrix(1 0 0 1 792.3936 308.697)" class="st14 st22">0</text>
	<text transform="matrix(1 0 0 1 717.3939 333.6971)" class="st14 st22">0</text>
	<text transform="matrix(1 0 0 1 742.3939 333.6971)" class="st14 st22">0</text>
	<text transform="matrix(1 0 0 1 767.3939 333.6968)" class="st14 st22">0</text>
	<text transform="matrix(1 0 0 1 792.3939 333.6971)" class="st14 st22">3</text>
	<text transform="matrix(1 0 0 1 716.0605 218.6972)" class="st26"><tspan x="0" y="0" class="st24 st14 st22">0</tspan><tspan x="11.1" y="0" class="st24 st14 st27">l</tspan></text>
	<text transform="matrix(1 0 0 1 740.3115 218.6969)" class="st26"><tspan x="0" y="0" class="st24 st14 st22">0</tspan><tspan x="11.1" y="0" class="st24 st14 st27">r</tspan></text>
	<text transform="matrix(1 0 0 1 766.0605 218.6969)" class="st26"><tspan x="0" y="0" class="st25 st14 st22">1</tspan><tspan x="11.1" y="0" class="st25 st14 st27">l</tspan></text>
	<text transform="matrix(1 0 0 1 792.3934 218.6969)" class="st20 st14 st22">2</text>
</g>
<line class="st23" x1="1114.6" y1="12" x2="1114.6" y2="371.1"/>
<text transform="matrix(1 0 0 1 58.8642 61.9482)"><tspan x="0" y="0" class="st14 st29">A. </tspan><tspan x="61.1" y="0" class="st14 st30">Algorithm</tspan></text>
<text transform="matrix(1 0 0 1 1166.4358 61.9478)"><tspan x="0" y="0" class="st14 st29">B. </tspan><tspan x="61.1" y="0" class="st14 st30">Benchmarks</tspan></text>
</svg>
