<?xml version="1.0" encoding="utf-8" standalone="no"?>
<!DOCTYPE svg PUBLIC "-//W3C//DTD SVG 1.1//EN"
  "http://www.w3.org/Graphics/SVG/1.1/DTD/svg11.dtd">
<svg xmlns:xlink="http://www.w3.org/1999/xlink" width="460.8pt" height="345.6pt" viewBox="0 0 460.8 345.6" xmlns="http://www.w3.org/2000/svg" version="1.1">
 <metadata>
  <rdf:RDF xmlns:dc="http://purl.org/dc/elements/1.1/" xmlns:cc="http://creativecommons.org/ns#" xmlns:rdf="http://www.w3.org/1999/02/22-rdf-syntax-ns#">
   <cc:Work>
    <dc:type rdf:resource="http://purl.org/dc/dcmitype/StillImage"/>
    <dc:date>2024-01-22T09:28:45.965854</dc:date>
    <dc:format>image/svg+xml</dc:format>
    <dc:creator>
     <cc:Agent>
      <dc:title>Matplotlib v3.7.2, https://matplotlib.org/</dc:title>
     </cc:Agent>
    </dc:creator>
   </cc:Work>
  </rdf:RDF>
 </metadata>
 <defs>
  <style type="text/css">*{stroke-linejoin: round; stroke-linecap: butt}</style>
 </defs>
 <g id="figure_1">
  <g id="patch_1">
   <path d="M 0 345.6 
L 460.8 345.6 
L 460.8 0 
L 0 0 
z
" style="fill: #ffffff"/>
  </g>
  <g id="axes_1">
   <g id="patch_2">
    <path d="M 57.6 307.584 
L 414.72 307.584 
L 414.72 41.472 
L 57.6 41.472 
z
" style="fill: #ffffff"/>
   </g>
   <g id="matplotlib.axis_1">
    <g id="xtick_1">
     <g id="line2d_1">
      <defs>
       <path id="m5734ea19e0" d="M 0 0 
L 0 3.5 
" style="stroke: #000000; stroke-width: 0.8"/>
      </defs>
      <g>
       <use xlink:href="#m5734ea19e0" x="73.832727" y="307.584" style="stroke: #000000; stroke-width: 0.8"/>
      </g>
     </g>
     <g id="text_1">
      <!-- 0.0 -->
      <g transform="translate(65.881165 322.182437) scale(0.1 -0.1)">
       <defs>
        <path id="DejaVuSans-30" d="M 2034 4250 
Q 1547 4250 1301 3770 
Q 1056 3291 1056 2328 
Q 1056 1369 1301 889 
Q 1547 409 2034 409 
Q 2525 409 2770 889 
Q 3016 1369 3016 2328 
Q 3016 3291 2770 3770 
Q 2525 4250 2034 4250 
z
M 2034 4750 
Q 2819 4750 3233 4129 
Q 3647 3509 3647 2328 
Q 3647 1150 3233 529 
Q 2819 -91 2034 -91 
Q 1250 -91 836 529 
Q 422 1150 422 2328 
Q 422 3509 836 4129 
Q 1250 4750 2034 4750 
z
" transform="scale(0.015625)"/>
        <path id="DejaVuSans-2e" d="M 684 794 
L 1344 794 
L 1344 0 
L 684 0 
L 684 794 
z
" transform="scale(0.015625)"/>
       </defs>
       <use xlink:href="#DejaVuSans-30"/>
       <use xlink:href="#DejaVuSans-2e" x="63.623047"/>
       <use xlink:href="#DejaVuSans-30" x="95.410156"/>
      </g>
     </g>
    </g>
    <g id="xtick_2">
     <g id="line2d_2">
      <g>
       <use xlink:href="#m5734ea19e0" x="138.945286" y="307.584" style="stroke: #000000; stroke-width: 0.8"/>
      </g>
     </g>
     <g id="text_2">
      <!-- 0.2 -->
      <g transform="translate(130.993723 322.182437) scale(0.1 -0.1)">
       <defs>
        <path id="DejaVuSans-32" d="M 1228 531 
L 3431 531 
L 3431 0 
L 469 0 
L 469 531 
Q 828 903 1448 1529 
Q 2069 2156 2228 2338 
Q 2531 2678 2651 2914 
Q 2772 3150 2772 3378 
Q 2772 3750 2511 3984 
Q 2250 4219 1831 4219 
Q 1534 4219 1204 4116 
Q 875 4013 500 3803 
L 500 4441 
Q 881 4594 1212 4672 
Q 1544 4750 1819 4750 
Q 2544 4750 2975 4387 
Q 3406 4025 3406 3419 
Q 3406 3131 3298 2873 
Q 3191 2616 2906 2266 
Q 2828 2175 2409 1742 
Q 1991 1309 1228 531 
z
" transform="scale(0.015625)"/>
       </defs>
       <use xlink:href="#DejaVuSans-30"/>
       <use xlink:href="#DejaVuSans-2e" x="63.623047"/>
       <use xlink:href="#DejaVuSans-32" x="95.410156"/>
      </g>
     </g>
    </g>
    <g id="xtick_3">
     <g id="line2d_3">
      <g>
       <use xlink:href="#m5734ea19e0" x="204.057844" y="307.584" style="stroke: #000000; stroke-width: 0.8"/>
      </g>
     </g>
     <g id="text_3">
      <!-- 0.4 -->
      <g transform="translate(196.106282 322.182437) scale(0.1 -0.1)">
       <defs>
        <path id="DejaVuSans-34" d="M 2419 4116 
L 825 1625 
L 2419 1625 
L 2419 4116 
z
M 2253 4666 
L 3047 4666 
L 3047 1625 
L 3713 1625 
L 3713 1100 
L 3047 1100 
L 3047 0 
L 2419 0 
L 2419 1100 
L 313 1100 
L 313 1709 
L 2253 4666 
z
" transform="scale(0.015625)"/>
       </defs>
       <use xlink:href="#DejaVuSans-30"/>
       <use xlink:href="#DejaVuSans-2e" x="63.623047"/>
       <use xlink:href="#DejaVuSans-34" x="95.410156"/>
      </g>
     </g>
    </g>
    <g id="xtick_4">
     <g id="line2d_4">
      <g>
       <use xlink:href="#m5734ea19e0" x="269.170403" y="307.584" style="stroke: #000000; stroke-width: 0.8"/>
      </g>
     </g>
     <g id="text_4">
      <!-- 0.6 -->
      <g transform="translate(261.21884 322.182437) scale(0.1 -0.1)">
       <defs>
        <path id="DejaVuSans-36" d="M 2113 2584 
Q 1688 2584 1439 2293 
Q 1191 2003 1191 1497 
Q 1191 994 1439 701 
Q 1688 409 2113 409 
Q 2538 409 2786 701 
Q 3034 994 3034 1497 
Q 3034 2003 2786 2293 
Q 2538 2584 2113 2584 
z
M 3366 4563 
L 3366 3988 
Q 3128 4100 2886 4159 
Q 2644 4219 2406 4219 
Q 1781 4219 1451 3797 
Q 1122 3375 1075 2522 
Q 1259 2794 1537 2939 
Q 1816 3084 2150 3084 
Q 2853 3084 3261 2657 
Q 3669 2231 3669 1497 
Q 3669 778 3244 343 
Q 2819 -91 2113 -91 
Q 1303 -91 875 529 
Q 447 1150 447 2328 
Q 447 3434 972 4092 
Q 1497 4750 2381 4750 
Q 2619 4750 2861 4703 
Q 3103 4656 3366 4563 
z
" transform="scale(0.015625)"/>
       </defs>
       <use xlink:href="#DejaVuSans-30"/>
       <use xlink:href="#DejaVuSans-2e" x="63.623047"/>
       <use xlink:href="#DejaVuSans-36" x="95.410156"/>
      </g>
     </g>
    </g>
    <g id="xtick_5">
     <g id="line2d_5">
      <g>
       <use xlink:href="#m5734ea19e0" x="334.282961" y="307.584" style="stroke: #000000; stroke-width: 0.8"/>
      </g>
     </g>
     <g id="text_5">
      <!-- 0.8 -->
      <g transform="translate(326.331399 322.182437) scale(0.1 -0.1)">
       <defs>
        <path id="DejaVuSans-38" d="M 2034 2216 
Q 1584 2216 1326 1975 
Q 1069 1734 1069 1313 
Q 1069 891 1326 650 
Q 1584 409 2034 409 
Q 2484 409 2743 651 
Q 3003 894 3003 1313 
Q 3003 1734 2745 1975 
Q 2488 2216 2034 2216 
z
M 1403 2484 
Q 997 2584 770 2862 
Q 544 3141 544 3541 
Q 544 4100 942 4425 
Q 1341 4750 2034 4750 
Q 2731 4750 3128 4425 
Q 3525 4100 3525 3541 
Q 3525 3141 3298 2862 
Q 3072 2584 2669 2484 
Q 3125 2378 3379 2068 
Q 3634 1759 3634 1313 
Q 3634 634 3220 271 
Q 2806 -91 2034 -91 
Q 1263 -91 848 271 
Q 434 634 434 1313 
Q 434 1759 690 2068 
Q 947 2378 1403 2484 
z
M 1172 3481 
Q 1172 3119 1398 2916 
Q 1625 2713 2034 2713 
Q 2441 2713 2670 2916 
Q 2900 3119 2900 3481 
Q 2900 3844 2670 4047 
Q 2441 4250 2034 4250 
Q 1625 4250 1398 4047 
Q 1172 3844 1172 3481 
z
" transform="scale(0.015625)"/>
       </defs>
       <use xlink:href="#DejaVuSans-30"/>
       <use xlink:href="#DejaVuSans-2e" x="63.623047"/>
       <use xlink:href="#DejaVuSans-38" x="95.410156"/>
      </g>
     </g>
    </g>
    <g id="xtick_6">
     <g id="line2d_6">
      <g>
       <use xlink:href="#m5734ea19e0" x="399.395519" y="307.584" style="stroke: #000000; stroke-width: 0.8"/>
      </g>
     </g>
     <g id="text_6">
      <!-- 1.0 -->
      <g transform="translate(391.443957 322.182437) scale(0.1 -0.1)">
       <defs>
        <path id="DejaVuSans-31" d="M 794 531 
L 1825 531 
L 1825 4091 
L 703 3866 
L 703 4441 
L 1819 4666 
L 2450 4666 
L 2450 531 
L 3481 531 
L 3481 0 
L 794 0 
L 794 531 
z
" transform="scale(0.015625)"/>
       </defs>
       <use xlink:href="#DejaVuSans-31"/>
       <use xlink:href="#DejaVuSans-2e" x="63.623047"/>
       <use xlink:href="#DejaVuSans-30" x="95.410156"/>
      </g>
     </g>
    </g>
    <g id="text_7">
     <!-- Expected -->
     <g transform="translate(212.830312 335.860562) scale(0.1 -0.1)">
      <defs>
       <path id="DejaVuSans-45" d="M 628 4666 
L 3578 4666 
L 3578 4134 
L 1259 4134 
L 1259 2753 
L 3481 2753 
L 3481 2222 
L 1259 2222 
L 1259 531 
L 3634 531 
L 3634 0 
L 628 0 
L 628 4666 
z
" transform="scale(0.015625)"/>
       <path id="DejaVuSans-78" d="M 3513 3500 
L 2247 1797 
L 3578 0 
L 2900 0 
L 1881 1375 
L 863 0 
L 184 0 
L 1544 1831 
L 300 3500 
L 978 3500 
L 1906 2253 
L 2834 3500 
L 3513 3500 
z
" transform="scale(0.015625)"/>
       <path id="DejaVuSans-70" d="M 1159 525 
L 1159 -1331 
L 581 -1331 
L 581 3500 
L 1159 3500 
L 1159 2969 
Q 1341 3281 1617 3432 
Q 1894 3584 2278 3584 
Q 2916 3584 3314 3078 
Q 3713 2572 3713 1747 
Q 3713 922 3314 415 
Q 2916 -91 2278 -91 
Q 1894 -91 1617 61 
Q 1341 213 1159 525 
z
M 3116 1747 
Q 3116 2381 2855 2742 
Q 2594 3103 2138 3103 
Q 1681 3103 1420 2742 
Q 1159 2381 1159 1747 
Q 1159 1113 1420 752 
Q 1681 391 2138 391 
Q 2594 391 2855 752 
Q 3116 1113 3116 1747 
z
" transform="scale(0.015625)"/>
       <path id="DejaVuSans-65" d="M 3597 1894 
L 3597 1613 
L 953 1613 
Q 991 1019 1311 708 
Q 1631 397 2203 397 
Q 2534 397 2845 478 
Q 3156 559 3463 722 
L 3463 178 
Q 3153 47 2828 -22 
Q 2503 -91 2169 -91 
Q 1331 -91 842 396 
Q 353 884 353 1716 
Q 353 2575 817 3079 
Q 1281 3584 2069 3584 
Q 2775 3584 3186 3129 
Q 3597 2675 3597 1894 
z
M 3022 2063 
Q 3016 2534 2758 2815 
Q 2500 3097 2075 3097 
Q 1594 3097 1305 2825 
Q 1016 2553 972 2059 
L 3022 2063 
z
" transform="scale(0.015625)"/>
       <path id="DejaVuSans-63" d="M 3122 3366 
L 3122 2828 
Q 2878 2963 2633 3030 
Q 2388 3097 2138 3097 
Q 1578 3097 1268 2742 
Q 959 2388 959 1747 
Q 959 1106 1268 751 
Q 1578 397 2138 397 
Q 2388 397 2633 464 
Q 2878 531 3122 666 
L 3122 134 
Q 2881 22 2623 -34 
Q 2366 -91 2075 -91 
Q 1284 -91 818 406 
Q 353 903 353 1747 
Q 353 2603 823 3093 
Q 1294 3584 2113 3584 
Q 2378 3584 2631 3529 
Q 2884 3475 3122 3366 
z
" transform="scale(0.015625)"/>
       <path id="DejaVuSans-74" d="M 1172 4494 
L 1172 3500 
L 2356 3500 
L 2356 3053 
L 1172 3053 
L 1172 1153 
Q 1172 725 1289 603 
Q 1406 481 1766 481 
L 2356 481 
L 2356 0 
L 1766 0 
Q 1100 0 847 248 
Q 594 497 594 1153 
L 594 3053 
L 172 3053 
L 172 3500 
L 594 3500 
L 594 4494 
L 1172 4494 
z
" transform="scale(0.015625)"/>
       <path id="DejaVuSans-64" d="M 2906 2969 
L 2906 4863 
L 3481 4863 
L 3481 0 
L 2906 0 
L 2906 525 
Q 2725 213 2448 61 
Q 2172 -91 1784 -91 
Q 1150 -91 751 415 
Q 353 922 353 1747 
Q 353 2572 751 3078 
Q 1150 3584 1784 3584 
Q 2172 3584 2448 3432 
Q 2725 3281 2906 2969 
z
M 947 1747 
Q 947 1113 1208 752 
Q 1469 391 1925 391 
Q 2381 391 2643 752 
Q 2906 1113 2906 1747 
Q 2906 2381 2643 2742 
Q 2381 3103 1925 3103 
Q 1469 3103 1208 2742 
Q 947 2381 947 1747 
z
" transform="scale(0.015625)"/>
      </defs>
      <use xlink:href="#DejaVuSans-45"/>
      <use xlink:href="#DejaVuSans-78" x="63.183594"/>
      <use xlink:href="#DejaVuSans-70" x="122.363281"/>
      <use xlink:href="#DejaVuSans-65" x="185.839844"/>
      <use xlink:href="#DejaVuSans-63" x="247.363281"/>
      <use xlink:href="#DejaVuSans-74" x="302.34375"/>
      <use xlink:href="#DejaVuSans-65" x="341.552734"/>
      <use xlink:href="#DejaVuSans-64" x="403.076172"/>
     </g>
    </g>
   </g>
   <g id="matplotlib.axis_2">
    <g id="ytick_1">
     <g id="line2d_7">
      <defs>
       <path id="md5fed5e437" d="M 0 0 
L -3.5 0 
" style="stroke: #000000; stroke-width: 0.8"/>
      </defs>
      <g>
       <use xlink:href="#md5fed5e437" x="57.6" y="295.488" style="stroke: #000000; stroke-width: 0.8"/>
      </g>
     </g>
     <g id="text_8">
      <!-- 0.0 -->
      <g transform="translate(34.696875 299.287219) scale(0.1 -0.1)">
       <use xlink:href="#DejaVuSans-30"/>
       <use xlink:href="#DejaVuSans-2e" x="63.623047"/>
       <use xlink:href="#DejaVuSans-30" x="95.410156"/>
      </g>
     </g>
    </g>
    <g id="ytick_2">
     <g id="line2d_8">
      <g>
       <use xlink:href="#md5fed5e437" x="57.6" y="247.104" style="stroke: #000000; stroke-width: 0.8"/>
      </g>
     </g>
     <g id="text_9">
      <!-- 0.2 -->
      <g transform="translate(34.696875 250.903219) scale(0.1 -0.1)">
       <use xlink:href="#DejaVuSans-30"/>
       <use xlink:href="#DejaVuSans-2e" x="63.623047"/>
       <use xlink:href="#DejaVuSans-32" x="95.410156"/>
      </g>
     </g>
    </g>
    <g id="ytick_3">
     <g id="line2d_9">
      <g>
       <use xlink:href="#md5fed5e437" x="57.6" y="198.72" style="stroke: #000000; stroke-width: 0.8"/>
      </g>
     </g>
     <g id="text_10">
      <!-- 0.4 -->
      <g transform="translate(34.696875 202.519219) scale(0.1 -0.1)">
       <use xlink:href="#DejaVuSans-30"/>
       <use xlink:href="#DejaVuSans-2e" x="63.623047"/>
       <use xlink:href="#DejaVuSans-34" x="95.410156"/>
      </g>
     </g>
    </g>
    <g id="ytick_4">
     <g id="line2d_10">
      <g>
       <use xlink:href="#md5fed5e437" x="57.6" y="150.336" style="stroke: #000000; stroke-width: 0.8"/>
      </g>
     </g>
     <g id="text_11">
      <!-- 0.6 -->
      <g transform="translate(34.696875 154.135219) scale(0.1 -0.1)">
       <use xlink:href="#DejaVuSans-30"/>
       <use xlink:href="#DejaVuSans-2e" x="63.623047"/>
       <use xlink:href="#DejaVuSans-36" x="95.410156"/>
      </g>
     </g>
    </g>
    <g id="ytick_5">
     <g id="line2d_11">
      <g>
       <use xlink:href="#md5fed5e437" x="57.6" y="101.952" style="stroke: #000000; stroke-width: 0.8"/>
      </g>
     </g>
     <g id="text_12">
      <!-- 0.8 -->
      <g transform="translate(34.696875 105.751219) scale(0.1 -0.1)">
       <use xlink:href="#DejaVuSans-30"/>
       <use xlink:href="#DejaVuSans-2e" x="63.623047"/>
       <use xlink:href="#DejaVuSans-38" x="95.410156"/>
      </g>
     </g>
    </g>
    <g id="ytick_6">
     <g id="line2d_12">
      <g>
       <use xlink:href="#md5fed5e437" x="57.6" y="53.568" style="stroke: #000000; stroke-width: 0.8"/>
      </g>
     </g>
     <g id="text_13">
      <!-- 1.0 -->
      <g transform="translate(34.696875 57.367219) scale(0.1 -0.1)">
       <use xlink:href="#DejaVuSans-31"/>
       <use xlink:href="#DejaVuSans-2e" x="63.623047"/>
       <use xlink:href="#DejaVuSans-30" x="95.410156"/>
      </g>
     </g>
    </g>
    <g id="text_14">
     <!-- Observed -->
     <g transform="translate(28.617187 198.585031) rotate(-90) scale(0.1 -0.1)">
      <defs>
       <path id="DejaVuSans-4f" d="M 2522 4238 
Q 1834 4238 1429 3725 
Q 1025 3213 1025 2328 
Q 1025 1447 1429 934 
Q 1834 422 2522 422 
Q 3209 422 3611 934 
Q 4013 1447 4013 2328 
Q 4013 3213 3611 3725 
Q 3209 4238 2522 4238 
z
M 2522 4750 
Q 3503 4750 4090 4092 
Q 4678 3434 4678 2328 
Q 4678 1225 4090 567 
Q 3503 -91 2522 -91 
Q 1538 -91 948 565 
Q 359 1222 359 2328 
Q 359 3434 948 4092 
Q 1538 4750 2522 4750 
z
" transform="scale(0.015625)"/>
       <path id="DejaVuSans-62" d="M 3116 1747 
Q 3116 2381 2855 2742 
Q 2594 3103 2138 3103 
Q 1681 3103 1420 2742 
Q 1159 2381 1159 1747 
Q 1159 1113 1420 752 
Q 1681 391 2138 391 
Q 2594 391 2855 752 
Q 3116 1113 3116 1747 
z
M 1159 2969 
Q 1341 3281 1617 3432 
Q 1894 3584 2278 3584 
Q 2916 3584 3314 3078 
Q 3713 2572 3713 1747 
Q 3713 922 3314 415 
Q 2916 -91 2278 -91 
Q 1894 -91 1617 61 
Q 1341 213 1159 525 
L 1159 0 
L 581 0 
L 581 4863 
L 1159 4863 
L 1159 2969 
z
" transform="scale(0.015625)"/>
       <path id="DejaVuSans-73" d="M 2834 3397 
L 2834 2853 
Q 2591 2978 2328 3040 
Q 2066 3103 1784 3103 
Q 1356 3103 1142 2972 
Q 928 2841 928 2578 
Q 928 2378 1081 2264 
Q 1234 2150 1697 2047 
L 1894 2003 
Q 2506 1872 2764 1633 
Q 3022 1394 3022 966 
Q 3022 478 2636 193 
Q 2250 -91 1575 -91 
Q 1294 -91 989 -36 
Q 684 19 347 128 
L 347 722 
Q 666 556 975 473 
Q 1284 391 1588 391 
Q 1994 391 2212 530 
Q 2431 669 2431 922 
Q 2431 1156 2273 1281 
Q 2116 1406 1581 1522 
L 1381 1569 
Q 847 1681 609 1914 
Q 372 2147 372 2553 
Q 372 3047 722 3315 
Q 1072 3584 1716 3584 
Q 2034 3584 2315 3537 
Q 2597 3491 2834 3397 
z
" transform="scale(0.015625)"/>
       <path id="DejaVuSans-72" d="M 2631 2963 
Q 2534 3019 2420 3045 
Q 2306 3072 2169 3072 
Q 1681 3072 1420 2755 
Q 1159 2438 1159 1844 
L 1159 0 
L 581 0 
L 581 3500 
L 1159 3500 
L 1159 2956 
Q 1341 3275 1631 3429 
Q 1922 3584 2338 3584 
Q 2397 3584 2469 3576 
Q 2541 3569 2628 3553 
L 2631 2963 
z
" transform="scale(0.015625)"/>
       <path id="DejaVuSans-76" d="M 191 3500 
L 800 3500 
L 1894 563 
L 2988 3500 
L 3597 3500 
L 2284 0 
L 1503 0 
L 191 3500 
z
" transform="scale(0.015625)"/>
      </defs>
      <use xlink:href="#DejaVuSans-4f"/>
      <use xlink:href="#DejaVuSans-62" x="78.710938"/>
      <use xlink:href="#DejaVuSans-73" x="142.1875"/>
      <use xlink:href="#DejaVuSans-65" x="194.287109"/>
      <use xlink:href="#DejaVuSans-72" x="255.810547"/>
      <use xlink:href="#DejaVuSans-76" x="296.923828"/>
      <use xlink:href="#DejaVuSans-65" x="356.103516"/>
      <use xlink:href="#DejaVuSans-64" x="417.626953"/>
     </g>
    </g>
   </g>
   <g id="line2d_13">
    <path d="M 73.832727 295.488 
L 398.487273 54.242902 
L 398.487273 54.242902 
" clip-path="url(#p287c93387e)" style="fill: none; stroke-dasharray: 5.55,2.4; stroke-dashoffset: 0; stroke: #808080; stroke-width: 1.5"/>
   </g>
   <g id="line2d_14">
    <path d="M 73.832727 295.488 
L 76.430299 294.633124 
L 84.220418 291.738542 
L 107.50685 283.679708 
L 112.651332 282.089938 
L 117.780404 280.14022 
L 122.892067 278.55045 
L 125.440752 277.465607 
L 127.984344 276.595733 
L 130.5226 275.945827 
L 133.055279 275.070954 
L 143.125429 270.996543 
L 150.607871 268.25694 
L 153.087422 267.442058 
L 155.559299 266.437203 
L 160.479139 264.65746 
L 167.79585 261.717886 
L 186.897286 254.508929 
L 209.813998 245.595218 
L 212.040827 244.550369 
L 214.25522 243.770482 
L 218.646101 241.995739 
L 225.1355 239.271133 
L 235.683733 234.626805 
L 237.752141 233.90191 
L 239.806531 233.037035 
L 243.872827 231.507256 
L 247.881792 229.567537 
L 249.864531 228.707662 
L 251.832652 227.977767 
L 253.786068 226.957915 
L 263.329749 222.848509 
L 268.874666 220.273882 
L 274.281607 217.474287 
L 276.053025 216.679402 
L 277.808923 215.714541 
L 281.27401 213.954796 
L 289.662883 209.595427 
L 296.091025 206.030942 
L 297.65868 205.08108 
L 300.746736 203.476312 
L 302.267148 202.516451 
L 303.771831 201.726565 
L 305.260796 200.596728 
L 313.865694 194.992539 
L 317.957982 192.197944 
L 320.609008 190.433199 
L 328.195879 185.053977 
L 330.604249 183.219243 
L 334.105485 180.12469 
L 344.835543 171.505937 
L 347.780898 168.606357 
L 348.735448 167.75648 
L 350.604271 165.916746 
L 353.30828 163.4671 
L 359.168866 156.948043 
L 367.183381 146.559546 
L 369.132076 143.724956 
L 370.984998 140.765385 
L 373.311978 137.305885 
L 378.922332 127.362324 
L 379.826566 125.542587 
L 383.495563 117.71372 
L 386.568821 109.739873 
L 389.377083 101.416078 
L 390.571087 97.346666 
L 391.226849 94.907019 
L 392.226198 91.637492 
L 393.117451 88.302975 
L 393.759169 85.653358 
L 394.613893 81.998887 
L 397.625796 66.116185 
L 398.487273 60.556989 
L 398.487273 60.556989 
" clip-path="url(#p287c93387e)" style="fill: none; stroke: #1f77b4; stroke-width: 1.5; stroke-linecap: square"/>
   </g>
   <g id="line2d_15">
    <path d="M 73.832727 295.488 
L 76.430299 294.438272 
L 79.027611 293.143043 
L 81.624404 291.458399 
L 89.409072 287.852075 
L 97.179742 284.051043 
L 104.92946 280.529375 
L 110.080892 278.21828 
L 117.780404 274.578093 
L 120.338536 273.536831 
L 122.892067 272.275464 
L 135.582139 266.603546 
L 138.102941 265.291386 
L 143.125429 262.971825 
L 153.087422 258.137997 
L 158.023278 256.140127 
L 162.926665 253.744377 
L 167.79585 251.01847 
L 170.217085 249.604723 
L 175.0318 247.335956 
L 177.424871 246.116917 
L 179.808152 245.033327 
L 182.181444 243.704235 
L 191.570878 239.082046 
L 193.891367 237.710627 
L 196.200745 236.779416 
L 198.498834 235.492653 
L 200.785462 233.943457 
L 207.574888 230.159357 
L 209.813998 229.109629 
L 214.25522 226.696947 
L 227.272234 219.552024 
L 229.39555 218.239863 
L 231.50532 216.792254 
L 235.683733 214.345711 
L 241.846795 210.553145 
L 245.884525 208.606068 
L 247.881792 207.522478 
L 249.864531 206.032541 
L 253.786068 203.645257 
L 257.64845 201.020936 
L 259.55726 200.022001 
L 265.193293 196.356419 
L 268.874666 194.240031 
L 272.49471 192.098247 
L 274.281607 190.608311 
L 277.808923 188.043249 
L 282.983134 184.470788 
L 284.676605 183.065506 
L 286.354401 181.897261 
L 288.016499 180.5851 
L 291.293536 177.757607 
L 292.908449 176.521637 
L 294.507614 174.887786 
L 296.091025 173.575626 
L 299.210583 171.340721 
L 306.734063 165.304784 
L 315.245278 157.855101 
L 325.727531 148.119719 
L 328.195879 145.351485 
L 331.786102 141.753626 
L 332.953157 140.73776 
L 335.243157 137.986457 
L 336.366247 136.945194 
L 337.474832 135.506051 
L 338.568989 134.380133 
L 347.780898 122.968572 
L 349.67654 120.91991 
L 351.518737 118.422573 
L 355.045977 113.664934 
L 357.557127 109.787712 
L 360.731721 105.047005 
L 367.84378 93.64391 
L 368.493306 92.391009 
L 369.132076 90.892607 
L 374.95358 80.00591 
L 376.509827 76.865191 
L 378.922332 72.496968 
L 379.378676 71.845121 
L 380.266114 70.109683 
L 381.120634 68.340383 
L 381.943128 67.045154 
L 383.11875 64.920302 
L 385.605806 61.076942 
L 388.046936 58.130931 
L 388.324416 57.936223 
L 388.862011 57.343635 
L 389.870379 56.378562 
L 390.342629 56.048406 
L 391.01311 55.481214 
L 391.640207 55.066402 
L 392.226198 54.72778 
L 392.412777 54.676987 
L 392.947374 54.312968 
L 394.744653 53.79657 
L 396.447802 53.568 
L 398.487273 53.568 
L 398.487273 53.568 
" clip-path="url(#p287c93387e)" style="fill: none; stroke: #ff7f0e; stroke-width: 1.5; stroke-linecap: square"/>
   </g>
   <g id="line2d_16">
    <path d="M 73.832727 295.488 
L 79.027611 291.644371 
L 99.765651 278.872197 
L 102.348976 276.64006 
L 107.50685 273.15575 
L 110.080892 271.66403 
L 112.651332 269.900098 
L 115.21792 268.277716 
L 125.440752 262.63749 
L 127.984344 260.906223 
L 130.5226 259.349172 
L 133.055279 257.563463 
L 135.582139 256.017301 
L 138.102941 254.634465 
L 140.61745 252.881422 
L 143.125429 251.661913 
L 145.626647 250.279078 
L 158.023278 241.971176 
L 160.479139 240.577452 
L 162.926665 238.933293 
L 165.36564 237.093142 
L 175.0318 231.115372 
L 177.424871 229.307887 
L 184.544552 224.80006 
L 186.897286 223.112348 
L 191.570878 220.030911 
L 193.891367 218.299645 
L 200.785462 213.748265 
L 203.060458 212.496091 
L 212.040827 206.082783 
L 214.25522 204.950382 
L 218.646101 201.912499 
L 220.822298 200.48611 
L 222.985476 198.77662 
L 227.272234 195.880287 
L 231.50532 192.504862 
L 233.601421 191.361573 
L 235.683733 189.771856 
L 237.752141 188.334578 
L 243.872827 183.391214 
L 245.884525 182.084597 
L 249.864531 179.264484 
L 251.832652 177.51144 
L 253.786068 175.954389 
L 255.724694 174.832877 
L 270.692381 163.280212 
L 272.49471 162.093369 
L 274.281607 160.73231 
L 276.053025 159.02282 
L 277.808923 157.8142 
L 279.549263 156.442253 
L 284.676605 151.869096 
L 286.354401 150.638699 
L 289.662883 147.524597 
L 292.908449 144.290722 
L 294.507614 142.95144 
L 297.65868 139.837338 
L 299.210583 138.421837 
L 305.260796 131.856091 
L 311.059876 126.422745 
L 317.957982 119.258132 
L 319.291183 117.657527 
L 324.470713 112.333066 
L 328.195879 108.141006 
L 330.604249 105.233784 
L 334.105485 100.965505 
L 335.243157 99.9311 
L 339.648799 93.702896 
L 340.714342 92.418057 
L 344.835543 86.189853 
L 345.831039 84.774352 
L 347.780898 81.594919 
L 348.735448 80.135864 
L 349.67654 79.079682 
L 353.30828 73.483009 
L 355.895642 70.477792 
L 359.168866 66.285732 
L 360.731721 64.783123 
L 362.246569 63.247849 
L 363.714299 61.952121 
L 366.511995 59.208227 
L 367.84378 58.500476 
L 369.132076 57.466072 
L 369.760204 56.932537 
L 370.377807 56.703879 
L 370.984998 56.148567 
L 373.311978 55.125051 
L 377.010146 54.155977 
L 380.697433 53.568 
L 398.487273 53.568 
L 398.487273 53.568 
" clip-path="url(#p287c93387e)" style="fill: none; stroke: #2ca02c; stroke-width: 1.5; stroke-linecap: square"/>
   </g>
   <g id="line2d_17">
    <path d="M 73.832727 295.488 
L 76.430299 293.675111 
L 79.027611 292.036796 
L 81.624404 289.861329 
L 86.815394 286.222122 
L 89.409072 283.885509 
L 94.591504 279.709149 
L 97.179742 277.882831 
L 99.765651 275.734221 
L 107.50685 270.402984 
L 110.080892 268.187231 
L 112.651332 266.669775 
L 115.21792 264.736027 
L 120.338536 261.298251 
L 122.892067 259.861369 
L 125.440752 258.04848 
L 127.984344 255.738724 
L 140.61745 246.513132 
L 143.125429 245.07625 
L 145.626647 243.102215 
L 148.12087 241.786192 
L 150.607871 239.986731 
L 155.559299 237.112966 
L 158.023278 235.25979 
L 160.479139 233.661762 
L 165.36564 230.841712 
L 167.79585 229.230255 
L 170.217085 228.035091 
L 172.629136 226.316203 
L 177.424871 222.488993 
L 179.808152 220.890964 
L 182.181444 219.037789 
L 184.544552 216.687747 
L 186.897286 214.874858 
L 189.239456 212.873965 
L 191.570878 211.181935 
L 193.891367 209.167614 
L 200.785462 203.702088 
L 205.323655 199.794305 
L 207.574888 198.169419 
L 214.25522 192.757609 
L 216.457028 191.15958 
L 220.822298 187.372656 
L 222.985476 185.170331 
L 225.1355 183.330585 
L 227.272234 182.02799 
L 229.39555 180.013669 
L 231.50532 178.294781 
L 233.601421 176.831041 
L 237.752141 173.675271 
L 241.846795 170.009206 
L 247.881792 165.201692 
L 251.832652 161.938491 
L 253.786068 160.797042 
L 255.724694 158.930438 
L 257.64845 157.963564 
L 261.451049 154.834651 
L 263.329749 153.021762 
L 265.193293 151.061156 
L 267.041618 149.637702 
L 268.874666 148.066531 
L 270.692381 146.898225 
L 277.808923 140.18382 
L 281.27401 136.423754 
L 282.983134 134.973442 
L 286.354401 131.817672 
L 288.016499 129.92421 
L 291.293536 126.808726 
L 292.908449 124.821262 
L 294.507614 123.451524 
L 296.091025 121.396916 
L 299.210583 117.999427 
L 300.746736 115.743387 
L 302.267148 113.849925 
L 303.771831 112.171324 
L 306.734063 108.182968 
L 313.865694 99.628816 
L 315.245278 97.614495 
L 316.609361 96.258185 
L 317.957982 94.270721 
L 319.291183 92.726408 
L 331.786102 76.1284 
L 334.105485 73.523211 
L 335.243157 72.05947 
L 340.714342 66.20451 
L 341.765702 64.499051 
L 343.826215 62.457872 
L 345.831039 60.90013 
L 346.812793 60.188403 
L 347.780898 59.140956 
L 350.604271 56.884916 
L 354.183558 55.273459 
L 355.045977 55.179457 
L 357.557127 54.3603 
L 359.956349 53.876863 
L 361.495091 53.729146 
L 363.714299 53.581429 
L 398.487273 53.568 
L 398.487273 53.568 
" clip-path="url(#p287c93387e)" style="fill: none; stroke: #d62728; stroke-width: 1.5; stroke-linecap: square"/>
   </g>
   <g id="patch_3">
    <path d="M 57.6 307.584 
L 57.6 41.472 
" style="fill: none; stroke: #000000; stroke-width: 0.8; stroke-linejoin: miter; stroke-linecap: square"/>
   </g>
   <g id="patch_4">
    <path d="M 414.72 307.584 
L 414.72 41.472 
" style="fill: none; stroke: #000000; stroke-width: 0.8; stroke-linejoin: miter; stroke-linecap: square"/>
   </g>
   <g id="patch_5">
    <path d="M 57.6 307.584 
L 414.72 307.584 
" style="fill: none; stroke: #000000; stroke-width: 0.8; stroke-linejoin: miter; stroke-linecap: square"/>
   </g>
   <g id="patch_6">
    <path d="M 57.6 41.472 
L 414.72 41.472 
" style="fill: none; stroke: #000000; stroke-width: 0.8; stroke-linejoin: miter; stroke-linecap: square"/>
   </g>
   <g id="legend_1">
    <g id="patch_7">
     <path d="M 64.6 108.1845 
L 170.189062 108.1845 
Q 172.189062 108.1845 172.189062 106.1845 
L 172.189062 48.472 
Q 172.189062 46.472 170.189062 46.472 
L 64.6 46.472 
Q 62.6 46.472 62.6 48.472 
L 62.6 106.1845 
Q 62.6 108.1845 64.6 108.1845 
z
" style="fill: #ffffff; opacity: 0.8; stroke: #cccccc; stroke-linejoin: miter"/>
    </g>
    <g id="line2d_18">
     <path d="M 66.6 54.570438 
L 76.6 54.570438 
L 86.6 54.570438 
" style="fill: none; stroke: #1f77b4; stroke-width: 1.5; stroke-linecap: square"/>
    </g>
    <g id="text_15">
     <!-- 0 - 10000 -->
     <g transform="translate(94.6 58.070438) scale(0.1 -0.1)">
      <defs>
       <path id="DejaVuSans-20" transform="scale(0.015625)"/>
       <path id="DejaVuSans-2d" d="M 313 2009 
L 1997 2009 
L 1997 1497 
L 313 1497 
L 313 2009 
z
" transform="scale(0.015625)"/>
      </defs>
      <use xlink:href="#DejaVuSans-30"/>
      <use xlink:href="#DejaVuSans-20" x="63.623047"/>
      <use xlink:href="#DejaVuSans-2d" x="95.410156"/>
      <use xlink:href="#DejaVuSans-20" x="131.494141"/>
      <use xlink:href="#DejaVuSans-31" x="163.28125"/>
      <use xlink:href="#DejaVuSans-30" x="226.904297"/>
      <use xlink:href="#DejaVuSans-30" x="290.527344"/>
      <use xlink:href="#DejaVuSans-30" x="354.150391"/>
      <use xlink:href="#DejaVuSans-30" x="417.773438"/>
     </g>
    </g>
    <g id="line2d_19">
     <path d="M 66.6 69.248563 
L 76.6 69.248563 
L 86.6 69.248563 
" style="fill: none; stroke: #ff7f0e; stroke-width: 1.5; stroke-linecap: square"/>
    </g>
    <g id="text_16">
     <!-- 10000 - 20000 -->
     <g transform="translate(94.6 72.748563) scale(0.1 -0.1)">
      <use xlink:href="#DejaVuSans-31"/>
      <use xlink:href="#DejaVuSans-30" x="63.623047"/>
      <use xlink:href="#DejaVuSans-30" x="127.246094"/>
      <use xlink:href="#DejaVuSans-30" x="190.869141"/>
      <use xlink:href="#DejaVuSans-30" x="254.492188"/>
      <use xlink:href="#DejaVuSans-20" x="318.115234"/>
      <use xlink:href="#DejaVuSans-2d" x="349.902344"/>
      <use xlink:href="#DejaVuSans-20" x="385.986328"/>
      <use xlink:href="#DejaVuSans-32" x="417.773438"/>
      <use xlink:href="#DejaVuSans-30" x="481.396484"/>
      <use xlink:href="#DejaVuSans-30" x="545.019531"/>
      <use xlink:href="#DejaVuSans-30" x="608.642578"/>
      <use xlink:href="#DejaVuSans-30" x="672.265625"/>
     </g>
    </g>
    <g id="line2d_20">
     <path d="M 66.6 83.926688 
L 76.6 83.926688 
L 86.6 83.926688 
" style="fill: none; stroke: #2ca02c; stroke-width: 1.5; stroke-linecap: square"/>
    </g>
    <g id="text_17">
     <!-- 20000 - 30000 -->
     <g transform="translate(94.6 87.426688) scale(0.1 -0.1)">
      <defs>
       <path id="DejaVuSans-33" d="M 2597 2516 
Q 3050 2419 3304 2112 
Q 3559 1806 3559 1356 
Q 3559 666 3084 287 
Q 2609 -91 1734 -91 
Q 1441 -91 1130 -33 
Q 819 25 488 141 
L 488 750 
Q 750 597 1062 519 
Q 1375 441 1716 441 
Q 2309 441 2620 675 
Q 2931 909 2931 1356 
Q 2931 1769 2642 2001 
Q 2353 2234 1838 2234 
L 1294 2234 
L 1294 2753 
L 1863 2753 
Q 2328 2753 2575 2939 
Q 2822 3125 2822 3475 
Q 2822 3834 2567 4026 
Q 2313 4219 1838 4219 
Q 1578 4219 1281 4162 
Q 984 4106 628 3988 
L 628 4550 
Q 988 4650 1302 4700 
Q 1616 4750 1894 4750 
Q 2613 4750 3031 4423 
Q 3450 4097 3450 3541 
Q 3450 3153 3228 2886 
Q 3006 2619 2597 2516 
z
" transform="scale(0.015625)"/>
      </defs>
      <use xlink:href="#DejaVuSans-32"/>
      <use xlink:href="#DejaVuSans-30" x="63.623047"/>
      <use xlink:href="#DejaVuSans-30" x="127.246094"/>
      <use xlink:href="#DejaVuSans-30" x="190.869141"/>
      <use xlink:href="#DejaVuSans-30" x="254.492188"/>
      <use xlink:href="#DejaVuSans-20" x="318.115234"/>
      <use xlink:href="#DejaVuSans-2d" x="349.902344"/>
      <use xlink:href="#DejaVuSans-20" x="385.986328"/>
      <use xlink:href="#DejaVuSans-33" x="417.773438"/>
      <use xlink:href="#DejaVuSans-30" x="481.396484"/>
      <use xlink:href="#DejaVuSans-30" x="545.019531"/>
      <use xlink:href="#DejaVuSans-30" x="608.642578"/>
      <use xlink:href="#DejaVuSans-30" x="672.265625"/>
     </g>
    </g>
    <g id="line2d_21">
     <path d="M 66.6 98.604813 
L 76.6 98.604813 
L 86.6 98.604813 
" style="fill: none; stroke: #d62728; stroke-width: 1.5; stroke-linecap: square"/>
    </g>
    <g id="text_18">
     <!-- 30000 - 40000 -->
     <g transform="translate(94.6 102.104813) scale(0.1 -0.1)">
      <use xlink:href="#DejaVuSans-33"/>
      <use xlink:href="#DejaVuSans-30" x="63.623047"/>
      <use xlink:href="#DejaVuSans-30" x="127.246094"/>
      <use xlink:href="#DejaVuSans-30" x="190.869141"/>
      <use xlink:href="#DejaVuSans-30" x="254.492188"/>
      <use xlink:href="#DejaVuSans-20" x="318.115234"/>
      <use xlink:href="#DejaVuSans-2d" x="349.902344"/>
      <use xlink:href="#DejaVuSans-20" x="385.986328"/>
      <use xlink:href="#DejaVuSans-34" x="417.773438"/>
      <use xlink:href="#DejaVuSans-30" x="481.396484"/>
      <use xlink:href="#DejaVuSans-30" x="545.019531"/>
      <use xlink:href="#DejaVuSans-30" x="608.642578"/>
      <use xlink:href="#DejaVuSans-30" x="672.265625"/>
     </g>
    </g>
   </g>
  </g>
 </g>
 <defs>
  <clipPath id="p287c93387e">
   <rect x="57.6" y="41.472" width="357.12" height="266.112"/>
  </clipPath>
 </defs>
</svg>
