<?xml version="1.0" encoding="utf-8" standalone="no"?>
<!DOCTYPE svg PUBLIC "-//W3C//DTD SVG 1.1//EN"
  "http://www.w3.org/Graphics/SVG/1.1/DTD/svg11.dtd">
<svg xmlns:xlink="http://www.w3.org/1999/xlink" width="460.8pt" height="345.6pt" viewBox="0 0 460.8 345.6" xmlns="http://www.w3.org/2000/svg" version="1.1">
 <metadata>
  <rdf:RDF xmlns:dc="http://purl.org/dc/elements/1.1/" xmlns:cc="http://creativecommons.org/ns#" xmlns:rdf="http://www.w3.org/1999/02/22-rdf-syntax-ns#">
   <cc:Work>
    <dc:type rdf:resource="http://purl.org/dc/dcmitype/StillImage"/>
    <dc:date>2025-01-14T10:13:49.523060</dc:date>
    <dc:format>image/svg+xml</dc:format>
    <dc:creator>
     <cc:Agent>
      <dc:title>Matplotlib v3.9.2, https://matplotlib.org/</dc:title>
     </cc:Agent>
    </dc:creator>
   </cc:Work>
  </rdf:RDF>
 </metadata>
 <defs>
  <style type="text/css">*{stroke-linejoin: round; stroke-linecap: butt}</style>
 </defs>
 <g id="figure_1">
  <g id="patch_1">
   <path d="M 0 345.6 
L 460.8 345.6 
L 460.8 0 
L 0 0 
z
" style="fill: #ffffff"/>
  </g>
  <g id="axes_1">
   <g id="patch_2">
    <path d="M 57.6 307.584 
L 414.72 307.584 
L 414.72 41.472 
L 57.6 41.472 
z
" style="fill: #ffffff"/>
   </g>
   <g id="matplotlib.axis_1">
    <g id="xtick_1">
     <g id="line2d_1">
      <defs>
       <path id="m14efe18f14" d="M 0 0 
L 0 3.5 
" style="stroke: #000000; stroke-width: 0.8"/>
      </defs>
      <g>
       <use xlink:href="#m14efe18f14" x="73.832727" y="307.584" style="stroke: #000000; stroke-width: 0.8"/>
      </g>
     </g>
     <g id="text_1">
      <!-- 0.0 -->
      <g transform="translate(65.881165 322.182437) scale(0.1 -0.1)">
       <defs>
        <path id="DejaVuSans-30" d="M 2034 4250 
Q 1547 4250 1301 3770 
Q 1056 3291 1056 2328 
Q 1056 1369 1301 889 
Q 1547 409 2034 409 
Q 2525 409 2770 889 
Q 3016 1369 3016 2328 
Q 3016 3291 2770 3770 
Q 2525 4250 2034 4250 
z
M 2034 4750 
Q 2819 4750 3233 4129 
Q 3647 3509 3647 2328 
Q 3647 1150 3233 529 
Q 2819 -91 2034 -91 
Q 1250 -91 836 529 
Q 422 1150 422 2328 
Q 422 3509 836 4129 
Q 1250 4750 2034 4750 
z
" transform="scale(0.015625)"/>
        <path id="DejaVuSans-2e" d="M 684 794 
L 1344 794 
L 1344 0 
L 684 0 
L 684 794 
z
" transform="scale(0.015625)"/>
       </defs>
       <use xlink:href="#DejaVuSans-30"/>
       <use xlink:href="#DejaVuSans-2e" x="63.623047"/>
       <use xlink:href="#DejaVuSans-30" x="95.410156"/>
      </g>
     </g>
    </g>
    <g id="xtick_2">
     <g id="line2d_2">
      <g>
       <use xlink:href="#m14efe18f14" x="138.945286" y="307.584" style="stroke: #000000; stroke-width: 0.8"/>
      </g>
     </g>
     <g id="text_2">
      <!-- 0.2 -->
      <g transform="translate(130.993723 322.182437) scale(0.1 -0.1)">
       <defs>
        <path id="DejaVuSans-32" d="M 1228 531 
L 3431 531 
L 3431 0 
L 469 0 
L 469 531 
Q 828 903 1448 1529 
Q 2069 2156 2228 2338 
Q 2531 2678 2651 2914 
Q 2772 3150 2772 3378 
Q 2772 3750 2511 3984 
Q 2250 4219 1831 4219 
Q 1534 4219 1204 4116 
Q 875 4013 500 3803 
L 500 4441 
Q 881 4594 1212 4672 
Q 1544 4750 1819 4750 
Q 2544 4750 2975 4387 
Q 3406 4025 3406 3419 
Q 3406 3131 3298 2873 
Q 3191 2616 2906 2266 
Q 2828 2175 2409 1742 
Q 1991 1309 1228 531 
z
" transform="scale(0.015625)"/>
       </defs>
       <use xlink:href="#DejaVuSans-30"/>
       <use xlink:href="#DejaVuSans-2e" x="63.623047"/>
       <use xlink:href="#DejaVuSans-32" x="95.410156"/>
      </g>
     </g>
    </g>
    <g id="xtick_3">
     <g id="line2d_3">
      <g>
       <use xlink:href="#m14efe18f14" x="204.057844" y="307.584" style="stroke: #000000; stroke-width: 0.8"/>
      </g>
     </g>
     <g id="text_3">
      <!-- 0.4 -->
      <g transform="translate(196.106282 322.182437) scale(0.1 -0.1)">
       <defs>
        <path id="DejaVuSans-34" d="M 2419 4116 
L 825 1625 
L 2419 1625 
L 2419 4116 
z
M 2253 4666 
L 3047 4666 
L 3047 1625 
L 3713 1625 
L 3713 1100 
L 3047 1100 
L 3047 0 
L 2419 0 
L 2419 1100 
L 313 1100 
L 313 1709 
L 2253 4666 
z
" transform="scale(0.015625)"/>
       </defs>
       <use xlink:href="#DejaVuSans-30"/>
       <use xlink:href="#DejaVuSans-2e" x="63.623047"/>
       <use xlink:href="#DejaVuSans-34" x="95.410156"/>
      </g>
     </g>
    </g>
    <g id="xtick_4">
     <g id="line2d_4">
      <g>
       <use xlink:href="#m14efe18f14" x="269.170403" y="307.584" style="stroke: #000000; stroke-width: 0.8"/>
      </g>
     </g>
     <g id="text_4">
      <!-- 0.6 -->
      <g transform="translate(261.21884 322.182437) scale(0.1 -0.1)">
       <defs>
        <path id="DejaVuSans-36" d="M 2113 2584 
Q 1688 2584 1439 2293 
Q 1191 2003 1191 1497 
Q 1191 994 1439 701 
Q 1688 409 2113 409 
Q 2538 409 2786 701 
Q 3034 994 3034 1497 
Q 3034 2003 2786 2293 
Q 2538 2584 2113 2584 
z
M 3366 4563 
L 3366 3988 
Q 3128 4100 2886 4159 
Q 2644 4219 2406 4219 
Q 1781 4219 1451 3797 
Q 1122 3375 1075 2522 
Q 1259 2794 1537 2939 
Q 1816 3084 2150 3084 
Q 2853 3084 3261 2657 
Q 3669 2231 3669 1497 
Q 3669 778 3244 343 
Q 2819 -91 2113 -91 
Q 1303 -91 875 529 
Q 447 1150 447 2328 
Q 447 3434 972 4092 
Q 1497 4750 2381 4750 
Q 2619 4750 2861 4703 
Q 3103 4656 3366 4563 
z
" transform="scale(0.015625)"/>
       </defs>
       <use xlink:href="#DejaVuSans-30"/>
       <use xlink:href="#DejaVuSans-2e" x="63.623047"/>
       <use xlink:href="#DejaVuSans-36" x="95.410156"/>
      </g>
     </g>
    </g>
    <g id="xtick_5">
     <g id="line2d_5">
      <g>
       <use xlink:href="#m14efe18f14" x="334.282961" y="307.584" style="stroke: #000000; stroke-width: 0.8"/>
      </g>
     </g>
     <g id="text_5">
      <!-- 0.8 -->
      <g transform="translate(326.331399 322.182437) scale(0.1 -0.1)">
       <defs>
        <path id="DejaVuSans-38" d="M 2034 2216 
Q 1584 2216 1326 1975 
Q 1069 1734 1069 1313 
Q 1069 891 1326 650 
Q 1584 409 2034 409 
Q 2484 409 2743 651 
Q 3003 894 3003 1313 
Q 3003 1734 2745 1975 
Q 2488 2216 2034 2216 
z
M 1403 2484 
Q 997 2584 770 2862 
Q 544 3141 544 3541 
Q 544 4100 942 4425 
Q 1341 4750 2034 4750 
Q 2731 4750 3128 4425 
Q 3525 4100 3525 3541 
Q 3525 3141 3298 2862 
Q 3072 2584 2669 2484 
Q 3125 2378 3379 2068 
Q 3634 1759 3634 1313 
Q 3634 634 3220 271 
Q 2806 -91 2034 -91 
Q 1263 -91 848 271 
Q 434 634 434 1313 
Q 434 1759 690 2068 
Q 947 2378 1403 2484 
z
M 1172 3481 
Q 1172 3119 1398 2916 
Q 1625 2713 2034 2713 
Q 2441 2713 2670 2916 
Q 2900 3119 2900 3481 
Q 2900 3844 2670 4047 
Q 2441 4250 2034 4250 
Q 1625 4250 1398 4047 
Q 1172 3844 1172 3481 
z
" transform="scale(0.015625)"/>
       </defs>
       <use xlink:href="#DejaVuSans-30"/>
       <use xlink:href="#DejaVuSans-2e" x="63.623047"/>
       <use xlink:href="#DejaVuSans-38" x="95.410156"/>
      </g>
     </g>
    </g>
    <g id="xtick_6">
     <g id="line2d_6">
      <g>
       <use xlink:href="#m14efe18f14" x="399.395519" y="307.584" style="stroke: #000000; stroke-width: 0.8"/>
      </g>
     </g>
     <g id="text_6">
      <!-- 1.0 -->
      <g transform="translate(391.443957 322.182437) scale(0.1 -0.1)">
       <defs>
        <path id="DejaVuSans-31" d="M 794 531 
L 1825 531 
L 1825 4091 
L 703 3866 
L 703 4441 
L 1819 4666 
L 2450 4666 
L 2450 531 
L 3481 531 
L 3481 0 
L 794 0 
L 794 531 
z
" transform="scale(0.015625)"/>
       </defs>
       <use xlink:href="#DejaVuSans-31"/>
       <use xlink:href="#DejaVuSans-2e" x="63.623047"/>
       <use xlink:href="#DejaVuSans-30" x="95.410156"/>
      </g>
     </g>
    </g>
    <g id="text_7">
     <!-- Expected -->
     <g transform="translate(212.830312 335.860562) scale(0.1 -0.1)">
      <defs>
       <path id="DejaVuSans-45" d="M 628 4666 
L 3578 4666 
L 3578 4134 
L 1259 4134 
L 1259 2753 
L 3481 2753 
L 3481 2222 
L 1259 2222 
L 1259 531 
L 3634 531 
L 3634 0 
L 628 0 
L 628 4666 
z
" transform="scale(0.015625)"/>
       <path id="DejaVuSans-78" d="M 3513 3500 
L 2247 1797 
L 3578 0 
L 2900 0 
L 1881 1375 
L 863 0 
L 184 0 
L 1544 1831 
L 300 3500 
L 978 3500 
L 1906 2253 
L 2834 3500 
L 3513 3500 
z
" transform="scale(0.015625)"/>
       <path id="DejaVuSans-70" d="M 1159 525 
L 1159 -1331 
L 581 -1331 
L 581 3500 
L 1159 3500 
L 1159 2969 
Q 1341 3281 1617 3432 
Q 1894 3584 2278 3584 
Q 2916 3584 3314 3078 
Q 3713 2572 3713 1747 
Q 3713 922 3314 415 
Q 2916 -91 2278 -91 
Q 1894 -91 1617 61 
Q 1341 213 1159 525 
z
M 3116 1747 
Q 3116 2381 2855 2742 
Q 2594 3103 2138 3103 
Q 1681 3103 1420 2742 
Q 1159 2381 1159 1747 
Q 1159 1113 1420 752 
Q 1681 391 2138 391 
Q 2594 391 2855 752 
Q 3116 1113 3116 1747 
z
" transform="scale(0.015625)"/>
       <path id="DejaVuSans-65" d="M 3597 1894 
L 3597 1613 
L 953 1613 
Q 991 1019 1311 708 
Q 1631 397 2203 397 
Q 2534 397 2845 478 
Q 3156 559 3463 722 
L 3463 178 
Q 3153 47 2828 -22 
Q 2503 -91 2169 -91 
Q 1331 -91 842 396 
Q 353 884 353 1716 
Q 353 2575 817 3079 
Q 1281 3584 2069 3584 
Q 2775 3584 3186 3129 
Q 3597 2675 3597 1894 
z
M 3022 2063 
Q 3016 2534 2758 2815 
Q 2500 3097 2075 3097 
Q 1594 3097 1305 2825 
Q 1016 2553 972 2059 
L 3022 2063 
z
" transform="scale(0.015625)"/>
       <path id="DejaVuSans-63" d="M 3122 3366 
L 3122 2828 
Q 2878 2963 2633 3030 
Q 2388 3097 2138 3097 
Q 1578 3097 1268 2742 
Q 959 2388 959 1747 
Q 959 1106 1268 751 
Q 1578 397 2138 397 
Q 2388 397 2633 464 
Q 2878 531 3122 666 
L 3122 134 
Q 2881 22 2623 -34 
Q 2366 -91 2075 -91 
Q 1284 -91 818 406 
Q 353 903 353 1747 
Q 353 2603 823 3093 
Q 1294 3584 2113 3584 
Q 2378 3584 2631 3529 
Q 2884 3475 3122 3366 
z
" transform="scale(0.015625)"/>
       <path id="DejaVuSans-74" d="M 1172 4494 
L 1172 3500 
L 2356 3500 
L 2356 3053 
L 1172 3053 
L 1172 1153 
Q 1172 725 1289 603 
Q 1406 481 1766 481 
L 2356 481 
L 2356 0 
L 1766 0 
Q 1100 0 847 248 
Q 594 497 594 1153 
L 594 3053 
L 172 3053 
L 172 3500 
L 594 3500 
L 594 4494 
L 1172 4494 
z
" transform="scale(0.015625)"/>
       <path id="DejaVuSans-64" d="M 2906 2969 
L 2906 4863 
L 3481 4863 
L 3481 0 
L 2906 0 
L 2906 525 
Q 2725 213 2448 61 
Q 2172 -91 1784 -91 
Q 1150 -91 751 415 
Q 353 922 353 1747 
Q 353 2572 751 3078 
Q 1150 3584 1784 3584 
Q 2172 3584 2448 3432 
Q 2725 3281 2906 2969 
z
M 947 1747 
Q 947 1113 1208 752 
Q 1469 391 1925 391 
Q 2381 391 2643 752 
Q 2906 1113 2906 1747 
Q 2906 2381 2643 2742 
Q 2381 3103 1925 3103 
Q 1469 3103 1208 2742 
Q 947 2381 947 1747 
z
" transform="scale(0.015625)"/>
      </defs>
      <use xlink:href="#DejaVuSans-45"/>
      <use xlink:href="#DejaVuSans-78" x="63.183594"/>
      <use xlink:href="#DejaVuSans-70" x="122.363281"/>
      <use xlink:href="#DejaVuSans-65" x="185.839844"/>
      <use xlink:href="#DejaVuSans-63" x="247.363281"/>
      <use xlink:href="#DejaVuSans-74" x="302.34375"/>
      <use xlink:href="#DejaVuSans-65" x="341.552734"/>
      <use xlink:href="#DejaVuSans-64" x="403.076172"/>
     </g>
    </g>
   </g>
   <g id="matplotlib.axis_2">
    <g id="ytick_1">
     <g id="line2d_7">
      <defs>
       <path id="ma919381f97" d="M 0 0 
L -3.5 0 
" style="stroke: #000000; stroke-width: 0.8"/>
      </defs>
      <g>
       <use xlink:href="#ma919381f97" x="57.6" y="295.488" style="stroke: #000000; stroke-width: 0.8"/>
      </g>
     </g>
     <g id="text_8">
      <!-- 0.0 -->
      <g transform="translate(34.696875 299.287219) scale(0.1 -0.1)">
       <use xlink:href="#DejaVuSans-30"/>
       <use xlink:href="#DejaVuSans-2e" x="63.623047"/>
       <use xlink:href="#DejaVuSans-30" x="95.410156"/>
      </g>
     </g>
    </g>
    <g id="ytick_2">
     <g id="line2d_8">
      <g>
       <use xlink:href="#ma919381f97" x="57.6" y="247.104" style="stroke: #000000; stroke-width: 0.8"/>
      </g>
     </g>
     <g id="text_9">
      <!-- 0.2 -->
      <g transform="translate(34.696875 250.903219) scale(0.1 -0.1)">
       <use xlink:href="#DejaVuSans-30"/>
       <use xlink:href="#DejaVuSans-2e" x="63.623047"/>
       <use xlink:href="#DejaVuSans-32" x="95.410156"/>
      </g>
     </g>
    </g>
    <g id="ytick_3">
     <g id="line2d_9">
      <g>
       <use xlink:href="#ma919381f97" x="57.6" y="198.72" style="stroke: #000000; stroke-width: 0.8"/>
      </g>
     </g>
     <g id="text_10">
      <!-- 0.4 -->
      <g transform="translate(34.696875 202.519219) scale(0.1 -0.1)">
       <use xlink:href="#DejaVuSans-30"/>
       <use xlink:href="#DejaVuSans-2e" x="63.623047"/>
       <use xlink:href="#DejaVuSans-34" x="95.410156"/>
      </g>
     </g>
    </g>
    <g id="ytick_4">
     <g id="line2d_10">
      <g>
       <use xlink:href="#ma919381f97" x="57.6" y="150.336" style="stroke: #000000; stroke-width: 0.8"/>
      </g>
     </g>
     <g id="text_11">
      <!-- 0.6 -->
      <g transform="translate(34.696875 154.135219) scale(0.1 -0.1)">
       <use xlink:href="#DejaVuSans-30"/>
       <use xlink:href="#DejaVuSans-2e" x="63.623047"/>
       <use xlink:href="#DejaVuSans-36" x="95.410156"/>
      </g>
     </g>
    </g>
    <g id="ytick_5">
     <g id="line2d_11">
      <g>
       <use xlink:href="#ma919381f97" x="57.6" y="101.952" style="stroke: #000000; stroke-width: 0.8"/>
      </g>
     </g>
     <g id="text_12">
      <!-- 0.8 -->
      <g transform="translate(34.696875 105.751219) scale(0.1 -0.1)">
       <use xlink:href="#DejaVuSans-30"/>
       <use xlink:href="#DejaVuSans-2e" x="63.623047"/>
       <use xlink:href="#DejaVuSans-38" x="95.410156"/>
      </g>
     </g>
    </g>
    <g id="ytick_6">
     <g id="line2d_12">
      <g>
       <use xlink:href="#ma919381f97" x="57.6" y="53.568" style="stroke: #000000; stroke-width: 0.8"/>
      </g>
     </g>
     <g id="text_13">
      <!-- 1.0 -->
      <g transform="translate(34.696875 57.367219) scale(0.1 -0.1)">
       <use xlink:href="#DejaVuSans-31"/>
       <use xlink:href="#DejaVuSans-2e" x="63.623047"/>
       <use xlink:href="#DejaVuSans-30" x="95.410156"/>
      </g>
     </g>
    </g>
    <g id="text_14">
     <!-- Observed -->
     <g transform="translate(28.617187 198.585031) rotate(-90) scale(0.1 -0.1)">
      <defs>
       <path id="DejaVuSans-4f" d="M 2522 4238 
Q 1834 4238 1429 3725 
Q 1025 3213 1025 2328 
Q 1025 1447 1429 934 
Q 1834 422 2522 422 
Q 3209 422 3611 934 
Q 4013 1447 4013 2328 
Q 4013 3213 3611 3725 
Q 3209 4238 2522 4238 
z
M 2522 4750 
Q 3503 4750 4090 4092 
Q 4678 3434 4678 2328 
Q 4678 1225 4090 567 
Q 3503 -91 2522 -91 
Q 1538 -91 948 565 
Q 359 1222 359 2328 
Q 359 3434 948 4092 
Q 1538 4750 2522 4750 
z
" transform="scale(0.015625)"/>
       <path id="DejaVuSans-62" d="M 3116 1747 
Q 3116 2381 2855 2742 
Q 2594 3103 2138 3103 
Q 1681 3103 1420 2742 
Q 1159 2381 1159 1747 
Q 1159 1113 1420 752 
Q 1681 391 2138 391 
Q 2594 391 2855 752 
Q 3116 1113 3116 1747 
z
M 1159 2969 
Q 1341 3281 1617 3432 
Q 1894 3584 2278 3584 
Q 2916 3584 3314 3078 
Q 3713 2572 3713 1747 
Q 3713 922 3314 415 
Q 2916 -91 2278 -91 
Q 1894 -91 1617 61 
Q 1341 213 1159 525 
L 1159 0 
L 581 0 
L 581 4863 
L 1159 4863 
L 1159 2969 
z
" transform="scale(0.015625)"/>
       <path id="DejaVuSans-73" d="M 2834 3397 
L 2834 2853 
Q 2591 2978 2328 3040 
Q 2066 3103 1784 3103 
Q 1356 3103 1142 2972 
Q 928 2841 928 2578 
Q 928 2378 1081 2264 
Q 1234 2150 1697 2047 
L 1894 2003 
Q 2506 1872 2764 1633 
Q 3022 1394 3022 966 
Q 3022 478 2636 193 
Q 2250 -91 1575 -91 
Q 1294 -91 989 -36 
Q 684 19 347 128 
L 347 722 
Q 666 556 975 473 
Q 1284 391 1588 391 
Q 1994 391 2212 530 
Q 2431 669 2431 922 
Q 2431 1156 2273 1281 
Q 2116 1406 1581 1522 
L 1381 1569 
Q 847 1681 609 1914 
Q 372 2147 372 2553 
Q 372 3047 722 3315 
Q 1072 3584 1716 3584 
Q 2034 3584 2315 3537 
Q 2597 3491 2834 3397 
z
" transform="scale(0.015625)"/>
       <path id="DejaVuSans-72" d="M 2631 2963 
Q 2534 3019 2420 3045 
Q 2306 3072 2169 3072 
Q 1681 3072 1420 2755 
Q 1159 2438 1159 1844 
L 1159 0 
L 581 0 
L 581 3500 
L 1159 3500 
L 1159 2956 
Q 1341 3275 1631 3429 
Q 1922 3584 2338 3584 
Q 2397 3584 2469 3576 
Q 2541 3569 2628 3553 
L 2631 2963 
z
" transform="scale(0.015625)"/>
       <path id="DejaVuSans-76" d="M 191 3500 
L 800 3500 
L 1894 563 
L 2988 3500 
L 3597 3500 
L 2284 0 
L 1503 0 
L 191 3500 
z
" transform="scale(0.015625)"/>
      </defs>
      <use xlink:href="#DejaVuSans-4f"/>
      <use xlink:href="#DejaVuSans-62" x="78.710938"/>
      <use xlink:href="#DejaVuSans-73" x="142.1875"/>
      <use xlink:href="#DejaVuSans-65" x="194.287109"/>
      <use xlink:href="#DejaVuSans-72" x="255.810547"/>
      <use xlink:href="#DejaVuSans-76" x="296.923828"/>
      <use xlink:href="#DejaVuSans-65" x="356.103516"/>
      <use xlink:href="#DejaVuSans-64" x="417.626953"/>
     </g>
    </g>
   </g>
   <g id="line2d_13">
    <path d="M 73.832727 295.488 
L 398.487273 54.242902 
L 398.487273 54.242902 
" clip-path="url(#pc19309f1a7)" style="fill: none; stroke-dasharray: 5.55,2.4; stroke-dashoffset: 0; stroke: #808080; stroke-width: 1.5"/>
   </g>
   <g id="line2d_14">
    <path d="M 73.832727 295.488 
L 76.430299 294.76224 
L 79.027611 293.31072 
L 81.624404 293.0688 
L 84.220418 291.8592 
L 86.815394 290.89152 
L 89.409072 289.19808 
L 92.001195 288.2304 
L 94.591504 286.53696 
L 97.179742 285.32736 
L 99.765651 284.84352 
L 102.348976 283.63392 
L 104.92946 282.90816 
L 107.50685 281.94048 
L 110.080892 281.21472 
L 112.651332 279.52128 
L 115.21792 279.03744 
L 117.780404 277.58592 
L 120.338536 275.89248 
L 122.892067 274.9248 
L 125.440752 273.23136 
L 127.984344 271.77984 
L 130.5226 269.60256 
L 133.055279 268.8768 
L 135.582139 266.94144 
L 140.61745 264.52224 
L 143.125429 263.07072 
L 145.626647 261.37728 
L 150.607871 259.44192 
L 153.087422 257.9904 
L 155.559299 256.7808 
L 158.023278 256.05504 
L 160.479139 254.60352 
L 162.926665 253.87776 
L 165.36564 252.18432 
L 167.79585 251.45856 
L 172.629136 249.03936 
L 175.0318 248.3136 
L 177.424871 248.07168 
L 179.808152 246.13632 
L 182.181444 244.6848 
L 184.544552 243.95904 
L 186.897286 242.02368 
L 189.239456 241.056 
L 191.570878 239.60448 
L 193.891367 238.6368 
L 196.200745 237.4272 
L 198.498834 236.94336 
L 200.785462 235.49184 
L 203.060458 235.24992 
L 205.323655 234.04032 
L 207.574888 232.5888 
L 212.040827 230.65344 
L 214.25522 228.96 
L 216.457028 227.7504 
L 218.646101 226.78272 
L 220.822298 225.3312 
L 222.985476 223.39584 
L 225.1355 222.67008 
L 227.272234 221.7024 
L 229.39555 220.4928 
L 231.50532 219.76704 
L 235.683733 216.38016 
L 237.752141 215.41248 
L 239.806531 214.20288 
L 241.846795 212.0256 
L 245.884525 210.57408 
L 247.881792 208.63872 
L 249.864531 207.1872 
L 251.832652 206.70336 
L 253.786068 205.25184 
L 255.724694 204.52608 
L 257.64845 203.5584 
L 259.55726 202.3488 
L 261.451049 201.86496 
L 263.329749 200.65536 
L 265.193293 200.41344 
L 267.041618 199.9296 
L 268.874666 197.99424 
L 270.692381 196.54272 
L 272.49471 194.84928 
L 274.281607 193.39776 
L 276.053025 192.91392 
L 281.27401 190.73664 
L 282.983134 189.76896 
L 284.676605 187.8336 
L 286.354401 186.14016 
L 288.016499 185.4144 
L 289.662883 183.96288 
L 292.908449 182.51136 
L 294.507614 180.576 
L 297.65868 179.12448 
L 299.210583 178.88256 
L 300.746736 178.39872 
L 302.267148 175.97952 
L 303.771831 175.01184 
L 305.260796 173.07648 
L 308.191649 170.17344 
L 309.633578 169.6896 
L 311.059876 168.96384 
L 313.865694 166.0608 
L 315.245278 164.8512 
L 316.609361 162.91584 
L 317.957982 161.70624 
L 319.291183 160.73856 
L 320.609008 160.0128 
L 321.911505 159.52896 
L 324.470713 157.10976 
L 326.969234 155.65824 
L 328.195879 154.69056 
L 330.604249 153.23904 
L 331.786102 152.02944 
L 334.105485 150.09408 
L 335.243157 149.36832 
L 336.366247 149.1264 
L 337.474832 148.64256 
L 339.648799 147.19104 
L 340.714342 145.73952 
L 341.765702 145.01376 
L 342.802964 143.80416 
L 343.826215 142.35264 
L 344.835543 141.62688 
L 345.831039 141.38496 
L 346.812793 140.90112 
L 347.780898 140.6592 
L 348.735448 140.17536 
L 349.67654 139.4496 
L 352.42004 138.72384 
L 353.30828 136.78848 
L 354.183558 136.30464 
L 355.045977 133.88544 
L 355.895642 133.15968 
L 357.557127 132.192 
L 358.369161 131.46624 
L 359.168866 130.9824 
L 359.956349 130.25664 
L 360.731721 129.28896 
L 361.495091 127.59552 
L 362.246569 127.3536 
L 362.986268 126.86976 
L 363.714299 125.90208 
L 364.430774 125.66016 
L 365.829508 122.99904 
L 366.511995 122.03136 
L 367.84378 119.85408 
L 368.493306 119.85408 
L 369.132076 118.64448 
L 369.760204 117.19296 
L 370.377807 116.4672 
L 370.984998 115.98336 
L 371.581895 115.74144 
L 372.168614 115.01568 
L 373.311978 114.048 
L 374.95358 110.66112 
L 376.000369 110.17728 
L 377.010146 107.75808 
L 377.501442 107.27424 
L 377.983829 106.30656 
L 378.457421 106.06464 
L 378.922332 105.5808 
L 380.266114 102.19392 
L 381.535829 101.46816 
L 381.943128 100.7424 
L 382.734479 99.77472 
L 383.495563 98.3232 
L 383.865025 98.3232 
L 385.271503 97.35552 
L 385.605806 96.87168 
L 386.254363 96.38784 
L 386.876867 93.4848 
L 387.178602 93.00096 
L 387.474126 92.03328 
L 388.046936 91.54944 
L 388.324416 91.0656 
L 388.596076 89.856 
L 389.122316 89.856 
L 389.626407 88.88832 
L 389.870379 88.16256 
L 390.109089 87.92064 
L 390.571087 87.19488 
L 390.794552 86.95296 
L 391.435853 85.50144 
L 391.640207 84.77568 
L 391.839994 84.77568 
L 392.412777 83.32416 
L 392.595114 83.32416 
L 392.773287 81.87264 
L 393.445881 80.1792 
L 393.604381 79.93728 
L 393.759169 79.93728 
L 394.996741 76.30848 
L 395.118198 76.06656 
L 395.464962 75.09888 
L 395.987783 73.88928 
L 396.178949 73.16352 
L 396.360501 73.16352 
L 396.615706 71.22816 
L 396.696408 71.22816 
L 396.998656 69.77664 
L 397.138084 69.77664 
L 397.33359 68.56704 
L 397.395288 68.56704 
L 397.570535 67.84128 
L 397.625796 67.84128 
L 398.100837 64.4544 
L 398.180641 64.4544 
L 398.291985 63.2448 
L 398.487273 61.79328 
L 398.487273 61.79328 
" clip-path="url(#pc19309f1a7)" style="fill: none; stroke: #1f77b4; stroke-width: 1.5; stroke-linecap: square"/>
   </g>
   <g id="line2d_15">
    <path d="M 73.832727 295.488 
L 76.430299 292.58496 
L 79.027611 291.37536 
L 81.624404 289.68192 
L 84.220418 287.26272 
L 86.815394 283.63392 
L 89.409072 281.21472 
L 92.001195 278.31168 
L 94.591504 276.61824 
L 97.179742 272.5056 
L 99.765651 268.8768 
L 102.348976 266.4576 
L 104.92946 265.00608 
L 107.50685 264.0384 
L 110.080892 263.31264 
L 112.651332 260.4096 
L 115.21792 256.05504 
L 117.780404 253.39392 
L 120.338536 248.79744 
L 122.892067 245.8944 
L 125.440752 244.6848 
L 127.984344 240.08832 
L 130.5226 238.15296 
L 133.055279 235.97568 
L 135.582139 234.52416 
L 138.102941 233.7984 
L 140.61745 230.65344 
L 143.125429 228.71808 
L 145.626647 227.99232 
L 148.12087 224.1216 
L 150.607871 220.73472 
L 153.087422 218.0736 
L 155.559299 214.92864 
L 158.023278 212.0256 
L 160.479139 209.36448 
L 162.926665 208.88064 
L 165.36564 206.46144 
L 167.79585 204.28416 
L 170.217085 202.3488 
L 172.629136 199.9296 
L 175.0318 198.72 
L 177.424871 196.3008 
L 179.808152 194.12352 
L 182.181444 190.97856 
L 184.544552 189.52704 
L 186.897286 187.59168 
L 189.239456 184.93056 
L 191.570878 183.47904 
L 193.891367 181.7856 
L 196.200745 179.12448 
L 198.498834 178.39872 
L 200.785462 175.7376 
L 205.323655 170.8992 
L 207.574888 168.96384 
L 212.040827 164.60928 
L 214.25522 160.73856 
L 216.457028 158.07744 
L 218.646101 155.1744 
L 220.822298 153.9648 
L 222.985476 152.02944 
L 225.1355 151.06176 
L 227.272234 149.1264 
L 229.39555 146.94912 
L 231.50532 145.98144 
L 233.601421 145.73952 
L 235.683733 143.32032 
L 237.752141 141.14304 
L 239.806531 139.69152 
L 241.846795 138.48192 
L 245.884525 135.57888 
L 249.864531 132.192 
L 251.832652 131.70816 
L 253.786068 129.7728 
L 255.724694 128.32128 
L 257.64845 127.11168 
L 259.55726 126.144 
L 261.451049 124.20864 
L 263.329749 122.03136 
L 265.193293 120.096 
L 267.041618 119.37024 
L 270.692381 117.43488 
L 272.49471 116.22528 
L 274.281607 114.048 
L 276.053025 112.35456 
L 277.808923 110.4192 
L 279.549263 108.96768 
L 281.27401 107.27424 
L 282.983134 105.33888 
L 286.354401 101.952 
L 288.016499 100.98432 
L 289.662883 99.77472 
L 291.293536 98.80704 
L 292.908449 97.1136 
L 294.507614 96.87168 
L 296.091025 95.42016 
L 297.65868 94.93632 
L 300.746736 93.4848 
L 302.267148 92.51712 
L 303.771831 91.79136 
L 305.260796 90.82368 
L 306.734063 90.33984 
L 308.191649 89.37216 
L 309.633578 88.6464 
L 312.470571 88.6464 
L 313.865694 87.92064 
L 315.245278 86.95296 
L 316.609361 86.71104 
L 317.957982 86.2272 
L 319.291183 85.50144 
L 320.609008 85.25952 
L 321.911505 84.77568 
L 324.470713 84.29184 
L 325.727531 83.56608 
L 326.969234 83.08224 
L 328.195879 82.35648 
L 329.40753 81.14688 
L 330.604249 79.69536 
L 331.786102 79.45344 
L 332.953157 78.72768 
L 334.105485 77.51808 
L 335.243157 77.03424 
L 337.474832 77.03424 
L 338.568989 76.79232 
L 339.648799 76.30848 
L 340.714342 75.3408 
L 342.802964 74.37312 
L 343.826215 73.16352 
L 344.835543 73.16352 
L 345.831039 72.9216 
L 346.812793 72.19584 
L 347.780898 71.95392 
L 348.735448 71.95392 
L 349.67654 71.712 
L 350.604271 71.712 
L 352.42004 71.22816 
L 353.30828 71.22816 
L 354.183558 70.26048 
L 355.045977 69.77664 
L 355.895642 69.05088 
L 356.732656 69.05088 
L 358.369161 67.59936 
L 359.168866 67.59936 
L 363.714299 64.69632 
L 365.829508 64.69632 
L 367.183381 63.72864 
L 367.84378 62.76096 
L 368.493306 62.27712 
L 369.132076 61.55136 
L 369.760204 61.55136 
L 370.377807 61.06752 
L 372.168614 61.06752 
L 372.745269 60.34176 
L 373.311978 60.09984 
L 373.868855 59.616 
L 375.481659 59.616 
L 376.000369 59.37408 
L 376.509827 59.37408 
L 377.501442 58.89024 
L 378.922332 57.43872 
L 380.266114 57.43872 
L 380.697433 56.95488 
L 381.535829 56.95488 
L 382.342641 56.47104 
L 383.495563 56.47104 
L 383.865025 56.22912 
L 385.271503 56.22912 
L 385.605806 55.9872 
L 387.474126 55.9872 
L 387.763538 55.50336 
L 388.596076 55.50336 
L 388.862011 55.26144 
L 389.377083 55.26144 
L 389.626407 55.01952 
L 390.109089 55.01952 
L 390.342629 54.7776 
L 391.226849 54.7776 
L 392.035297 53.80992 
L 394.744653 53.80992 
L 394.996741 53.568 
L 398.487273 53.568 
L 398.487273 53.568 
" clip-path="url(#pc19309f1a7)" style="fill: none; stroke: #ff7f0e; stroke-width: 1.5; stroke-linecap: square"/>
   </g>
   <g id="line2d_16">
    <path d="M 73.832727 295.488 
L 76.430299 291.8592 
L 81.624404 285.56928 
L 86.815394 279.7632 
L 89.409072 279.03744 
L 92.001195 276.61824 
L 94.591504 273.7152 
L 97.179742 272.02176 
L 99.765651 270.0864 
L 102.348976 267.18336 
L 104.92946 263.79648 
L 107.50685 261.6192 
L 110.080892 257.9904 
L 112.651332 254.60352 
L 115.21792 250.7328 
L 117.780404 248.3136 
L 120.338536 245.65248 
L 122.892067 242.74944 
L 125.440752 239.36256 
L 127.984344 237.18528 
L 130.5226 234.28224 
L 135.582139 227.02464 
L 138.102941 224.60544 
L 140.61745 220.97664 
L 143.125429 216.38016 
L 145.626647 213.71904 
L 148.12087 210.09024 
L 150.607871 208.3968 
L 153.087422 205.73568 
L 155.559299 203.5584 
L 158.023278 201.86496 
L 160.479139 198.47808 
L 162.926665 197.02656 
L 167.79585 193.15584 
L 170.217085 190.49472 
L 172.629136 189.28512 
L 175.0318 186.624 
L 177.424871 182.75328 
L 179.808152 180.09216 
L 182.181444 178.39872 
L 184.544552 176.22144 
L 186.897286 175.49568 
L 189.239456 173.56032 
L 191.570878 172.35072 
L 193.891367 170.8992 
L 198.498834 166.54464 
L 200.785462 165.57696 
L 203.060458 163.39968 
L 205.323655 160.49664 
L 207.574888 157.35168 
L 212.040827 152.51328 
L 214.25522 151.06176 
L 216.457028 149.1264 
L 218.646101 146.22336 
L 220.822298 144.04608 
L 222.985476 141.62688 
L 225.1355 139.69152 
L 227.272234 137.51424 
L 229.39555 135.8208 
L 231.50532 135.09504 
L 233.601421 132.67584 
L 237.752141 129.7728 
L 239.806531 128.5632 
L 241.846795 126.38592 
L 243.872827 125.17632 
L 245.884525 123.48288 
L 247.881792 122.03136 
L 249.864531 119.37024 
L 255.724694 115.74144 
L 257.64845 113.80608 
L 259.55726 112.35456 
L 263.329749 110.90304 
L 265.193293 108.96768 
L 267.041618 107.75808 
L 270.692381 105.82272 
L 272.49471 104.3712 
L 274.281607 102.67776 
L 276.053025 101.71008 
L 277.808923 99.77472 
L 281.27401 98.3232 
L 282.983134 97.83936 
L 284.676605 96.38784 
L 286.354401 95.66208 
L 288.016499 94.45248 
L 289.662883 93.4848 
L 291.293536 92.03328 
L 292.908449 90.82368 
L 294.507614 90.82368 
L 297.65868 90.33984 
L 299.210583 89.856 
L 300.746736 88.6464 
L 302.267148 88.16256 
L 305.260796 86.71104 
L 306.734063 86.71104 
L 308.191649 86.46912 
L 309.633578 85.50144 
L 311.059876 85.25952 
L 312.470571 84.77568 
L 313.865694 82.5984 
L 315.245278 82.11456 
L 316.609361 81.3888 
L 317.957982 81.14688 
L 319.291183 80.1792 
L 320.609008 80.1792 
L 321.911505 79.93728 
L 323.198723 79.21152 
L 324.470713 78.00192 
L 328.195879 76.5504 
L 329.40753 75.82464 
L 334.105485 74.85696 
L 335.243157 74.85696 
L 336.366247 74.61504 
L 337.474832 74.61504 
L 338.568989 73.40544 
L 340.714342 71.95392 
L 343.826215 71.22816 
L 344.835543 70.74432 
L 345.831039 70.74432 
L 346.812793 70.26048 
L 347.780898 70.01856 
L 348.735448 69.05088 
L 349.67654 68.56704 
L 350.604271 68.56704 
L 351.518737 67.59936 
L 352.42004 67.11552 
L 353.30828 66.8736 
L 354.183558 66.8736 
L 355.045977 65.90592 
L 355.895642 65.664 
L 356.732656 64.69632 
L 358.369161 63.72864 
L 359.168866 63.72864 
L 361.495091 62.27712 
L 362.246569 61.55136 
L 364.430774 61.55136 
L 365.829508 61.06752 
L 367.183381 59.616 
L 369.760204 59.616 
L 370.984998 59.13216 
L 371.581895 59.13216 
L 372.168614 58.64832 
L 372.745269 58.64832 
L 373.311978 57.92256 
L 374.95358 57.92256 
L 375.481659 57.68064 
L 376.000369 57.1968 
L 377.983829 57.1968 
L 378.922332 56.71296 
L 381.120634 56.71296 
L 381.535829 56.47104 
L 381.943128 56.47104 
L 382.342641 56.22912 
L 382.734479 56.22912 
L 383.11875 55.9872 
L 383.495563 55.9872 
L 383.865025 55.74528 
L 385.271503 55.74528 
L 385.605806 55.50336 
L 386.254363 55.50336 
L 386.568821 55.26144 
L 386.876867 55.26144 
L 387.474126 54.7776 
L 388.324416 54.7776 
L 388.596076 54.53568 
L 389.377083 54.53568 
L 389.626407 54.29376 
L 391.226849 54.29376 
L 391.435853 54.05184 
L 392.035297 54.05184 
L 392.226198 53.80992 
L 392.947374 53.80992 
L 393.117451 53.568 
L 398.487273 53.568 
L 398.487273 53.568 
" clip-path="url(#pc19309f1a7)" style="fill: none; stroke: #2ca02c; stroke-width: 1.5; stroke-linecap: square"/>
   </g>
   <g id="patch_3">
    <path d="M 57.6 307.584 
L 57.6 41.472 
" style="fill: none; stroke: #000000; stroke-width: 0.8; stroke-linejoin: miter; stroke-linecap: square"/>
   </g>
   <g id="patch_4">
    <path d="M 414.72 307.584 
L 414.72 41.472 
" style="fill: none; stroke: #000000; stroke-width: 0.8; stroke-linejoin: miter; stroke-linecap: square"/>
   </g>
   <g id="patch_5">
    <path d="M 57.6 307.584 
L 414.72 307.584 
" style="fill: none; stroke: #000000; stroke-width: 0.8; stroke-linejoin: miter; stroke-linecap: square"/>
   </g>
   <g id="patch_6">
    <path d="M 57.6 41.472 
L 414.72 41.472 
" style="fill: none; stroke: #000000; stroke-width: 0.8; stroke-linejoin: miter; stroke-linecap: square"/>
   </g>
   <g id="legend_1">
    <g id="patch_7">
     <path d="M 64.6 93.506375 
L 163.00625 93.506375 
Q 165.00625 93.506375 165.00625 91.506375 
L 165.00625 48.472 
Q 165.00625 46.472 163.00625 46.472 
L 64.6 46.472 
Q 62.6 46.472 62.6 48.472 
L 62.6 91.506375 
Q 62.6 93.506375 64.6 93.506375 
z
" style="fill: #ffffff; opacity: 0.8; stroke: #cccccc; stroke-linejoin: miter"/>
    </g>
    <g id="line2d_17">
     <path d="M 66.6 54.570438 
L 76.6 54.570438 
L 86.6 54.570438 
" style="fill: none; stroke: #1f77b4; stroke-width: 1.5; stroke-linecap: square"/>
    </g>
    <g id="text_15">
     <!-- Chromosome -->
     <g transform="translate(94.6 58.070438) scale(0.1 -0.1)">
      <defs>
       <path id="DejaVuSans-43" d="M 4122 4306 
L 4122 3641 
Q 3803 3938 3442 4084 
Q 3081 4231 2675 4231 
Q 1875 4231 1450 3742 
Q 1025 3253 1025 2328 
Q 1025 1406 1450 917 
Q 1875 428 2675 428 
Q 3081 428 3442 575 
Q 3803 722 4122 1019 
L 4122 359 
Q 3791 134 3420 21 
Q 3050 -91 2638 -91 
Q 1578 -91 968 557 
Q 359 1206 359 2328 
Q 359 3453 968 4101 
Q 1578 4750 2638 4750 
Q 3056 4750 3426 4639 
Q 3797 4528 4122 4306 
z
" transform="scale(0.015625)"/>
       <path id="DejaVuSans-68" d="M 3513 2113 
L 3513 0 
L 2938 0 
L 2938 2094 
Q 2938 2591 2744 2837 
Q 2550 3084 2163 3084 
Q 1697 3084 1428 2787 
Q 1159 2491 1159 1978 
L 1159 0 
L 581 0 
L 581 4863 
L 1159 4863 
L 1159 2956 
Q 1366 3272 1645 3428 
Q 1925 3584 2291 3584 
Q 2894 3584 3203 3211 
Q 3513 2838 3513 2113 
z
" transform="scale(0.015625)"/>
       <path id="DejaVuSans-6f" d="M 1959 3097 
Q 1497 3097 1228 2736 
Q 959 2375 959 1747 
Q 959 1119 1226 758 
Q 1494 397 1959 397 
Q 2419 397 2687 759 
Q 2956 1122 2956 1747 
Q 2956 2369 2687 2733 
Q 2419 3097 1959 3097 
z
M 1959 3584 
Q 2709 3584 3137 3096 
Q 3566 2609 3566 1747 
Q 3566 888 3137 398 
Q 2709 -91 1959 -91 
Q 1206 -91 779 398 
Q 353 888 353 1747 
Q 353 2609 779 3096 
Q 1206 3584 1959 3584 
z
" transform="scale(0.015625)"/>
       <path id="DejaVuSans-6d" d="M 3328 2828 
Q 3544 3216 3844 3400 
Q 4144 3584 4550 3584 
Q 5097 3584 5394 3201 
Q 5691 2819 5691 2113 
L 5691 0 
L 5113 0 
L 5113 2094 
Q 5113 2597 4934 2840 
Q 4756 3084 4391 3084 
Q 3944 3084 3684 2787 
Q 3425 2491 3425 1978 
L 3425 0 
L 2847 0 
L 2847 2094 
Q 2847 2600 2669 2842 
Q 2491 3084 2119 3084 
Q 1678 3084 1418 2786 
Q 1159 2488 1159 1978 
L 1159 0 
L 581 0 
L 581 3500 
L 1159 3500 
L 1159 2956 
Q 1356 3278 1631 3431 
Q 1906 3584 2284 3584 
Q 2666 3584 2933 3390 
Q 3200 3197 3328 2828 
z
" transform="scale(0.015625)"/>
      </defs>
      <use xlink:href="#DejaVuSans-43"/>
      <use xlink:href="#DejaVuSans-68" x="69.824219"/>
      <use xlink:href="#DejaVuSans-72" x="133.203125"/>
      <use xlink:href="#DejaVuSans-6f" x="172.066406"/>
      <use xlink:href="#DejaVuSans-6d" x="233.248047"/>
      <use xlink:href="#DejaVuSans-6f" x="330.660156"/>
      <use xlink:href="#DejaVuSans-73" x="391.841797"/>
      <use xlink:href="#DejaVuSans-6f" x="443.941406"/>
      <use xlink:href="#DejaVuSans-6d" x="505.123047"/>
      <use xlink:href="#DejaVuSans-65" x="602.535156"/>
     </g>
    </g>
    <g id="line2d_18">
     <path d="M 66.6 69.248563 
L 76.6 69.248563 
L 86.6 69.248563 
" style="fill: none; stroke: #ff7f0e; stroke-width: 1.5; stroke-linecap: square"/>
    </g>
    <g id="text_16">
     <!-- Window -->
     <g transform="translate(94.6 72.748563) scale(0.1 -0.1)">
      <defs>
       <path id="DejaVuSans-57" d="M 213 4666 
L 850 4666 
L 1831 722 
L 2809 4666 
L 3519 4666 
L 4500 722 
L 5478 4666 
L 6119 4666 
L 4947 0 
L 4153 0 
L 3169 4050 
L 2175 0 
L 1381 0 
L 213 4666 
z
" transform="scale(0.015625)"/>
       <path id="DejaVuSans-69" d="M 603 3500 
L 1178 3500 
L 1178 0 
L 603 0 
L 603 3500 
z
M 603 4863 
L 1178 4863 
L 1178 4134 
L 603 4134 
L 603 4863 
z
" transform="scale(0.015625)"/>
       <path id="DejaVuSans-6e" d="M 3513 2113 
L 3513 0 
L 2938 0 
L 2938 2094 
Q 2938 2591 2744 2837 
Q 2550 3084 2163 3084 
Q 1697 3084 1428 2787 
Q 1159 2491 1159 1978 
L 1159 0 
L 581 0 
L 581 3500 
L 1159 3500 
L 1159 2956 
Q 1366 3272 1645 3428 
Q 1925 3584 2291 3584 
Q 2894 3584 3203 3211 
Q 3513 2838 3513 2113 
z
" transform="scale(0.015625)"/>
       <path id="DejaVuSans-77" d="M 269 3500 
L 844 3500 
L 1563 769 
L 2278 3500 
L 2956 3500 
L 3675 769 
L 4391 3500 
L 4966 3500 
L 4050 0 
L 3372 0 
L 2619 2869 
L 1863 0 
L 1184 0 
L 269 3500 
z
" transform="scale(0.015625)"/>
      </defs>
      <use xlink:href="#DejaVuSans-57"/>
      <use xlink:href="#DejaVuSans-69" x="96.626953"/>
      <use xlink:href="#DejaVuSans-6e" x="124.410156"/>
      <use xlink:href="#DejaVuSans-64" x="187.789062"/>
      <use xlink:href="#DejaVuSans-6f" x="251.265625"/>
      <use xlink:href="#DejaVuSans-77" x="312.447266"/>
     </g>
    </g>
    <g id="line2d_19">
     <path d="M 66.6 83.926688 
L 76.6 83.926688 
L 86.6 83.926688 
" style="fill: none; stroke: #2ca02c; stroke-width: 1.5; stroke-linecap: square"/>
    </g>
    <g id="text_17">
     <!-- Tree -->
     <g transform="translate(94.6 87.426688) scale(0.1 -0.1)">
      <defs>
       <path id="DejaVuSans-54" d="M -19 4666 
L 3928 4666 
L 3928 4134 
L 2272 4134 
L 2272 0 
L 1638 0 
L 1638 4134 
L -19 4134 
L -19 4666 
z
" transform="scale(0.015625)"/>
      </defs>
      <use xlink:href="#DejaVuSans-54"/>
      <use xlink:href="#DejaVuSans-72" x="46.333984"/>
      <use xlink:href="#DejaVuSans-65" x="85.197266"/>
      <use xlink:href="#DejaVuSans-65" x="146.720703"/>
     </g>
    </g>
   </g>
  </g>
 </g>
 <defs>
  <clipPath id="pc19309f1a7">
   <rect x="57.6" y="41.472" width="357.12" height="266.112"/>
  </clipPath>
 </defs>
</svg>
