<?xml version="1.0" encoding="utf-8"?>
<!-- Generator: Adobe Illustrator 25.2.1, SVG Export Plug-In . SVG Version: 6.00 Build 0)  -->
<svg version="1.1" id="Layer_1" xmlns="http://www.w3.org/2000/svg" xmlns:xlink="http://www.w3.org/1999/xlink" x="0px" y="0px"
	 viewBox="0 0 387 387" style="enable-background:new 0 0 387 387;" xml:space="preserve">
<style type="text/css">
	.st0{fill:none;}
	.st1{clip-path:url(#SVGID_2_);}
	.st2{fill:none;stroke:#EBEBEB;stroke-width:0.53;stroke-linejoin:round;stroke-miterlimit:10;}
	.st3{fill:none;stroke:#EBEBEB;stroke-width:1.07;stroke-linejoin:round;stroke-miterlimit:10;}
	
		.st4{fill:none;stroke:#1F77B4;stroke-width:0.71;stroke-linecap:round;stroke-linejoin:round;stroke-miterlimit:10;stroke-opacity:0.5;}
	.st5{fill:none;stroke:#1F77B4;stroke-width:2.13;stroke-linejoin:round;stroke-miterlimit:10;}
	
		.st6{fill:none;stroke:#F57E20;stroke-width:0.71;stroke-linecap:round;stroke-linejoin:round;stroke-miterlimit:10;stroke-opacity:0.5;}
	
		.st7{fill:none;stroke:#F57E20;stroke-width:0.71;stroke-linecap:round;stroke-linejoin:round;stroke-miterlimit:9.999;stroke-opacity:0.5;}
	.st8{fill:none;stroke:#F57E20;stroke-width:2.13;stroke-linejoin:round;stroke-miterlimit:10;}
	.st9{fill:none;stroke:#231F20;stroke-miterlimit:10;stroke-opacity:0.3;}
	.st10{fill:none;stroke:#231F20;stroke-width:1;stroke-miterlimit:9.999;stroke-opacity:0.3;}
	.st11{fill:none;stroke:#231F20;stroke-width:1;stroke-miterlimit:9.9997;stroke-opacity:0.3;}
	.st12{fill:none;stroke:#231F20;stroke-width:2.13;stroke-linejoin:round;stroke-miterlimit:10;}
	.st13{fill:#4D4D4D;}
	.st14{font-family:'ArialMT';}
	.st15{font-size:8.8px;}
	.st16{font-size:15px;}
	.st17{fill:#1F77B4;}
	.st18{fill:#F57E20;}
	.st19{fill:#231F20;}
</style>
<g>
	<rect x="27" class="st0" width="360" height="360"/>
	<g>
		<g>
			<g>
				<defs>
					<rect id="SVGID_1_" x="72.5" y="5.5" width="309" height="322.8"/>
				</defs>
				<clipPath id="SVGID_2_">
					<use xlink:href="#SVGID_1_"  style="overflow:visible;"/>
				</clipPath>
				<g class="st1">
					<line class="st2" x1="72.5" y1="276.9" x2="381.5" y2="276.9"/>
					<line class="st2" x1="72.5" y1="203.6" x2="381.5" y2="203.6"/>
					<line class="st2" x1="72.5" y1="130.2" x2="381.5" y2="130.2"/>
					<line class="st2" x1="72.5" y1="56.8" x2="381.5" y2="56.8"/>
					<line class="st2" x1="117.3" y1="328.3" x2="117.3" y2="5.5"/>
					<line class="st2" x1="190.5" y1="328.3" x2="190.5" y2="5.5"/>
					<line class="st2" x1="263.8" y1="328.3" x2="263.8" y2="5.5"/>
					<line class="st2" x1="337" y1="328.3" x2="337" y2="5.5"/>
					<line class="st3" x1="72.5" y1="313.6" x2="381.5" y2="313.6"/>
					<line class="st3" x1="72.5" y1="240.2" x2="381.5" y2="240.2"/>
					<line class="st3" x1="72.5" y1="166.9" x2="381.5" y2="166.9"/>
					<line class="st3" x1="72.5" y1="93.5" x2="381.5" y2="93.5"/>
					<line class="st3" x1="72.5" y1="20.1" x2="381.5" y2="20.1"/>
					<line class="st3" x1="80.7" y1="328.3" x2="80.7" y2="5.5"/>
					<line class="st3" x1="153.9" y1="328.3" x2="153.9" y2="5.5"/>
					<line class="st3" x1="227.2" y1="328.3" x2="227.2" y2="5.5"/>
					<line class="st3" x1="300.4" y1="328.3" x2="300.4" y2="5.5"/>
					<line class="st3" x1="373.6" y1="328.3" x2="373.6" y2="5.5"/>
					<circle class="st4" cx="87.4" cy="219.9" r="1.9"/>
					<circle class="st4" cx="86.6" cy="269.6" r="2"/>
					<circle class="st4" cx="87.4" cy="253.7" r="1.9"/>
					<circle class="st4" cx="92.7" cy="60.3" r="1.9"/>
					<circle class="st4" cx="92.1" cy="-146" r="1.9"/>
					<circle class="st4" cx="90.9" cy="39.6" r="2"/>
					<circle class="st4" cx="91.2" cy="-39" r="1.9"/>
					<circle class="st4" cx="94.2" cy="-499.9" r="2"/>
					<circle class="st4" cx="86.6" cy="274.1" r="2"/>
					<circle class="st4" cx="88" cy="231" r="1.9"/>
					<circle class="st4" cx="92.4" cy="-154.1" r="1.9"/>
					<circle class="st4" cx="109.7" cy="-4467.5" r="2"/>
					<circle class="st4" cx="102.7" cy="-1726.6" r="1.9"/>
					<circle class="st4" cx="97.1" cy="-554.7" r="2"/>
					<circle class="st4" cx="93" cy="-117.6" r="1.9"/>
					<circle class="st4" cx="94.5" cy="-107.6" r="1.9"/>
					<circle class="st4" cx="92.7" cy="-40.2" r="1.9"/>
					<circle class="st4" cx="93" cy="-21.5" r="1.9"/>
					<circle class="st4" cx="107.1" cy="-3201.8" r="1.9"/>
					<circle class="st4" cx="103.2" cy="-1344.9" r="1.9"/>
					<circle class="st4" cx="101.5" cy="-2688.1" r="1.9"/>
					<circle class="st4" cx="110.3" cy="-4531.3" r="2"/>
					<circle class="st4" cx="112.3" cy="-5661.8" r="2"/>
					<circle class="st4" cx="95.3" cy="-248.1" r="1.9"/>
					<circle class="st4" cx="120.5" cy="-13525.5" r="2"/>
					<circle class="st4" cx="101.5" cy="-2148.4" r="1.9"/>
					<circle class="st4" cx="110" cy="-9594" r="2"/>
					<circle class="st4" cx="98.3" cy="-2378.8" r="1.9"/>
					<circle class="st4" cx="105.9" cy="-3033.3" r="1.9"/>
					<circle class="st4" cx="104.4" cy="-2513.9" r="1.9"/>
					<circle class="st4" cx="100.3" cy="-1446.9" r="1.9"/>
					<circle class="st4" cx="103.2" cy="-3257.6" r="1.9"/>
					<circle class="st4" cx="108.8" cy="-3675.7" r="1.9"/>
					<circle class="st4" cx="105.3" cy="-3004.4" r="1.9"/>
					<circle class="st4" cx="110" cy="-6697.8" r="2"/>
					<circle class="st4" cx="107.6" cy="-8910.4" r="2"/>
					<circle class="st4" cx="108.8" cy="-6559.6" r="2"/>
					<circle class="st4" cx="104.4" cy="-1936.8" r="1.9"/>
					<circle class="st4" cx="129.3" cy="-14081.4" r="2"/>
					<circle class="st4" cx="111.7" cy="-6156.8" r="2"/>
					<circle class="st4" cx="115.8" cy="-7558.2" r="2"/>
					<circle class="st4" cx="114.7" cy="-6003.1" r="2"/>
					<circle class="st4" cx="116.4" cy="-11235.6" r="2"/>
					<polyline class="st5" points="86.6,289 87.1,279.5 87.6,264.3 88.2,243.5 88.7,217.1 89.2,185.1 89.8,147.5 90.3,104.2 
						90.9,55.4 91.4,0 92,-62.1 92.5,-129 93,-200.6 93.6,-282.1 94.1,-372.6 94.7,-470.6 95.2,-574.3 95.8,-682.3 96.3,-792.9 
						96.8,-904.5 97.4,-1014.5 97.9,-1117.3 98.5,-1215.6 99,-1313.2 99.5,-1414 100.1,-1521.6 100.6,-1640.1 101.2,-1773.1 
						101.7,-1924.5 102.2,-2098.2 102.8,-2298.4 103.3,-2537.2 103.9,-2806.9 104.4,-3092.3 104.9,-3378.6 105.5,-3650.6 
						106,-3894.7 106.6,-4125.4 107.1,-4353.6 107.7,-4582.9 108.2,-4817.2 108.7,-5060 109.3,-5315.2 109.8,-5586.3 110.4,-5874 
						110.9,-6173.4 111.4,-6479.5 112,-6787.3 112.5,-7091.6 113.1,-7391.2 113.6,-7686.2 114.2,-7976.9 114.7,-8263.4 
						115.2,-8545.7 115.8,-8823.9 116.3,-9098.3 116.9,-9368.9 117.4,-9635.8 117.9,-9899.3 118.5,-10159.2 119,-10416 
						119.6,-10669.5 120.1,-10920 120.7,-11167.5 121.2,-11412.2 121.7,-11654.3 122.3,-11893.7 122.8,-12130.7 123.4,-12365.4 
						123.9,-12597.9 124.4,-12828.3 125,-13056.7 125.5,-13283.3 126.1,-13508.1 126.6,-13731.3 127.2,-13953.1 127.7,-14173.4 
											"/>
					<circle class="st6" cx="87.4" cy="302" r="2"/>
					<circle class="st6" cx="86.6" cy="304.9" r="2"/>
					<circle class="st6" cx="87.4" cy="304.5" r="2"/>
					
						<ellipse transform="matrix(3.328112e-02 -0.9994 0.9994 3.328112e-02 -213.2064 385.5672)" class="st7" cx="92.7" cy="303" rx="2" ry="1.9"/>
					
						<ellipse transform="matrix(3.328112e-02 -0.9994 0.9994 3.328112e-02 -214.4059 385.5656)" class="st7" cx="92.1" cy="303.6" rx="2" ry="1.9"/>
					<circle class="st6" cx="90.9" cy="301.7" r="2"/>
					
						<ellipse transform="matrix(3.328112e-02 -0.9994 0.9994 3.328112e-02 -213.1987 382.6921)" class="st7" cx="91.2" cy="301.6" rx="2" ry="1.9"/>
					<circle class="st6" cx="94.2" cy="299.2" r="2"/>
					<circle class="st6" cx="86.6" cy="305.7" r="2"/>
					<circle class="st6" cx="88" cy="304" r="2"/>
					
						<ellipse transform="matrix(3.328112e-02 -0.9994 0.9994 3.328112e-02 -211.9809 383.8753)" class="st7" cx="92.4" cy="301.5" rx="2" ry="1.9"/>
					<circle class="st6" cx="217.8" cy="267.2" r="2"/>
					<circle class="st6" cx="109.7" cy="297" r="2"/>
					<circle class="st6" cx="102.7" cy="299.8" r="2"/>
					<circle class="st6" cx="208.1" cy="274.5" r="2"/>
					<circle class="st6" cx="97.1" cy="295.4" r="2"/>
					<circle class="st6" cx="93" cy="296.1" r="2"/>
					<circle class="st6" cx="94.5" cy="295.6" r="2"/>
					
						<ellipse transform="matrix(3.328112e-02 -0.9994 0.9994 3.328112e-02 -208.0812 380.4612)" class="st7" cx="92.6" cy="297.8" rx="2" ry="1.9"/>
					<circle class="st6" cx="93" cy="294.6" r="2"/>
					<circle class="st6" cx="107.1" cy="292.8" r="2"/>
					<circle class="st6" cx="103.2" cy="289.3" r="2"/>
					<circle class="st6" cx="101.5" cy="290.5" r="2"/>
					<circle class="st6" cx="110.3" cy="293.5" r="2"/>
					<circle class="st6" cx="112.3" cy="292.5" r="2"/>
					<circle class="st6" cx="95.3" cy="286.8" r="2"/>
					<circle class="st6" cx="122.9" cy="290.4" r="2"/>
					<circle class="st6" cx="125.5" cy="288" r="2"/>
					<circle class="st6" cx="120.5" cy="283.6" r="2"/>
					<circle class="st6" cx="101.5" cy="293.3" r="2"/>
					<circle class="st6" cx="110" cy="275.5" r="2"/>
					<circle class="st6" cx="125.2" cy="281.5" r="2"/>
					<circle class="st6" cx="98.3" cy="278.6" r="2"/>
					<circle class="st6" cx="105.9" cy="243.6" r="1.9"/>
					<circle class="st6" cx="104.4" cy="268" r="2"/>
					<circle class="st6" cx="137.8" cy="280" r="2"/>
					<circle class="st6" cx="153" cy="271.9" r="2"/>
					<circle class="st6" cx="100.3" cy="283.2" r="2"/>
					<circle class="st6" cx="178.5" cy="268.5" r="2"/>
					<circle class="st6" cx="366.3" cy="112.6" r="2"/>
					<circle class="st6" cx="144.8" cy="269" r="2"/>
					<circle class="st6" cx="175.9" cy="275.3" r="2"/>
					<circle class="st6" cx="206.4" cy="256.6" r="2"/>
					<circle class="st6" cx="103.2" cy="285" r="2"/>
					<circle class="st6" cx="120.8" cy="280.5" r="2"/>
					<circle class="st6" cx="108.8" cy="270.3" r="2"/>
					<circle class="st6" cx="105.3" cy="275.7" r="2"/>
					<circle class="st6" cx="110" cy="272.5" r="2"/>
					<circle class="st6" cx="132.8" cy="268.3" r="2"/>
					<circle class="st6" cx="107.6" cy="275.6" r="2"/>
					<circle class="st6" cx="108.8" cy="273.2" r="2"/>
					<circle class="st6" cx="160.4" cy="259.5" r="2"/>
					<circle class="st6" cx="367.5" cy="25.4" r="2"/>
					<circle class="st6" cx="104.4" cy="278.6" r="2"/>
					<circle class="st6" cx="129.3" cy="266.8" r="2"/>
					<circle class="st6" cx="165.1" cy="250.9" r="1.9"/>
					<circle class="st6" cx="133.4" cy="272.2" r="2"/>
					<circle class="st6" cx="197.9" cy="247" r="1.9"/>
					<circle class="st6" cx="330.3" cy="123.7" r="2"/>
					<circle class="st6" cx="163.3" cy="266.9" r="2"/>
					<circle class="st6" cx="178.2" cy="252.9" r="1.9"/>
					<circle class="st6" cx="111.7" cy="268.1" r="2"/>
					<circle class="st6" cx="115.8" cy="265.8" r="2"/>
					<circle class="st6" cx="121.7" cy="266.3" r="2"/>
					<circle class="st6" cx="251.8" cy="227.9" r="1.9"/>
					<circle class="st6" cx="114.7" cy="266.5" r="2"/>
					<circle class="st6" cx="156.6" cy="257.3" r="2"/>
					<circle class="st6" cx="156.3" cy="251.5" r="1.9"/>
					<circle class="st6" cx="206.4" cy="245.8" r="1.9"/>
					<circle class="st6" cx="122.3" cy="264.8" r="2"/>
					<circle class="st6" cx="129.3" cy="246.2" r="1.9"/>
					<circle class="st6" cx="164.2" cy="252.4" r="1.9"/>
					<circle class="st6" cx="323.2" cy="113.9" r="2"/>
					<circle class="st6" cx="142.2" cy="252.8" r="1.9"/>
					<circle class="st6" cx="114.1" cy="255.6" r="2"/>
					<circle class="st6" cx="116.4" cy="257.6" r="2"/>
					<circle class="st6" cx="148.6" cy="251" r="1.9"/>
					<circle class="st6" cx="136.9" cy="243.6" r="1.9"/>
					<circle class="st6" cx="123.8" cy="254.1" r="1.9"/>
					<circle class="st6" cx="128.1" cy="248.1" r="1.9"/>
					<circle class="st6" cx="139.6" cy="247.5" r="1.9"/>
					<circle class="st6" cx="154.8" cy="249.1" r="1.9"/>
					<circle class="st6" cx="295.1" cy="123.6" r="2"/>
					<circle class="st6" cx="123.5" cy="246" r="1.9"/>
					<polyline class="st8" points="86.6,307 90.1,301.2 93.7,295.8 97.2,290.9 100.8,286.4 104.3,282.2 107.9,278.5 111.4,275.1 
						115,272.2 118.6,269.6 122.1,267.6 125.7,265.9 129.2,264.2 132.8,262.6 136.3,261.3 139.9,260.2 143.4,259.3 147,258.6 
						150.6,258.1 154.1,257.8 157.7,257.5 161.2,257.4 164.8,257.4 168.3,257.4 171.9,257.4 175.4,257.4 179,257.4 182.6,257.4 
						186.1,257.3 189.7,257.1 193.2,256.9 196.8,256.4 200.3,255.8 203.9,255 207.4,254 211,252.8 214.6,251.4 218.1,249.8 
						221.7,247.9 225.2,245.9 228.8,243.8 232.3,241.4 235.9,238.8 239.5,236.1 243,233.2 246.6,230.2 250.1,227 253.7,223.6 
						257.2,220.1 260.8,216.4 264.4,212.6 267.9,208.7 271.5,204.6 275,200.4 278.6,196 282.1,191.6 285.7,187 289.2,182.3 
						292.8,177.5 296.4,172.6 299.9,167.6 303.5,162.5 307,157.3 310.6,152.1 314.1,146.7 317.7,141.3 321.2,135.8 324.8,130.2 
						328.4,124.5 331.9,118.8 335.5,113 339,107.2 342.6,101.3 346.1,95.4 349.7,89.5 353.2,83.5 356.8,77.5 360.4,71.4 363.9,65.3 
						367.5,59.2 					"/>
					<circle class="st9" cx="87.4" cy="300" r="2"/>
					<circle class="st9" cx="86.6" cy="305.5" r="2"/>
					<circle class="st9" cx="87.4" cy="302" r="2"/>
					
						<ellipse transform="matrix(3.328112e-02 -0.9994 0.9994 3.328112e-02 -214.16 386.3772)" class="st10" cx="92.6" cy="303.9" rx="2" ry="1.9"/>
					
						<ellipse transform="matrix(3.328112e-02 -0.9994 0.9994 3.328112e-02 -213.87 385.1221)" class="st10" cx="92.1" cy="303.1" rx="2" ry="1.9"/>
					<circle class="st9" cx="90.9" cy="304.6" r="2"/>
					
						<ellipse transform="matrix(3.328112e-02 -0.9994 0.9994 3.328112e-02 -212.8776 382.4255)" class="st10" cx="91.2" cy="301.3" rx="2" ry="1.9"/>
					<circle class="st9" cx="94.2" cy="301" r="2"/>
					<circle class="st9" cx="86.6" cy="305.9" r="2"/>
					<circle class="st9" cx="88" cy="303.7" r="2"/>
					
						<ellipse transform="matrix(3.328112e-02 -0.9994 0.9994 3.328112e-02 -211.8713 383.5825)" class="st10" cx="92.3" cy="301.3" rx="2" ry="1.9"/>
					<circle class="st9" cx="217.8" cy="293.9" r="2"/>
					<circle class="st9" cx="109.7" cy="299.4" r="2"/>
					<circle class="st9" cx="102.7" cy="298.8" r="2"/>
					<circle class="st9" cx="208.1" cy="295.1" r="2"/>
					<circle class="st9" cx="97.1" cy="293.7" r="2"/>
					<circle class="st9" cx="93" cy="293.5" r="2"/>
					<circle class="st9" cx="94.5" cy="295.8" r="2"/>
					
						<ellipse transform="matrix(3.328112e-02 -0.9994 0.9994 3.328112e-02 -208.145 380.5977)" class="st10" cx="92.7" cy="297.9" rx="2" ry="1.9"/>
					<circle class="st9" cx="93" cy="294" r="2"/>
					<circle class="st9" cx="107.1" cy="295.1" r="2"/>
					<circle class="st9" cx="103.2" cy="290.9" r="2"/>
					<circle class="st9" cx="101.5" cy="293.2" r="2"/>
					<circle class="st9" cx="110.3" cy="289.1" r="2"/>
					<circle class="st9" cx="112.3" cy="293" r="2"/>
					<circle class="st9" cx="95.3" cy="293.5" r="2"/>
					<circle class="st9" cx="122.9" cy="293.9" r="2"/>
					<circle class="st9" cx="125.5" cy="291.6" r="2"/>
					<circle class="st9" cx="120.5" cy="288.5" r="2"/>
					<circle class="st9" cx="101.5" cy="293.5" r="2"/>
					<circle class="st9" cx="110" cy="280.4" r="2"/>
					<circle class="st9" cx="125.2" cy="287.6" r="2"/>
					<circle class="st9" cx="98.3" cy="275" r="2"/>
					<circle class="st9" cx="105.9" cy="277.5" r="2"/>
					<circle class="st9" cx="104.4" cy="284.1" r="2"/>
					<circle class="st9" cx="137.8" cy="281.7" r="2"/>
					<circle class="st9" cx="153" cy="281.3" r="2"/>
					<circle class="st9" cx="100.3" cy="284.8" r="2"/>
					<circle class="st9" cx="178.5" cy="279.6" r="2"/>
					<circle class="st9" cx="366.3" cy="275.7" r="2"/>
					<circle class="st9" cx="144.8" cy="272.5" r="2"/>
					<circle class="st9" cx="175.9" cy="283.3" r="2"/>
					<circle class="st9" cx="206.4" cy="278.5" r="2"/>
					<circle class="st9" cx="103.2" cy="287.5" r="2"/>
					<circle class="st9" cx="120.8" cy="283.9" r="2"/>
					<circle class="st9" cx="108.8" cy="276.1" r="2"/>
					<circle class="st9" cx="105.3" cy="278.4" r="2"/>
					<circle class="st9" cx="110" cy="279.1" r="2"/>
					<circle class="st9" cx="132.8" cy="263.4" r="2"/>
					<circle class="st9" cx="107.6" cy="277" r="2"/>
					<circle class="st9" cx="108.8" cy="275.9" r="2"/>
					<circle class="st9" cx="160.4" cy="270.9" r="2"/>
					<circle class="st9" cx="367.5" cy="262.2" r="2"/>
					<circle class="st9" cx="104.4" cy="271.8" r="2"/>
					<circle class="st9" cx="129.3" cy="271.2" r="2"/>
					<circle class="st9" cx="165.1" cy="265.4" r="2"/>
					<circle class="st9" cx="133.4" cy="274.9" r="2"/>
					<circle class="st9" cx="197.9" cy="266" r="2"/>
					<circle class="st9" cx="330.3" cy="271.4" r="2"/>
					<circle class="st9" cx="163.3" cy="275.9" r="2"/>
					<circle class="st9" cx="178.2" cy="266.8" r="2"/>
					<circle class="st9" cx="111.7" cy="271.2" r="2"/>
					<circle class="st9" cx="115.8" cy="272.7" r="2"/>
					<circle class="st9" cx="121.7" cy="270.6" r="2"/>
					<circle class="st9" cx="251.8" cy="259.7" r="2"/>
					<circle class="st9" cx="114.7" cy="269.4" r="2"/>
					<circle class="st9" cx="156.6" cy="268" r="2"/>
					<circle class="st9" cx="156.3" cy="268.6" r="2"/>
					<circle class="st9" cx="206.4" cy="263.8" r="2"/>
					<circle class="st9" cx="122.3" cy="269" r="2"/>
					<circle class="st9" cx="129.3" cy="269.1" r="2"/>
					<circle class="st9" cx="164.2" cy="256.6" r="2"/>
					<circle class="st9" cx="323.2" cy="254.4" r="2"/>
					<circle class="st9" cx="142.2" cy="259.9" r="2"/>
					<circle class="st9" cx="114.1" cy="258.5" r="2"/>
					<circle class="st9" cx="116.4" cy="260.5" r="2"/>
					<circle class="st9" cx="148.6" cy="261.5" r="2"/>
					<circle class="st9" cx="136.9" cy="262.2" r="2"/>
					<circle class="st9" cx="123.8" cy="250.1" r="1.9"/>
					
						<ellipse transform="matrix(0.1961 -0.9806 0.9806 0.1961 -147.7682 331.1593)" class="st11" cx="128.1" cy="255.7" rx="1.9" ry="1.9"/>
					<circle class="st9" cx="139.6" cy="252.7" r="1.9"/>
					<circle class="st9" cx="154.8" cy="255.8" r="1.9"/>
					<circle class="st9" cx="295.1" cy="237.8" r="2"/>
					<circle class="st9" cx="123.5" cy="253.8" r="1.9"/>
					<polyline class="st12" points="86.6,305.9 90.1,301.1 93.7,296.6 97.2,292.5 100.8,288.7 104.3,285.2 107.9,282.1 111.4,279.2 
						115,276.7 118.6,274.5 122.1,272.5 125.7,271 129.2,269.6 132.8,268.4 136.3,267.6 139.9,267 143.4,266.7 147,266.6 
						150.6,266.6 154.1,266.8 157.7,267 161.2,267.5 164.8,268 168.3,268.7 171.9,269.4 175.4,270.1 179,270.9 182.6,271.6 
						186.1,272.3 189.7,273 193.2,273.5 196.8,274 200.3,274.3 203.9,274.6 207.4,274.8 211,274.9 214.6,275 218.1,275.1 
						221.7,275.1 225.2,275 228.8,274.9 232.3,274.8 235.9,274.6 239.5,274.5 243,274.2 246.6,274 250.1,273.7 253.7,273.4 
						257.2,273 260.8,272.7 264.4,272.3 267.9,271.9 271.5,271.5 275,271.1 278.6,270.7 282.1,270.2 285.7,269.8 289.2,269.4 
						292.8,268.9 296.4,268.5 299.9,268.1 303.5,267.7 307,267.3 310.6,266.9 314.1,266.5 317.7,266.2 321.2,265.9 324.8,265.5 
						328.4,265.3 331.9,265 335.5,264.8 339,264.6 342.6,264.5 346.1,264.4 349.7,264.3 353.2,264.3 356.8,264.3 360.4,264.4 
						363.9,264.5 367.5,264.6 					"/>
				</g>
			</g>
		</g>
	</g>
	<g>
		<g>
			<text transform="matrix(1 0 0 1 45.5485 316.75)" class="st13 st14 st15">0.000</text>
			<text transform="matrix(1 0 0 1 45.5485 243.39)" class="st13 st14 st15">0.025</text>
			<text transform="matrix(1 0 0 1 45.5485 170.03)" class="st13 st14 st15">0.050</text>
			<text transform="matrix(1 0 0 1 45.5485 96.67)" class="st13 st14 st15">0.075</text>
			<text transform="matrix(1 0 0 1 45.5485 23.31)" class="st13 st14 st15">0.100</text>
			<rect x="78.2" y="331.9" class="st0" width="4.9" height="10.4"/>
			<text transform="matrix(1 0 0 1 78.2432 339.5)" class="st13 st14 st15">0</text>
			<rect x="146.6" y="331.9" class="st0" width="14.7" height="10.4"/>
			<text transform="matrix(1 0 0 1 146.5786 339.5)" class="st13 st14 st15">250</text>
			<rect x="219.8" y="331.9" class="st0" width="14.7" height="10.4"/>
			<text transform="matrix(1 0 0 1 219.8188 339.5)" class="st13 st14 st15">500</text>
			<rect x="293" y="331.9" class="st0" width="14.7" height="10.4"/>
			<text transform="matrix(1 0 0 1 293.0488 339.5)" class="st13 st14 st15">750</text>
			<rect x="363.8" y="331.9" class="st0" width="19.6" height="10.4"/>
			<text transform="matrix(1 0 0 1 363.8418 339.5)" class="st13 st14 st15">1000</text>
			<rect x="166.8" y="354.7" class="st0" width="121" height="13"/>
			<text transform="matrix(1 0 0 1 171.0332 367.5225)" class="st14 st16">Number of Paths </text>
			<rect x="5.3" y="35.2" class="st0" width="36.6" height="263.4"/>
			<text transform="matrix(6.123234e-17 -1 1 6.123234e-17 18.1963 281.9199)" class="st14 st16">Time To Compute The Covariance </text>
			<text transform="matrix(6.123234e-17 -1 1 6.123234e-17 36.1963 222.3203)" class="st14 st16">Matrix (seconds)</text>
		</g>
	</g>
	<text transform="matrix(1 0 0 1 100.2393 38.2799)" class="st17 st14 st16">Naive</text>
	<text transform="matrix(1 0 0 1 202.893 182.5259)" class="st18 st14 st16">Bottom-up</text>
	<text transform="matrix(1 0 0 1 245.6864 296.1541)" class="st19 st14 st16">Minimal</text>
</g>
</svg>
