<?xml version="1.0" encoding="utf-8"?>
<!-- Generator: Adobe Illustrator 25.2.1, SVG Export Plug-In . SVG Version: 6.00 Build 0)  -->
<svg version="1.1" id="Layer_1" xmlns="http://www.w3.org/2000/svg" xmlns:xlink="http://www.w3.org/1999/xlink" x="0px" y="0px"
	 viewBox="0 0 1966.4 438.5" style="enable-background:new 0 0 1966.4 438.5;" xml:space="preserve">
<style type="text/css">
	.st0{clip-path:url(#SVGID_2_);}
	.st1{fill:none;stroke:#EBEBEB;stroke-width:0.53;stroke-linejoin:round;stroke-miterlimit:10;}
	.st2{fill:none;stroke:#EBEBEB;stroke-width:1.07;stroke-linejoin:round;stroke-miterlimit:10;}
	.st3{opacity:0.5;fill:none;stroke:#1F77B4;stroke-width:0.71;stroke-linecap:round;stroke-linejoin:round;stroke-miterlimit:10;}
	.st4{fill:none;stroke:#1F77B4;stroke-width:2.13;stroke-linejoin:round;stroke-miterlimit:10;}
	.st5{opacity:0.5;fill:none;stroke:#F57E20;stroke-width:0.71;stroke-linecap:round;stroke-linejoin:round;stroke-miterlimit:10;}
	
		.st6{opacity:0.5;fill:none;stroke:#F57E20;stroke-width:0.71;stroke-linecap:round;stroke-linejoin:round;stroke-miterlimit:9.9985;}
	.st7{fill:none;stroke:#F57E20;stroke-width:2.13;stroke-linejoin:round;stroke-miterlimit:10;}
	.st8{opacity:0.3;fill:none;stroke:#231F20;stroke-miterlimit:10;}
	.st9{opacity:0.3;fill:none;stroke:#231F20;stroke-width:1;stroke-miterlimit:9.9985;}
	.st10{opacity:0.3;fill:none;stroke:#231F20;stroke-width:1;stroke-miterlimit:9.9999;}
	.st11{fill:none;stroke:#231F20;stroke-width:2.13;stroke-linejoin:round;stroke-miterlimit:10;}
	.st12{fill:#4D4D4D;}
	.st13{font-family:'ArialMT';}
	.st14{font-size:7.6001px;}
	.st15{fill:none;}
	.st16{font-size:18px;}
	.st17{fill:#1F77B4;}
	.st18{font-size:13px;}
	.st19{fill:#F57E20;}
	.st20{fill:#231F20;}
	.st21{font-family:'Arial-Black';}
	.st22{font-size:20px;}
	.st23{fill:none;stroke:#000000;stroke-width:3;stroke-miterlimit:10;}
	.st24{fill:#2278B5;}
	.st25{fill:#F57F20;}
	.st26{enable-background:new    ;}
	.st27{font-size:12px;}
	.st28{font-family:'Arial-BoldMT';}
	.st29{font-size:50px;}
	.st30{font-size:30px;}
	.st31{font-size:18.7527px;}
	.st32{font-size:16.8774px;}
	.st33{fill:none;stroke:#231F20;stroke-width:7;stroke-miterlimit:10;}
	.st34{fill:none;stroke:#000000;stroke-width:7;stroke-miterlimit:10;}
	.st35{fill:none;stroke:#F57E20;stroke-width:7;stroke-miterlimit:10;}
	.st36{fill:none;stroke:#1F77B4;stroke-width:7;stroke-miterlimit:10;}
	.st37{fill:#FFFFFF;stroke:#000000;stroke-miterlimit:10;}
</style>
<g>
	<g>
		<g>
			<g>
				<g>
					<defs>
						<rect id="SVGID_1_" x="1632" y="92.2" width="266.9" height="278.8"/>
					</defs>
					<clipPath id="SVGID_2_">
						<use xlink:href="#SVGID_1_"  style="display:none;overflow:visible;"/>
					</clipPath>
					<g class="st0">
						<line class="st1" x1="1632" y1="326.6" x2="1898.9" y2="326.6"/>
						<line class="st1" x1="1632" y1="263.2" x2="1898.9" y2="263.2"/>
						<line class="st1" x1="1632" y1="199.9" x2="1898.9" y2="199.9"/>
						<line class="st1" x1="1632" y1="136.5" x2="1898.9" y2="136.5"/>
						<line class="st1" x1="1670.7" y1="370.9" x2="1670.7" y2="92.2"/>
						<line class="st1" x1="1734" y1="370.9" x2="1734" y2="92.2"/>
						<line class="st1" x1="1797.3" y1="370.9" x2="1797.3" y2="92.2"/>
						<line class="st1" x1="1860.5" y1="370.9" x2="1860.5" y2="92.2"/>
						<line class="st2" x1="1632" y1="358.2" x2="1898.9" y2="358.2"/>
						<line class="st2" x1="1632" y1="294.9" x2="1898.9" y2="294.9"/>
						<line class="st2" x1="1632" y1="231.6" x2="1898.9" y2="231.6"/>
						<line class="st2" x1="1632" y1="168.2" x2="1898.9" y2="168.2"/>
						<line class="st2" x1="1632" y1="104.8" x2="1898.9" y2="104.8"/>
						<line class="st2" x1="1639.1" y1="370.9" x2="1639.1" y2="92.2"/>
						<line class="st2" x1="1702.3" y1="370.9" x2="1702.3" y2="92.2"/>
						<line class="st2" x1="1765.6" y1="370.9" x2="1765.6" y2="92.2"/>
						<line class="st2" x1="1828.9" y1="370.9" x2="1828.9" y2="92.2"/>
						<line class="st2" x1="1892.1" y1="370.9" x2="1892.1" y2="92.2"/>
						<circle class="st3" cx="1644.9" cy="277.3" r="1.6"/>
						<circle class="st3" cx="1644.2" cy="320.2" r="1.7"/>
						<circle class="st3" cx="1644.9" cy="306.5" r="1.6"/>
						<circle class="st3" cx="1649.5" cy="139.5" r="1.6"/>
						<circle class="st3" cx="1647.9" cy="121.6" r="1.7"/>
						<circle class="st3" cx="1644.2" cy="324.1" r="1.7"/>
						<circle class="st3" cx="1645.4" cy="286.9" r="1.6"/>
						<polyline class="st4" points="1644.2,337 1644.7,328.8 1645.1,315.7 1645.6,297.7 1646,274.9 1646.5,247.3 1647,214.8 
							1647.4,177.4 1647.9,135.3 1648.3,92.2 						"/>
						<circle class="st5" cx="1644.9" cy="348.2" r="1.7"/>
						<circle class="st5" cx="1644.2" cy="350.7" r="1.7"/>
						<circle class="st5" cx="1644.9" cy="350.4" r="1.7"/>
						
							<ellipse transform="matrix(3.328265e-02 -0.9994 0.9994 3.328265e-02 1245.6802 1986.0513)" class="st6" cx="1649.5" cy="349.1" rx="1.7" ry="1.6"/>
						
							<ellipse transform="matrix(3.328265e-02 -0.9994 0.9994 3.328265e-02 1244.6293 1986.0322)" class="st6" cx="1648.9" cy="349.6" rx="1.7" ry="1.6"/>
						<circle class="st5" cx="1647.9" cy="348" r="1.7"/>
						
							<ellipse transform="matrix(3.328265e-02 -0.9994 0.9994 3.328265e-02 1245.7047 1983.6194)" class="st6" cx="1648.2" cy="347.9" rx="1.7" ry="1.6"/>
						<circle class="st5" cx="1650.8" cy="345.8" r="1.7"/>
						<circle class="st5" cx="1644.2" cy="351.4" r="1.7"/>
						<circle class="st5" cx="1645.4" cy="350" r="1.7"/>
						
							<ellipse transform="matrix(3.328265e-02 -0.9994 0.9994 3.328265e-02 1246.6881 1984.6025)" class="st6" cx="1649.2" cy="347.9" rx="1.7" ry="1.6"/>
						<circle class="st5" cx="1757.5" cy="318.2" r="1.7"/>
						<circle class="st5" cx="1664.2" cy="343.9" r="1.7"/>
						<circle class="st5" cx="1658.1" cy="346.3" r="1.7"/>
						<circle class="st5" cx="1749.2" cy="324.5" r="1.7"/>
						<circle class="st5" cx="1653.3" cy="342.5" r="1.7"/>
						<circle class="st5" cx="1649.7" cy="343.1" r="1.7"/>
						<circle class="st5" cx="1651" cy="342.7" r="1.7"/>
						
							<ellipse transform="matrix(3.328265e-02 -0.9994 0.9994 3.328265e-02 1250.088 1981.6625)" class="st6" cx="1649.4" cy="344.6" rx="1.7" ry="1.6"/>
						<circle class="st5" cx="1649.7" cy="341.8" r="1.7"/>
						<circle class="st5" cx="1661.9" cy="340.3" r="1.7"/>
						<circle class="st5" cx="1658.6" cy="337.3" r="1.7"/>
						<circle class="st5" cx="1657.1" cy="338.3" r="1.7"/>
						<circle class="st5" cx="1664.7" cy="340.9" r="1.7"/>
						<circle class="st5" cx="1666.4" cy="340" r="1.7"/>
						<circle class="st5" cx="1651.7" cy="335.1" r="1.7"/>
						<circle class="st5" cx="1675.6" cy="338.2" r="1.7"/>
						<circle class="st5" cx="1677.8" cy="336.1" r="1.7"/>
						<circle class="st5" cx="1673.5" cy="332.3" r="1.7"/>
						<circle class="st5" cx="1657.1" cy="340.7" r="1.7"/>
						<circle class="st5" cx="1664.4" cy="325.3" r="1.7"/>
						<circle class="st5" cx="1677.6" cy="330.5" r="1.7"/>
						<circle class="st5" cx="1654.3" cy="328" r="1.7"/>
						<circle class="st5" cx="1660.9" cy="297.8" r="1.6"/>
						<circle class="st5" cx="1659.6" cy="318.9" r="1.7"/>
						<circle class="st5" cx="1688.4" cy="329.2" r="1.7"/>
						<circle class="st5" cx="1701.6" cy="322.2" r="1.7"/>
						<circle class="st5" cx="1656.1" cy="332" r="1.7"/>
						<circle class="st5" cx="1723.6" cy="319.3" r="1.7"/>
						<circle class="st5" cx="1885.8" cy="184.7" r="1.7"/>
						<circle class="st5" cx="1694.5" cy="319.7" r="1.7"/>
						<circle class="st5" cx="1721.3" cy="325.2" r="1.7"/>
						<circle class="st5" cx="1747.7" cy="309" r="1.7"/>
						<circle class="st5" cx="1658.6" cy="333.5" r="1.7"/>
						<circle class="st5" cx="1673.8" cy="329.7" r="1.7"/>
						<circle class="st5" cx="1663.4" cy="320.9" r="1.7"/>
						<circle class="st5" cx="1660.4" cy="325.5" r="1.7"/>
						<circle class="st5" cx="1664.4" cy="322.8" r="1.7"/>
						<circle class="st5" cx="1684.1" cy="319.1" r="1.7"/>
						<circle class="st5" cx="1662.4" cy="325.4" r="1.7"/>
						<circle class="st5" cx="1663.4" cy="323.4" r="1.7"/>
						<circle class="st5" cx="1708" cy="311.5" r="1.7"/>
						<circle class="st5" cx="1886.8" cy="109.3" r="1.7"/>
						<circle class="st5" cx="1659.6" cy="328" r="1.7"/>
						<circle class="st5" cx="1681.1" cy="317.8" r="1.7"/>
						<circle class="st5" cx="1712" cy="304.1" r="1.6"/>
						<circle class="st5" cx="1684.6" cy="322.5" r="1.7"/>
						<circle class="st5" cx="1740.3" cy="300.7" r="1.6"/>
						<circle class="st5" cx="1854.7" cy="194.2" r="1.7"/>
						<circle class="st5" cx="1710.5" cy="317.9" r="1.7"/>
						<circle class="st5" cx="1723.3" cy="305.8" r="1.6"/>
						<circle class="st5" cx="1665.9" cy="319" r="1.7"/>
						<circle class="st5" cx="1669.4" cy="317" r="1.7"/>
						<circle class="st5" cx="1674.5" cy="317.4" r="1.7"/>
						<circle class="st5" cx="1786.9" cy="284.2" r="1.6"/>
						<circle class="st5" cx="1668.5" cy="317.6" r="1.7"/>
						<circle class="st5" cx="1704.7" cy="309.6" r="1.7"/>
						<circle class="st5" cx="1704.4" cy="304.6" r="1.6"/>
						<circle class="st5" cx="1747.7" cy="299.7" r="1.6"/>
						<circle class="st5" cx="1675.1" cy="316.1" r="1.7"/>
						<circle class="st5" cx="1681.1" cy="300" r="1.6"/>
						<circle class="st5" cx="1711.2" cy="305.4" r="1.6"/>
						<circle class="st5" cx="1848.6" cy="185.8" r="1.7"/>
						<circle class="st5" cx="1692.2" cy="305.7" r="1.6"/>
						<circle class="st5" cx="1668" cy="308.2" r="1.7"/>
						<circle class="st5" cx="1670" cy="309.9" r="1.7"/>
						<circle class="st5" cx="1697.8" cy="304.2" r="1.6"/>
						<circle class="st5" cx="1687.7" cy="297.8" r="1.6"/>
						<circle class="st5" cx="1676.3" cy="306.9" r="1.6"/>
						<circle class="st5" cx="1680.1" cy="301.7" r="1.6"/>
						<circle class="st5" cx="1690" cy="301.2" r="1.6"/>
						<circle class="st5" cx="1703.1" cy="302.5" r="1.6"/>
						<circle class="st5" cx="1824.3" cy="194.2" r="1.7"/>
						<circle class="st5" cx="1676.1" cy="299.9" r="1.6"/>
						<polyline class="st7" points="1644.2,352.5 1647.2,347.5 1650.4,342.9 1653.4,338.6 1656.5,334.8 1659.5,331.1 1662.6,327.9 
							1665.6,325 1668.7,322.5 1671.9,320.2 1674.9,318.5 1678,317.1 1681,315.6 1684.1,314.2 1687.1,313.1 1690.3,312.1 
							1693.3,311.4 1696.4,310.7 1699.5,310.3 1702.5,310.1 1705.6,309.8 1708.6,309.7 1711.8,309.7 1714.8,309.7 1717.9,309.7 
							1720.9,309.7 1724,309.7 1727.1,309.7 1730.2,309.6 1733.3,309.5 1736.3,309.3 1739.4,308.8 1742.4,308.3 1745.5,307.6 
							1748.5,306.8 1751.7,305.7 1754.8,304.5 1757.8,303.1 1760.9,301.5 1763.9,299.8 1767,298 1770.1,295.9 1773.2,293.6 
							1776.3,291.3 1779.3,288.8 1782.4,286.2 1785.4,283.5 1788.5,280.5 1791.6,277.5 1794.7,274.3 1797.8,271 1800.8,267.7 
							1803.9,264.1 1806.9,260.5 1810,256.7 1813.1,252.9 1816.2,248.9 1819.2,244.9 1822.3,240.7 1825.4,236.5 1828.4,232.2 
							1831.5,227.8 1834.6,223.3 1837.7,218.8 1840.7,214.1 1843.8,209.4 1846.8,204.7 1849.9,199.9 1853,194.9 1856.1,190 
							1859.2,185 1862.2,180 1865.3,174.9 1868.3,169.8 1871.4,164.7 1874.5,159.5 1877.6,154.3 1880.7,149.1 1883.7,143.8 
							1886.8,138.5 						"/>
						<circle class="st8" cx="1644.9" cy="346.5" r="1.7"/>
						<circle class="st8" cx="1644.2" cy="351.3" r="1.7"/>
						<circle class="st8" cx="1644.9" cy="348.2" r="1.7"/>
						
							<ellipse transform="matrix(3.328265e-02 -0.9994 0.9994 3.328265e-02 1244.8209 1986.7864)" class="st9" cx="1649.4" cy="349.9" rx="1.7" ry="1.6"/>
						
							<ellipse transform="matrix(3.328265e-02 -0.9994 0.9994 3.328265e-02 1245.0566 1985.6793)" class="st9" cx="1649" cy="349.2" rx="1.7" ry="1.6"/>
						<circle class="st8" cx="1647.9" cy="350.5" r="1.7"/>
						
							<ellipse transform="matrix(3.328265e-02 -0.9994 0.9994 3.328265e-02 1245.9612 1983.4069)" class="st9" cx="1648.3" cy="347.6" rx="1.7" ry="1.6"/>
						<circle class="st8" cx="1650.8" cy="347.4" r="1.7"/>
						<circle class="st8" cx="1644.2" cy="351.6" r="1.7"/>
						<circle class="st8" cx="1645.4" cy="349.7" r="1.7"/>
						
							<ellipse transform="matrix(3.328265e-02 -0.9994 0.9994 3.328265e-02 1246.7822 1984.3551)" class="st9" cx="1649.2" cy="347.7" rx="1.7" ry="1.6"/>
						<circle class="st8" cx="1757.5" cy="341.2" r="1.7"/>
						<circle class="st8" cx="1664.2" cy="346" r="1.7"/>
						<circle class="st8" cx="1658.1" cy="345.5" r="1.7"/>
						<circle class="st8" cx="1749.2" cy="342.3" r="1.7"/>
						<circle class="st8" cx="1653.3" cy="341.1" r="1.7"/>
						<circle class="st8" cx="1649.7" cy="340.9" r="1.7"/>
						<circle class="st8" cx="1651" cy="342.9" r="1.7"/>
						
							<ellipse transform="matrix(3.328265e-02 -0.9994 0.9994 3.328265e-02 1250.0865 1981.7299)" class="st9" cx="1649.5" cy="344.7" rx="1.7" ry="1.6"/>
						<circle class="st8" cx="1649.7" cy="341.3" r="1.7"/>
						<circle class="st8" cx="1661.9" cy="342.3" r="1.7"/>
						<circle class="st8" cx="1658.6" cy="338.6" r="1.7"/>
						<circle class="st8" cx="1657.1" cy="340.6" r="1.7"/>
						<circle class="st8" cx="1664.7" cy="337.1" r="1.7"/>
						<circle class="st8" cx="1666.4" cy="340.5" r="1.7"/>
						<circle class="st8" cx="1651.7" cy="340.9" r="1.7"/>
						<circle class="st8" cx="1675.6" cy="341.2" r="1.7"/>
						<circle class="st8" cx="1677.8" cy="339.2" r="1.7"/>
						<circle class="st8" cx="1673.5" cy="336.6" r="1.7"/>
						<circle class="st8" cx="1657.1" cy="340.9" r="1.7"/>
						<circle class="st8" cx="1664.4" cy="329.6" r="1.7"/>
						<circle class="st8" cx="1677.6" cy="335.8" r="1.7"/>
						<circle class="st8" cx="1654.3" cy="324.9" r="1.7"/>
						<circle class="st8" cx="1660.9" cy="327.1" r="1.7"/>
						<circle class="st8" cx="1659.6" cy="332.8" r="1.7"/>
						<circle class="st8" cx="1688.4" cy="330.7" r="1.7"/>
						<circle class="st8" cx="1701.6" cy="330.4" r="1.7"/>
						<circle class="st8" cx="1656.1" cy="333.4" r="1.7"/>
						<circle class="st8" cx="1723.6" cy="328.9" r="1.7"/>
						<circle class="st8" cx="1885.8" cy="325.5" r="1.7"/>
						<circle class="st8" cx="1694.5" cy="322.8" r="1.7"/>
						<circle class="st8" cx="1721.3" cy="332.1" r="1.7"/>
						<circle class="st8" cx="1747.7" cy="327.9" r="1.7"/>
						<circle class="st8" cx="1658.6" cy="335.7" r="1.7"/>
						<circle class="st8" cx="1673.8" cy="332.6" r="1.7"/>
						<circle class="st8" cx="1663.4" cy="325.9" r="1.7"/>
						<circle class="st8" cx="1660.4" cy="327.8" r="1.7"/>
						<circle class="st8" cx="1664.4" cy="328.5" r="1.7"/>
						<circle class="st8" cx="1684.1" cy="314.9" r="1.7"/>
						<circle class="st8" cx="1662.4" cy="326.6" r="1.7"/>
						<circle class="st8" cx="1663.4" cy="325.7" r="1.7"/>
						<circle class="st8" cx="1708" cy="321.4" r="1.7"/>
						<circle class="st8" cx="1886.8" cy="313.9" r="1.7"/>
						<circle class="st8" cx="1659.6" cy="322.1" r="1.7"/>
						<circle class="st8" cx="1681.1" cy="321.6" r="1.7"/>
						<circle class="st8" cx="1712" cy="316.6" r="1.7"/>
						<circle class="st8" cx="1684.6" cy="324.8" r="1.7"/>
						<circle class="st8" cx="1740.3" cy="317.1" r="1.7"/>
						<circle class="st8" cx="1854.7" cy="321.8" r="1.7"/>
						<circle class="st8" cx="1710.5" cy="325.7" r="1.7"/>
						<circle class="st8" cx="1723.3" cy="317.8" r="1.7"/>
						<circle class="st8" cx="1665.9" cy="321.6" r="1.7"/>
						<circle class="st8" cx="1669.4" cy="322.9" r="1.7"/>
						<circle class="st8" cx="1674.5" cy="321.1" r="1.7"/>
						<circle class="st8" cx="1786.9" cy="311.7" r="1.7"/>
						<circle class="st8" cx="1668.5" cy="320.1" r="1.7"/>
						<circle class="st8" cx="1704.7" cy="318.9" r="1.7"/>
						<circle class="st8" cx="1704.4" cy="319.4" r="1.7"/>
						<circle class="st8" cx="1747.7" cy="315.2" r="1.7"/>
						<circle class="st8" cx="1675.1" cy="319.7" r="1.7"/>
						<circle class="st8" cx="1681.1" cy="319.8" r="1.7"/>
						<circle class="st8" cx="1711.2" cy="309" r="1.7"/>
						<circle class="st8" cx="1848.6" cy="307.1" r="1.7"/>
						<circle class="st8" cx="1692.2" cy="311.9" r="1.7"/>
						<circle class="st8" cx="1668" cy="310.7" r="1.7"/>
						<circle class="st8" cx="1670" cy="312.4" r="1.7"/>
						<circle class="st8" cx="1697.8" cy="313.3" r="1.7"/>
						<circle class="st8" cx="1687.7" cy="313.9" r="1.7"/>
						<circle class="st8" cx="1676.3" cy="303.4" r="1.6"/>
						
							<ellipse transform="matrix(0.2918 -0.9565 0.9565 0.2918 895.048 1825.2526)" class="st10" cx="1680.1" cy="308.2" rx="1.6" ry="1.6"/>
						<circle class="st8" cx="1690" cy="305.7" r="1.6"/>
						<circle class="st8" cx="1703.1" cy="308.3" r="1.6"/>
						<circle class="st8" cx="1824.3" cy="292.8" r="1.7"/>
						<circle class="st8" cx="1676.1" cy="306.6" r="1.6"/>
						<polyline class="st11" points="1644.2,351.6 1647.2,347.5 1650.4,343.6 1653.4,340 1656.5,336.7 1659.5,333.7 1662.6,331 
							1665.6,328.5 1668.7,326.4 1671.9,324.5 1674.9,322.8 1678,321.5 1681,320.2 1684.1,319.2 1687.1,318.5 1690.3,318 
							1693.3,317.7 1696.4,317.7 1699.5,317.7 1702.5,317.8 1705.6,318 1708.6,318.4 1711.8,318.9 1714.8,319.5 1717.9,320.1 
							1720.9,320.7 1724,321.4 1727.1,322 1730.2,322.6 1733.3,323.2 1736.3,323.6 1739.4,324 1742.4,324.3 1745.5,324.6 
							1748.5,324.7 1751.7,324.8 1754.8,324.9 1757.8,325 1760.9,325 1763.9,324.9 1767,324.8 1770.1,324.7 1773.2,324.6 
							1776.3,324.5 1779.3,324.2 1782.4,324 1785.4,323.8 1788.5,323.5 1791.6,323.2 1794.7,322.9 1797.8,322.6 1800.8,322.2 
							1803.9,321.9 1806.9,321.5 1810,321.2 1813.1,320.8 1816.2,320.4 1819.2,320.1 1822.3,319.6 1825.4,319.3 1828.4,319 
							1831.5,318.6 1834.6,318.3 1837.7,317.9 1840.7,317.6 1843.8,317.3 1846.8,317.1 1849.9,316.7 1853,316.5 1856.1,316.3 
							1859.2,316.1 1862.2,315.9 1865.3,315.8 1868.3,315.8 1871.4,315.7 1874.5,315.7 1877.6,315.7 1880.7,315.8 1883.7,315.8 
							1886.8,315.9 						"/>
					</g>
				</g>
			</g>
		</g>
	</g>
	<g>
		<g>
			<text transform="matrix(1 0 0 1 1608.7668 360.971)" class="st12 st13 st14">0.000</text>
			<text transform="matrix(1 0 0 1 1608.7668 297.6126)" class="st12 st13 st14">0.025</text>
			<text transform="matrix(1 0 0 1 1608.7668 234.2556)" class="st12 st13 st14">0.050</text>
			<text transform="matrix(1 0 0 1 1608.7668 170.8972)" class="st12 st13 st14">0.075</text>
			<text transform="matrix(1 0 0 1 1608.7668 107.5418)" class="st12 st13 st14">0.100</text>
			<rect x="1637" y="374.1" class="st15" width="4.2" height="9"/>
			<text transform="matrix(1 0 0 1 1637.0022 380.6175)" class="st12 st13 st14">0</text>
			<rect x="1696" y="374.1" class="st15" width="12.7" height="9"/>
			<text transform="matrix(1 0 0 1 1696.0188 380.6175)" class="st12 st13 st14">250</text>
			<rect x="1759.3" y="374.1" class="st15" width="12.7" height="9"/>
			<text transform="matrix(1 0 0 1 1759.2742 380.6175)" class="st12 st13 st14">500</text>
			<rect x="1822.5" y="374.1" class="st15" width="12.7" height="9"/>
			<text transform="matrix(1 0 0 1 1822.5164 380.6175)" class="st12 st13 st14">750</text>
			<rect x="1883.6" y="374.1" class="st15" width="16.9" height="9"/>
			<text transform="matrix(1 0 0 1 1883.658 380.6175)" class="st12 st13 st14">1000</text>
			<text transform="matrix(1 0 0 1 1694.7571 410.8479)" class="st13 st16">Number of Paths </text>
			<rect x="1574" y="117.8" class="st15" width="31.6" height="227.5"/>
			<text transform="matrix(0 -1 1 0 1568.8997 351.4919)" class="st13 st16">Time To Compute Covariance </text>
			<text transform="matrix(0 -1 1 0 1590.9387 296.9606)" class="st13 st16">Matrix (seconds)</text>
		</g>
	</g>
	<text transform="matrix(1 0 0 1 1655.9983 120.4695)" class="st17 st13 st18">Naive</text>
	<text transform="matrix(1 0 0 1 1742.4163 245.0467)" class="st19 st13 st18">Bottom-up</text>
	<text transform="matrix(1 0 0 1 1781.613 343.18)" class="st20 st13 st18">Minimal</text>
</g>
<g>
	<text transform="matrix(1 0 0 1 399.3242 135.1794)" class="st21 st22">Initialization:</text>
	<text transform="matrix(1 0 0 1 399.3242 162.7794)" class="st13 st16">Create an n x n</text>
	<text transform="matrix(1 0 0 1 399.3242 184.3794)" class="st13 st16">matrix of zeros</text>
	<path class="st23" d="M439.3,267.7h-12.5v90h12.5"/>
	<path class="st23" d="M501.8,267.7h12.5v90h-12.5"/>
	<text transform="matrix(1 0 0 1 439.954 293.0563)" class="st13 st22">0</text>
	<text transform="matrix(1 0 0 1 464.954 293.0561)" class="st13 st22">0</text>
	<text transform="matrix(1 0 0 1 489.9539 293.0561)" class="st13 st22">0</text>
	<text transform="matrix(1 0 0 1 439.9543 318.0559)" class="st13 st22">0</text>
	<text transform="matrix(1 0 0 1 464.9543 318.0562)" class="st13 st22">0</text>
	<text transform="matrix(1 0 0 1 489.9543 318.0562)" class="st13 st22">0</text>
	<text transform="matrix(1 0 0 1 439.9542 343.0559)" class="st13 st22">0</text>
	<text transform="matrix(1 0 0 1 464.9542 343.0562)" class="st13 st22">0</text>
	<text transform="matrix(1 0 0 1 489.954 343.056)" class="st13 st22">0</text>
	<text transform="matrix(1 0 0 1 439.954 253.0563)" class="st24 st13 st22">0</text>
	<text transform="matrix(1 0 0 1 464.9539 253.0561)" class="st25 st13 st22">1</text>
	<text transform="matrix(1 0 0 1 489.9539 253.0561)" class="st20 st13 st22">2</text>
	<text transform="matrix(1 0 0 1 565.7708 318.3703)" class="st13 st22">=&gt;</text>
	<text transform="matrix(1 0 0 1 1172.4237 318.3707)" class="st13 st22">=&gt; ... =&gt;</text>
	<text transform="matrix(1 0 0 1 627.3524 134.9387)" class="st21 st22">Loop through each node in ARG:</text>
	<text transform="matrix(1 0 0 1 761.3521 163.011)" class="st13 st16">Node 1:</text>
	<text transform="matrix(1 0 0 1 761.3521 178.6109)" class="st13 st18">Parent(s): 3</text>
	<text transform="matrix(1 0 0 1 761.3521 194.2109)" class="st13 st18">Time to Parent(s): 1</text>
	<text transform="matrix(1 0 0 1 1256.1196 163.0112)" class="st13 st16">Node 7:</text>
	<text transform="matrix(1 0 0 1 1256.1196 178.6112)" class="st13 st18">Parent(s): NA</text>
	<text transform="matrix(1 0 0 1 1256.1196 194.2112)" class="st13 st18">Time to Parent(s): NA</text>
	<g>
		<path class="st23" d="M1271,252.6h-12.5v120h12.5"/>
		<path class="st23" d="M1358.5,252.6h12.5v120h-12.5"/>
		<text transform="matrix(1 0 0 1 1271.6605 280.3888)" class="st13 st22">4</text>
		<text transform="matrix(1 0 0 1 1296.6605 280.3885)" class="st13 st22">2</text>
		<text transform="matrix(1 0 0 1 1321.6605 280.3885)" class="st13 st22">3</text>
		<text transform="matrix(1 0 0 1 1346.6609 280.3885)" class="st13 st22">0</text>
		<text transform="matrix(1 0 0 1 1271.6609 305.3884)" class="st13 st22">2</text>
		<text transform="matrix(1 0 0 1 1296.6609 305.3887)" class="st13 st22">4</text>
		<text transform="matrix(1 0 0 1 1321.6609 305.3887)" class="st13 st22">1</text>
		<text transform="matrix(1 0 0 1 1346.6609 305.3887)" class="st13 st22">1</text>
		<text transform="matrix(1 0 0 1 1271.6608 330.3884)" class="st13 st22">3</text>
		<text transform="matrix(1 0 0 1 1296.6608 330.3886)" class="st13 st22">1</text>
		<text transform="matrix(1 0 0 1 1321.6606 330.3885)" class="st13 st22">4</text>
		<text transform="matrix(1 0 0 1 1346.6606 330.3886)" class="st13 st22">0</text>
		<text transform="matrix(1 0 0 1 1271.6609 355.3888)" class="st13 st22">0</text>
		<text transform="matrix(1 0 0 1 1296.6609 355.3888)" class="st13 st22">1</text>
		<text transform="matrix(1 0 0 1 1321.6609 355.3884)" class="st13 st22">0</text>
		<text transform="matrix(1 0 0 1 1346.6609 355.3888)" class="st13 st22">4</text>
		<text transform="matrix(1 0 0 1 1270.3275 240.3888)" class="st26"><tspan x="0" y="0" class="st24 st13 st22">0</tspan><tspan x="11.1" y="0" class="st24 st13 st27">l</tspan></text>
		<text transform="matrix(1 0 0 1 1294.5785 240.3886)" class="st26"><tspan x="0" y="0" class="st24 st13 st22">0</tspan><tspan x="11.1" y="0" class="st24 st13 st27">r</tspan></text>
		<text transform="matrix(1 0 0 1 1320.3275 240.3886)" class="st26"><tspan x="0" y="0" class="st25 st13 st22">1</tspan><tspan x="11.1" y="0" class="st25 st13 st27">l</tspan></text>
		<text transform="matrix(1 0 0 1 1346.6604 240.3886)" class="st20 st13 st22">2</text>
	</g>
	<path class="st23" d="M784.6,267.7h-12.5v90h12.5"/>
	<path class="st23" d="M847.1,267.7h12.5v90h-12.5"/>
	<text transform="matrix(1 0 0 1 785.2569 293.0563)" class="st13 st22">1</text>
	<text transform="matrix(1 0 0 1 810.2569 293.0561)" class="st13 st22">0</text>
	<text transform="matrix(1 0 0 1 835.2568 293.0561)" class="st13 st22">0</text>
	<text transform="matrix(1 0 0 1 785.2573 318.0559)" class="st13 st22">0</text>
	<text transform="matrix(1 0 0 1 810.2573 318.0562)" class="st28 st22">1</text>
	<text transform="matrix(1 0 0 1 835.2572 318.0562)" class="st13 st22">0</text>
	<text transform="matrix(1 0 0 1 785.2571 343.0559)" class="st13 st22">0</text>
	<text transform="matrix(1 0 0 1 810.2571 343.0562)" class="st13 st22">0</text>
	<text transform="matrix(1 0 0 1 835.257 343.056)" class="st13 st22">0</text>
	<text transform="matrix(1 0 0 1 785.2568 253.0563)" class="st24 st13 st22">0</text>
	<text transform="matrix(1 0 0 1 810.2568 253.0561)" class="st25 st13 st22">1</text>
	<text transform="matrix(1 0 0 1 835.2568 253.0561)" class="st20 st13 st22">2</text>
	<g>
		<text transform="matrix(1 0 0 1 627.3521 163.0107)" class="st13 st16">Node 0:</text>
		<text transform="matrix(1 0 0 1 627.3521 178.6107)" class="st13 st18">Parent(s): 3</text>
		<text transform="matrix(1 0 0 1 627.3521 194.2107)" class="st13 st18">Time to Parent(s): 1</text>
		<path class="st23" d="M644.4,267.7h-12.5v90h12.5"/>
		<path class="st23" d="M706.9,267.7h12.5v90h-12.5"/>
		<text transform="matrix(1 0 0 1 645.0628 293.0563)" class="st28 st22">1</text>
		<text transform="matrix(1 0 0 1 670.0628 293.0561)" class="st13 st22">0</text>
		<text transform="matrix(1 0 0 1 695.0628 293.0561)" class="st13 st22">0</text>
		<text transform="matrix(1 0 0 1 645.0632 318.0559)" class="st13 st22">0</text>
		<text transform="matrix(1 0 0 1 670.0632 318.0562)" class="st13 st22">0</text>
		<text transform="matrix(1 0 0 1 695.0632 318.0562)" class="st13 st22">0</text>
		<text transform="matrix(1 0 0 1 645.063 343.0559)" class="st13 st22">0</text>
		<text transform="matrix(1 0 0 1 670.063 343.0562)" class="st13 st22">0</text>
		<text transform="matrix(1 0 0 1 695.0629 343.056)" class="st13 st22">0</text>
		<text transform="matrix(1 0 0 1 645.0627 253.0563)" class="st24 st13 st22">0</text>
		<text transform="matrix(1 0 0 1 670.0628 253.0561)" class="st25 st13 st22">1</text>
		<text transform="matrix(1 0 0 1 695.0627 253.0561)" class="st20 st13 st22">2</text>
		<text transform="matrix(1 0 0 1 734.3762 318.3703)" class="st13 st22">=&gt;</text>
	</g>
	<text transform="matrix(1 0 0 1 900.3188 163.011)" class="st13 st16">Node 2:</text>
	<text transform="matrix(1 0 0 1 900.3188 178.6109)" class="st13 st18">Parent(s): 6</text>
	<text transform="matrix(1 0 0 1 900.3188 194.2109)" class="st13 st18">Time to Parent(s): 3</text>
	<path class="st23" d="M923.5,267.7H911v90h12.5"/>
	<path class="st23" d="M986,267.7h12.5v90H986"/>
	<text transform="matrix(1 0 0 1 924.2237 293.0563)" class="st13 st22">1</text>
	<text transform="matrix(1 0 0 1 949.2237 293.0561)" class="st13 st22">0</text>
	<text transform="matrix(1 0 0 1 974.2237 293.0561)" class="st13 st22">0</text>
	<text transform="matrix(1 0 0 1 924.2241 318.0559)" class="st13 st22">0</text>
	<text transform="matrix(1 0 0 1 949.2241 318.0562)" class="st13 st22">1</text>
	<text transform="matrix(1 0 0 1 974.2241 318.0562)" class="st13 st22">0</text>
	<text transform="matrix(1 0 0 1 924.2239 343.0559)" class="st13 st22">0</text>
	<text transform="matrix(1 0 0 1 949.2239 343.0562)" class="st13 st22">0</text>
	<text transform="matrix(1 0 0 1 974.2238 343.056)" class="st28 st22">3</text>
	<text transform="matrix(1 0 0 1 924.2236 253.0563)" class="st24 st13 st22">0</text>
	<text transform="matrix(1 0 0 1 949.2237 253.0561)" class="st25 st13 st22">1</text>
	<text transform="matrix(1 0 0 1 974.2236 253.0561)" class="st20 st13 st22">2</text>
	<text transform="matrix(1 0 0 1 873.343 318.3703)" class="st13 st22">=&gt;</text>
	<text transform="matrix(1 0 0 1 1041.0923 163.011)" class="st13 st16">Node 3:</text>
	<text transform="matrix(1 0 0 1 1041.0923 178.6109)" class="st13 st18">Parent(s): 4 and 5</text>
	<text transform="matrix(1 0 0 1 1041.0923 194.2109)" class="st13 st18">Time to Parent(s): </text>
	<text transform="matrix(1 0 0 1 1014.1164 318.3703)" class="st13 st22">=&gt;</text>
	<path class="st23" d="M1058.8,252.6h-12.5v120h12.5"/>
	<path class="st23" d="M1146.3,252.6h12.5v120h-12.5"/>
	<text transform="matrix(1 0 0 1 1059.4933 280.3888)" class="st28 st22">2</text>
	<text transform="matrix(1 0 0 1 1084.4933 280.3885)" class="st28 st22">2</text>
	<text transform="matrix(1 0 0 1 1109.4933 280.3885)" class="st28 st22">1</text>
	<text transform="matrix(1 0 0 1 1134.4935 280.3885)" class="st13 st22">0</text>
	<text transform="matrix(1 0 0 1 1059.4937 305.3884)" class="st28 st22">2</text>
	<text transform="matrix(1 0 0 1 1084.4937 305.3887)" class="st28 st22">2</text>
	<text transform="matrix(1 0 0 1 1109.4937 305.3887)" class="st28 st22">1</text>
	<text transform="matrix(1 0 0 1 1134.4935 305.3887)" class="st13 st22">0</text>
	<text transform="matrix(1 0 0 1 1059.4935 330.3884)" class="st28 st22">1</text>
	<text transform="matrix(1 0 0 1 1084.4935 330.3886)" class="st28 st22">1</text>
	<text transform="matrix(1 0 0 1 1109.4934 330.3885)" class="st28 st22">2</text>
	<text transform="matrix(1 0 0 1 1134.4933 330.3886)" class="st13 st22">0</text>
	<text transform="matrix(1 0 0 1 1059.4937 355.3888)" class="st13 st22">0</text>
	<text transform="matrix(1 0 0 1 1084.4937 355.3888)" class="st13 st22">0</text>
	<text transform="matrix(1 0 0 1 1109.4937 355.3884)" class="st13 st22">0</text>
	<text transform="matrix(1 0 0 1 1134.4935 355.3888)" class="st13 st22">3</text>
	<text transform="matrix(1 0 0 1 1058.1603 240.3888)" class="st26"><tspan x="0" y="0" class="st24 st13 st22">0</tspan><tspan x="11.1" y="0" class="st24 st13 st27">l</tspan></text>
	<text transform="matrix(1 0 0 1 1082.4113 240.3886)" class="st26"><tspan x="0" y="0" class="st24 st13 st22">0</tspan><tspan x="11.1" y="0" class="st24 st13 st27">r</tspan></text>
	<text transform="matrix(1 0 0 1 1108.1603 240.3886)" class="st26"><tspan x="0" y="0" class="st25 st13 st22">1</tspan><tspan x="11.1" y="0" class="st25 st13 st27">l</tspan></text>
	<text transform="matrix(1 0 0 1 1134.493 240.3886)" class="st20 st13 st22">2</text>
</g>
<line class="st23" x1="1474" y1="30.2" x2="1474" y2="414.7"/>
<text transform="matrix(1 0 0 1 66.6142 61.0131)"><tspan x="0" y="0" class="st13 st29">A. </tspan><tspan x="61.1" y="0" class="st13 st30">“Minimal” algorithm for calculating the paths covariance matrix</tspan></text>
<text transform="matrix(1 0 0 1 1525.8474 61.0127)"><tspan x="0" y="0" class="st13 st29">B. </tspan><tspan x="61.1" y="0" class="st13 st30">Benchmarks of Algorithms</tspan></text>
<g>
	<text transform="matrix(1 0 0 1 220.2925 294.1383)" class="st13 st31">3</text>
	<text transform="matrix(1 0 0 1 199.379 237.6037)" class="st13 st31">4/5</text>
	<text transform="matrix(1 0 0 1 276.8707 181.1799)" class="st13 st31">6</text>
	<text transform="matrix(1 0 0 1 235.501 125.1798)" class="st13 st31">7</text>
	<path class="st23" d="M134.7,358.6v-225"/>
	<path class="st23" d="M120.6,302.4h28.1"/>
	<path class="st23" d="M120.6,246.1h28.1"/>
	<path class="st23" d="M120.6,189.9h28.1"/>
	<path class="st23" d="M120.6,133.6h28.1"/>
	<path class="st23" d="M120.6,358.6h28.1"/>
	<text transform="matrix(1 0 0 1 102.2403 363.2624)" class="st13 st31">0</text>
	<text transform="matrix(1 0 0 1 102.2403 308.4372)" class="st13 st31">1</text>
	<text transform="matrix(1 0 0 1 102.9151 251.5036)" class="st13 st31">2</text>
	<text transform="matrix(1 0 0 1 102.9151 194.9992)" class="st13 st31">3</text>
	<text transform="matrix(1 0 0 1 102.9151 139.0666)" class="st13 st31">4</text>
	<text transform="matrix(0 -1 1 0 78.9009 312.0954)" class="st13 st32">Time (generations)</text>
	<g>
		<g>
			<g transform="translate(1841.25, 1215)">
				<g>
					<path class="st33" d="M-1657-856.5v-56.3h28.1"/>
					<path class="st34" d="M-1600.8-856.5v-56.3h-28.1"/>
					<path class="st33" d="M-1628.9-912.8V-969"/>
					<path class="st35" d="M-1628.9-969h28.1v-56.3h28.1"/>
					<path class="st34" d="M-1544.5-856.5v-168.8h-28.1"/>
					<path class="st36" d="M-1628.9-969h-28.1v-112.5h56.3"/>
					<path class="st34" d="M-1572.6-1025.3v-56.3h-28.1"/>
				</g>
			</g>
			<text transform="matrix(1 0 0 1 179.3155 380.7848)" class="st13 st31">0</text>
			<text transform="matrix(1 0 0 1 236.0616 380.7848)" class="st13 st31">1</text>
			<text transform="matrix(1 0 0 1 292.148 381.0094)" class="st13 st31">2</text>
			<circle class="st37" cx="212.4" cy="302.2" r="4.7"/>
			<circle class="st37" cx="212.4" cy="246" r="4.7"/>
			<circle class="st37" cx="268.6" cy="189.7" r="4.7"/>
			<circle class="st37" cx="296.7" cy="357.6" r="4.7"/>
			<circle class="st37" cx="240.5" cy="358.5" r="4.7"/>
			<circle class="st37" cx="240.5" cy="133.4" r="4.7"/>
		</g>
		<circle class="st37" cx="184.2" cy="358.5" r="4.7"/>
	</g>
</g>
</svg>
