<?xml version="1.0" encoding="utf-8"?>
<!-- Generator: Adobe Illustrator 25.2.1, SVG Export Plug-In . SVG Version: 6.00 Build 0)  -->
<svg version="1.1" id="Layer_1" xmlns="http://www.w3.org/2000/svg" xmlns:xlink="http://www.w3.org/1999/xlink" x="0px" y="0px"
	 viewBox="0 0 1000 500" style="enable-background:new 0 0 1000 500;" xml:space="preserve">
<style type="text/css">
	.st0{fill:none;}
	.st1{clip-path:url(#SVGID_2_);}
	.st2{fill:none;stroke:#EBEBEB;stroke-width:0.53;stroke-linejoin:round;stroke-miterlimit:10;}
	.st3{fill:none;stroke:#EBEBEB;stroke-width:1.07;stroke-linejoin:round;stroke-miterlimit:10;}
	
		.st4{fill:none;stroke:#2278B5;stroke-width:0.71;stroke-linecap:round;stroke-linejoin:round;stroke-miterlimit:10;stroke-opacity:0.5;}
	.st5{fill:none;stroke:#2278B5;stroke-width:2.13;stroke-linejoin:round;stroke-miterlimit:10;}
	
		.st6{fill:none;stroke:#F57E20;stroke-width:0.71;stroke-linecap:round;stroke-linejoin:round;stroke-miterlimit:10;stroke-opacity:0.5;}
	
		.st7{fill:none;stroke:#F57E20;stroke-width:0.71;stroke-linecap:round;stroke-linejoin:round;stroke-miterlimit:9.999;stroke-opacity:0.5;}
	.st8{fill:none;stroke:#F57E20;stroke-width:2.13;stroke-linejoin:round;stroke-miterlimit:10;}
	.st9{fill:none;stroke:#231F20;stroke-miterlimit:10;stroke-opacity:0.3;}
	.st10{fill:none;stroke:#231F20;stroke-width:1;stroke-miterlimit:9.999;stroke-opacity:0.3;}
	.st11{fill:none;stroke:#231F20;stroke-width:1;stroke-miterlimit:9.9997;stroke-opacity:0.3;}
	.st12{fill:none;stroke:#231F20;stroke-width:2.13;stroke-linejoin:round;stroke-miterlimit:10;}
	.st13{fill:#4E4E4E;}
	.st14{font-family:'ArialMT';}
	.st15{font-size:6.3709px;}
	.st16{fill:#010101;}
	.st17{font-size:10.8595px;}
	.st18{fill:#2278B5;}
	.st19{fill:#F57E20;}
	.st20{fill:#231F20;}
</style>
<g>
	<rect x="685.8" y="178.7" class="st0" width="260.6" height="260.6"/>
	<g>
		<g>
			<g>
				<defs>
					<rect id="SVGID_1_" x="718.8" y="182.7" width="223.7" height="233.7"/>
				</defs>
				<clipPath id="SVGID_2_">
					<use xlink:href="#SVGID_1_"  style="overflow:visible;"/>
				</clipPath>
				<g class="st1">
					<line class="st2" x1="718.8" y1="379.2" x2="942.5" y2="379.2"/>
					<line class="st2" x1="718.8" y1="326.1" x2="942.5" y2="326.1"/>
					<line class="st2" x1="718.8" y1="273" x2="942.5" y2="273"/>
					<line class="st2" x1="718.8" y1="219.8" x2="942.5" y2="219.8"/>
					<line class="st2" x1="751.2" y1="416.4" x2="751.2" y2="182.7"/>
					<line class="st2" x1="804.2" y1="416.4" x2="804.2" y2="182.7"/>
					<line class="st2" x1="857.3" y1="416.4" x2="857.3" y2="182.7"/>
					<line class="st2" x1="910.3" y1="416.4" x2="910.3" y2="182.7"/>
					<line class="st3" x1="718.8" y1="405.7" x2="942.5" y2="405.7"/>
					<line class="st3" x1="718.8" y1="352.6" x2="942.5" y2="352.6"/>
					<line class="st3" x1="718.8" y1="299.5" x2="942.5" y2="299.5"/>
					<line class="st3" x1="718.8" y1="246.4" x2="942.5" y2="246.4"/>
					<line class="st3" x1="718.8" y1="193.3" x2="942.5" y2="193.3"/>
					<line class="st3" x1="724.7" y1="416.4" x2="724.7" y2="182.7"/>
					<line class="st3" x1="777.7" y1="416.4" x2="777.7" y2="182.7"/>
					<line class="st3" x1="830.8" y1="416.4" x2="830.8" y2="182.7"/>
					<line class="st3" x1="883.8" y1="416.4" x2="883.8" y2="182.7"/>
					<line class="st3" x1="936.8" y1="416.4" x2="936.8" y2="182.7"/>
					<circle class="st4" cx="729.6" cy="337.9" r="1.4"/>
					<circle class="st4" cx="729" cy="373.9" r="1.4"/>
					<circle class="st4" cx="729.6" cy="362.4" r="1.4"/>
					<circle class="st4" cx="733.4" cy="222.4" r="1.4"/>
					<circle class="st4" cx="733" cy="73" r="1.4"/>
					<circle class="st4" cx="732.1" cy="207.4" r="1.4"/>
					<circle class="st4" cx="732.3" cy="150.5" r="1.4"/>
					<circle class="st4" cx="734.5" cy="-183.2" r="1.4"/>
					<circle class="st4" cx="729" cy="377.1" r="1.4"/>
					<circle class="st4" cx="730" cy="345.9" r="1.4"/>
					<circle class="st4" cx="733.2" cy="67.1" r="1.4"/>
					<circle class="st4" cx="745.7" cy="-3055.6" r="1.4"/>
					<circle class="st4" cx="740.6" cy="-1071.3" r="1.4"/>
					<circle class="st4" cx="736.6" cy="-222.9" r="1.4"/>
					<circle class="st4" cx="733.6" cy="93.6" r="1.4"/>
					<circle class="st4" cx="734.7" cy="100.8" r="1.4"/>
					<circle class="st4" cx="733.4" cy="149.6" r="1.4"/>
					<circle class="st4" cx="733.6" cy="163.1" r="1.4"/>
					<circle class="st4" cx="743.8" cy="-2139.3" r="1.4"/>
					<circle class="st4" cx="741" cy="-795" r="1.4"/>
					<circle class="st4" cx="739.8" cy="-1767.4" r="1.4"/>
					<circle class="st4" cx="746.1" cy="-3101.8" r="1.4"/>
					<circle class="st4" cx="747.6" cy="-3920.3" r="1.4"/>
					<circle class="st4" cx="735.3" cy="-0.9" r="1.4"/>
					<circle class="st4" cx="753.5" cy="-9613.3" r="1.4"/>
					<circle class="st4" cx="739.8" cy="-1376.7" r="1.4"/>
					<circle class="st4" cx="745.9" cy="-6767.1" r="1.4"/>
					<circle class="st4" cx="737.5" cy="-1543.5" r="1.4"/>
					<circle class="st4" cx="743" cy="-2017.3" r="1.4"/>
					<circle class="st4" cx="741.9" cy="-1641.3" r="1.4"/>
					<circle class="st4" cx="738.9" cy="-868.8" r="1.4"/>
					<circle class="st4" cx="741" cy="-2179.7" r="1.4"/>
					<circle class="st4" cx="745.1" cy="-2482.4" r="1.4"/>
					<circle class="st4" cx="742.5" cy="-1996.4" r="1.4"/>
					<circle class="st4" cx="745.9" cy="-4670.3" r="1.4"/>
					<circle class="st4" cx="744.2" cy="-6272.2" r="1.4"/>
					<circle class="st4" cx="745.1" cy="-4570.2" r="1.4"/>
					<circle class="st4" cx="741.9" cy="-1223.5" r="1.4"/>
					<circle class="st4" cx="759.9" cy="-10015.8" r="1.4"/>
					<circle class="st4" cx="747.2" cy="-4278.6" r="1.4"/>
					<circle class="st4" cx="750.1" cy="-5293.2" r="1.4"/>
					<circle class="st4" cx="749.3" cy="-4167.4" r="1.4"/>
					<circle class="st4" cx="750.6" cy="-7955.5" r="1.4"/>
					<polyline class="st5" points="729,387.9 729.4,381 729.7,370 730.1,355 730.5,335.9 730.9,312.7 731.3,285.5 731.7,254.1 
						732.1,218.8 732.5,178.7 732.9,133.7 733.3,85.3 733.6,33.5 734.1,-25.5 734.4,-91.1 734.9,-162 735.2,-237.1 735.7,-315.3 
						736,-395.3 736.4,-476.1 736.8,-555.8 737.2,-630.2 737.6,-701.4 738,-772 738.3,-845 738.8,-922.9 739.1,-1008.7 739.6,-1105 
						739.9,-1214.6 740.3,-1340.3 740.7,-1485.3 741.1,-1658.2 741.5,-1853.4 741.9,-2060 742.2,-2267.3 742.7,-2464.2 743,-2640.9 
						743.5,-2808 743.8,-2973.2 744.3,-3139.2 744.6,-3308.8 745,-3484.6 745.4,-3669.3 745.8,-3865.6 746.2,-4073.9 746.6,-4290.7 
						746.9,-4512.3 747.4,-4735.1 747.7,-4955.4 748.2,-5172.3 748.5,-5385.9 749,-5596.3 749.3,-5803.7 749.7,-6008.1 
						750.1,-6209.5 750.5,-6408.2 750.9,-6604.1 751.3,-6797.3 751.7,-6988.1 752.1,-7176.2 752.4,-7362.2 752.9,-7545.7 
						753.2,-7727 753.7,-7906.2 754,-8083.4 754.4,-8258.7 754.8,-8432 755.2,-8603.6 755.6,-8773.5 756,-8941.8 756.4,-9108.6 
						756.8,-9274 757.2,-9438 757.6,-9600.8 757.9,-9762.3 758.4,-9922.9 758.7,-10082.4 					"/>
					<circle class="st6" cx="729.6" cy="397.3" r="1.4"/>
					<circle class="st6" cx="729" cy="399.4" r="1.4"/>
					<circle class="st6" cx="729.6" cy="399.1" r="1.4"/>
					
						<ellipse transform="matrix(3.328112e-02 -0.9994 0.9994 3.328112e-02 311.1639 1117.8164)" class="st7" cx="733.4" cy="398.1" rx="1.4" ry="1.4"/>
					
						<ellipse transform="matrix(3.328112e-02 -0.9994 0.9994 3.328112e-02 310.2956 1117.8153)" class="st7" cx="733" cy="398.5" rx="1.4" ry="1.4"/>
					<circle class="st6" cx="732.1" cy="397.1" r="1.4"/>
					
						<ellipse transform="matrix(3.328112e-02 -0.9994 0.9994 3.328112e-02 311.1695 1115.735)" class="st7" cx="732.3" cy="397" rx="1.4" ry="1.4"/>
					<circle class="st6" cx="734.5" cy="395.3" r="1.4"/>
					<circle class="st6" cx="729" cy="400" r="1.4"/>
					<circle class="st6" cx="730" cy="398.8" r="1.4"/>
					
						<ellipse transform="matrix(3.328112e-02 -0.9994 0.9994 3.328112e-02 312.0512 1116.5917)" class="st7" cx="733.2" cy="397" rx="1.4" ry="1.4"/>
					<circle class="st6" cx="824" cy="372.1" r="1.4"/>
					<circle class="st6" cx="745.7" cy="393.7" r="1.4"/>
					<circle class="st6" cx="740.6" cy="395.7" r="1.4"/>
					<circle class="st6" cx="817" cy="377.4" r="1.4"/>
					<circle class="st6" cx="736.6" cy="392.6" r="1.4"/>
					<circle class="st6" cx="733.6" cy="393.1" r="1.4"/>
					<circle class="st6" cx="734.7" cy="392.7" r="1.4"/>
					
						<ellipse transform="matrix(3.328112e-02 -0.9994 0.9994 3.328112e-02 314.8745 1114.1199)" class="st7" cx="733.4" cy="394.3" rx="1.4" ry="1.4"/>
					<circle class="st6" cx="733.6" cy="392" r="1.4"/>
					<circle class="st6" cx="743.8" cy="390.7" r="1.4"/>
					<circle class="st6" cx="741" cy="388.1" r="1.4"/>
					<circle class="st6" cx="739.8" cy="389" r="1.4"/>
					<circle class="st6" cx="746.1" cy="391.2" r="1.4"/>
					<circle class="st6" cx="747.6" cy="390.5" r="1.4"/>
					<circle class="st6" cx="735.3" cy="386.3" r="1.4"/>
					<circle class="st6" cx="755.3" cy="388.9" r="1.4"/>
					<circle class="st6" cx="757.2" cy="387.2" r="1.4"/>
					<circle class="st6" cx="753.5" cy="384" r="1.4"/>
					<circle class="st6" cx="739.8" cy="391" r="1.4"/>
					<circle class="st6" cx="745.9" cy="378.2" r="1.4"/>
					<circle class="st6" cx="756.9" cy="382.5" r="1.4"/>
					<circle class="st6" cx="737.5" cy="380.4" r="1.4"/>
					<circle class="st6" cx="743" cy="355.1" r="1.4"/>
					<circle class="st6" cx="741.9" cy="372.7" r="1.4"/>
					<circle class="st6" cx="766.1" cy="381.4" r="1.4"/>
					<circle class="st6" cx="777.1" cy="375.5" r="1.4"/>
					<circle class="st6" cx="738.9" cy="383.7" r="1.4"/>
					<circle class="st6" cx="795.5" cy="373.1" r="1.4"/>
					<circle class="st6" cx="931.5" cy="260.2" r="1.4"/>
					<circle class="st6" cx="771.1" cy="373.4" r="1.4"/>
					<circle class="st6" cx="793.6" cy="378" r="1.4"/>
					<circle class="st6" cx="815.7" cy="364.5" r="1.4"/>
					<circle class="st6" cx="741" cy="385" r="1.4"/>
					<circle class="st6" cx="753.8" cy="381.8" r="1.4"/>
					<circle class="st6" cx="745.1" cy="374.4" r="1.4"/>
					<circle class="st6" cx="742.5" cy="378.3" r="1.4"/>
					<circle class="st6" cx="745.9" cy="376" r="1.4"/>
					<circle class="st6" cx="762.4" cy="372.9" r="1.4"/>
					<circle class="st6" cx="744.2" cy="378.2" r="1.4"/>
					<circle class="st6" cx="745.1" cy="376.5" r="1.4"/>
					<circle class="st6" cx="782.4" cy="366.6" r="1.4"/>
					<circle class="st6" cx="932.4" cy="197.1" r="1.4"/>
					<circle class="st6" cx="741.9" cy="380.4" r="1.4"/>
					<circle class="st6" cx="759.9" cy="371.9" r="1.4"/>
					<circle class="st6" cx="785.8" cy="360.3" r="1.4"/>
					<circle class="st6" cx="762.9" cy="375.8" r="1.4"/>
					<circle class="st6" cx="809.6" cy="357.5" r="1.4"/>
					<circle class="st6" cx="905.4" cy="268.3" r="1.4"/>
					<circle class="st6" cx="784.5" cy="371.9" r="1.4"/>
					<circle class="st6" cx="795.3" cy="361.8" r="1.4"/>
					<circle class="st6" cx="747.2" cy="372.8" r="1.4"/>
					<circle class="st6" cx="750.1" cy="371.1" r="1.4"/>
					<circle class="st6" cx="754.4" cy="371.5" r="1.4"/>
					<circle class="st6" cx="848.6" cy="343.7" r="1.4"/>
					<circle class="st6" cx="749.3" cy="371.6" r="1.4"/>
					<circle class="st6" cx="779.7" cy="365" r="1.4"/>
					<circle class="st6" cx="779.5" cy="360.8" r="1.4"/>
					<circle class="st6" cx="815.7" cy="356.7" r="1.4"/>
					<circle class="st6" cx="754.8" cy="370.4" r="1.4"/>
					<circle class="st6" cx="759.9" cy="356.9" r="1.4"/>
					<circle class="st6" cx="785.2" cy="361.4" r="1.4"/>
					<circle class="st6" cx="900.3" cy="261.2" r="1.4"/>
					<circle class="st6" cx="769.2" cy="361.7" r="1.4"/>
					<circle class="st6" cx="748.9" cy="363.7" r="1.4"/>
					<circle class="st6" cx="750.6" cy="365.2" r="1.4"/>
					<circle class="st6" cx="773.9" cy="360.4" r="1.4"/>
					<circle class="st6" cx="765.4" cy="355.1" r="1.4"/>
					<circle class="st6" cx="755.9" cy="362.7" r="1.4"/>
					<circle class="st6" cx="759" cy="358.3" r="1.4"/>
					<circle class="st6" cx="767.4" cy="357.9" r="1.4"/>
					<circle class="st6" cx="778.4" cy="359" r="1.4"/>
					<circle class="st6" cx="879.9" cy="268.2" r="1.4"/>
					<circle class="st6" cx="755.7" cy="356.8" r="1.4"/>
					<polyline class="st8" points="729,401 731.5,396.8 734.1,392.8 736.7,389.3 739.3,386 741.8,383 744.4,380.3 746.9,377.9 
						749.6,375.8 752.2,373.9 754.7,372.4 757.3,371.2 759.8,370 762.4,368.8 765,367.9 767.6,367.1 770.1,366.4 772.7,365.9 
						775.3,365.6 777.9,365.3 780.5,365.1 783,365 785.6,365 788.1,365 790.7,365 793.3,365 795.9,365 798.5,365 801,365 
						803.6,364.8 806.2,364.7 808.8,364.3 811.3,363.9 813.9,363.3 816.4,362.6 819.1,361.7 821.7,360.7 824.2,359.5 826.8,358.2 
						829.3,356.7 831.9,355.2 834.5,353.5 837.1,351.6 839.7,349.6 842.2,347.5 844.8,345.4 847.4,343 850,340.6 852.5,338 
						855.1,335.4 857.7,332.6 860.2,329.8 862.9,326.8 865.4,323.8 868,320.6 870.5,317.4 873.1,314.1 875.7,310.7 878.3,307.2 
						880.9,303.7 883.4,300 886,296.3 888.6,292.6 891.2,288.8 893.7,284.9 896.3,281 898.8,277 901.4,273 904,268.8 906.6,264.7 
						909.2,260.5 911.7,256.3 914.3,252 916.9,247.8 919.5,243.5 922,239.2 924.6,234.8 927.2,230.4 929.7,226 932.4,221.6 					"/>
					<circle class="st9" cx="729.6" cy="395.9" r="1.4"/>
					<circle class="st9" cx="729" cy="399.9" r="1.4"/>
					<circle class="st9" cx="729.6" cy="397.3" r="1.4"/>
					
						<ellipse transform="matrix(3.328112e-02 -0.9994 0.9994 3.328112e-02 310.4736 1118.403)" class="st10" cx="733.4" cy="398.7" rx="1.4" ry="1.4"/>
					
						<ellipse transform="matrix(3.328112e-02 -0.9994 0.9994 3.328112e-02 310.6836 1117.4943)" class="st10" cx="733" cy="398.1" rx="1.4" ry="1.4"/>
					<circle class="st9" cx="732.1" cy="399.2" r="1.4"/>
					
						<ellipse transform="matrix(3.328112e-02 -0.9994 0.9994 3.328112e-02 311.402 1115.542)" class="st10" cx="732.4" cy="396.8" rx="1.4" ry="1.4"/>
					<circle class="st9" cx="734.5" cy="396.6" r="1.4"/>
					<circle class="st9" cx="729" cy="400.2" r="1.4"/>
					<circle class="st9" cx="730" cy="398.6" r="1.4"/>
					
						<ellipse transform="matrix(3.328112e-02 -0.9994 0.9994 3.328112e-02 312.1306 1116.3795)" class="st10" cx="733.2" cy="396.8" rx="1.4" ry="1.4"/>
					<circle class="st9" cx="824" cy="391.5" r="1.4"/>
					<circle class="st9" cx="745.7" cy="395.5" r="1.4"/>
					<circle class="st9" cx="740.6" cy="395" r="1.4"/>
					<circle class="st9" cx="817" cy="392.3" r="1.4"/>
					<circle class="st9" cx="736.6" cy="391.3" r="1.4"/>
					<circle class="st9" cx="733.6" cy="391.2" r="1.4"/>
					<circle class="st9" cx="734.7" cy="392.8" r="1.4"/>
					
						<ellipse transform="matrix(3.328112e-02 -0.9994 0.9994 3.328112e-02 314.8282 1114.2186)" class="st10" cx="733.4" cy="394.4" rx="1.4" ry="1.4"/>
					<circle class="st9" cx="733.6" cy="391.5" r="1.4"/>
					<circle class="st9" cx="743.8" cy="392.3" r="1.4"/>
					<circle class="st9" cx="741" cy="389.3" r="1.4"/>
					<circle class="st9" cx="739.8" cy="391" r="1.4"/>
					<circle class="st9" cx="746.1" cy="388" r="1.4"/>
					<circle class="st9" cx="747.6" cy="390.8" r="1.4"/>
					<circle class="st9" cx="735.3" cy="391.2" r="1.4"/>
					<circle class="st9" cx="755.3" cy="391.5" r="1.4"/>
					<circle class="st9" cx="757.2" cy="389.8" r="1.4"/>
					<circle class="st9" cx="753.5" cy="387.6" r="1.4"/>
					<circle class="st9" cx="739.8" cy="391.2" r="1.4"/>
					<circle class="st9" cx="745.9" cy="381.7" r="1.4"/>
					<circle class="st9" cx="756.9" cy="386.9" r="1.4"/>
					<circle class="st9" cx="737.5" cy="377.8" r="1.4"/>
					<circle class="st9" cx="743" cy="379.6" r="1.4"/>
					<circle class="st9" cx="741.9" cy="384.4" r="1.4"/>
					<circle class="st9" cx="766.1" cy="382.6" r="1.4"/>
					<circle class="st9" cx="777.1" cy="382.4" r="1.4"/>
					<circle class="st9" cx="738.9" cy="384.9" r="1.4"/>
					<circle class="st9" cx="795.5" cy="381.1" r="1.4"/>
					<circle class="st9" cx="931.5" cy="378.3" r="1.4"/>
					<circle class="st9" cx="771.1" cy="376" r="1.4"/>
					<circle class="st9" cx="793.6" cy="383.8" r="1.4"/>
					<circle class="st9" cx="815.7" cy="380.3" r="1.4"/>
					<circle class="st9" cx="741" cy="386.8" r="1.4"/>
					<circle class="st9" cx="753.8" cy="384.2" r="1.4"/>
					<circle class="st9" cx="745.1" cy="378.6" r="1.4"/>
					<circle class="st9" cx="742.5" cy="380.3" r="1.4"/>
					<circle class="st9" cx="745.9" cy="380.8" r="1.4"/>
					<circle class="st9" cx="762.4" cy="369.4" r="1.4"/>
					<circle class="st9" cx="744.2" cy="379.2" r="1.4"/>
					<circle class="st9" cx="745.1" cy="378.4" r="1.4"/>
					<circle class="st9" cx="782.4" cy="374.8" r="1.4"/>
					<circle class="st9" cx="932.4" cy="368.5" r="1.4"/>
					<circle class="st9" cx="741.9" cy="375.5" r="1.4"/>
					<circle class="st9" cx="759.9" cy="375" r="1.4"/>
					<circle class="st9" cx="785.8" cy="370.8" r="1.4"/>
					<circle class="st9" cx="762.9" cy="377.7" r="1.4"/>
					<circle class="st9" cx="809.6" cy="371.3" r="1.4"/>
					<circle class="st9" cx="905.4" cy="375.2" r="1.4"/>
					<circle class="st9" cx="784.5" cy="378.4" r="1.4"/>
					<circle class="st9" cx="795.3" cy="371.9" r="1.4"/>
					<circle class="st9" cx="747.2" cy="375" r="1.4"/>
					<circle class="st9" cx="750.1" cy="376.1" r="1.4"/>
					<circle class="st9" cx="754.4" cy="374.6" r="1.4"/>
					<circle class="st9" cx="848.6" cy="366.7" r="1.4"/>
					<circle class="st9" cx="749.3" cy="373.7" r="1.4"/>
					<circle class="st9" cx="779.7" cy="372.7" r="1.4"/>
					<circle class="st9" cx="779.5" cy="373.2" r="1.4"/>
					<circle class="st9" cx="815.7" cy="369.7" r="1.4"/>
					<circle class="st9" cx="754.8" cy="373.4" r="1.4"/>
					<circle class="st9" cx="759.9" cy="373.5" r="1.4"/>
					<circle class="st9" cx="785.2" cy="364.5" r="1.4"/>
					<circle class="st9" cx="900.3" cy="362.9" r="1.4"/>
					<circle class="st9" cx="769.2" cy="366.9" r="1.4"/>
					<circle class="st9" cx="748.9" cy="365.8" r="1.4"/>
					<circle class="st9" cx="750.6" cy="367.3" r="1.4"/>
					<circle class="st9" cx="773.9" cy="368" r="1.4"/>
					<circle class="st9" cx="765.4" cy="368.5" r="1.4"/>
					<circle class="st9" cx="755.9" cy="359.8" r="1.4"/>
					<ellipse class="st11" cx="759" cy="363.8" rx="1.4" ry="1.4"/>
					<circle class="st9" cx="767.4" cy="361.6" r="1.4"/>
					<circle class="st9" cx="778.4" cy="363.9" r="1.4"/>
					<circle class="st9" cx="879.9" cy="350.9" r="1.4"/>
					<circle class="st9" cx="755.7" cy="362.4" r="1.4"/>
					<polyline class="st12" points="729,400.2 731.5,396.7 734.1,393.4 736.7,390.5 739.3,387.7 741.8,385.2 744.4,382.9 
						746.9,380.8 749.6,379 752.2,377.4 754.7,376 757.3,374.9 759.8,373.9 762.4,373 765,372.4 767.6,372 770.1,371.8 772.7,371.7 
						775.3,371.7 777.9,371.9 780.5,372 783,372.4 785.6,372.7 788.1,373.2 790.7,373.7 793.3,374.2 795.9,374.8 798.5,375.3 
						801,375.8 803.6,376.3 806.2,376.7 808.8,377.1 811.3,377.3 813.9,377.5 816.4,377.6 819.1,377.7 821.7,377.8 824.2,377.9 
						826.8,377.9 829.3,377.8 831.9,377.7 834.5,377.6 837.1,377.5 839.7,377.4 842.2,377.2 844.8,377.1 847.4,376.9 850,376.6 
						852.5,376.3 855.1,376.1 857.7,375.8 860.2,375.5 862.9,375.3 865.4,375 868,374.7 870.5,374.3 873.1,374 875.7,373.7 
						878.3,373.4 880.9,373.1 883.4,372.8 886,372.5 888.6,372.2 891.2,371.9 893.7,371.6 896.3,371.4 898.8,371.2 901.4,370.9 
						904,370.8 906.6,370.6 909.2,370.4 911.7,370.3 914.3,370.2 916.9,370.1 919.5,370 922,370 924.6,370 927.2,370.1 929.7,370.2 
						932.4,370.3 					"/>
				</g>
			</g>
		</g>
	</g>
	<g>
		<g>
			<text transform="matrix(1 0 0 1 699.2695 408.0186)" class="st13 st14 st15">0.000</text>
			<text transform="matrix(1 0 0 1 699.2695 354.9072)" class="st13 st14 st15">0.025</text>
			<text transform="matrix(1 0 0 1 699.2695 301.7959)" class="st13 st14 st15">0.050</text>
			<text transform="matrix(1 0 0 1 699.2695 248.6865)" class="st13 st14 st15">0.075</text>
			<text transform="matrix(1 0 0 1 699.2695 195.5762)" class="st13 st14 st15">0.100</text>
			<rect x="722.9" y="419" class="st0" width="3.5" height="7.5"/>
			<text transform="matrix(1 0 0 1 722.9414 424.4883)" class="st13 st14 st15">0</text>
			<rect x="772.4" y="419" class="st0" width="10.6" height="7.5"/>
			<text transform="matrix(1 0 0 1 772.4131 424.4883)" class="st13 st14 st15">250</text>
			<rect x="825.4" y="419" class="st0" width="10.6" height="7.5"/>
			<text transform="matrix(1 0 0 1 825.4375 424.4883)" class="st13 st14 st15">500</text>
			<rect x="878.4" y="419" class="st0" width="10.6" height="7.5"/>
			<text transform="matrix(1 0 0 1 878.4531 424.4883)" class="st13 st14 st15">750</text>
			<rect x="929.7" y="419" class="st0" width="14.2" height="7.5"/>
			<text transform="matrix(1 0 0 1 929.7061 424.4883)" class="st13 st14 st15">1000</text>
			<rect x="787.1" y="435.5" class="st0" width="87.6" height="9.4"/>
			<text transform="matrix(1 0 0 1 766.1699 444.7754)" class="st16 st14 st17">Number of Paths in ARG</text>
			<rect x="670.1" y="204.2" class="st0" width="26.5" height="190.7"/>
			<text transform="matrix(6.123234e-17 -1 1 6.123234e-17 679.4678 382.8027)" class="st16 st14 st17">Time To Compute The Covariance </text>
			<text transform="matrix(6.123234e-17 -1 1 6.123234e-17 692.499 339.6523)" class="st16 st14 st17">Matrix (seconds)</text>
		</g>
	</g>
	<text transform="matrix(1 0 0 1 738.8652 206.4141)" class="st18 st14 st17">Naive</text>
	<text transform="matrix(1 0 0 1 813.1846 310.8428)" class="st19 st14 st17">Bottom-up</text>
	<text transform="matrix(1 0 0 1 844.1631 393.1074)" class="st20 st14 st17">Minimal</text>
</g>
</svg>
