<?xml version="1.0" encoding="utf-8" standalone="no"?>
<!DOCTYPE svg PUBLIC "-//W3C//DTD SVG 1.1//EN"
  "http://www.w3.org/Graphics/SVG/1.1/DTD/svg11.dtd">
<svg xmlns:xlink="http://www.w3.org/1999/xlink" width="424.8pt" height="352.8pt" viewBox="0 0 424.8 352.8" xmlns="http://www.w3.org/2000/svg" version="1.1">
 <metadata>
  <rdf:RDF xmlns:dc="http://purl.org/dc/elements/1.1/" xmlns:cc="http://creativecommons.org/ns#" xmlns:rdf="http://www.w3.org/1999/02/22-rdf-syntax-ns#">
   <cc:Work>
    <dc:type rdf:resource="http://purl.org/dc/dcmitype/StillImage"/>
    <dc:date>2024-12-18T15:02:52.957146</dc:date>
    <dc:format>image/svg+xml</dc:format>
    <dc:creator>
     <cc:Agent>
      <dc:title>Matplotlib v3.8.0, https://matplotlib.org/</dc:title>
     </cc:Agent>
    </dc:creator>
   </cc:Work>
  </rdf:RDF>
 </metadata>
 <defs>
  <style type="text/css">*{stroke-linejoin: round; stroke-linecap: butt}</style>
 </defs>
 <g id="figure_1">
  <g id="patch_1">
   <path d="M 0 352.8 
L 424.8 352.8 
L 424.8 0 
L 0 0 
z
" style="fill: #ffffff"/>
  </g>
  <g id="axes_1">
   <g id="patch_2">
    <path d="M 53.1 313.992 
L 382.32 313.992 
L 382.32 42.336 
L 53.1 42.336 
z
" style="fill: #ffffff"/>
   </g>
   <g id="matplotlib.axis_1">
    <g id="xtick_1">
     <g id="line2d_1">
      <defs>
       <path id="m79e44d13ef" d="M 0 0 
L 0 3.5 
" style="stroke: #000000; stroke-width: 0.8"/>
      </defs>
      <g>
       <use xlink:href="#m79e44d13ef" x="67.547635" y="313.992" style="stroke: #000000; stroke-width: 0.8"/>
      </g>
     </g>
     <g id="text_1">
      <!-- 0 -->
      <g transform="translate(64.366385 328.590438) scale(0.1 -0.1)">
       <defs>
        <path id="DejaVuSans-30" d="M 2034 4250 
Q 1547 4250 1301 3770 
Q 1056 3291 1056 2328 
Q 1056 1369 1301 889 
Q 1547 409 2034 409 
Q 2525 409 2770 889 
Q 3016 1369 3016 2328 
Q 3016 3291 2770 3770 
Q 2525 4250 2034 4250 
z
M 2034 4750 
Q 2819 4750 3233 4129 
Q 3647 3509 3647 2328 
Q 3647 1150 3233 529 
Q 2819 -91 2034 -91 
Q 1250 -91 836 529 
Q 422 1150 422 2328 
Q 422 3509 836 4129 
Q 1250 4750 2034 4750 
z
" transform="scale(0.015625)"/>
       </defs>
       <use xlink:href="#DejaVuSans-30"/>
      </g>
     </g>
    </g>
    <g id="xtick_2">
     <g id="line2d_2">
      <g>
       <use xlink:href="#m79e44d13ef" x="119.238639" y="313.992" style="stroke: #000000; stroke-width: 0.8"/>
      </g>
     </g>
     <g id="text_2">
      <!-- 100 -->
      <g transform="translate(109.694889 328.590438) scale(0.1 -0.1)">
       <defs>
        <path id="DejaVuSans-31" d="M 794 531 
L 1825 531 
L 1825 4091 
L 703 3866 
L 703 4441 
L 1819 4666 
L 2450 4666 
L 2450 531 
L 3481 531 
L 3481 0 
L 794 0 
L 794 531 
z
" transform="scale(0.015625)"/>
       </defs>
       <use xlink:href="#DejaVuSans-31"/>
       <use xlink:href="#DejaVuSans-30" x="63.623047"/>
       <use xlink:href="#DejaVuSans-30" x="127.246094"/>
      </g>
     </g>
    </g>
    <g id="xtick_3">
     <g id="line2d_3">
      <g>
       <use xlink:href="#m79e44d13ef" x="170.929642" y="313.992" style="stroke: #000000; stroke-width: 0.8"/>
      </g>
     </g>
     <g id="text_3">
      <!-- 200 -->
      <g transform="translate(161.385892 328.590438) scale(0.1 -0.1)">
       <defs>
        <path id="DejaVuSans-32" d="M 1228 531 
L 3431 531 
L 3431 0 
L 469 0 
L 469 531 
Q 828 903 1448 1529 
Q 2069 2156 2228 2338 
Q 2531 2678 2651 2914 
Q 2772 3150 2772 3378 
Q 2772 3750 2511 3984 
Q 2250 4219 1831 4219 
Q 1534 4219 1204 4116 
Q 875 4013 500 3803 
L 500 4441 
Q 881 4594 1212 4672 
Q 1544 4750 1819 4750 
Q 2544 4750 2975 4387 
Q 3406 4025 3406 3419 
Q 3406 3131 3298 2873 
Q 3191 2616 2906 2266 
Q 2828 2175 2409 1742 
Q 1991 1309 1228 531 
z
" transform="scale(0.015625)"/>
       </defs>
       <use xlink:href="#DejaVuSans-32"/>
       <use xlink:href="#DejaVuSans-30" x="63.623047"/>
       <use xlink:href="#DejaVuSans-30" x="127.246094"/>
      </g>
     </g>
    </g>
    <g id="xtick_4">
     <g id="line2d_4">
      <g>
       <use xlink:href="#m79e44d13ef" x="222.620645" y="313.992" style="stroke: #000000; stroke-width: 0.8"/>
      </g>
     </g>
     <g id="text_4">
      <!-- 300 -->
      <g transform="translate(213.076895 328.590438) scale(0.1 -0.1)">
       <defs>
        <path id="DejaVuSans-33" d="M 2597 2516 
Q 3050 2419 3304 2112 
Q 3559 1806 3559 1356 
Q 3559 666 3084 287 
Q 2609 -91 1734 -91 
Q 1441 -91 1130 -33 
Q 819 25 488 141 
L 488 750 
Q 750 597 1062 519 
Q 1375 441 1716 441 
Q 2309 441 2620 675 
Q 2931 909 2931 1356 
Q 2931 1769 2642 2001 
Q 2353 2234 1838 2234 
L 1294 2234 
L 1294 2753 
L 1863 2753 
Q 2328 2753 2575 2939 
Q 2822 3125 2822 3475 
Q 2822 3834 2567 4026 
Q 2313 4219 1838 4219 
Q 1578 4219 1281 4162 
Q 984 4106 628 3988 
L 628 4550 
Q 988 4650 1302 4700 
Q 1616 4750 1894 4750 
Q 2613 4750 3031 4423 
Q 3450 4097 3450 3541 
Q 3450 3153 3228 2886 
Q 3006 2619 2597 2516 
z
" transform="scale(0.015625)"/>
       </defs>
       <use xlink:href="#DejaVuSans-33"/>
       <use xlink:href="#DejaVuSans-30" x="63.623047"/>
       <use xlink:href="#DejaVuSans-30" x="127.246094"/>
      </g>
     </g>
    </g>
    <g id="xtick_5">
     <g id="line2d_5">
      <g>
       <use xlink:href="#m79e44d13ef" x="274.311649" y="313.992" style="stroke: #000000; stroke-width: 0.8"/>
      </g>
     </g>
     <g id="text_5">
      <!-- 400 -->
      <g transform="translate(264.767899 328.590438) scale(0.1 -0.1)">
       <defs>
        <path id="DejaVuSans-34" d="M 2419 4116 
L 825 1625 
L 2419 1625 
L 2419 4116 
z
M 2253 4666 
L 3047 4666 
L 3047 1625 
L 3713 1625 
L 3713 1100 
L 3047 1100 
L 3047 0 
L 2419 0 
L 2419 1100 
L 313 1100 
L 313 1709 
L 2253 4666 
z
" transform="scale(0.015625)"/>
       </defs>
       <use xlink:href="#DejaVuSans-34"/>
       <use xlink:href="#DejaVuSans-30" x="63.623047"/>
       <use xlink:href="#DejaVuSans-30" x="127.246094"/>
      </g>
     </g>
    </g>
    <g id="xtick_6">
     <g id="line2d_6">
      <g>
       <use xlink:href="#m79e44d13ef" x="326.002652" y="313.992" style="stroke: #000000; stroke-width: 0.8"/>
      </g>
     </g>
     <g id="text_6">
      <!-- 500 -->
      <g transform="translate(316.458902 328.590438) scale(0.1 -0.1)">
       <defs>
        <path id="DejaVuSans-35" d="M 691 4666 
L 3169 4666 
L 3169 4134 
L 1269 4134 
L 1269 2991 
Q 1406 3038 1543 3061 
Q 1681 3084 1819 3084 
Q 2600 3084 3056 2656 
Q 3513 2228 3513 1497 
Q 3513 744 3044 326 
Q 2575 -91 1722 -91 
Q 1428 -91 1123 -41 
Q 819 9 494 109 
L 494 744 
Q 775 591 1075 516 
Q 1375 441 1709 441 
Q 2250 441 2565 725 
Q 2881 1009 2881 1497 
Q 2881 1984 2565 2268 
Q 2250 2553 1709 2553 
Q 1456 2553 1204 2497 
Q 953 2441 691 2322 
L 691 4666 
z
" transform="scale(0.015625)"/>
       </defs>
       <use xlink:href="#DejaVuSans-35"/>
       <use xlink:href="#DejaVuSans-30" x="63.623047"/>
       <use xlink:href="#DejaVuSans-30" x="127.246094"/>
      </g>
     </g>
    </g>
    <g id="xtick_7">
     <g id="line2d_7">
      <g>
       <use xlink:href="#m79e44d13ef" x="377.693655" y="313.992" style="stroke: #000000; stroke-width: 0.8"/>
      </g>
     </g>
     <g id="text_7">
      <!-- 600 -->
      <g transform="translate(368.149905 328.590438) scale(0.1 -0.1)">
       <defs>
        <path id="DejaVuSans-36" d="M 2113 2584 
Q 1688 2584 1439 2293 
Q 1191 2003 1191 1497 
Q 1191 994 1439 701 
Q 1688 409 2113 409 
Q 2538 409 2786 701 
Q 3034 994 3034 1497 
Q 3034 2003 2786 2293 
Q 2538 2584 2113 2584 
z
M 3366 4563 
L 3366 3988 
Q 3128 4100 2886 4159 
Q 2644 4219 2406 4219 
Q 1781 4219 1451 3797 
Q 1122 3375 1075 2522 
Q 1259 2794 1537 2939 
Q 1816 3084 2150 3084 
Q 2853 3084 3261 2657 
Q 3669 2231 3669 1497 
Q 3669 778 3244 343 
Q 2819 -91 2113 -91 
Q 1303 -91 875 529 
Q 447 1150 447 2328 
Q 447 3434 972 4092 
Q 1497 4750 2381 4750 
Q 2619 4750 2861 4703 
Q 3103 4656 3366 4563 
z
" transform="scale(0.015625)"/>
       </defs>
       <use xlink:href="#DejaVuSans-36"/>
       <use xlink:href="#DejaVuSans-30" x="63.623047"/>
       <use xlink:href="#DejaVuSans-30" x="127.246094"/>
      </g>
     </g>
    </g>
    <g id="text_8">
     <!-- Number of Trees -->
     <g transform="translate(135.508437 349.867) scale(0.2 -0.2)">
      <defs>
       <path id="DejaVuSans-4e" d="M 628 4666 
L 1478 4666 
L 3547 763 
L 3547 4666 
L 4159 4666 
L 4159 0 
L 3309 0 
L 1241 3903 
L 1241 0 
L 628 0 
L 628 4666 
z
" transform="scale(0.015625)"/>
       <path id="DejaVuSans-75" d="M 544 1381 
L 544 3500 
L 1119 3500 
L 1119 1403 
Q 1119 906 1312 657 
Q 1506 409 1894 409 
Q 2359 409 2629 706 
Q 2900 1003 2900 1516 
L 2900 3500 
L 3475 3500 
L 3475 0 
L 2900 0 
L 2900 538 
Q 2691 219 2414 64 
Q 2138 -91 1772 -91 
Q 1169 -91 856 284 
Q 544 659 544 1381 
z
M 1991 3584 
L 1991 3584 
z
" transform="scale(0.015625)"/>
       <path id="DejaVuSans-6d" d="M 3328 2828 
Q 3544 3216 3844 3400 
Q 4144 3584 4550 3584 
Q 5097 3584 5394 3201 
Q 5691 2819 5691 2113 
L 5691 0 
L 5113 0 
L 5113 2094 
Q 5113 2597 4934 2840 
Q 4756 3084 4391 3084 
Q 3944 3084 3684 2787 
Q 3425 2491 3425 1978 
L 3425 0 
L 2847 0 
L 2847 2094 
Q 2847 2600 2669 2842 
Q 2491 3084 2119 3084 
Q 1678 3084 1418 2786 
Q 1159 2488 1159 1978 
L 1159 0 
L 581 0 
L 581 3500 
L 1159 3500 
L 1159 2956 
Q 1356 3278 1631 3431 
Q 1906 3584 2284 3584 
Q 2666 3584 2933 3390 
Q 3200 3197 3328 2828 
z
" transform="scale(0.015625)"/>
       <path id="DejaVuSans-62" d="M 3116 1747 
Q 3116 2381 2855 2742 
Q 2594 3103 2138 3103 
Q 1681 3103 1420 2742 
Q 1159 2381 1159 1747 
Q 1159 1113 1420 752 
Q 1681 391 2138 391 
Q 2594 391 2855 752 
Q 3116 1113 3116 1747 
z
M 1159 2969 
Q 1341 3281 1617 3432 
Q 1894 3584 2278 3584 
Q 2916 3584 3314 3078 
Q 3713 2572 3713 1747 
Q 3713 922 3314 415 
Q 2916 -91 2278 -91 
Q 1894 -91 1617 61 
Q 1341 213 1159 525 
L 1159 0 
L 581 0 
L 581 4863 
L 1159 4863 
L 1159 2969 
z
" transform="scale(0.015625)"/>
       <path id="DejaVuSans-65" d="M 3597 1894 
L 3597 1613 
L 953 1613 
Q 991 1019 1311 708 
Q 1631 397 2203 397 
Q 2534 397 2845 478 
Q 3156 559 3463 722 
L 3463 178 
Q 3153 47 2828 -22 
Q 2503 -91 2169 -91 
Q 1331 -91 842 396 
Q 353 884 353 1716 
Q 353 2575 817 3079 
Q 1281 3584 2069 3584 
Q 2775 3584 3186 3129 
Q 3597 2675 3597 1894 
z
M 3022 2063 
Q 3016 2534 2758 2815 
Q 2500 3097 2075 3097 
Q 1594 3097 1305 2825 
Q 1016 2553 972 2059 
L 3022 2063 
z
" transform="scale(0.015625)"/>
       <path id="DejaVuSans-72" d="M 2631 2963 
Q 2534 3019 2420 3045 
Q 2306 3072 2169 3072 
Q 1681 3072 1420 2755 
Q 1159 2438 1159 1844 
L 1159 0 
L 581 0 
L 581 3500 
L 1159 3500 
L 1159 2956 
Q 1341 3275 1631 3429 
Q 1922 3584 2338 3584 
Q 2397 3584 2469 3576 
Q 2541 3569 2628 3553 
L 2631 2963 
z
" transform="scale(0.015625)"/>
       <path id="DejaVuSans-20" transform="scale(0.015625)"/>
       <path id="DejaVuSans-6f" d="M 1959 3097 
Q 1497 3097 1228 2736 
Q 959 2375 959 1747 
Q 959 1119 1226 758 
Q 1494 397 1959 397 
Q 2419 397 2687 759 
Q 2956 1122 2956 1747 
Q 2956 2369 2687 2733 
Q 2419 3097 1959 3097 
z
M 1959 3584 
Q 2709 3584 3137 3096 
Q 3566 2609 3566 1747 
Q 3566 888 3137 398 
Q 2709 -91 1959 -91 
Q 1206 -91 779 398 
Q 353 888 353 1747 
Q 353 2609 779 3096 
Q 1206 3584 1959 3584 
z
" transform="scale(0.015625)"/>
       <path id="DejaVuSans-66" d="M 2375 4863 
L 2375 4384 
L 1825 4384 
Q 1516 4384 1395 4259 
Q 1275 4134 1275 3809 
L 1275 3500 
L 2222 3500 
L 2222 3053 
L 1275 3053 
L 1275 0 
L 697 0 
L 697 3053 
L 147 3053 
L 147 3500 
L 697 3500 
L 697 3744 
Q 697 4328 969 4595 
Q 1241 4863 1831 4863 
L 2375 4863 
z
" transform="scale(0.015625)"/>
       <path id="DejaVuSans-54" d="M -19 4666 
L 3928 4666 
L 3928 4134 
L 2272 4134 
L 2272 0 
L 1638 0 
L 1638 4134 
L -19 4134 
L -19 4666 
z
" transform="scale(0.015625)"/>
       <path id="DejaVuSans-73" d="M 2834 3397 
L 2834 2853 
Q 2591 2978 2328 3040 
Q 2066 3103 1784 3103 
Q 1356 3103 1142 2972 
Q 928 2841 928 2578 
Q 928 2378 1081 2264 
Q 1234 2150 1697 2047 
L 1894 2003 
Q 2506 1872 2764 1633 
Q 3022 1394 3022 966 
Q 3022 478 2636 193 
Q 2250 -91 1575 -91 
Q 1294 -91 989 -36 
Q 684 19 347 128 
L 347 722 
Q 666 556 975 473 
Q 1284 391 1588 391 
Q 1994 391 2212 530 
Q 2431 669 2431 922 
Q 2431 1156 2273 1281 
Q 2116 1406 1581 1522 
L 1381 1569 
Q 847 1681 609 1914 
Q 372 2147 372 2553 
Q 372 3047 722 3315 
Q 1072 3584 1716 3584 
Q 2034 3584 2315 3537 
Q 2597 3491 2834 3397 
z
" transform="scale(0.015625)"/>
      </defs>
      <use xlink:href="#DejaVuSans-4e"/>
      <use xlink:href="#DejaVuSans-75" x="74.804688"/>
      <use xlink:href="#DejaVuSans-6d" x="138.183594"/>
      <use xlink:href="#DejaVuSans-62" x="235.595703"/>
      <use xlink:href="#DejaVuSans-65" x="299.072266"/>
      <use xlink:href="#DejaVuSans-72" x="360.595703"/>
      <use xlink:href="#DejaVuSans-20" x="401.708984"/>
      <use xlink:href="#DejaVuSans-6f" x="433.496094"/>
      <use xlink:href="#DejaVuSans-66" x="494.677734"/>
      <use xlink:href="#DejaVuSans-20" x="529.882812"/>
      <use xlink:href="#DejaVuSans-54" x="561.669922"/>
      <use xlink:href="#DejaVuSans-72" x="608.003906"/>
      <use xlink:href="#DejaVuSans-65" x="646.867188"/>
      <use xlink:href="#DejaVuSans-65" x="708.390625"/>
      <use xlink:href="#DejaVuSans-73" x="769.914062"/>
     </g>
    </g>
   </g>
   <g id="matplotlib.axis_2">
    <g id="ytick_1">
     <g id="line2d_8">
      <defs>
       <path id="m85f0a8e7b6" d="M 0 0 
L -3.5 0 
" style="stroke: #000000; stroke-width: 0.8"/>
      </defs>
      <g>
       <use xlink:href="#m85f0a8e7b6" x="53.1" y="280.898506" style="stroke: #000000; stroke-width: 0.8"/>
      </g>
     </g>
     <g id="text_9">
      <!-- 0.02 -->
      <g transform="translate(23.834375 284.697725) scale(0.1 -0.1)">
       <defs>
        <path id="DejaVuSans-2e" d="M 684 794 
L 1344 794 
L 1344 0 
L 684 0 
L 684 794 
z
" transform="scale(0.015625)"/>
       </defs>
       <use xlink:href="#DejaVuSans-30"/>
       <use xlink:href="#DejaVuSans-2e" x="63.623047"/>
       <use xlink:href="#DejaVuSans-30" x="95.410156"/>
       <use xlink:href="#DejaVuSans-32" x="159.033203"/>
      </g>
     </g>
    </g>
    <g id="ytick_2">
     <g id="line2d_9">
      <g>
       <use xlink:href="#m85f0a8e7b6" x="53.1" y="241.21175" style="stroke: #000000; stroke-width: 0.8"/>
      </g>
     </g>
     <g id="text_10">
      <!-- 0.04 -->
      <g transform="translate(23.834375 245.010969) scale(0.1 -0.1)">
       <use xlink:href="#DejaVuSans-30"/>
       <use xlink:href="#DejaVuSans-2e" x="63.623047"/>
       <use xlink:href="#DejaVuSans-30" x="95.410156"/>
       <use xlink:href="#DejaVuSans-34" x="159.033203"/>
      </g>
     </g>
    </g>
    <g id="ytick_3">
     <g id="line2d_10">
      <g>
       <use xlink:href="#m85f0a8e7b6" x="53.1" y="201.524995" style="stroke: #000000; stroke-width: 0.8"/>
      </g>
     </g>
     <g id="text_11">
      <!-- 0.06 -->
      <g transform="translate(23.834375 205.324214) scale(0.1 -0.1)">
       <use xlink:href="#DejaVuSans-30"/>
       <use xlink:href="#DejaVuSans-2e" x="63.623047"/>
       <use xlink:href="#DejaVuSans-30" x="95.410156"/>
       <use xlink:href="#DejaVuSans-36" x="159.033203"/>
      </g>
     </g>
    </g>
    <g id="ytick_4">
     <g id="line2d_11">
      <g>
       <use xlink:href="#m85f0a8e7b6" x="53.1" y="161.83824" style="stroke: #000000; stroke-width: 0.8"/>
      </g>
     </g>
     <g id="text_12">
      <!-- 0.08 -->
      <g transform="translate(23.834375 165.637458) scale(0.1 -0.1)">
       <defs>
        <path id="DejaVuSans-38" d="M 2034 2216 
Q 1584 2216 1326 1975 
Q 1069 1734 1069 1313 
Q 1069 891 1326 650 
Q 1584 409 2034 409 
Q 2484 409 2743 651 
Q 3003 894 3003 1313 
Q 3003 1734 2745 1975 
Q 2488 2216 2034 2216 
z
M 1403 2484 
Q 997 2584 770 2862 
Q 544 3141 544 3541 
Q 544 4100 942 4425 
Q 1341 4750 2034 4750 
Q 2731 4750 3128 4425 
Q 3525 4100 3525 3541 
Q 3525 3141 3298 2862 
Q 3072 2584 2669 2484 
Q 3125 2378 3379 2068 
Q 3634 1759 3634 1313 
Q 3634 634 3220 271 
Q 2806 -91 2034 -91 
Q 1263 -91 848 271 
Q 434 634 434 1313 
Q 434 1759 690 2068 
Q 947 2378 1403 2484 
z
M 1172 3481 
Q 1172 3119 1398 2916 
Q 1625 2713 2034 2713 
Q 2441 2713 2670 2916 
Q 2900 3119 2900 3481 
Q 2900 3844 2670 4047 
Q 2441 4250 2034 4250 
Q 1625 4250 1398 4047 
Q 1172 3844 1172 3481 
z
" transform="scale(0.015625)"/>
       </defs>
       <use xlink:href="#DejaVuSans-30"/>
       <use xlink:href="#DejaVuSans-2e" x="63.623047"/>
       <use xlink:href="#DejaVuSans-30" x="95.410156"/>
       <use xlink:href="#DejaVuSans-38" x="159.033203"/>
      </g>
     </g>
    </g>
    <g id="ytick_5">
     <g id="line2d_12">
      <g>
       <use xlink:href="#m85f0a8e7b6" x="53.1" y="122.151484" style="stroke: #000000; stroke-width: 0.8"/>
      </g>
     </g>
     <g id="text_13">
      <!-- 0.10 -->
      <g transform="translate(23.834375 125.950703) scale(0.1 -0.1)">
       <use xlink:href="#DejaVuSans-30"/>
       <use xlink:href="#DejaVuSans-2e" x="63.623047"/>
       <use xlink:href="#DejaVuSans-31" x="95.410156"/>
       <use xlink:href="#DejaVuSans-30" x="159.033203"/>
      </g>
     </g>
    </g>
    <g id="ytick_6">
     <g id="line2d_13">
      <g>
       <use xlink:href="#m85f0a8e7b6" x="53.1" y="82.464729" style="stroke: #000000; stroke-width: 0.8"/>
      </g>
     </g>
     <g id="text_14">
      <!-- 0.12 -->
      <g transform="translate(23.834375 86.263948) scale(0.1 -0.1)">
       <use xlink:href="#DejaVuSans-30"/>
       <use xlink:href="#DejaVuSans-2e" x="63.623047"/>
       <use xlink:href="#DejaVuSans-31" x="95.410156"/>
       <use xlink:href="#DejaVuSans-32" x="159.033203"/>
      </g>
     </g>
    </g>
    <g id="ytick_7">
     <g id="line2d_14">
      <g>
       <use xlink:href="#m85f0a8e7b6" x="53.1" y="42.777973" style="stroke: #000000; stroke-width: 0.8"/>
      </g>
     </g>
     <g id="text_15">
      <!-- 0.14 -->
      <g transform="translate(23.834375 46.577192) scale(0.1 -0.1)">
       <use xlink:href="#DejaVuSans-30"/>
       <use xlink:href="#DejaVuSans-2e" x="63.623047"/>
       <use xlink:href="#DejaVuSans-31" x="95.410156"/>
       <use xlink:href="#DejaVuSans-34" x="159.033203"/>
      </g>
     </g>
    </g>
    <g id="text_16">
     <!-- Coefficient of Variantion -->
     <g transform="translate(15.675 298.623375) rotate(-90) scale(0.2 -0.2)">
      <defs>
       <path id="DejaVuSans-43" d="M 4122 4306 
L 4122 3641 
Q 3803 3938 3442 4084 
Q 3081 4231 2675 4231 
Q 1875 4231 1450 3742 
Q 1025 3253 1025 2328 
Q 1025 1406 1450 917 
Q 1875 428 2675 428 
Q 3081 428 3442 575 
Q 3803 722 4122 1019 
L 4122 359 
Q 3791 134 3420 21 
Q 3050 -91 2638 -91 
Q 1578 -91 968 557 
Q 359 1206 359 2328 
Q 359 3453 968 4101 
Q 1578 4750 2638 4750 
Q 3056 4750 3426 4639 
Q 3797 4528 4122 4306 
z
" transform="scale(0.015625)"/>
       <path id="DejaVuSans-69" d="M 603 3500 
L 1178 3500 
L 1178 0 
L 603 0 
L 603 3500 
z
M 603 4863 
L 1178 4863 
L 1178 4134 
L 603 4134 
L 603 4863 
z
" transform="scale(0.015625)"/>
       <path id="DejaVuSans-63" d="M 3122 3366 
L 3122 2828 
Q 2878 2963 2633 3030 
Q 2388 3097 2138 3097 
Q 1578 3097 1268 2742 
Q 959 2388 959 1747 
Q 959 1106 1268 751 
Q 1578 397 2138 397 
Q 2388 397 2633 464 
Q 2878 531 3122 666 
L 3122 134 
Q 2881 22 2623 -34 
Q 2366 -91 2075 -91 
Q 1284 -91 818 406 
Q 353 903 353 1747 
Q 353 2603 823 3093 
Q 1294 3584 2113 3584 
Q 2378 3584 2631 3529 
Q 2884 3475 3122 3366 
z
" transform="scale(0.015625)"/>
       <path id="DejaVuSans-6e" d="M 3513 2113 
L 3513 0 
L 2938 0 
L 2938 2094 
Q 2938 2591 2744 2837 
Q 2550 3084 2163 3084 
Q 1697 3084 1428 2787 
Q 1159 2491 1159 1978 
L 1159 0 
L 581 0 
L 581 3500 
L 1159 3500 
L 1159 2956 
Q 1366 3272 1645 3428 
Q 1925 3584 2291 3584 
Q 2894 3584 3203 3211 
Q 3513 2838 3513 2113 
z
" transform="scale(0.015625)"/>
       <path id="DejaVuSans-74" d="M 1172 4494 
L 1172 3500 
L 2356 3500 
L 2356 3053 
L 1172 3053 
L 1172 1153 
Q 1172 725 1289 603 
Q 1406 481 1766 481 
L 2356 481 
L 2356 0 
L 1766 0 
Q 1100 0 847 248 
Q 594 497 594 1153 
L 594 3053 
L 172 3053 
L 172 3500 
L 594 3500 
L 594 4494 
L 1172 4494 
z
" transform="scale(0.015625)"/>
       <path id="DejaVuSans-56" d="M 1831 0 
L 50 4666 
L 709 4666 
L 2188 738 
L 3669 4666 
L 4325 4666 
L 2547 0 
L 1831 0 
z
" transform="scale(0.015625)"/>
       <path id="DejaVuSans-61" d="M 2194 1759 
Q 1497 1759 1228 1600 
Q 959 1441 959 1056 
Q 959 750 1161 570 
Q 1363 391 1709 391 
Q 2188 391 2477 730 
Q 2766 1069 2766 1631 
L 2766 1759 
L 2194 1759 
z
M 3341 1997 
L 3341 0 
L 2766 0 
L 2766 531 
Q 2569 213 2275 61 
Q 1981 -91 1556 -91 
Q 1019 -91 701 211 
Q 384 513 384 1019 
Q 384 1609 779 1909 
Q 1175 2209 1959 2209 
L 2766 2209 
L 2766 2266 
Q 2766 2663 2505 2880 
Q 2244 3097 1772 3097 
Q 1472 3097 1187 3025 
Q 903 2953 641 2809 
L 641 3341 
Q 956 3463 1253 3523 
Q 1550 3584 1831 3584 
Q 2591 3584 2966 3190 
Q 3341 2797 3341 1997 
z
" transform="scale(0.015625)"/>
      </defs>
      <use xlink:href="#DejaVuSans-43"/>
      <use xlink:href="#DejaVuSans-6f" x="69.824219"/>
      <use xlink:href="#DejaVuSans-65" x="131.005859"/>
      <use xlink:href="#DejaVuSans-66" x="192.529297"/>
      <use xlink:href="#DejaVuSans-66" x="227.734375"/>
      <use xlink:href="#DejaVuSans-69" x="262.939453"/>
      <use xlink:href="#DejaVuSans-63" x="290.722656"/>
      <use xlink:href="#DejaVuSans-69" x="345.703125"/>
      <use xlink:href="#DejaVuSans-65" x="373.486328"/>
      <use xlink:href="#DejaVuSans-6e" x="435.009766"/>
      <use xlink:href="#DejaVuSans-74" x="498.388672"/>
      <use xlink:href="#DejaVuSans-20" x="537.597656"/>
      <use xlink:href="#DejaVuSans-6f" x="569.384766"/>
      <use xlink:href="#DejaVuSans-66" x="630.566406"/>
      <use xlink:href="#DejaVuSans-20" x="665.771484"/>
      <use xlink:href="#DejaVuSans-56" x="697.558594"/>
      <use xlink:href="#DejaVuSans-61" x="758.216797"/>
      <use xlink:href="#DejaVuSans-72" x="819.496094"/>
      <use xlink:href="#DejaVuSans-69" x="860.609375"/>
      <use xlink:href="#DejaVuSans-61" x="888.392578"/>
      <use xlink:href="#DejaVuSans-6e" x="949.671875"/>
      <use xlink:href="#DejaVuSans-74" x="1013.050781"/>
      <use xlink:href="#DejaVuSans-69" x="1052.259766"/>
      <use xlink:href="#DejaVuSans-6f" x="1080.042969"/>
      <use xlink:href="#DejaVuSans-6e" x="1141.224609"/>
     </g>
    </g>
   </g>
   <g id="line2d_15">
    <path d="M 68.064545 247.289478 
L 72.716736 246.74488 
L 77.885836 244.603273 
L 83.054936 244.267123 
L 88.224037 244.055538 
L 93.393137 243.599704 
L 98.562237 243.862548 
L 103.731338 244.374892 
L 108.900438 245.309992 
L 114.069538 244.451029 
L 119.238639 244.397185 
L 124.407739 243.955624 
L 129.576839 244.115828 
L 134.74594 243.405996 
L 139.91504 243.267844 
L 145.08414 242.874179 
L 150.253241 243.477266 
L 155.422341 244.197972 
L 160.591441 243.949233 
L 165.760542 243.562615 
L 170.929642 242.973617 
L 176.098742 242.000394 
L 181.267843 240.403541 
L 186.436943 239.957255 
L 191.606043 240.067921 
L 196.775144 239.097925 
L 201.944244 238.154579 
L 207.113344 238.157628 
L 212.282445 237.947965 
L 217.451545 237.499164 
L 222.620645 236.849412 
L 227.789746 237.472184 
L 232.958846 236.314071 
L 238.127946 235.764525 
L 243.297047 234.715189 
L 248.466147 234.861685 
L 253.635247 234.233424 
L 258.804348 234.761539 
L 263.973448 234.973727 
L 269.142548 234.87558 
L 274.311649 233.89708 
L 279.480749 232.302058 
L 284.649849 229.242233 
L 289.81895 228.890003 
L 294.98805 229.307822 
L 300.15715 226.944183 
L 305.326251 226.084588 
L 310.495351 226.224306 
L 315.664451 226.78435 
L 320.833552 227.160689 
L 326.002652 227.00148 
L 331.171752 226.617927 
L 336.340853 227.008777 
L 341.509953 226.804018 
L 346.679053 225.618207 
L 351.848154 224.57498 
L 357.017254 223.516663 
" clip-path="url(#p3103aa087f)" style="fill: none; stroke: #ff0000; stroke-width: 1.5; stroke-linecap: square"/>
   </g>
   <g id="line2d_16">
    <path d="M 68.064545 247.289478 
L 72.716736 266.753211 
L 77.885836 274.863298 
L 83.054936 279.49018 
L 88.224037 282.904208 
L 93.393137 285.260533 
L 98.562237 287.232024 
L 103.731338 288.756346 
L 108.900438 290.06598 
L 114.069538 291.174499 
L 119.238639 292.11085 
L 124.407739 292.953501 
L 129.576839 293.729267 
L 134.74594 294.406874 
L 139.91504 294.996678 
L 145.08414 295.468327 
L 150.253241 295.88881 
L 155.422341 296.267956 
L 160.591441 296.624402 
L 165.760542 296.961326 
L 170.929642 297.275702 
L 176.098742 297.558342 
L 181.267843 297.784978 
L 186.436943 297.987012 
L 191.606043 298.181482 
L 196.775144 298.359208 
L 201.944244 298.517292 
L 207.113344 298.670799 
L 212.282445 298.815187 
L 217.451545 298.949895 
L 222.620645 299.074388 
L 227.789746 299.198507 
L 232.958846 299.308552 
L 238.127946 299.408337 
L 243.297047 299.497695 
L 248.466147 299.584564 
L 253.635247 299.665976 
L 258.804348 299.747469 
L 263.973448 299.828535 
L 269.142548 299.908074 
L 274.311649 299.979285 
L 279.480749 300.039288 
L 284.649849 300.08395 
L 289.81895 300.128037 
L 294.98805 300.173422 
L 300.15715 300.212919 
L 305.326251 300.254128 
L 310.495351 300.29085 
L 315.664451 300.327735 
L 320.833552 300.364555 
L 326.002652 300.398743 
L 331.171752 300.431509 
L 336.340853 300.463141 
L 341.509953 300.491209 
L 346.679053 300.511954 
L 351.848154 300.527049 
L 357.017254 300.537463 
" clip-path="url(#p3103aa087f)" style="fill: none; stroke-dasharray: 5.55,2.4; stroke-dashoffset: 0; stroke: #ff0000; stroke-width: 1.5"/>
   </g>
   <g id="line2d_17">
    <path d="M 68.064545 243.981167 
L 72.716736 243.487538 
L 77.885836 241.255066 
L 83.054936 239.72103 
L 88.224037 239.242719 
L 93.393137 237.086199 
L 98.562237 237.070451 
L 103.731338 237.419007 
L 108.900438 237.768923 
L 114.069538 237.817347 
L 119.238639 236.884657 
L 124.407739 236.983236 
L 129.576839 236.89562 
L 134.74594 236.607082 
L 139.91504 235.638357 
L 145.08414 236.501438 
L 150.253241 238.110893 
L 155.422341 237.147257 
L 160.591441 237.628354 
L 165.760542 237.905513 
L 170.929642 237.854323 
L 176.098742 237.226057 
L 181.267843 237.163381 
L 186.436943 234.828477 
L 191.606043 234.702042 
L 196.775144 235.586939 
L 201.944244 235.333469 
L 207.113344 235.770074 
L 212.282445 236.329 
L 217.451545 236.713871 
L 222.620645 236.283756 
L 227.789746 235.66874 
L 232.958846 235.659532 
L 238.127946 234.877197 
L 243.297047 234.661434 
L 248.466147 234.850206 
L 253.635247 234.523431 
L 258.804348 234.332318 
L 263.973448 233.907984 
L 269.142548 234.014738 
L 274.311649 233.000841 
L 279.480749 232.46283 
L 284.649849 232.824114 
L 289.81895 230.977213 
L 294.98805 230.760781 
L 300.15715 230.761845 
L 305.326251 230.212202 
L 310.495351 230.009843 
L 315.664451 230.385939 
L 320.833552 230.574688 
L 326.002652 229.15929 
L 331.171752 227.822945 
L 336.340853 228.467 
L 341.509953 228.971867 
L 346.679053 228.200452 
L 351.848154 225.702896 
" clip-path="url(#p3103aa087f)" style="fill: none; stroke: #0000ff; stroke-width: 1.5; stroke-linecap: square"/>
   </g>
   <g id="line2d_18">
    <path d="M 68.064545 243.981167 
L 72.716736 263.143188 
L 77.885836 271.179902 
L 83.054936 276.06535 
L 88.224037 279.450401 
L 93.393137 282.074606 
L 98.562237 284.125821 
L 103.731338 285.87459 
L 108.900438 287.397977 
L 114.069538 288.642317 
L 119.238639 289.687972 
L 124.407739 290.589275 
L 129.576839 291.404049 
L 134.74594 292.183401 
L 139.91504 292.889632 
L 145.08414 293.539393 
L 150.253241 294.074293 
L 155.422341 294.582465 
L 160.591441 295.045515 
L 165.760542 295.496652 
L 170.929642 295.903373 
L 176.098742 296.286309 
L 181.267843 296.633555 
L 186.436943 296.904521 
L 191.606043 297.163307 
L 196.775144 297.41728 
L 201.944244 297.64701 
L 207.113344 297.869036 
L 212.282445 298.063617 
L 217.451545 298.254093 
L 222.620645 298.441799 
L 227.789746 298.601585 
L 232.958846 298.755356 
L 238.127946 298.899768 
L 243.297047 299.040852 
L 248.466147 299.179777 
L 253.635247 299.315702 
L 258.804348 299.442083 
L 263.973448 299.559869 
L 269.142548 299.676082 
L 274.311649 299.780696 
L 279.480749 299.87837 
L 284.649849 299.974375 
L 289.81895 300.06018 
L 294.98805 300.142787 
L 300.15715 300.221523 
L 305.326251 300.296086 
L 310.495351 300.368685 
L 315.664451 300.440282 
L 320.833552 300.50931 
L 326.002652 300.570588 
L 331.171752 300.624176 
L 336.340853 300.677592 
L 341.509953 300.730691 
L 346.679053 300.780727 
L 351.848154 300.822263 
" clip-path="url(#p3103aa087f)" style="fill: none; stroke-dasharray: 5.55,2.4; stroke-dashoffset: 0; stroke: #0000ff; stroke-width: 1.5"/>
   </g>
   <g id="line2d_19">
    <path d="M 68.064545 253.243667 
L 72.716736 251.633408 
L 77.885836 251.533554 
L 83.054936 251.571901 
L 88.224037 246.86775 
L 93.393137 244.507648 
L 98.562237 245.060473 
L 103.731338 245.280165 
L 108.900438 245.471697 
L 114.069538 245.284216 
L 119.238639 245.930651 
L 124.407739 245.508947 
L 129.576839 245.545963 
L 134.74594 245.735484 
L 139.91504 245.302927 
L 145.08414 244.661007 
L 150.253241 244.667765 
L 155.422341 245.060167 
L 160.591441 244.642314 
L 165.760542 244.513144 
L 170.929642 243.478159 
L 176.098742 240.671219 
L 181.267843 239.687122 
L 186.436943 239.218271 
L 191.606043 235.640009 
L 196.775144 235.419318 
L 201.944244 235.12524 
L 207.113344 235.453407 
L 212.282445 235.683733 
L 217.451545 235.687988 
L 222.620645 235.199932 
L 227.789746 234.781006 
L 232.958846 234.770239 
L 238.127946 234.267765 
L 243.297047 234.519643 
L 248.466147 234.696915 
L 253.635247 234.769763 
L 258.804348 234.821453 
L 263.973448 234.448686 
L 269.142548 233.780268 
L 274.311649 234.152648 
L 279.480749 234.228132 
L 284.649849 234.383081 
L 289.81895 233.872001 
L 294.98805 233.922268 
L 300.15715 234.042796 
L 305.326251 231.552244 
L 310.495351 231.415839 
L 315.664451 230.903467 
L 320.833552 230.788557 
L 326.002652 230.707176 
L 331.171752 230.782923 
L 336.340853 230.620852 
L 341.509953 230.015348 
L 346.679053 230.128572 
L 351.848154 230.564907 
L 357.017254 230.060306 
L 362.186354 229.178728 
L 367.355455 229.378118 
" clip-path="url(#p3103aa087f)" style="fill: none; stroke: #ffa500; stroke-width: 1.5; stroke-linecap: square"/>
   </g>
   <g id="line2d_20">
    <path d="M 68.064545 253.243667 
L 72.716736 271.756651 
L 77.885836 278.41746 
L 83.054936 282.592175 
L 88.224037 285.498019 
L 93.393137 287.369202 
L 98.562237 288.994349 
L 103.731338 290.397432 
L 108.900438 291.573602 
L 114.069538 292.595969 
L 119.238639 293.508817 
L 124.407739 294.285127 
L 129.576839 295.002946 
L 134.74594 295.704377 
L 139.91504 296.344636 
L 145.08414 296.841973 
L 150.253241 297.200032 
L 155.422341 297.531468 
L 160.591441 297.840668 
L 165.760542 298.132146 
L 170.929642 298.388355 
L 176.098742 298.602862 
L 181.267843 298.79309 
L 186.436943 298.971229 
L 191.606043 299.111965 
L 196.775144 299.248192 
L 201.944244 299.378628 
L 207.113344 299.505426 
L 212.282445 299.628149 
L 217.451545 299.74424 
L 222.620645 299.850462 
L 227.789746 299.951644 
L 232.958846 300.050301 
L 238.127946 300.142694 
L 243.297047 300.23175 
L 248.466147 300.320305 
L 253.635247 300.408439 
L 258.804348 300.49526 
L 263.973448 300.577144 
L 269.142548 300.654069 
L 274.311649 300.730295 
L 279.480749 300.805389 
L 284.649849 300.878467 
L 289.81895 300.943703 
L 294.98805 301.008084 
L 300.15715 301.073039 
L 305.326251 301.127782 
L 310.495351 301.180706 
L 315.664451 301.228795 
L 320.833552 301.27694 
L 326.002652 301.323784 
L 331.171752 301.369831 
L 336.340853 301.413122 
L 341.509953 301.454665 
L 346.679053 301.495869 
L 351.848154 301.535563 
L 357.017254 301.573068 
L 362.186354 301.608544 
L 367.355455 301.644 
" clip-path="url(#p3103aa087f)" style="fill: none; stroke-dasharray: 5.55,2.4; stroke-dashoffset: 0; stroke: #ffa500; stroke-width: 1.5"/>
   </g>
   <g id="line2d_21">
    <path d="M 68.064545 236.001074 
L 72.716736 234.179869 
L 77.885836 233.219477 
L 83.054936 232.003747 
L 88.224037 231.73861 
L 93.393137 232.247152 
L 98.562237 234.05129 
L 103.731338 233.883358 
L 108.900438 232.991971 
L 114.069538 233.536933 
L 119.238639 232.118682 
L 124.407739 228.498421 
L 129.576839 228.855511 
L 134.74594 228.996566 
L 139.91504 228.253083 
L 145.08414 229.510855 
L 150.253241 229.421446 
L 155.422341 229.860951 
L 160.591441 229.876695 
L 165.760542 230.967831 
L 170.929642 231.106496 
L 176.098742 230.648843 
L 181.267843 230.654654 
L 186.436943 231.380273 
L 191.606043 230.208446 
L 196.775144 230.298447 
L 201.944244 230.8998 
L 207.113344 232.092831 
L 212.282445 232.904878 
L 217.451545 233.043516 
L 222.620645 232.578556 
L 227.789746 231.138702 
L 232.958846 230.779588 
L 238.127946 231.923071 
L 243.297047 231.943401 
L 248.466147 232.30468 
L 253.635247 232.455187 
L 258.804348 232.038161 
L 263.973448 231.619359 
L 269.142548 230.801921 
L 274.311649 230.282536 
L 279.480749 228.946099 
L 284.649849 229.186367 
L 289.81895 229.114397 
L 294.98805 229.085134 
L 300.15715 228.604711 
L 305.326251 226.218499 
L 310.495351 226.091778 
L 315.664451 225.326556 
L 320.833552 225.333787 
L 326.002652 225.57656 
L 331.171752 225.762745 
L 336.340853 225.991163 
L 341.509953 224.333665 
L 346.679053 223.644653 
L 351.848154 222.696272 
" clip-path="url(#p3103aa087f)" style="fill: none; stroke: #008000; stroke-width: 1.5; stroke-linecap: square"/>
   </g>
   <g id="line2d_22">
    <path d="M 68.064545 236.001074 
L 72.716736 258.404287 
L 77.885836 268.471308 
L 83.054936 273.706645 
L 88.224037 277.525501 
L 93.393137 280.550979 
L 98.562237 283.044526 
L 103.731338 285.058553 
L 108.900438 286.662892 
L 114.069538 288.062466 
L 119.238639 289.271863 
L 124.407739 290.259552 
L 129.576839 291.063475 
L 134.74594 291.815085 
L 139.91504 292.439757 
L 145.08414 293.00994 
L 150.253241 293.493142 
L 155.422341 293.952805 
L 160.591441 294.38851 
L 165.760542 294.794663 
L 170.929642 295.168584 
L 176.098742 295.522533 
L 181.267843 295.846796 
L 186.436943 296.162527 
L 191.606043 296.432922 
L 196.775144 296.685671 
L 201.944244 296.922216 
L 207.113344 297.150131 
L 212.282445 297.363533 
L 217.451545 297.56489 
L 222.620645 297.762651 
L 227.789746 297.944126 
L 232.958846 298.107103 
L 238.127946 298.267152 
L 243.297047 298.42884 
L 248.466147 298.581544 
L 253.635247 298.731102 
L 258.804348 298.878154 
L 263.973448 299.016444 
L 269.142548 299.143013 
L 274.311649 299.263736 
L 279.480749 299.373037 
L 284.649849 299.481173 
L 289.81895 299.57985 
L 294.98805 299.676505 
L 300.15715 299.76846 
L 305.326251 299.848423 
L 310.495351 299.924 
L 315.664451 299.995261 
L 320.833552 300.064827 
L 326.002652 300.133389 
L 331.171752 300.200292 
L 336.340853 300.265759 
L 341.509953 300.323985 
L 346.679053 300.377594 
L 351.848154 300.427203 
" clip-path="url(#p3103aa087f)" style="fill: none; stroke-dasharray: 5.55,2.4; stroke-dashoffset: 0; stroke: #008000; stroke-width: 1.5"/>
   </g>
   <g id="line2d_23">
    <path d="M 53.1 68.574364 
L 382.32 68.574364 
" clip-path="url(#p3103aa087f)" style="fill: none; stroke: #000000; stroke-width: 1.5; stroke-linecap: square"/>
   </g>
   <g id="line2d_24">
    <path d="M 53.1 54.684 
L 382.32 54.684 
" clip-path="url(#p3103aa087f)" style="fill: none; stroke: #000000; stroke-width: 1.5; stroke-linecap: square"/>
   </g>
   <g id="patch_3">
    <path d="M 53.1 313.992 
L 53.1 42.336 
" style="fill: none; stroke: #000000; stroke-width: 0.8; stroke-linejoin: miter; stroke-linecap: square"/>
   </g>
   <g id="patch_4">
    <path d="M 382.32 313.992 
L 382.32 42.336 
" style="fill: none; stroke: #000000; stroke-width: 0.8; stroke-linejoin: miter; stroke-linecap: square"/>
   </g>
   <g id="patch_5">
    <path d="M 53.1 313.992 
L 382.32 313.992 
" style="fill: none; stroke: #000000; stroke-width: 0.8; stroke-linejoin: miter; stroke-linecap: square"/>
   </g>
   <g id="patch_6">
    <path d="M 53.1 42.336 
L 382.32 42.336 
" style="fill: none; stroke: #000000; stroke-width: 0.8; stroke-linejoin: miter; stroke-linecap: square"/>
   </g>
  </g>
 </g>
 <defs>
  <clipPath id="p3103aa087f">
   <rect x="53.1" y="42.336" width="329.22" height="271.656"/>
  </clipPath>
 </defs>
</svg>
